<?xml version="1.0"?>
<svg version="1.1" xmlns="http://www.w3.org/2000/svg" xmlns:xlink="http://www.w3.org/1999/xlink" width="1920" height="1080">
    <desc iVinci="yes" version="4.6" gridStep="20" showGrid="no" snapToGrid="no" codePlatform="0"/>
    <g id="Layer1" name="bg" opacity="1"/>
    <g id="Layer2" name="Layer 2" opacity="1">
        <g id="Shape1">
            <desc shapeID="1" type="0" basicInfo-basicType="0" basicInfo-roundedRectRadius="12" basicInfo-polygonSides="6" basicInfo-starPoints="5" bounding="rect(-19.6286,-11.1476,39.2573,22.2955)" text="" font-familyName="Helvetica" font-pixelSize="20" font-bold="0" font-underline="0" font-alignment="1" strokeStyle="0" markerStart="0" markerEnd="0" shadowEnabled="0" shadowOffsetX="0" shadowOffsetY="2" shadowBlur="4" shadowOpacity="160" blurEnabled="0" blurRadius="4" transform="matrix(0.275608,0,-0.0161732,0.27481,932.933,482.903)" pers-center="0,0" pers-size="0,0" pers-start="0,0" pers-end="0,0" locked="0" mesh="" flag=""/>
            <path id="shapePath1" d="M927.644,481.488 C927.45,480.812 928.417,479.76 929.125,479.844 C930.868,480.051 932.137,481.53 933.727,482.211 C934.979,482.747 936.638,482.566 937.627,483.485 C938.209,484.026 938.538,485.838 937.719,485.922 C935.175,486.184 932.658,485.234 930.381,484.232 C929.188,483.707 928.003,482.744 927.644,481.488 Z" style="stroke:none;fill-rule:evenodd;fill:#ffffff;fill-opacity:1;"/>
        </g>
        <g id="Shape2">
            <desc shapeID="2" type="0" basicInfo-basicType="0" basicInfo-roundedRectRadius="12" basicInfo-polygonSides="6" basicInfo-starPoints="5" bounding="rect(-0.0840763,-0.0139364,0.168132,0.0278863)" text="" font-familyName="Helvetica" font-pixelSize="20" font-bold="0" font-underline="0" font-alignment="1" strokeStyle="0" markerStart="0" markerEnd="0" shadowEnabled="0" shadowOffsetX="0" shadowOffsetY="2" shadowBlur="4" shadowOpacity="160" blurEnabled="0" blurRadius="4" transform="matrix(0.275608,0,-0.0161732,0.27481,945.034,490.023)" pers-center="0,0" pers-size="0,0" pers-start="0,0" pers-end="0,0" locked="0" mesh="" flag=""/>
            <path id="shapePath2" d="M945.011,490.02 C945.114,490.037 945.011,490.02 945.011,490.02 Z" style="stroke:none;fill-rule:evenodd;fill:#ffffff;fill-opacity:1;"/>
        </g>
        <g id="Shape3">
            <desc shapeID="3" type="0" basicInfo-basicType="0" basicInfo-roundedRectRadius="12" basicInfo-polygonSides="6" basicInfo-starPoints="5" bounding="rect(-13.27,-18.3879,26.5401,36.7759)" text="" font-familyName="Helvetica" font-pixelSize="20" font-bold="0" font-underline="0" font-alignment="1" strokeStyle="0" markerStart="0" markerEnd="0" shadowEnabled="0" shadowOffsetX="0" shadowOffsetY="2" shadowBlur="4" shadowOpacity="160" blurEnabled="0" blurRadius="4" transform="matrix(0.275608,0,-0.0161732,0.27481,948.159,493.327)" pers-center="0,0" pers-size="0,0" pers-start="0,0" pers-end="0,0" locked="0" mesh="" flag=""/>
            <path id="shapePath3" d="M944.973,489.795 C945.468,490.416 946.736,490.228 947.072,490.953 C947.579,492.051 947.079,493.427 947.217,494.646 C947.345,495.788 947.361,497.004 947.868,498.015 C948.045,498.369 948.671,498.479 949.04,498.286 C949.484,498.054 949.811,497.486 949.812,496.999 C949.814,495.987 949.14,495.107 949.049,494.104 C948.982,493.382 948.79,492.428 949.347,491.921 C949.831,491.479 950.658,492.406 951.237,492.107 C951.719,491.858 952.144,491.052 951.868,490.617 C951.35,489.8 950.25,489.535 949.357,489.144 C948.676,488.846 947.927,488.694 947.184,488.569 C946.486,488.451 945.694,488.065 945.053,488.421 C944.642,488.649 944.695,489.446 944.973,489.795 Z" style="stroke:none;fill-rule:evenodd;fill:#ffffff;fill-opacity:1;"/>
        </g>
        <g id="Shape4">
            <desc shapeID="4" type="0" basicInfo-basicType="0" basicInfo-roundedRectRadius="12" basicInfo-polygonSides="6" basicInfo-starPoints="5" bounding="rect(-18.1688,-9.45462,36.3378,18.9093)" text="" font-familyName="Helvetica" font-pixelSize="20" font-bold="0" font-underline="0" font-alignment="1" strokeStyle="0" markerStart="0" markerEnd="0" shadowEnabled="0" shadowOffsetX="0" shadowOffsetY="2" shadowBlur="4" shadowOpacity="160" blurEnabled="0" blurRadius="4" transform="matrix(0.275608,0,-0.0161732,0.27481,960.639,492.469)" pers-center="0,0" pers-size="0,0" pers-start="0,0" pers-end="0,0" locked="0" mesh="" flag=""/>
            <path id="shapePath4" d="M956.126,489.998 C954.858,490.457 957.12,492.53 958.174,493.269 C959.654,494.307 961.499,494.954 963.349,495.064 C964.184,495.114 965.251,494.507 965.549,493.708 C965.767,493.125 964.904,492.616 964.347,492.392 C963.469,492.039 962.398,492.338 961.485,492.073 C959.638,491.535 957.999,489.321 956.126,489.998 Z" style="stroke:none;fill-rule:evenodd;fill:#ffffff;fill-opacity:1;"/>
        </g>
        <g id="Shape5">
            <desc shapeID="5" type="0" basicInfo-basicType="0" basicInfo-roundedRectRadius="12" basicInfo-polygonSides="6" basicInfo-starPoints="5" bounding="rect(-21.9965,-6.39041,43.9927,12.7808)" text="" font-familyName="Helvetica" font-pixelSize="20" font-bold="0" font-underline="0" font-alignment="1" strokeStyle="0" markerStart="0" markerEnd="0" shadowEnabled="0" shadowOffsetX="0" shadowOffsetY="2" shadowBlur="4" shadowOpacity="160" blurEnabled="0" blurRadius="4" transform="matrix(0.275608,0,-0.0161732,0.27481,1008.49,516.436)" pers-center="0,0" pers-size="0,0" pers-start="0,0" pers-end="0,0" locked="0" mesh="" flag=""/>
            <path id="shapePath5" d="M1002.54,515.18 C1002.24,515.884 1003.22,516.54 1003.81,516.964 C1004.39,517.375 1005.17,517.488 1005.89,517.558 C1007.37,517.702 1008.89,517.499 1010.38,517.604 C1011.49,517.682 1012.57,518.443 1013.65,518.107 C1014.25,517.921 1014.84,516.715 1014.35,516.369 C1013.04,515.44 1011.21,515.503 1009.6,515.226 C1008.01,514.953 1006.4,514.734 1004.77,514.723 C1004.02,514.718 1002.84,514.479 1002.54,515.18 Z" style="stroke:none;fill-rule:evenodd;fill:#ffffff;fill-opacity:1;"/>
        </g>
        <g id="Shape6">
            <desc shapeID="6" type="0" basicInfo-basicType="0" basicInfo-roundedRectRadius="12" basicInfo-polygonSides="6" basicInfo-starPoints="5" bounding="rect(-14.5595,-7.87543,29.1191,15.751)" text="" font-familyName="Helvetica" font-pixelSize="20" font-bold="0" font-underline="0" font-alignment="1" strokeStyle="0" markerStart="0" markerEnd="0" shadowEnabled="0" shadowOffsetX="0" shadowOffsetY="2" shadowBlur="4" shadowOpacity="160" blurEnabled="0" blurRadius="4" transform="matrix(0.275608,0,-0.0161732,0.27481,1009.3,523.058)" pers-center="0,0" pers-size="0,0" pers-start="0,0" pers-end="0,0" locked="0" mesh="" flag=""/>
            <path id="shapePath6" d="M1005.36,521.856 C1005.37,521.031 1006.88,520.869 1007.71,520.896 C1009.33,520.949 1011.09,521.148 1012.36,522.085 C1013.15,522.662 1013.39,523.937 1013.16,524.92 C1013.05,525.401 1012.09,525.224 1011.69,524.966 C1011.29,524.71 1011.5,524.074 1011.04,523.929 C1009.96,523.581 1008.78,524.021 1007.68,523.685 C1006.73,523.393 1005.35,522.867 1005.36,521.856 Z" style="stroke:none;fill-rule:evenodd;fill:#ffffff;fill-opacity:1;"/>
        </g>
        <g id="Shape7">
            <desc shapeID="7" type="0" basicInfo-basicType="0" basicInfo-roundedRectRadius="12" basicInfo-polygonSides="6" basicInfo-starPoints="5" bounding="rect(-17.1228,-6.99918,34.2455,13.9985)" text="" font-familyName="Helvetica" font-pixelSize="20" font-bold="0" font-underline="0" font-alignment="1" strokeStyle="0" markerStart="0" markerEnd="0" shadowEnabled="0" shadowOffsetX="0" shadowOffsetY="2" shadowBlur="4" shadowOpacity="160" blurEnabled="0" blurRadius="4" transform="matrix(0.275608,0,-0.0161732,0.27481,1008.99,531.888)" pers-center="0,0" pers-size="0,0" pers-start="0,0" pers-end="0,0" locked="0" mesh="" flag=""/>
            <path id="shapePath7" d="M1004.36,530.931 C1004.12,530.116 1005.96,530.014 1006.83,529.97 C1008,529.909 1009.12,530.366 1010.25,530.631 C1011.26,530.868 1012.48,530.794 1013.25,531.472 C1013.73,531.904 1013.8,532.875 1013.43,533.456 C1013.14,533.923 1012.34,533.832 1011.82,533.726 C1011.42,533.645 1011.31,533.002 1010.9,532.945 C1009.87,532.8 1008.74,533.458 1007.75,533.155 C1006.45,532.753 1004.74,532.24 1004.36,530.931 Z" style="stroke:none;fill-rule:evenodd;fill:#ffffff;fill-opacity:1;"/>
        </g>
        <g id="Shape8">
            <desc shapeID="8" type="0" basicInfo-basicType="0" basicInfo-roundedRectRadius="12" basicInfo-polygonSides="6" basicInfo-starPoints="5" bounding="rect(-21.0621,-5.99108,42.1244,11.9821)" text="" font-familyName="Helvetica" font-pixelSize="20" font-bold="0" font-underline="0" font-alignment="1" strokeStyle="0" markerStart="0" markerEnd="0" shadowEnabled="0" shadowOffsetX="0" shadowOffsetY="2" shadowBlur="4" shadowOpacity="160" blurEnabled="0" blurRadius="4" transform="matrix(0.275608,0,-0.0161732,0.27481,877.835,493.143)" pers-center="0,0" pers-size="0,0" pers-start="0,0" pers-end="0,0" locked="0" mesh="" flag=""/>
            <path id="shapePath8" d="M875.413,494.262 C874.645,494.402 873.899,494.943 873.163,494.747 C872.546,494.583 871.76,493.772 872.088,493.196 C872.646,492.215 874.199,491.857 875.302,491.695 C876.974,491.449 878.323,491.83 879.987,492.033 C880.839,492.138 881.818,491.205 882.568,491.59 C883.273,491.953 883.985,493.176 883.438,493.806 C882.612,494.757 881.054,494.747 879.828,494.747 C879.221,494.747 878.654,494.172 878.06,494.082 C877.112,493.939 876.374,494.087 875.413,494.262 Z" style="stroke:none;fill-rule:evenodd;fill:#ffffff;fill-opacity:1;"/>
        </g>
        <g id="Shape9">
            <desc shapeID="9" type="0" basicInfo-basicType="0" basicInfo-roundedRectRadius="12" basicInfo-polygonSides="6" basicInfo-starPoints="5" bounding="rect(-16.7496,-5.93894,33.4992,11.8779)" text="" font-familyName="Helvetica" font-pixelSize="20" font-bold="0" font-underline="0" font-alignment="1" strokeStyle="0" markerStart="0" markerEnd="0" shadowEnabled="0" shadowOffsetX="0" shadowOffsetY="2" shadowBlur="4" shadowOpacity="160" blurEnabled="0" blurRadius="4" transform="matrix(0.275608,0,-0.0161732,0.27481,874.826,499.772)" pers-center="0,0" pers-size="0,0" pers-start="0,0" pers-end="0,0" locked="0" mesh="" flag=""/>
            <path id="shapePath9" d="M870.295,500.064 C871.387,499.187 872.816,498.805 874.163,498.513 C874.759,498.384 875.317,498.895 875.921,498.845 C876.713,498.781 877.495,497.95 878.237,498.181 C878.888,498.383 879.825,499.413 879.302,499.897 C878.124,500.99 876.324,501.101 874.771,501.393 C874.294,501.483 873.884,501.03 873.406,501.005 C872.553,500.961 871.638,501.431 870.832,501.187 C870.431,501.066 869.953,500.338 870.295,500.064 Z" style="stroke:none;fill-rule:evenodd;fill:#ffffff;fill-opacity:1;"/>
        </g>
        <g id="Shape10">
            <desc shapeID="10" type="0" basicInfo-basicType="0" basicInfo-roundedRectRadius="12" basicInfo-polygonSides="6" basicInfo-starPoints="5" bounding="rect(-23.2997,-6.30206,46.5994,12.6043)" text="" font-familyName="Helvetica" font-pixelSize="20" font-bold="0" font-underline="0" font-alignment="1" strokeStyle="0" markerStart="0" markerEnd="0" shadowEnabled="0" shadowOffsetX="0" shadowOffsetY="2" shadowBlur="4" shadowOpacity="160" blurEnabled="0" blurRadius="4" transform="matrix(0.275608,0,-0.0161732,0.27481,870.349,507.751)" pers-center="0,0" pers-size="0,0" pers-start="0,0" pers-end="0,0" locked="0" mesh="" flag=""/>
            <path id="shapePath10" d="M864.048,507.851 C865.418,506.209 868.063,506.406 870.138,506.07 C871.215,505.895 872.287,506.216 873.353,506.342 C874.473,506.474 875.735,506.286 876.692,506.841 C877.036,507.041 876.558,507.826 876.17,507.976 C875.065,508.401 873.842,508.189 872.687,508.384 C870.883,508.688 869.1,509.585 867.298,509.473 C866.064,509.397 863.231,508.829 864.048,507.851 Z" style="stroke:none;fill-rule:evenodd;fill:#ffffff;fill-opacity:1;"/>
        </g>
        <g id="Shape11">
            <desc shapeID="11" type="0" basicInfo-basicType="0" basicInfo-roundedRectRadius="12" basicInfo-polygonSides="6" basicInfo-starPoints="5" bounding="rect(-327.936,-175.712,655.872,351.422)" text="" font-familyName="Helvetica" font-pixelSize="20" font-bold="0" font-underline="0" font-alignment="1" strokeStyle="0" markerStart="0" markerEnd="0" shadowEnabled="0" shadowOffsetX="0" shadowOffsetY="2" shadowBlur="4" shadowOpacity="160" blurEnabled="0" blurRadius="4" transform="matrix(0.275608,0,-0.0161732,0.27481,947.983,522.796)" pers-center="0,0" pers-size="0,0" pers-start="0,0" pers-end="0,0" locked="0" mesh="" flag=""/>
            <path id="shapePath11" d="M885.351,474.945 C885.214,474.013 883.35,474.795 882.487,475.254 C880.285,476.426 878.272,477.993 876.432,479.691 C875.091,480.927 874.112,482.502 873.038,483.969 C871.797,485.666 870.617,487.406 869.49,489.177 C867.022,493.054 864.351,496.833 862.257,500.908 C860.663,504.009 859.29,507.261 858.475,510.611 C857.935,512.835 858.31,515.133 858.251,517.393 C858.153,521.134 857.813,524.894 858.003,528.614 C858.17,531.877 858.487,535.158 859.319,538.281 C859.972,540.731 860.988,543.112 862.415,545.173 C864.472,548.147 866.59,551.301 869.66,553.229 C874.602,556.331 880.305,558.211 885.941,559.943 C889.622,561.074 893.662,560.93 897.438,561.766 C902.839,562.961 908.022,564.375 913.477,565.359 C917.69,566.118 922.104,566.392 926.331,566.994 C930.813,567.633 935.11,568.589 939.647,569.041 C947.334,569.809 955.183,570.624 962.926,570.965 C965.773,571.09 968.654,571.208 971.505,570.797 C980.121,569.557 988.695,567.853 997.239,566.023 C1000.96,565.226 1004.88,564.767 1008.26,562.924 C1012.76,560.471 1016.66,556.938 1020.39,553.4 C1022.98,550.946 1025.06,547.992 1027.09,545.075 C1029.29,541.92 1031.42,538.68 1033.07,535.228 C1034.89,531.407 1036.29,527.401 1037.44,523.363 C1038.2,520.722 1038.49,517.99 1038.77,515.285 C1038.99,513.095 1039.03,510.894 1038.97,508.71 C1038.9,506.597 1038.67,504.501 1038.39,502.417 C1038.21,501.022 1038.05,499.603 1037.6,498.284 C1037.34,497.534 1036.89,496.838 1036.3,496.312 C1035.16,495.281 1033.97,493.002 1032.5,493.682 C1031.24,494.266 1033.61,496.103 1034.27,497.251 C1034.89,498.33 1036.13,499.107 1036.35,500.35 C1036.98,503.902 1036.9,507.598 1036.74,511.246 C1036.64,513.701 1036.04,516.141 1035.56,518.573 C1034.92,521.842 1034.47,525.167 1033.38,528.341 C1032.45,531.067 1030.94,533.597 1029.53,536.138 C1028.41,538.175 1027.07,540.098 1025.79,542.055 C1024.68,543.762 1023.62,545.506 1022.39,547.127 C1021.2,548.675 1020,550.242 1018.55,551.542 C1015.81,553.986 1012.9,556.251 1009.86,558.305 C1008.2,559.428 1006.4,560.383 1004.52,561.029 C1001.2,562.168 997.753,562.783 994.364,563.626 C990.54,564.577 986.714,565.52 982.878,566.413 C979.956,567.093 977.745,567.523 974.78,567.792 C973.608,567.899 971.9,567.494 970.728,567.517 C968.698,567.556 966.942,568.098 964.912,568.148 C963.11,568.191 961.151,567.932 959.364,567.792 C955.935,567.524 952.474,567.513 949.037,567.306 C945.71,567.106 942.372,566.962 939.074,566.573 C933.85,565.957 928.662,565.141 923.485,564.292 C918.36,563.453 913.28,562.419 908.171,561.511 C906.646,561.241 905.098,561.072 903.584,560.758 C900.539,560.127 897.54,559.335 894.502,558.677 C891.135,557.947 887.65,557.604 884.37,556.596 C881.06,555.578 877.913,554.129 874.82,552.625 C872.941,551.712 871.118,550.656 869.493,549.364 C867.68,547.923 865.796,546.439 864.568,544.473 C863.066,542.068 862.188,539.276 861.461,536.504 C860.676,533.511 860.163,530.408 860.06,527.278 C859.95,523.947 860.555,520.588 860.826,517.243 C860.998,515.112 861.222,512.982 861.39,510.85 C861.469,509.848 861.314,508.826 861.567,507.842 C861.866,506.681 862.449,505.59 863.02,504.521 C864.652,501.461 866.39,498.452 868.169,495.469 C869.856,492.643 871.625,489.862 873.414,487.095 C874.694,485.116 875.769,482.968 877.376,481.234 C878.923,479.565 880.962,478.434 882.748,477.026 C883.621,476.338 885.507,476 885.351,474.945 Z" style="stroke:none;fill-rule:evenodd;fill:#ffffff;fill-opacity:1;"/>
        </g>
        <g id="Shape12">
            <desc shapeID="12" type="0" basicInfo-basicType="0" basicInfo-roundedRectRadius="12" basicInfo-polygonSides="6" basicInfo-starPoints="5" bounding="rect(-122.197,-70.2725,244.393,140.543)" text="" font-familyName="Helvetica" font-pixelSize="20" font-bold="0" font-underline="0" font-alignment="1" strokeStyle="0" markerStart="0" markerEnd="0" shadowEnabled="0" shadowOffsetX="0" shadowOffsetY="2" shadowBlur="4" shadowOpacity="160" blurEnabled="0" blurRadius="4" transform="matrix(0.275608,0,0,0.313718,887.572,562.34)" pers-center="0,0" pers-size="0,0" pers-start="0,0" pers-end="0,0" locked="0" mesh="" flag=""/>
            <path id="shapePath12" d="M854.777,541.605 C854.093,542.87 853.819,544.47 853.911,545.952 C854.019,547.692 854.919,549.247 855.355,550.919 C856.119,553.851 856.729,556.833 857.511,559.758 C857.822,560.92 858.038,562.161 858.631,563.171 C859.427,564.523 860.622,565.508 861.594,566.701 C863.051,568.489 864.191,570.67 865.917,572.114 C867.496,573.435 869.469,574.008 871.296,574.816 C872.948,575.546 874.612,576.277 876.34,576.721 C878.776,577.348 881.31,577.394 883.747,578.019 C885.603,578.495 887.326,579.521 889.179,580.014 C890.916,580.477 892.722,580.511 894.478,580.876 C896.566,581.31 898.63,581.884 900.703,582.408 C903.173,583.033 905.59,584 908.105,584.323 C909.862,584.548 911.636,584.091 913.404,584.035 C915.675,583.964 918.018,584.586 920.218,583.94 C920.922,583.733 921.359,582.552 921.227,581.738 C921.104,580.978 920.305,580.365 919.629,580.301 C917.44,580.096 915.26,581.11 913.068,580.971 C908.637,580.693 904.256,579.756 899.861,579.057 C897.131,578.622 894.402,578.155 891.693,577.568 C890.473,577.304 889.292,576.845 888.085,576.508 C886.74,576.133 885.394,575.756 884.039,575.431 C880.683,574.626 877.248,574.203 873.954,573.12 C871.672,572.37 869.373,571.452 867.393,569.961 C865.739,568.715 864.64,566.71 863.271,565.077 C862.291,563.909 861.052,562.959 860.345,561.558 C859.3,559.484 858.741,557.131 858.114,554.849 C857.633,553.093 857.521,551.222 857.029,549.47 C856.63,548.048 855.49,546.858 855.454,545.366 C855.414,543.692 857.109,542.226 856.814,540.585 C856.665,539.757 855.166,540.886 854.777,541.605 Z" style="stroke:none;fill-rule:evenodd;fill:#ffffff;fill-opacity:1;"/>
        </g>
        <g id="Shape13">
            <desc shapeID="13" type="0" basicInfo-basicType="0" basicInfo-roundedRectRadius="12" basicInfo-polygonSides="6" basicInfo-starPoints="5" bounding="rect(-8.32687,-24.3177,16.6539,48.6354)" text="" font-familyName="Helvetica" font-pixelSize="20" font-bold="0" font-underline="0" font-alignment="1" strokeStyle="0" markerStart="0" markerEnd="0" shadowEnabled="0" shadowOffsetX="0" shadowOffsetY="2" shadowBlur="4" shadowOpacity="160" blurEnabled="0" blurRadius="4" transform="matrix(0.275608,0,0,0.313718,924.38,573.504)" pers-center="0,0" pers-size="0,0" pers-start="0,0" pers-end="0,0" locked="0" mesh="" flag=""/>
            <path id="shapePath13" d="M922.123,579.533 C921.944,578.055 922.435,576.564 922.729,575.11 C923.075,573.398 923.694,571.767 924.041,570.055 C924.285,568.849 923.826,567.354 924.495,566.379 C924.92,565.76 926.292,565.657 926.564,566.379 C926.992,567.514 926.057,568.783 925.858,569.997 C925.569,571.752 925.48,573.55 925.101,575.282 C924.673,577.23 924.543,579.433 923.444,581.003 C923.06,581.551 922.207,580.227 922.123,579.533 Z" style="stroke:none;fill-rule:evenodd;fill:#ffffff;fill-opacity:1;"/>
        </g>
        <g id="Shape14">
            <desc shapeID="14" type="0" basicInfo-basicType="0" basicInfo-roundedRectRadius="12" basicInfo-polygonSides="6" basicInfo-starPoints="5" bounding="rect(-20.5581,-28.4798,41.1161,56.9595)" text="" font-familyName="Helvetica" font-pixelSize="20" font-bold="0" font-underline="0" font-alignment="1" strokeStyle="0" markerStart="0" markerEnd="0" shadowEnabled="0" shadowOffsetX="0" shadowOffsetY="2" shadowBlur="4" shadowOpacity="160" blurEnabled="0" blurRadius="4" transform="matrix(0.275608,0,0,0.313718,931.592,575.35)" pers-center="0,0" pers-size="0,0" pers-start="0,0" pers-end="0,0" locked="0" mesh="" flag=""/>
            <path id="shapePath14" d="M926.565,581.421 C928.55,580.355 930.895,580.427 932.918,579.46 C933.733,579.07 934.708,578.426 934.888,577.441 C935,576.826 933.85,576.933 933.46,576.489 C932.974,575.935 932.703,575.181 932.327,574.527 C931.866,573.724 930.767,573.052 930.948,572.116 C931.124,571.208 932.713,571.553 933.066,570.715 C933.555,569.551 932.526,567.912 933.164,566.847 C933.563,566.181 934.92,566.323 935.282,567.015 C935.742,567.894 934.927,569.024 934.839,570.042 C934.763,570.916 935.113,571.879 934.789,572.677 C934.555,573.256 933.201,573.075 933.361,573.686 C933.604,574.615 934.834,574.679 935.479,575.311 C936.139,575.958 937.351,576.512 937.252,577.498 C937.114,578.869 935.918,579.881 934.937,580.693 C933.872,581.574 932.52,581.885 931.293,582.431 C929.827,583.082 928.422,584.053 926.861,584.28 C926.425,584.344 925.99,583.706 925.939,583.209 C925.873,582.572 926.056,581.695 926.565,581.421 Z" style="stroke:none;fill-rule:evenodd;fill:#ffffff;fill-opacity:1;"/>
        </g>
        <g id="Shape15">
            <desc shapeID="15" type="0" basicInfo-basicType="0" basicInfo-roundedRectRadius="12" basicInfo-polygonSides="6" basicInfo-starPoints="5" bounding="rect(-78.4064,-30.5057,156.813,61.0113)" text="" font-familyName="Helvetica" font-pixelSize="20" font-bold="0" font-underline="0" font-alignment="1" strokeStyle="0" markerStart="0" markerEnd="0" shadowEnabled="0" shadowOffsetX="0" shadowOffsetY="2" shadowBlur="4" shadowOpacity="160" blurEnabled="0" blurRadius="4" transform="matrix(0.275608,0,0,0.313718,1031.89,581.67)" pers-center="0,0" pers-size="0,0" pers-start="0,0" pers-end="0,0" locked="0" mesh="" flag=""/>
            <path id="shapePath15" d="M1010.42,579.16 C1012.89,581.832 1016.32,583.11 1019.5,584.509 C1020.46,584.929 1021.39,585.238 1022.37,585.551 C1023.48,585.902 1024.48,586.053 1025.58,586.434 C1027.47,587.089 1029.46,587.208 1031.41,587.576 C1033.74,588.017 1036.07,588.551 1038.42,588.859 C1039.17,588.957 1040.89,589.522 1041.61,589.746 C1043.39,590.296 1044.02,591.609 1045.82,591.141 C1047.38,590.736 1047.89,588.333 1048.64,586.72 C1050.39,582.912 1052.04,579.017 1053.27,574.953 C1053.53,574.094 1053.71,572.704 1053.02,572.243 C1052.34,571.783 1051.2,572.51 1050.83,573.312 C1049.2,576.863 1048.78,581.006 1047.32,584.651 C1046.8,585.959 1046,587.232 1044.94,588.003 C1044.44,588.366 1043.74,588.081 1043.19,587.854 C1041.98,587.364 1040.93,586.711 1039.68,586.434 C1038.38,586.15 1037.03,586.228 1035.73,586.007 C1032.68,585.486 1029.67,584.624 1026.71,583.653 C1024.8,583.027 1023.49,583.126 1021.57,582.511 C1020.73,582.239 1019.32,581.369 1018.5,581.014 C1016.68,580.23 1015.27,578.314 1013.36,577.877 C1012.33,577.64 1009.66,578.337 1010.42,579.16 Z" style="stroke:none;fill-rule:evenodd;fill:#ffffff;fill-opacity:1;"/>
        </g>
        <g id="Shape16">
            <desc shapeID="16" type="0" basicInfo-basicType="0" basicInfo-roundedRectRadius="12" basicInfo-polygonSides="6" basicInfo-starPoints="5" bounding="rect(-83.134,-72.5199,166.27,145.039)" text="" font-familyName="Helvetica" font-pixelSize="20" font-bold="0" font-underline="0" font-alignment="1" strokeStyle="0" markerStart="0" markerEnd="0" shadowEnabled="0" shadowOffsetX="0" shadowOffsetY="2" shadowBlur="4" shadowOpacity="160" blurEnabled="0" blurRadius="4" transform="matrix(0.275608,0,0,0.313718,1043.19,572.84)" pers-center="0,0" pers-size="0,0" pers-start="0,0" pers-end="0,0" locked="0" mesh="" flag=""/>
            <path id="shapePath16" d="M1022.54,552.495 C1025.76,553.335 1028.86,554.731 1031.99,555.934 C1034.99,557.086 1037.94,558.413 1040.94,559.56 C1043.23,560.434 1045.58,561.091 1047.86,561.998 C1048.99,562.448 1050.14,562.906 1051.16,563.624 C1053.47,565.252 1055.57,567.243 1057.8,569 C1058.94,569.89 1060.08,570.758 1061.26,571.564 C1062.1,572.134 1063.35,572.17 1063.84,573.127 C1064.17,573.764 1063.68,574.788 1063.13,575.19 C1061.67,576.264 1059.94,576.809 1058.24,577.253 C1057.35,577.487 1056.34,576.777 1055.5,577.19 C1054.92,577.476 1054.35,578.387 1054.56,579.066 C1055,580.505 1056.21,581.479 1057.14,582.567 C1057.87,583.414 1058.72,584.123 1059.54,584.849 C1060.17,585.408 1060.86,585.699 1061.04,586.588 C1061.23,587.551 1061.13,588.579 1060.39,589.094 C1058.51,590.406 1056.16,590.578 1054.12,591.554 C1053.49,591.858 1053.08,592.622 1052.44,592.906 C1051.72,593.224 1050.92,593.439 1050.16,593.312 C1049.39,593.184 1048.84,592.176 1048.07,592.176 C1047.61,592.176 1046.9,592.852 1047.12,593.312 C1047.63,594.397 1048.6,595.522 1049.68,595.583 C1051.79,595.701 1053.79,594.489 1055.81,593.798 C1057.48,593.226 1059.25,592.81 1060.75,591.798 C1061.83,591.071 1062.77,589.976 1063.36,588.716 C1063.94,587.489 1064.77,585.796 1064.1,584.633 C1063.06,582.821 1060.69,582.67 1059.16,581.389 C1058.74,581.037 1057.96,580.201 1058.38,579.847 C1059.73,578.705 1061.73,579.005 1063.17,578.009 C1064.17,577.32 1064.99,576.194 1065.44,574.97 C1065.96,573.585 1066.3,571.956 1065.98,570.494 C1065.84,569.825 1064.85,570.007 1064.3,569.716 C1063.5,569.294 1062.71,568.849 1061.94,568.357 C1059.01,566.477 1056.15,564.465 1053.22,562.6 C1051.9,561.765 1050.58,560.939 1049.2,560.259 C1047.18,559.264 1045.12,558.377 1043.03,557.58 C1040.35,556.554 1037.58,555.793 1034.89,554.794 C1032.91,554.06 1030.98,553.131 1029.01,552.383 C1027.01,551.63 1024.97,551.075 1022.98,550.294 C1020.85,549.453 1018.37,551.409 1022.54,552.495 Z" style="stroke:none;fill-rule:evenodd;fill:#ffffff;fill-opacity:1;"/>
        </g>
        <g id="Shape17">
            <desc shapeID="17" type="0" basicInfo-basicType="0" basicInfo-roundedRectRadius="12" basicInfo-polygonSides="6" basicInfo-starPoints="5" bounding="rect(-28.3471,-32.9454,56.6942,65.8909)" text="" font-familyName="Helvetica" font-pixelSize="20" font-bold="0" font-underline="0" font-alignment="1" strokeStyle="0" markerStart="0" markerEnd="0" shadowEnabled="0" shadowOffsetX="0" shadowOffsetY="2" shadowBlur="4" shadowOpacity="160" blurEnabled="0" blurRadius="4" transform="matrix(0.275608,0,-0.0161732,0.27481,901.315,457.623)" pers-center="0,0" pers-size="0,0" pers-start="0,0" pers-end="0,0" locked="0" mesh="" flag=""/>
            <path id="shapePath17" d="M894.563,466.525 C895.197,467.184 896.556,465.538 896.75,464.608 C897.069,463.083 896.045,461.642 895.901,460.118 C895.779,458.82 895.91,457.496 895.956,456.183 C896,454.927 895.851,453.647 896.17,452.415 C896.239,452.148 896.744,452.103 896.978,452.23 C898.16,452.873 899.181,453.766 900.214,454.617 C901.226,455.449 902.118,456.415 903.107,457.273 C903.592,457.694 904.108,458.041 904.394,458.619 C904.729,459.298 904.602,460.026 904.826,460.754 C905.054,461.497 905.482,462.168 905.961,462.771 C906.391,463.314 906.803,464.213 907.518,464.149 C908.201,464.088 908.774,463.195 908.839,462.515 C908.907,461.809 908.168,461.31 907.849,460.697 C907.417,459.865 907.002,459.024 906.587,458.183 C906.158,457.314 906.031,456.216 905.316,455.569 C903.439,453.87 901.027,452.839 898.999,451.316 C898.041,450.596 897.44,449.433 896.383,448.859 C895.845,448.568 894.915,448.381 894.501,448.875 C893.855,449.645 894.047,450.801 893.935,451.774 C893.733,453.531 893.621,455.294 893.561,457.054 C893.512,458.486 893.46,459.927 893.609,461.34 C893.795,463.095 893.365,465.278 894.563,466.525 Z" style="stroke:none;fill-rule:evenodd;fill:#ffffff;fill-opacity:1;"/>
        </g>
        <g id="Shape18">
            <desc shapeID="18" type="0" basicInfo-basicType="0" basicInfo-roundedRectRadius="12" basicInfo-polygonSides="6" basicInfo-starPoints="5" bounding="rect(-40.6617,-28.9925,81.3236,57.9853)" text="" font-familyName="Helvetica" font-pixelSize="20" font-bold="0" font-underline="0" font-alignment="1" strokeStyle="0" markerStart="0" markerEnd="0" shadowEnabled="0" shadowOffsetX="0" shadowOffsetY="2" shadowBlur="4" shadowOpacity="160" blurEnabled="0" blurRadius="4" transform="matrix(0.275608,0,-0.0161732,0.27481,1018.99,475.976)" pers-center="0,0" pers-size="0,0" pers-start="0,0" pers-end="0,0" locked="0" mesh="" flag=""/>
            <path id="shapePath18" d="M1009.18,477.007 C1008.45,477.741 1007.22,478.859 1007.69,479.726 C1008.1,480.493 1009.54,479.605 1010.34,479.162 C1012.04,478.223 1013.35,476.646 1015.03,475.673 C1016.62,474.75 1018.36,474.105 1020.09,473.518 C1022.31,472.768 1024.55,472.053 1026.84,471.671 C1027.21,471.609 1027.84,471.862 1027.78,472.236 C1027.51,473.914 1026.4,475.406 1025.96,477.058 C1025.47,478.878 1025.01,480.744 1025.01,482.599 C1025.01,483.159 1025.41,483.833 1025.96,483.933 C1026.46,484.025 1027.07,483.499 1027.25,483.009 C1027.8,481.532 1027.72,479.924 1028.04,478.392 C1028.2,477.612 1028.46,476.851 1028.69,476.083 C1029.27,474.114 1030.1,472.191 1030.48,470.183 C1030.6,469.508 1030.72,468.573 1030.18,468.183 C1029.61,467.769 1028.72,468.197 1028.01,468.388 C1025.65,469.022 1023.37,469.922 1021.03,470.645 C1019.23,471.205 1017.32,471.442 1015.59,472.236 C1014.65,472.665 1014.04,473.617 1013.21,474.236 C1011.9,475.21 1010.34,475.858 1009.18,477.007 Z" style="stroke:none;fill-rule:evenodd;fill:#ffffff;fill-opacity:1;"/>
        </g>
        <g id="Shape19">
            <desc shapeID="19" type="0" basicInfo-basicType="0" basicInfo-roundedRectRadius="12" basicInfo-polygonSides="6" basicInfo-starPoints="5" bounding="rect(0,0,0,0)" text="" font-familyName="Helvetica" font-pixelSize="20" font-bold="0" font-underline="0" font-alignment="1" strokeStyle="0" markerStart="0" markerEnd="0" shadowEnabled="0" shadowOffsetX="0" shadowOffsetY="2" shadowBlur="4" shadowOpacity="160" blurEnabled="0" blurRadius="4" transform="matrix(0.401639,0,0,0.457176,920.816,608.829)" pers-center="0,0" pers-size="0,0" pers-start="0,0" pers-end="0,0" locked="0" mesh="" flag=""/>
            <path id="shapePath19" d="M920.816,608.829 Z" style="stroke:none;fill-rule:evenodd;fill:#ffffff;fill-opacity:1;"/>
        </g>
        <g id="Shape20">
            <desc shapeID="20" type="0" basicInfo-basicType="0" basicInfo-roundedRectRadius="12" basicInfo-polygonSides="6" basicInfo-starPoints="5" bounding="rect(0,0,0,0)" text="" font-familyName="Helvetica" font-pixelSize="20" font-bold="0" font-underline="0" font-alignment="1" strokeStyle="0" markerStart="0" markerEnd="0" shadowEnabled="0" shadowOffsetX="0" shadowOffsetY="2" shadowBlur="4" shadowOpacity="160" blurEnabled="0" blurRadius="4" transform="matrix(0.275608,0,0,0.313718,969.44,591.17)" pers-center="0,0" pers-size="0,0" pers-start="0,0" pers-end="0,0" locked="0" mesh="" flag=""/>
            <path id="shapePath20" d="M969.44,591.17 Z" style="stroke:none;fill-rule:evenodd;fill:#ffffff;fill-opacity:1;"/>
        </g>
        <g id="Shape21">
            <desc shapeID="21" type="0" basicInfo-basicType="0" basicInfo-roundedRectRadius="12" basicInfo-polygonSides="6" basicInfo-starPoints="5" bounding="rect(0,0,0,0)" text="" font-familyName="Helvetica" font-pixelSize="20" font-bold="0" font-underline="0" font-alignment="1" strokeStyle="0" markerStart="0" markerEnd="0" shadowEnabled="0" shadowOffsetX="0" shadowOffsetY="2" shadowBlur="4" shadowOpacity="160" blurEnabled="0" blurRadius="4" transform="matrix(0.338605,0,0,0.385426,979.635,597.087)" pers-center="0,0" pers-size="0,0" pers-start="0,0" pers-end="0,0" locked="0" mesh="" flag=""/>
            <path id="shapePath21" d="M979.636,597.087 Z" style="stroke:none;fill-rule:evenodd;fill:#ffffff;fill-opacity:1;"/>
        </g>
        <g id="Shape22">
            <desc shapeID="22" type="0" basicInfo-basicType="0" basicInfo-roundedRectRadius="12" basicInfo-polygonSides="6" basicInfo-starPoints="5" bounding="rect(-173.233,-38.4754,346.467,76.9509)" text="" font-familyName="Helvetica" font-pixelSize="20" font-bold="0" font-underline="0" font-alignment="1" strokeStyle="0" markerStart="0" markerEnd="0" shadowEnabled="0" shadowOffsetX="0" shadowOffsetY="2" shadowBlur="4" shadowOpacity="160" blurEnabled="0" blurRadius="4" transform="matrix(0.275608,0,-0.0161732,0.27481,957.58,470.55)" pers-center="0,0" pers-size="0,0" pers-start="0,0" pers-end="0,0" locked="0" mesh="" flag=""/>
            <path id="shapePath22" d="M910.261,465.007 C911.081,465.987 912.755,465.827 914.07,465.862 C915.442,465.899 916.807,465.37 918.182,465.221 C923.379,464.657 928.588,464.367 933.78,463.724 C935.317,463.534 936.803,462.748 938.341,462.727 C940.27,462.7 942.08,463.617 944.009,463.582 C945.996,463.545 947.953,462.427 949.932,462.513 C952.954,462.644 955.796,463.761 958.766,464.223 C960.688,464.522 962.705,464.357 964.593,464.793 C968.791,465.764 972.882,467.091 976.958,468.428 C980.926,469.729 984.969,470.909 988.714,472.704 C990.376,473.501 991.408,475.229 993.015,476.125 C995.362,477.433 998.059,478.079 1000.48,479.26 C1001.48,479.747 1002.12,480.927 1003.23,481.113 C1003.82,481.213 1004.54,480.561 1004.72,479.973 C1004.93,479.341 1004.67,478.536 1004.19,478.12 C1003.27,477.328 1002,477.047 1000.85,476.623 C999.287,476.048 997.491,475.978 996.076,475.127 C993.523,473.592 991.736,471.438 989.132,469.984 C987.812,469.247 986.058,469.131 984.589,468.713 C981.457,467.822 978.418,466.673 975.335,465.648 C972.483,464.701 969.721,463.489 966.783,462.798 C964.245,462.201 961.56,462.233 958.98,461.8 C956.036,461.306 953.211,460.267 950.222,460.019 C947.737,459.812 945.199,460.432 942.692,460.446 C941.091,460.455 939.528,459.976 937.925,460.09 C935.814,460.239 933.746,460.965 931.639,461.23 C930.711,461.347 929.782,461.133 928.852,461.23 C926.586,461.466 924.337,461.934 922.075,462.228 C919.943,462.504 917.803,462.649 915.672,462.94 C914.497,463.101 913.284,463.154 912.163,463.582 C911.429,463.862 909.782,464.434 910.261,465.007 Z" style="stroke:none;fill-rule:evenodd;fill:#ffffff;fill-opacity:1;"/>
        </g>
        <g id="Shape23">
            <desc shapeID="23" type="0" basicInfo-basicType="0" basicInfo-roundedRectRadius="12" basicInfo-polygonSides="6" basicInfo-starPoints="5" bounding="rect(0,0,0,0)" text="" font-familyName="Helvetica" font-pixelSize="20" font-bold="0" font-underline="0" font-alignment="1" strokeStyle="0" markerStart="0" markerEnd="0" shadowEnabled="0" shadowOffsetX="0" shadowOffsetY="2" shadowBlur="4" shadowOpacity="160" blurEnabled="0" blurRadius="4" transform="matrix(0.275608,0,-0.0161732,0.27481,944.891,463.173)" pers-center="0,0" pers-size="0,0" pers-start="0,0" pers-end="0,0" locked="0" mesh="" flag=""/>
            <path id="shapePath23" d="M944.891,463.173 Z" style="stroke:none;fill-rule:evenodd;fill:#ffffff;fill-opacity:1;"/>
        </g>
        <g id="Shape24">
            <desc shapeID="24" type="0" basicInfo-basicType="0" basicInfo-roundedRectRadius="12" basicInfo-polygonSides="6" basicInfo-starPoints="5" bounding="rect(-6.44823,-19.6947,12.8967,39.3895)" text="" font-familyName="Helvetica" font-pixelSize="20" font-bold="0" font-underline="0" font-alignment="1" strokeStyle="0" markerStart="0" markerEnd="0" shadowEnabled="0" shadowOffsetX="0" shadowOffsetY="2" shadowBlur="4" shadowOpacity="160" blurEnabled="0" blurRadius="4" transform="matrix(0.275608,0,-0.0161732,0.27481,943.584,468.391)" pers-center="0,0" pers-size="0,0" pers-start="0,0" pers-end="0,0" locked="0" mesh="" flag=""/>
            <path id="shapePath24" d="M944.603,462.995 C943.607,463.233 943.507,464.768 943.158,465.733 C942.822,466.664 942.815,467.665 942.571,468.619 C942.297,469.691 941.632,470.712 941.608,471.803 C941.592,472.469 941.982,473.121 942.459,473.559 C942.737,473.814 943.315,473.91 943.618,473.648 C943.891,473.412 943.592,472.952 943.56,472.607 C943.525,472.228 943.305,471.849 943.417,471.476 C943.787,470.249 944.563,469.152 944.969,467.935 C945.268,467.036 945.588,466.091 945.52,465.167 C945.461,464.371 945.397,462.805 944.603,462.995 Z" style="stroke:none;fill-rule:evenodd;fill:#ffffff;fill-opacity:1;"/>
        </g>
        <g id="Shape25">
            <desc shapeID="25" type="0" basicInfo-basicType="0" basicInfo-roundedRectRadius="12" basicInfo-polygonSides="6" basicInfo-starPoints="5" bounding="rect(-5.85534,-18.9371,11.7107,37.8741)" text="" font-familyName="Helvetica" font-pixelSize="20" font-bold="0" font-underline="0" font-alignment="1" strokeStyle="0" markerStart="0" markerEnd="0" shadowEnabled="0" shadowOffsetX="0" shadowOffsetY="2" shadowBlur="4" shadowOpacity="160" blurEnabled="0" blurRadius="4" transform="matrix(0.275608,0,-0.0161732,0.27481,951.161,469.416)" pers-center="0,0" pers-size="0,0" pers-start="0,0" pers-end="0,0" locked="0" mesh="" flag=""/>
            <path id="shapePath25" d="M951.59,464.453 C950.856,465.618 950.644,467.017 950.258,468.322 C949.922,469.46 949.372,470.611 949.428,471.774 C949.476,472.757 949.889,473.756 950.554,474.452 C950.849,474.76 951.511,474.601 951.874,474.333 C952.157,474.124 952.144,473.652 952.083,473.321 C951.993,472.829 951.522,472.477 951.446,471.982 C951.337,471.273 951.346,470.517 951.544,469.809 C951.821,468.818 952.628,467.985 952.844,466.982 C953.025,466.144 953.067,465.196 952.699,464.453 C952.539,464.131 951.792,464.133 951.59,464.453 Z" style="stroke:none;fill-rule:evenodd;fill:#ffffff;fill-opacity:1;"/>
        </g>
        <g id="Shape26">
            <desc shapeID="26" type="0" basicInfo-basicType="0" basicInfo-roundedRectRadius="12" basicInfo-polygonSides="6" basicInfo-starPoints="5" bounding="rect(-5.0011,-16.3115,10.0021,32.6229)" text="" font-familyName="Helvetica" font-pixelSize="20" font-bold="0" font-underline="0" font-alignment="1" strokeStyle="0" markerStart="0" markerEnd="0" shadowEnabled="0" shadowOffsetX="0" shadowOffsetY="2" shadowBlur="4" shadowOpacity="160" blurEnabled="0" blurRadius="4" transform="matrix(0.275608,0,-0.0161732,0.27481,959.85,470.806)" pers-center="0,0" pers-size="0,0" pers-start="0,0" pers-end="0,0" locked="0" mesh="" flag=""/>
            <path id="shapePath26" d="M959.243,466.646 C958.89,467.528 959.435,468.498 959.346,469.43 C959.233,470.617 958.853,471.78 958.64,472.959 C958.509,473.69 958.077,474.477 958.315,475.158 C958.425,475.472 959.105,475.156 959.31,474.875 C960.074,473.827 960.635,472.631 961.043,471.416 C961.287,470.692 961.312,469.904 961.229,469.164 C961.128,468.255 961.057,467.246 960.501,466.541 C960.25,466.222 959.401,466.25 959.243,466.646 Z" style="stroke:none;fill-rule:evenodd;fill:#ffffff;fill-opacity:1;"/>
        </g>
        <g id="Shape27">
            <desc shapeID="27" type="0" basicInfo-basicType="0" basicInfo-roundedRectRadius="12" basicInfo-polygonSides="6" basicInfo-starPoints="5" bounding="rect(-119.243,-96.0026,238.487,192.005)" text="" font-familyName="Helvetica" font-pixelSize="20" font-bold="0" font-underline="0" font-alignment="1" strokeStyle="0" markerStart="0" markerEnd="0" shadowEnabled="0" shadowOffsetX="0" shadowOffsetY="2" shadowBlur="4" shadowOpacity="160" blurEnabled="0" blurRadius="4" transform="matrix(0.243611,0,0,0.243611,948.355,521.528)" pers-center="0,0" pers-size="0,0" pers-start="0,0" pers-end="0,0" locked="0" mesh="" flag=""/>
            <path id="shapePath27" d="M925.018,502.342 C925.53,503.952 924.762,505.72 924.435,507.378 C923.824,510.465 922.89,513.479 922.208,516.55 C921.688,518.888 921.484,520.741 921.47,523.136 C921.465,523.882 921.951,524.618 922.533,525.084 C924.275,526.477 925.619,528.373 927.722,529.115 C931.13,530.318 934.766,530.991 938.378,531.13 C940.391,531.207 942.25,529.669 944.263,529.752 C947.145,529.869 950.078,530.494 952.693,531.713 C955.454,533.001 957.595,535.333 960.062,537.121 C961.765,538.355 963.292,539.903 965.205,540.779 C966.951,541.579 968.906,542.153 970.824,542.051 C972.407,541.968 974.066,542.046 974.923,540.712 C975.364,540.025 974.715,538.041 974.164,537.068 C973.249,535.449 972.376,533.661 970.877,532.561 C969.754,531.737 968.023,532.32 966.795,531.66 C965.339,530.878 964.221,529.572 963.084,528.373 C961.633,526.843 960.052,525.354 959.055,523.496 C958.086,521.693 957.222,519.655 957.305,517.611 C957.373,515.928 959,514.702 959.479,513.051 C959.822,511.868 959.888,510.395 958.949,509.597 C957.823,508.641 955.97,509.265 954.548,508.863 C952.442,508.267 950.89,506.971 948.988,505.887 C947.803,505.212 946.442,504.34 945.21,503.755 C943.487,502.936 941.726,502.749 939.862,502.342 C937.926,501.918 935.918,501.308 934.129,500.456 C933.13,499.98 932,499.684 931.963,498.578 C931.94,497.901 933.253,498.189 933.925,498.276 C935.761,498.516 937.508,498.989 939.279,499.532 C941.026,500.067 942.791,500.571 944.475,501.281 C946.528,502.148 948.51,503.182 950.466,504.25 C951.589,504.864 952.464,505.924 953.7,506.256 C955.133,506.642 956.782,506.349 958.231,506.674 C959.304,506.915 960.28,507.353 960.861,508.287 C961.571,509.426 961.711,510.804 961.467,512.124 C961.156,513.802 960.109,515.053 959.593,516.68 C959.265,517.711 958.955,518.722 959.161,519.784 C959.377,520.902 960.192,521.815 960.645,522.859 C961.182,524.097 961.915,524.835 962.931,525.722 C964.203,526.832 965.036,528.16 966.533,528.939 C967.684,529.538 968.32,530.038 969.605,530.221 C970.772,530.387 972.33,530.703 973.078,531.456 C974.962,533.354 976.071,535.387 977.08,537.863 C977.579,539.085 977.532,540.65 976.725,541.947 C975.869,543.324 974.87,543.318 973.36,543.907 C972.197,544.362 970.854,544.935 969.605,544.914 C967.423,544.879 965.261,544.114 963.296,543.165 C961.536,542.315 960.17,540.817 958.63,539.613 C956.918,538.272 955.425,536.616 953.541,535.53 C951.092,534.119 948.543,532.606 945.747,532.19 C943.241,531.817 940.753,533.212 938.219,533.251 C936.097,533.283 934.017,532.657 931.91,532.402 C930.941,532.285 929.9,532.5 928.994,532.137 C927.455,531.522 926.106,530.497 924.753,529.539 C923.079,528.355 921.932,527.458 920.569,525.926 C919.873,525.144 919.22,523.849 919.315,522.806 C919.57,520.002 920.324,517.391 920.935,514.642 C921.421,512.455 921.564,510.201 922.049,508.015 C922.361,506.607 922.652,505.157 923.321,503.879 C923.675,503.203 924.786,501.615 925.018,502.342 Z" style="stroke:none;fill-rule:evenodd;fill:#ffffff;fill-opacity:1;"/>
        </g>
        <g id="Shape28">
            <desc shapeID="28" type="0" basicInfo-basicType="0" basicInfo-roundedRectRadius="12" basicInfo-polygonSides="6" basicInfo-starPoints="5" bounding="rect(-88.2639,-16.6664,176.528,33.3328)" text="" font-familyName="" font-pixelSize="20" font-bold="0" font-underline="0" font-alignment="1" strokeStyle="0" markerStart="0" markerEnd="0" shadowEnabled="0" shadowOffsetX="0" shadowOffsetY="2" shadowBlur="4" shadowOpacity="160" blurEnabled="0" blurRadius="4" transform="matrix(1,0,0,1,954.684,618.89)" pers-center="0,0" pers-size="0,0" pers-start="0,0" pers-end="0,0" locked="0" mesh="" flag=""/>
            <path id="shapePath28" d="M1014.06,605.439 C1013.02,607.005 1012.81,616.403 1013.8,622.675 C1014.01,624.382 1015.31,624.651 1016.58,623.287 C1017.26,622.576 1017.29,621.951 1016.83,620.354 C1016.52,619.206 1016.25,615.488 1016.22,612.035 C1016.24,608.586 1016.12,605.567 1015.95,605.243 C1015.55,604.528 1014.67,604.661 1014.06,605.439 M990.953,604.692 C990.73,605.242 990.687,605.93 990.855,606.254 C991.02,606.641 990.742,607.063 990.168,607.215 C989.336,607.477 989.192,608.785 989.011,616.741 C988.799,626.201 989.312,629.056 991.018,628.849 C992.096,628.665 992.353,626.548 992.09,620.697 C991.921,617.362 992.253,617.068 995.596,616.775 C997.553,616.583 998.021,616.11 999.848,612.962 C1001.33,610.293 1001.72,609.063 1001.33,608.348 C1000.42,606.724 997.518,605.037 994.358,604.402 C992.007,603.879 991.312,603.961 990.953,604.692 M996.91,608.764 C999.148,610.095 997.384,613.247 994.029,613.729 C991.998,614.104 992.002,614.042 992.154,611.604 C992.239,610.23 992.149,608.656 991.996,608.082 C991.734,607.25 992.055,607.144 993.723,607.562 C994.894,607.885 996.305,608.412 996.91,608.764 M1034.33,609.21 C1032.62,609.605 1031.76,610.304 1030.76,612.187 C1028.57,616.191 1026.73,620.468 1026.65,621.843 C1026.5,624.218 1030.08,627.201 1034.87,628.816 C1039.79,630.44 1041.37,630.287 1041.18,628.205 C1041.13,627.073 1040.46,626.655 1037.69,625.855 C1032.33,624.329 1030.44,623.334 1030.29,621.819 C1030.14,620.241 1031.59,615.94 1032.84,614.135 C1034.28,612.155 1037.24,610.959 1039.4,611.532 C1041.74,612.117 1043.3,611.398 1042.88,609.992 C1042.51,608.84 1038.08,608.439 1034.33,609.21 M970.632,606.111 C970.402,606.787 969.867,607.318 969.492,607.295 C969.054,607.268 968.328,607.85 967.844,608.573 C967.356,609.358 966.286,610.421 965.372,610.991 C963.541,612.194 962.627,611.761 958.298,607.728 C955.927,605.51 955.317,605.222 954.157,605.714 C953.447,606.046 952.849,606.573 952.834,606.823 C952.787,607.573 958.628,613.52 959.44,613.571 C959.753,613.59 959.796,613.906 959.585,614.27 C959.316,614.567 959.515,615.394 959.98,615.988 C960.906,617.238 961.915,622.194 961.752,624.818 C961.584,627.505 963.968,629.536 964.909,627.524 C965.271,626.731 964.464,616.518 963.995,615.987 C963.878,615.854 966.15,613.612 969.067,611.095 C971.925,608.513 974.143,606.141 973.917,605.751 C973.303,604.521 971.026,604.818 970.632,606.111 M908.28,602.985 C907.972,603.907 902.856,617.579 901.735,620.458 C900.467,623.704 900.194,625.067 899.598,629.609 C899.002,634.152 899.451,635.999 900.99,635.468 C901.693,635.26 902.169,633.659 902.668,629.675 C903.369,624.449 904.571,620.258 905.45,620.25 C905.704,620.203 908.024,620.221 910.722,620.201 L915.491,620.184 L917.254,623.117 C918.223,624.683 918.985,626.549 918.942,627.237 C918.895,627.987 919.419,628.647 920.22,628.885 C923.907,630.118 923.461,627.204 918.83,618.949 C916.622,615.11 914.485,611.15 914.039,610.245 C913.535,609.272 912.984,608.046 912.703,607.526 C912.359,607.003 911.819,605.589 911.452,604.437 C910.764,602.387 908.815,601.45 908.28,602.985 M910.669,610.976 C911.107,612.007 911.888,613.561 912.455,614.537 C913.358,616.162 913.354,616.224 912.272,616.471 C909.858,616.948 906.433,616.546 906.476,615.859 C906.55,614.672 909.024,609.18 909.524,609.211 C909.711,609.222 910.29,610.011 910.669,610.976 M930.075,605.596 C929.235,605.982 929.15,606.354 929.588,607.385 C930.088,608.419 930.826,608.654 933.951,608.848 L937.763,609.085 L937.201,611.058 C936.881,612.167 935.835,614.862 934.828,616.932 C933.817,619.065 932.826,621.889 932.56,623.128 C932.112,625.295 932.221,625.553 933.987,626.416 C936.362,627.567 944.986,628.104 946.302,627.119 C946.825,626.775 947.254,625.924 947.294,625.299 C947.36,624.236 946.988,624.151 942.844,624.206 C940.333,624.239 937.65,624.009 936.982,623.654 L935.638,623.068 L937.141,619.084 C937.968,616.877 939.443,613.33 940.454,611.197 C941.547,608.756 942.027,607.092 941.676,606.694 C940.972,605.897 931.368,604.986 930.075,605.596 M867.256,605.954 C866.639,606.794 866.138,618.87 866.6,622.538 C866.972,625.635 867.438,627.232 868.926,630.524 C869.751,632.395 870.876,632.465 877.367,630.986 C879.656,630.501 882.128,630.091 882.753,630.13 C886.69,630.374 890.337,628.217 889.266,626.269 C889.098,625.945 886.009,626.192 882.459,626.786 C878.846,627.377 874.921,627.949 873.66,628.058 L871.324,628.289 L870.175,624.579 C869.287,621.701 869.068,619.178 869.207,613.917 C869.382,610.101 869.47,606.656 869.497,606.219 C869.489,605.34 867.873,605.114 867.256,605.954 Z" style="stroke:none;fill-rule:evenodd;fill:#ffffff;fill-opacity:1;"/>
        </g>
    </g>
</svg>
