<?xml version="1.0"?>
<svg version="1.1" xmlns="http://www.w3.org/2000/svg" xmlns:xlink="http://www.w3.org/1999/xlink" width="1024" height="1024">
    <desc iVinci="yes" version="4.6" gridStep="20" showGrid="no" snapToGrid="no" codePlatform="0"/>
    <g id="Layer1" name="Layer 6" opacity="1">
        <g id="Shape1">
            <desc shapeID="1" type="0" basicInfo-basicType="0" basicInfo-roundedRectRadius="12" basicInfo-polygonSides="6" basicInfo-starPoints="5" bounding="rect(-54.6373,-29.1184,109.275,58.2369)" text="" font-familyName="Helvetica" font-pixelSize="20" font-bold="0" font-underline="0" font-alignment="1" strokeStyle="0" markerStart="0" markerEnd="0" shadowEnabled="0" shadowOffsetX="0" shadowOffsetY="2" shadowBlur="4" shadowOpacity="160" blurEnabled="0" blurRadius="4" transform="matrix(0.703047,0,0,0.703047,327.805,290.249)" pers-center="0,0" pers-size="0,0" pers-start="0,0" pers-end="0,0" locked="0" mesh="" flag=""/>
            <path id="shapePath1" d="M296.584,299.782 C291.865,295.063 286.42,285.001 291.316,280.467 C300.658,271.817 315.7,268.058 328.191,270.517 C342.845,273.401 358.736,281.862 365.651,295.1 C369.11,301.721 355.908,307.858 348.677,309.733 C338.828,312.286 328.236,309.301 318.241,307.391 C310.725,305.956 301.995,305.193 296.584,299.782 Z" style="stroke:none;fill-rule:evenodd;fill:#e2e2e2;fill-opacity:1;"/>
        </g>
        <g id="Shape2">
            <desc shapeID="2" type="0" basicInfo-basicType="0" basicInfo-roundedRectRadius="12" basicInfo-polygonSides="6" basicInfo-starPoints="5" bounding="rect(-35.9706,-18.6382,71.941,37.2765)" text="" font-familyName="Helvetica" font-pixelSize="20" font-bold="0" font-underline="0" font-alignment="1" strokeStyle="0" markerStart="0" markerEnd="0" shadowEnabled="0" shadowOffsetX="0" shadowOffsetY="2" shadowBlur="4" shadowOpacity="160" blurEnabled="0" blurRadius="4" transform="matrix(1,0,0,1,601.963,348.528)" pers-center="0,0" pers-size="0,0" pers-start="0,0" pers-end="0,0" locked="0" mesh="" flag=""/>
            <path id="shapePath2" d="M566.432,341.553 C570.039,334.701 578.787,329.655 586.526,329.898 C601.814,330.379 617.384,335.418 630.331,343.562 C635.603,346.878 640.557,356.644 636.36,361.245 C630.198,367.999 618.493,367.705 609.434,366.469 C597.036,364.779 585.297,359.079 574.47,352.806 C570.482,350.495 564.286,345.632 566.432,341.553 Z" style="stroke:none;fill-rule:evenodd;fill:#e2e2e2;fill-opacity:1;"/>
        </g>
    </g>
    <g id="Layer2" name="Layer 3" opacity="1">
        <g id="Shape3">
            <desc shapeID="3" type="0" basicInfo-basicType="0" basicInfo-roundedRectRadius="12" basicInfo-polygonSides="6" basicInfo-starPoints="5" bounding="rect(0,0,0,0)" text="" font-familyName="Helvetica" font-pixelSize="20" font-bold="0" font-underline="0" font-alignment="1" strokeStyle="0" markerStart="0" markerEnd="0" shadowEnabled="0" shadowOffsetX="0" shadowOffsetY="2" shadowBlur="4" shadowOpacity="160" blurEnabled="0" blurRadius="4" transform="matrix(1.15059,0,-0.0675191,1.14726,61.2273,49.6653)" pers-center="0,0" pers-size="0,0" pers-start="0,0" pers-end="0,0" locked="0" mesh="" flag=""/>
            <path id="shapePath3" d="M61.2273,49.6653 Z" style="stroke:none;fill-rule:evenodd;fill:#000000;fill-opacity:1;"/>
        </g>
        <g id="Shape4">
            <desc shapeID="4" type="0" basicInfo-basicType="0" basicInfo-roundedRectRadius="12" basicInfo-polygonSides="6" basicInfo-starPoints="5" bounding="rect(-19.6286,-11.1476,39.2573,22.2955)" text="" font-familyName="Helvetica" font-pixelSize="20" font-bold="0" font-underline="0" font-alignment="1" strokeStyle="0" markerStart="0" markerEnd="0" shadowEnabled="0" shadowOffsetX="0" shadowOffsetY="2" shadowBlur="4" shadowOpacity="160" blurEnabled="0" blurRadius="4" transform="matrix(1.15059,0,-0.0675191,1.14726,414.031,268.502)" pers-center="0,0" pers-size="0,0" pers-start="0,0" pers-end="0,0" locked="0" mesh="" flag=""/>
            <path id="shapePath4" d="M391.95,262.597 C391.143,259.773 395.179,255.383 398.133,255.733 C405.409,256.598 410.707,262.772 417.345,265.615 C422.573,267.853 429.5,267.096 433.628,270.933 C436.056,273.19 437.433,280.756 434.013,281.108 C423.39,282.202 412.883,278.234 403.377,274.051 C398.397,271.859 393.452,267.841 391.95,262.597 Z" style="stroke:none;fill-rule:evenodd;fill:#000000;fill-opacity:1;"/>
        </g>
        <g id="Shape5">
            <desc shapeID="5" type="0" basicInfo-basicType="0" basicInfo-roundedRectRadius="12" basicInfo-polygonSides="6" basicInfo-starPoints="5" bounding="rect(0,0,0,0)" text="" font-familyName="Helvetica" font-pixelSize="20" font-bold="0" font-underline="0" font-alignment="1" strokeStyle="0" markerStart="0" markerEnd="0" shadowEnabled="0" shadowOffsetX="0" shadowOffsetY="2" shadowBlur="4" shadowOpacity="160" blurEnabled="0" blurRadius="4" transform="matrix(1.15059,0,-0.0675191,1.14726,61.2274,49.6653)" pers-center="0,0" pers-size="0,0" pers-start="0,0" pers-end="0,0" locked="0" mesh="" flag=""/>
            <path id="shapePath5" d="M61.2274,49.6653 Z" style="stroke:none;fill-rule:evenodd;fill:#7a7476;fill-opacity:1;"/>
        </g>
        <g id="Shape6">
            <desc shapeID="6" type="0" basicInfo-basicType="0" basicInfo-roundedRectRadius="12" basicInfo-polygonSides="6" basicInfo-starPoints="5" bounding="rect(0,0,0,0)" text="" font-familyName="Helvetica" font-pixelSize="20" font-bold="0" font-underline="0" font-alignment="1" strokeStyle="0" markerStart="0" markerEnd="0" shadowEnabled="0" shadowOffsetX="0" shadowOffsetY="2" shadowBlur="4" shadowOpacity="160" blurEnabled="0" blurRadius="4" transform="matrix(1.15059,0,-0.0675191,1.14726,61.2273,49.6653)" pers-center="0,0" pers-size="0,0" pers-start="0,0" pers-end="0,0" locked="0" mesh="" flag=""/>
            <path id="shapePath6" d="M61.2273,49.6653 Z" style="stroke:none;fill-rule:evenodd;fill:#000000;fill-opacity:1;"/>
        </g>
        <g id="Shape7">
            <desc shapeID="7" type="0" basicInfo-basicType="0" basicInfo-roundedRectRadius="12" basicInfo-polygonSides="6" basicInfo-starPoints="5" bounding="rect(0,0,0,0)" text="" font-familyName="Helvetica" font-pixelSize="20" font-bold="0" font-underline="0" font-alignment="1" strokeStyle="0" markerStart="0" markerEnd="0" shadowEnabled="0" shadowOffsetX="0" shadowOffsetY="2" shadowBlur="4" shadowOpacity="160" blurEnabled="0" blurRadius="4" transform="matrix(1.15059,0,-0.0675191,1.14726,61.2273,49.6653)" pers-center="0,0" pers-size="0,0" pers-start="0,0" pers-end="0,0" locked="0" mesh="" flag=""/>
            <path id="shapePath7" d="M61.2273,49.6653 Z" style="stroke:none;fill-rule:evenodd;fill:#000000;fill-opacity:1;"/>
        </g>
        <g id="Shape8">
            <desc shapeID="8" type="0" basicInfo-basicType="0" basicInfo-roundedRectRadius="12" basicInfo-polygonSides="6" basicInfo-starPoints="5" bounding="rect(-0.0840765,-0.0139364,0.168132,0.0278863)" text="" font-familyName="Helvetica" font-pixelSize="20" font-bold="0" font-underline="0" font-alignment="1" strokeStyle="0" markerStart="0" markerEnd="0" shadowEnabled="0" shadowOffsetX="0" shadowOffsetY="2" shadowBlur="4" shadowOpacity="160" blurEnabled="0" blurRadius="4" transform="matrix(1.15059,0,-0.0675191,1.14726,464.551,298.229)" pers-center="0,0" pers-size="0,0" pers-start="0,0" pers-end="0,0" locked="0" mesh="" flag=""/>
            <path id="shapePath8" d="M464.455,298.213 C464.886,298.285 464.455,298.213 464.455,298.213 Z" style="stroke:none;fill-rule:evenodd;fill:#000000;fill-opacity:1;"/>
        </g>
        <g id="Shape9">
            <desc shapeID="9" type="0" basicInfo-basicType="0" basicInfo-roundedRectRadius="12" basicInfo-polygonSides="6" basicInfo-starPoints="5" bounding="rect(-13.27,-18.3879,26.5401,36.7759)" text="" font-familyName="Helvetica" font-pixelSize="20" font-bold="0" font-underline="0" font-alignment="1" strokeStyle="0" markerStart="0" markerEnd="0" shadowEnabled="0" shadowOffsetX="0" shadowOffsetY="2" shadowBlur="4" shadowOpacity="160" blurEnabled="0" blurRadius="4" transform="matrix(1.15059,0,-0.0675191,1.14726,477.598,312.021)" pers-center="0,0" pers-size="0,0" pers-start="0,0" pers-end="0,0" locked="0" mesh="" flag=""/>
            <path id="shapePath9" d="M464.294,297.275 C466.362,299.87 471.656,299.083 473.057,302.11 C475.176,306.692 473.089,312.438 473.664,317.528 C474.2,322.293 474.265,327.372 476.38,331.593 C477.119,333.07 479.735,333.528 481.274,332.724 C483.126,331.756 484.493,329.383 484.496,327.352 C484.505,323.127 481.692,319.452 481.31,315.266 C481.033,312.252 480.232,308.269 482.555,306.15 C484.575,304.306 488.029,308.177 490.447,306.927 C492.46,305.887 494.233,302.522 493.081,300.708 C490.917,297.298 486.326,296.189 482.599,294.559 C479.754,293.314 476.627,292.678 473.526,292.156 C470.612,291.666 467.305,290.055 464.631,291.538 C462.912,292.491 463.134,295.82 464.294,297.275 Z" style="stroke:none;fill-rule:evenodd;fill:#000000;fill-opacity:1;"/>
        </g>
        <g id="Shape10">
            <desc shapeID="10" type="0" basicInfo-basicType="0" basicInfo-roundedRectRadius="12" basicInfo-polygonSides="6" basicInfo-starPoints="5" bounding="rect(0,0,0,0)" text="" font-familyName="Helvetica" font-pixelSize="20" font-bold="0" font-underline="0" font-alignment="1" strokeStyle="0" markerStart="0" markerEnd="0" shadowEnabled="0" shadowOffsetX="0" shadowOffsetY="2" shadowBlur="4" shadowOpacity="160" blurEnabled="0" blurRadius="4" transform="matrix(1.15059,0,-0.0675191,1.14726,61.2273,49.6653)" pers-center="0,0" pers-size="0,0" pers-start="0,0" pers-end="0,0" locked="0" mesh="" flag=""/>
            <path id="shapePath10" d="M61.2273,49.6653 Z" style="stroke:none;fill-rule:evenodd;fill:#000000;fill-opacity:1;"/>
        </g>
        <g id="Shape11">
            <desc shapeID="11" type="0" basicInfo-basicType="0" basicInfo-roundedRectRadius="12" basicInfo-polygonSides="6" basicInfo-starPoints="5" bounding="rect(-18.1688,-9.45463,36.3378,18.9093)" text="" font-familyName="Helvetica" font-pixelSize="20" font-bold="0" font-underline="0" font-alignment="1" strokeStyle="0" markerStart="0" markerEnd="0" shadowEnabled="0" shadowOffsetX="0" shadowOffsetY="2" shadowBlur="4" shadowOpacity="160" blurEnabled="0" blurRadius="4" transform="matrix(1.15059,0,-0.0675191,1.14726,529.697,308.439)" pers-center="0,0" pers-size="0,0" pers-start="0,0" pers-end="0,0" locked="0" mesh="" flag=""/>
            <path id="shapePath11" d="M510.857,298.124 C505.561,300.039 515.007,308.695 519.407,311.78 C525.585,316.114 533.288,318.814 541.012,319.274 C544.498,319.482 548.952,316.947 550.196,313.612 C551.105,311.176 547.501,309.052 545.175,308.117 C541.51,306.642 537.04,307.893 533.229,306.784 C525.52,304.539 518.674,295.299 510.857,298.124 Z" style="stroke:none;fill-rule:evenodd;fill:#000000;fill-opacity:1;"/>
        </g>
        <g id="Shape12">
            <desc shapeID="12" type="0" basicInfo-basicType="0" basicInfo-roundedRectRadius="12" basicInfo-polygonSides="6" basicInfo-starPoints="5" bounding="rect(0,0,0,0)" text="" font-familyName="Helvetica" font-pixelSize="20" font-bold="0" font-underline="0" font-alignment="1" strokeStyle="0" markerStart="0" markerEnd="0" shadowEnabled="0" shadowOffsetX="0" shadowOffsetY="2" shadowBlur="4" shadowOpacity="160" blurEnabled="0" blurRadius="4" transform="matrix(1.15059,0,-0.0675191,1.14726,61.2273,49.6653)" pers-center="0,0" pers-size="0,0" pers-start="0,0" pers-end="0,0" locked="0" mesh="" flag=""/>
            <path id="shapePath12" d="M61.2273,49.6653 Z" style="stroke:none;fill-rule:evenodd;fill:#000000;fill-opacity:1;"/>
        </g>
        <g id="Shape13">
            <desc shapeID="13" type="0" basicInfo-basicType="0" basicInfo-roundedRectRadius="12" basicInfo-polygonSides="6" basicInfo-starPoints="5" bounding="rect(-21.9965,-6.39041,43.9927,12.7808)" text="" font-familyName="Helvetica" font-pixelSize="20" font-bold="0" font-underline="0" font-alignment="1" strokeStyle="0" markerStart="0" markerEnd="0" shadowEnabled="0" shadowOffsetX="0" shadowOffsetY="2" shadowBlur="4" shadowOpacity="160" blurEnabled="0" blurRadius="4" transform="matrix(1.15059,0,-0.0675191,1.14726,729.466,408.494)" pers-center="0,0" pers-size="0,0" pers-start="0,0" pers-end="0,0" locked="0" mesh="" flag=""/>
            <path id="shapePath13" d="M704.639,403.253 C703.383,406.192 707.457,408.929 709.944,410.698 C712.361,412.415 715.587,412.885 718.605,413.18 C724.795,413.782 731.143,412.931 737.356,413.371 C741.973,413.696 746.504,416.873 751.016,415.47 C753.505,414.696 755.962,409.66 753.932,408.216 C748.478,404.336 740.833,404.599 734.111,403.444 C727.474,402.303 720.739,401.388 713.941,401.343 C710.813,401.323 705.891,400.324 704.639,403.253 Z" style="stroke:none;fill-rule:evenodd;fill:#000000;fill-opacity:1;"/>
        </g>
        <g id="Shape14">
            <desc shapeID="14" type="0" basicInfo-basicType="0" basicInfo-roundedRectRadius="12" basicInfo-polygonSides="6" basicInfo-starPoints="5" bounding="rect(-14.5595,-7.87544,29.1191,15.751)" text="" font-familyName="Helvetica" font-pixelSize="20" font-bold="0" font-underline="0" font-alignment="1" strokeStyle="0" markerStart="0" markerEnd="0" shadowEnabled="0" shadowOffsetX="0" shadowOffsetY="2" shadowBlur="4" shadowOpacity="160" blurEnabled="0" blurRadius="4" transform="matrix(1.15059,0,-0.0675191,1.14726,732.854,436.139)" pers-center="0,0" pers-size="0,0" pers-start="0,0" pers-end="0,0" locked="0" mesh="" flag=""/>
            <path id="shapePath14" d="M716.4,431.123 C716.433,427.677 722.757,427.002 726.209,427.115 C732.971,427.335 740.337,428.166 745.636,432.078 C748.901,434.489 749.92,439.81 748.959,443.913 C748.49,445.92 744.494,445.181 742.822,444.104 C741.163,443.036 742.021,440.382 740.123,439.775 C735.581,438.324 730.658,440.159 726.098,438.759 C722.114,437.537 716.36,435.344 716.4,431.123 Z" style="stroke:none;fill-rule:evenodd;fill:#000000;fill-opacity:1;"/>
        </g>
        <g id="Shape15">
            <desc shapeID="15" type="0" basicInfo-basicType="0" basicInfo-roundedRectRadius="12" basicInfo-polygonSides="6" basicInfo-starPoints="5" bounding="rect(0,0,0,0)" text="" font-familyName="Helvetica" font-pixelSize="20" font-bold="0" font-underline="0" font-alignment="1" strokeStyle="0" markerStart="0" markerEnd="0" shadowEnabled="0" shadowOffsetX="0" shadowOffsetY="2" shadowBlur="4" shadowOpacity="160" blurEnabled="0" blurRadius="4" transform="matrix(1.15059,0,-0.0675191,1.14726,61.2273,49.6653)" pers-center="0,0" pers-size="0,0" pers-start="0,0" pers-end="0,0" locked="0" mesh="" flag=""/>
            <path id="shapePath15" d="M61.2273,49.6653 Z" style="stroke:none;fill-rule:evenodd;fill:#000000;fill-opacity:1;"/>
        </g>
        <g id="Shape16">
            <desc shapeID="16" type="0" basicInfo-basicType="0" basicInfo-roundedRectRadius="12" basicInfo-polygonSides="6" basicInfo-starPoints="5" bounding="rect(-17.1228,-6.99919,34.2455,13.9985)" text="" font-familyName="Helvetica" font-pixelSize="20" font-bold="0" font-underline="0" font-alignment="1" strokeStyle="0" markerStart="0" markerEnd="0" shadowEnabled="0" shadowOffsetX="0" shadowOffsetY="2" shadowBlur="4" shadowOpacity="160" blurEnabled="0" blurRadius="4" transform="matrix(1.15059,0,-0.0675191,1.14726,731.553,473.001)" pers-center="0,0" pers-size="0,0" pers-start="0,0" pers-end="0,0" locked="0" mesh="" flag=""/>
            <path id="shapePath16" d="M712.211,469.008 C711.221,465.607 718.893,465.178 722.513,464.994 C727.431,464.743 732.1,466.65 736.819,467.754 C741.044,468.743 746.133,468.434 749.321,471.266 C751.351,473.071 751.627,477.125 750.091,479.547 C748.855,481.497 745.542,481.117 743.357,480.676 C741.681,480.338 741.221,477.652 739.523,477.414 C735.228,476.811 730.495,479.557 726.386,478.293 C720.928,476.613 713.803,474.474 712.211,469.008 Z" style="stroke:none;fill-rule:evenodd;fill:#000000;fill-opacity:1;"/>
        </g>
        <g id="Shape17">
            <desc shapeID="17" type="0" basicInfo-basicType="0" basicInfo-roundedRectRadius="12" basicInfo-polygonSides="6" basicInfo-starPoints="5" bounding="rect(-21.0621,-5.99107,42.1244,11.9821)" text="" font-familyName="Helvetica" font-pixelSize="20" font-bold="0" font-underline="0" font-alignment="1" strokeStyle="0" markerStart="0" markerEnd="0" shadowEnabled="0" shadowOffsetX="0" shadowOffsetY="2" shadowBlur="4" shadowOpacity="160" blurEnabled="0" blurRadius="4" transform="matrix(1.15059,0,-0.0675191,1.14726,184.012,311.253)" pers-center="0,0" pers-size="0,0" pers-start="0,0" pers-end="0,0" locked="0" mesh="" flag=""/>
            <path id="shapePath17" d="M173.901,315.923 C170.693,316.509 167.581,318.766 164.507,317.95 C161.93,317.265 158.651,313.881 160.019,311.476 C162.351,307.377 168.834,305.885 173.436,305.207 C180.419,304.179 186.05,305.77 192.997,306.621 C196.554,307.057 200.64,303.162 203.772,304.771 C206.716,306.283 209.686,311.389 207.402,314.019 C203.954,317.991 197.449,317.95 192.331,317.95 C189.8,317.95 187.433,315.55 184.951,315.175 C180.993,314.578 177.914,315.192 173.901,315.923 Z" style="stroke:none;fill-rule:evenodd;fill:#000000;fill-opacity:1;"/>
        </g>
        <g id="Shape18">
            <desc shapeID="18" type="0" basicInfo-basicType="0" basicInfo-roundedRectRadius="12" basicInfo-polygonSides="6" basicInfo-starPoints="5" bounding="rect(-16.7496,-5.93896,33.4992,11.8779)" text="" font-familyName="Helvetica" font-pixelSize="20" font-bold="0" font-underline="0" font-alignment="1" strokeStyle="0" markerStart="0" markerEnd="0" shadowEnabled="0" shadowOffsetX="0" shadowOffsetY="2" shadowBlur="4" shadowOpacity="160" blurEnabled="0" blurRadius="4" transform="matrix(1.15059,0,-0.0675191,1.14726,171.451,338.929)" pers-center="0,0" pers-size="0,0" pers-start="0,0" pers-end="0,0" locked="0" mesh="" flag=""/>
            <path id="shapePath18" d="M152.534,340.145 C157.091,336.486 163.06,334.889 168.682,333.671 C171.172,333.132 173.501,335.264 176.021,335.058 C179.328,334.788 182.591,331.32 185.691,332.284 C188.408,333.129 192.321,337.428 190.138,339.451 C185.216,344.012 177.704,344.476 171.221,345.693 C169.228,346.068 167.517,344.179 165.52,344.075 C161.96,343.889 158.142,345.855 154.776,344.836 C153.102,344.329 151.108,341.29 152.534,340.145 Z" style="stroke:none;fill-rule:evenodd;fill:#000000;fill-opacity:1;"/>
        </g>
        <g id="Shape19">
            <desc shapeID="19" type="0" basicInfo-basicType="0" basicInfo-roundedRectRadius="12" basicInfo-polygonSides="6" basicInfo-starPoints="5" bounding="rect(-23.2997,-6.30207,46.5994,12.6043)" text="" font-familyName="Helvetica" font-pixelSize="20" font-bold="0" font-underline="0" font-alignment="1" strokeStyle="0" markerStart="0" markerEnd="0" shadowEnabled="0" shadowOffsetX="0" shadowOffsetY="2" shadowBlur="4" shadowOpacity="160" blurEnabled="0" blurRadius="4" transform="matrix(1.15059,0,-0.0675191,1.14726,152.76,372.236)" pers-center="0,0" pers-size="0,0" pers-start="0,0" pers-end="0,0" locked="0" mesh="" flag=""/>
            <path id="shapePath19" d="M126.453,372.654 C132.173,365.798 143.217,366.623 151.878,365.219 C156.374,364.489 160.85,365.831 165.301,366.355 C169.975,366.905 175.245,366.123 179.238,368.439 C180.675,369.273 178.681,372.55 177.06,373.175 C172.447,374.952 167.344,374.066 162.519,374.88 C154.988,376.151 147.544,379.892 140.022,379.427 C134.873,379.109 123.045,376.738 126.453,372.654 Z" style="stroke:none;fill-rule:evenodd;fill:#000000;fill-opacity:1;"/>
        </g>
        <g id="Shape20">
            <desc shapeID="20" type="0" basicInfo-basicType="0" basicInfo-roundedRectRadius="12" basicInfo-polygonSides="6" basicInfo-starPoints="5" bounding="rect(-86.1204,-80.5588,172.24,161.119)" text="" font-familyName="Helvetica" font-pixelSize="20" font-bold="0" font-underline="0" font-alignment="1" strokeStyle="0" markerStart="0" markerEnd="0" shadowEnabled="0" shadowOffsetX="0" shadowOffsetY="2" shadowBlur="4" shadowOpacity="160" blurEnabled="0" blurRadius="4" transform="matrix(1.15059,0,-0.0675191,1.14726,506.849,410.763)" pers-center="0,0" pers-size="0,0" pers-start="0,0" pers-end="0,0" locked="0" mesh="" flag=""/>
            <path id="shapePath20" d="M413.132,319.97 C413.767,325.5 418.849,330.07 423.865,332.335 C432.492,336.232 442.873,335.206 452.116,337.581 C458.963,339.34 465.885,341.294 471.989,344.7 C476.257,347.081 478.383,352.292 482.678,354.629 C489.142,358.146 496.459,360.094 503.667,361.936 C508.98,363.294 515.108,361.952 520.069,364.184 C522.751,365.391 524.177,368.627 524.9,371.49 C525.623,374.354 525.219,377.612 524.182,380.483 C522.095,386.263 517.27,391.058 515.697,396.97 C514.678,400.801 515.574,404.91 516.705,408.585 C518.609,414.776 522.262,420.214 524.687,426.195 C526.876,431.595 527.582,436.1 531.567,440.295 C534.149,443.012 538.421,443.629 541.872,445.174 C547.15,447.537 550.858,451.036 555.313,454.655 C557.468,456.407 560.574,459.303 563.168,460.363 C566.848,461.866 570.485,459.09 573.723,461.344 C578.523,464.688 580.742,470.702 583.717,475.739 C585.699,479.093 585.788,483.682 588.541,486.425 C591.299,489.171 590.8,488.4 591.877,492.186 C592.877,495.694 584.38,496.799 584.038,500.505 C583.847,502.581 586.534,503.622 588.562,503.013 C592.14,501.938 596.46,500.776 598.536,497.633 C600.37,494.857 601.932,492.634 600.759,489.688 C599.57,486.702 601.344,483.956 598.54,482.396 C595.878,480.914 594.63,479.738 592.75,477.36 C589.316,473.015 589.225,466.649 586.308,461.929 C584.373,458.8 581.688,455.979 578.444,454.215 C573.814,451.697 567.995,451.711 563.253,449.392 C559.859,447.733 557.697,444.241 554.377,442.449 C549.999,440.086 544.773,439.388 540.38,437.048 C537.693,435.617 534.86,433.907 533.37,431.262 C529.774,424.877 528.272,417.437 525.494,410.624 C524.366,407.862 521.907,405.572 521.66,402.553 C521.421,399.629 522.939,396.683 524.125,393.912 C525.687,390.266 528.356,387.097 529.849,383.426 C531.309,379.835 533.038,376.064 532.919,372.278 C532.821,369.179 530.131,366.847 529.233,363.924 C528.401,361.211 530.213,356.89 527.766,355.485 C521.443,351.856 513.429,351.937 506.134,350.663 C503.626,350.225 500.828,351.191 498.444,350.362 C492.864,348.42 487.712,345.485 482.668,342.5 C478.524,340.047 475.354,336.108 470.959,334.096 C465.543,331.614 461.231,331.779 455.863,329.203 C453.89,328.256 450.642,326.244 448.59,325.462 C445.745,324.378 443.551,324.426 440.47,324.186 C436.549,323.88 432.645,323.296 428.88,322.304 C426.571,321.695 424.759,319.771 422.382,319.419 C419.364,318.972 412.785,316.947 413.132,319.97 Z" style="stroke:none;fill-rule:evenodd;fill:#000000;fill-opacity:1;"/>
        </g>
        <g id="Shape21">
            <desc shapeID="21" type="0" basicInfo-basicType="0" basicInfo-roundedRectRadius="12" basicInfo-polygonSides="6" basicInfo-starPoints="5" bounding="rect(0,0,0,0)" text="" font-familyName="Helvetica" font-pixelSize="20" font-bold="0" font-underline="0" font-alignment="1" strokeStyle="0" markerStart="0" markerEnd="0" shadowEnabled="0" shadowOffsetX="0" shadowOffsetY="2" shadowBlur="4" shadowOpacity="160" blurEnabled="0" blurRadius="4" transform="matrix(1.15059,0,-0.0675191,1.14726,61.2274,49.6653)" pers-center="0,0" pers-size="0,0" pers-start="0,0" pers-end="0,0" locked="0" mesh="" flag=""/>
            <path id="shapePath21" d="M61.2274,49.6653 Z" style="stroke:none;fill-rule:evenodd;fill:#000000;fill-opacity:1;"/>
        </g>
        <g id="Shape22">
            <desc shapeID="22" type="0" basicInfo-basicType="0" basicInfo-roundedRectRadius="12" basicInfo-polygonSides="6" basicInfo-starPoints="5" bounding="rect(-98.515,-75.6087,197.028,151.216)" text="" font-familyName="Helvetica" font-pixelSize="20" font-bold="0" font-underline="0" font-alignment="1" strokeStyle="0" markerStart="0" markerEnd="0" shadowEnabled="0" shadowOffsetX="0" shadowOffsetY="2" shadowBlur="4" shadowOpacity="160" blurEnabled="0" blurRadius="4" transform="matrix(1.15059,0,-0.0675191,1.14726,471.794,422.711)" pers-center="0,0" pers-size="0,0" pers-start="0,0" pers-end="0,0" locked="0" mesh="" flag=""/>
            <path id="shapePath22" d="M376.57,344.294 C374.064,349.174 372.898,354.586 371.606,359.854 C369.689,367.683 368.83,375.682 366.959,383.519 C365.286,390.526 362.298,397.281 360.987,404.344 C359.652,411.534 357.72,419.045 359.06,426.079 C359.825,430.092 363.872,432.593 366.877,435.267 C372.396,440.178 378.276,444.73 384.515,448.729 C390.979,452.874 397.528,457.154 404.875,459.627 C408.007,460.681 411.655,458.664 414.984,458.986 C422.017,459.667 428.676,462.491 435.773,462.619 C444.668,462.778 453.719,458.84 462.509,459.84 C473.254,461.064 483.313,465.283 493.251,469.162 C499.333,471.537 505.221,474.571 510.347,478.517 C516.223,483.04 519.951,489.96 525.946,494.331 C533.215,499.631 541.134,504.356 549.757,507.249 C555.808,509.279 562.662,510.153 569.098,508.808 C573.303,507.93 577.181,504.623 579.609,501.012 C580.982,498.97 581.49,494.237 579.135,493.885 C573.799,493.087 568.665,498.563 563.224,498.563 C557.924,498.563 553.004,496.074 548.309,493.885 C541.634,490.773 535.174,487.129 529.308,482.749 C525.251,479.72 522.799,474.916 518.782,471.835 C512.759,467.218 506.113,463.395 499.386,459.808 C494.387,457.142 489.155,454.806 483.696,453.126 C477.039,451.078 470.214,449.221 463.185,448.672 C459.576,448.389 455.985,450.338 452.345,450.677 C443.985,451.454 435.559,452.477 427.249,452.012 C420.826,451.654 414.712,449.589 408.485,448.227 C403.17,447.064 397.477,446.766 392.625,444.44 C387.219,441.848 383.033,437.356 378.288,433.749 C374.338,430.747 368.165,429.343 366.54,424.617 C364.5,418.686 367.505,411.818 368.56,405.463 C369.792,398.05 371.639,390.713 373.388,383.374 C374.345,379.362 375.814,375.449 376.675,371.42 C377.428,367.892 377.532,364.288 378.225,360.752 C379.799,352.726 384.277,344.753 383.473,336.752 C383.144,333.488 378.117,341.283 376.57,344.294 Z" style="stroke:none;fill-rule:evenodd;fill:#000000;fill-opacity:1;"/>
        </g>
        <g id="Shape23">
            <desc shapeID="23" type="0" basicInfo-basicType="0" basicInfo-roundedRectRadius="12" basicInfo-polygonSides="6" basicInfo-starPoints="5" bounding="rect(-327.936,-175.712,655.872,351.422)" text="" font-familyName="Helvetica" font-pixelSize="20" font-bold="0" font-underline="0" font-alignment="1" strokeStyle="0" markerStart="0" markerEnd="0" shadowEnabled="0" shadowOffsetX="0" shadowOffsetY="2" shadowBlur="4" shadowOpacity="160" blurEnabled="0" blurRadius="4" transform="matrix(1.15059,0,-0.0675191,1.14726,476.86,435.046)" pers-center="0,0" pers-size="0,0" pers-start="0,0" pers-end="0,0" locked="0" mesh="" flag=""/>
            <path id="shapePath23" d="M215.391,235.279 C214.818,231.389 207.037,234.655 203.435,236.571 C194.242,241.464 185.838,248.005 178.153,255.094 C172.558,260.253 168.469,266.828 163.986,272.955 C158.803,280.037 153.878,287.303 149.174,294.694 C138.872,310.88 127.719,326.658 118.977,343.668 C112.324,356.616 106.59,370.192 103.191,384.177 C100.935,393.463 102.501,403.055 102.253,412.491 C101.843,428.108 100.424,443.804 101.219,459.336 C101.915,472.958 103.24,486.656 106.713,499.693 C109.438,509.919 113.681,519.859 119.636,528.465 C128.223,540.879 137.067,554.049 149.885,562.096 C170.515,575.047 194.325,582.894 217.851,590.124 C233.221,594.847 250.087,594.247 265.851,597.734 C288.398,602.723 310.034,608.627 332.809,612.734 C350.397,615.906 368.824,617.05 386.47,619.562 C405.181,622.227 423.119,626.219 442.061,628.109 C474.153,631.312 506.921,634.714 539.246,636.139 C551.13,636.663 563.156,637.155 575.059,635.44 C611.028,630.26 646.825,623.149 682.492,615.508 C698.016,612.182 714.381,610.265 728.493,602.57 C747.276,592.328 763.559,577.579 779.144,562.808 C789.952,552.565 798.622,540.233 807.117,528.055 C816.304,514.884 825.191,501.359 832.064,486.946 C839.67,470.994 845.519,454.269 850.337,437.413 C853.488,426.39 854.688,414.981 855.861,403.691 C856.811,394.547 856.954,385.36 856.69,376.241 C856.434,367.421 855.442,358.669 854.303,349.969 C853.541,344.144 852.877,338.22 850.993,332.715 C849.921,329.583 848.015,326.68 845.578,324.481 C840.813,320.18 835.848,310.664 829.708,313.501 C824.425,315.941 834.325,323.608 837.09,328.402 C839.687,332.907 844.849,336.15 845.766,341.342 C848.386,356.169 848.075,371.6 847.415,386.829 C846.971,397.077 844.465,407.262 842.469,417.415 C839.786,431.062 837.93,444.944 833.383,458.197 C829.479,469.574 823.179,480.137 817.31,490.744 C812.603,499.25 807.011,507.278 801.698,515.447 C797.065,522.572 792.644,529.855 787.474,536.622 C782.538,543.085 777.525,549.628 771.446,555.053 C760.009,565.257 747.856,574.712 735.176,583.286 C728.243,587.975 720.725,591.963 712.878,594.657 C699.031,599.413 684.639,601.98 670.492,605.499 C654.526,609.472 638.552,613.407 622.541,617.134 C610.341,619.974 601.112,621.77 588.732,622.895 C583.838,623.339 576.708,621.647 571.815,621.743 C563.343,621.908 556.01,624.171 547.537,624.377 C540.011,624.559 531.833,623.478 524.374,622.895 C510.057,621.775 495.612,621.727 481.262,620.864 C467.374,620.03 453.439,619.429 439.667,617.805 C417.86,615.233 396.203,611.824 374.589,608.283 C353.193,604.779 331.986,600.462 310.656,596.673 C304.292,595.543 297.826,594.84 291.507,593.529 C278.797,590.894 266.274,587.587 253.594,584.84 C239.535,581.794 224.985,580.361 211.296,576.152 C197.477,571.903 184.339,565.854 171.424,559.575 C163.582,555.764 155.969,551.356 149.186,545.962 C141.617,539.943 133.753,533.748 128.627,525.541 C122.357,515.502 118.688,503.844 115.654,492.273 C112.379,479.779 110.237,466.823 109.806,453.759 C109.347,439.85 111.871,425.828 113.002,411.864 C113.723,402.967 114.658,394.075 115.36,385.177 C115.69,380.992 115.042,376.725 116.099,372.618 C117.347,367.772 119.78,363.217 122.163,358.752 C128.978,345.979 136.232,333.418 143.661,320.964 C150.7,309.164 158.085,297.554 165.556,286.003 C170.899,277.741 175.385,268.775 182.097,261.535 C188.554,254.57 197.068,249.848 204.524,243.968 C208.166,241.097 216.04,239.685 215.391,235.279 Z" style="stroke:none;fill-rule:evenodd;fill:#000000;fill-opacity:1;"/>
        </g>
        <g id="Shape24">
            <desc shapeID="24" type="0" basicInfo-basicType="0" basicInfo-roundedRectRadius="12" basicInfo-polygonSides="6" basicInfo-starPoints="5" bounding="rect(0,0,0,0)" text="" font-familyName="Helvetica" font-pixelSize="20" font-bold="0" font-underline="0" font-alignment="1" strokeStyle="0" markerStart="0" markerEnd="0" shadowEnabled="0" shadowOffsetX="0" shadowOffsetY="2" shadowBlur="4" shadowOpacity="160" blurEnabled="0" blurRadius="4" transform="matrix(1.15059,0,-0.0675191,1.14726,61.2273,49.6653)" pers-center="0,0" pers-size="0,0" pers-start="0,0" pers-end="0,0" locked="0" mesh="" flag=""/>
            <path id="shapePath24" d="M61.2273,49.6653 Z" style="stroke:none;fill-rule:evenodd;fill:#000000;fill-opacity:1;"/>
        </g>
        <g id="Shape25">
            <desc shapeID="25" type="0" basicInfo-basicType="0" basicInfo-roundedRectRadius="12" basicInfo-polygonSides="6" basicInfo-starPoints="5" bounding="rect(-122.197,-70.2723,244.393,140.543)" text="" font-familyName="Helvetica" font-pixelSize="20" font-bold="0" font-underline="0" font-alignment="1" strokeStyle="0" markerStart="0" markerEnd="0" shadowEnabled="0" shadowOffsetX="0" shadowOffsetY="2" shadowBlur="4" shadowOpacity="160" blurEnabled="0" blurRadius="4" transform="matrix(1.15059,0,0,1.30969,224.662,600.13)" pers-center="0,0" pers-size="0,0" pers-start="0,0" pers-end="0,0" locked="0" mesh="" flag=""/>
            <path id="shapePath25" d="M87.7526,513.571 C84.896,518.852 83.7521,525.529 84.1357,531.716 C84.5861,538.979 88.3436,545.474 90.1639,552.454 C93.355,564.691 95.8998,577.14 99.1656,589.352 C100.463,594.203 101.365,599.387 103.842,603.601 C107.162,609.247 112.152,613.358 116.21,618.34 C122.291,625.804 127.05,634.909 134.257,640.937 C140.851,646.451 149.087,648.845 156.715,652.216 C163.608,655.263 170.557,658.314 177.769,660.169 C187.942,662.787 198.519,662.979 208.693,665.589 C216.441,667.576 223.635,671.858 231.368,673.917 C238.622,675.848 246.163,675.992 253.492,677.515 C262.21,679.326 270.827,681.722 279.478,683.91 C289.79,686.519 299.883,690.559 310.38,691.905 C317.717,692.845 325.124,690.939 332.503,690.705 C341.982,690.406 351.766,693.003 360.948,690.306 C363.888,689.442 365.712,684.511 365.162,681.112 C364.648,677.94 361.314,675.381 358.49,675.116 C349.354,674.259 340.252,678.491 331.099,677.914 C312.601,676.75 294.314,672.841 275.966,669.92 C264.566,668.105 253.176,666.154 241.867,663.707 C236.773,662.604 231.84,660.688 226.803,659.282 C221.187,657.714 215.57,656.14 209.911,654.784 C195.903,651.425 181.562,649.657 167.808,645.137 C158.283,642.007 148.686,638.172 140.417,631.946 C133.512,626.748 128.927,618.376 123.21,611.56 C119.12,606.684 113.945,602.717 110.997,596.869 C106.632,588.21 104.298,578.388 101.683,568.858 C99.6725,561.527 99.2059,553.719 97.1536,546.404 C95.4882,540.467 90.7289,535.501 90.578,529.272 C90.4087,522.28 97.4882,516.161 96.2552,509.309 C95.6338,505.855 89.3762,510.569 87.7526,513.571 Z" style="stroke:none;fill-rule:evenodd;fill:#000000;fill-opacity:1;"/>
        </g>
        <g id="Shape26">
            <desc shapeID="26" type="0" basicInfo-basicType="0" basicInfo-roundedRectRadius="12" basicInfo-polygonSides="6" basicInfo-starPoints="5" bounding="rect(-8.32688,-24.3177,16.6539,48.6354)" text="" font-familyName="Helvetica" font-pixelSize="20" font-bold="0" font-underline="0" font-alignment="1" strokeStyle="0" markerStart="0" markerEnd="0" shadowEnabled="0" shadowOffsetX="0" shadowOffsetY="2" shadowBlur="4" shadowOpacity="160" blurEnabled="0" blurRadius="4" transform="matrix(1.15059,0,0,1.30969,378.324,646.739)" pers-center="0,0" pers-size="0,0" pers-start="0,0" pers-end="0,0" locked="0" mesh="" flag=""/>
            <path id="shapePath26" d="M368.904,671.908 C368.155,665.737 370.204,659.513 371.432,653.443 C372.878,646.295 375.463,639.488 376.909,632.34 C377.928,627.305 376.011,621.063 378.805,616.992 C380.578,614.409 386.309,613.98 387.443,616.992 C389.228,621.734 385.327,627.029 384.494,632.1 C383.29,639.424 382.919,646.933 381.334,654.162 C379.55,662.295 379.007,671.492 374.416,678.047 C372.814,680.335 369.255,674.806 368.904,671.908 Z" style="stroke:none;fill-rule:evenodd;fill:#000000;fill-opacity:1;"/>
        </g>
        <g id="Shape27">
            <desc shapeID="27" type="0" basicInfo-basicType="0" basicInfo-roundedRectRadius="12" basicInfo-polygonSides="6" basicInfo-starPoints="5" bounding="rect(-20.5581,-28.4798,41.1161,56.9595)" text="" font-familyName="Helvetica" font-pixelSize="20" font-bold="0" font-underline="0" font-alignment="1" strokeStyle="0" markerStart="0" markerEnd="0" shadowEnabled="0" shadowOffsetX="0" shadowOffsetY="2" shadowBlur="4" shadowOpacity="160" blurEnabled="0" blurRadius="4" transform="matrix(1.15059,0,0,1.30969,408.432,654.446)" pers-center="0,0" pers-size="0,0" pers-start="0,0" pers-end="0,0" locked="0" mesh="" flag=""/>
            <path id="shapePath27" d="M387.448,679.792 C395.732,675.342 405.525,675.64 413.97,671.602 C417.37,669.976 421.444,667.287 422.193,663.177 C422.661,660.609 417.86,661.053 416.231,659.199 C414.202,656.889 413.073,653.742 411.503,651.008 C409.578,647.658 404.989,644.854 405.746,640.945 C406.48,637.156 413.115,638.594 414.586,635.095 C416.629,630.238 412.333,623.396 414.998,618.947 C416.662,616.169 422.325,616.762 423.838,619.649 C425.76,623.317 422.357,628.037 421.988,632.286 C421.67,635.936 423.132,639.956 421.782,643.285 C420.802,645.703 415.152,644.946 415.82,647.498 C416.835,651.375 421.966,651.645 424.66,654.284 C427.417,656.985 432.476,659.298 432.062,663.411 C431.485,669.136 426.493,673.36 422.399,676.75 C417.952,680.431 412.307,681.729 407.185,684.005 C401.065,686.723 395.198,690.78 388.682,691.727 C386.863,691.992 385.046,689.328 384.832,687.255 C384.557,684.595 385.321,680.935 387.448,679.792 Z" style="stroke:none;fill-rule:evenodd;fill:#000000;fill-opacity:1;"/>
        </g>
        <g id="Shape28">
            <desc shapeID="28" type="0" basicInfo-basicType="0" basicInfo-roundedRectRadius="12" basicInfo-polygonSides="6" basicInfo-starPoints="5" bounding="rect(-78.4064,-30.5057,156.813,61.0113)" text="" font-familyName="Helvetica" font-pixelSize="20" font-bold="0" font-underline="0" font-alignment="1" strokeStyle="0" markerStart="0" markerEnd="0" shadowEnabled="0" shadowOffsetX="0" shadowOffsetY="2" shadowBlur="4" shadowOpacity="160" blurEnabled="0" blurRadius="4" transform="matrix(1.15059,0,0,1.30969,827.166,680.83)" pers-center="0,0" pers-size="0,0" pers-start="0,0" pers-end="0,0" locked="0" mesh="" flag=""/>
            <path id="shapePath28" d="M737.515,670.352 C747.839,681.505 762.165,686.84 775.44,692.682 C779.425,694.435 783.304,695.727 787.42,697.031 C792.045,698.497 796.218,699.126 800.811,700.72 C808.68,703.452 817.019,703.951 825.135,705.484 C834.892,707.326 844.604,709.558 854.429,710.843 C857.549,711.25 864.707,713.61 867.738,714.546 C875.176,716.842 877.78,722.322 885.293,720.37 C891.804,718.677 893.961,708.645 897.063,701.911 C904.383,686.017 911.278,669.753 916.418,652.787 C917.503,649.202 918.241,643.4 915.371,641.474 C912.512,639.554 907.756,642.591 906.217,645.939 C899.406,660.764 897.671,678.057 891.57,693.277 C889.382,698.734 886.077,704.05 881.631,707.27 C879.539,708.785 876.643,707.596 874.307,706.646 C869.272,704.599 864.91,701.875 859.66,700.72 C854.265,699.533 848.617,699.86 843.183,698.934 C830.445,696.762 817.897,693.161 805.519,689.109 C797.536,686.496 792.074,686.91 784.081,684.34 C780.548,683.204 774.688,679.574 771.255,678.093 C763.669,674.82 757.761,666.818 749.808,664.994 C745.506,664.007 734.332,666.914 737.515,670.352 Z" style="stroke:none;fill-rule:evenodd;fill:#000000;fill-opacity:1;"/>
        </g>
        <g id="Shape29">
            <desc shapeID="29" type="0" basicInfo-basicType="0" basicInfo-roundedRectRadius="12" basicInfo-polygonSides="6" basicInfo-starPoints="5" bounding="rect(-83.134,-72.5199,166.27,145.039)" text="" font-familyName="Helvetica" font-pixelSize="20" font-bold="0" font-underline="0" font-alignment="1" strokeStyle="0" markerStart="0" markerEnd="0" shadowEnabled="0" shadowOffsetX="0" shadowOffsetY="2" shadowBlur="4" shadowOpacity="160" blurEnabled="0" blurRadius="4" transform="matrix(1.15059,0,0,1.30969,874.34,643.968)" pers-center="0,0" pers-size="0,0" pers-start="0,0" pers-end="0,0" locked="0" mesh="" flag=""/>
            <path id="shapePath29" d="M788.12,559.032 C801.574,562.539 814.482,568.365 827.56,573.387 C840.09,578.198 852.399,583.736 864.935,588.525 C874.493,592.177 884.31,594.919 893.827,598.704 C898.545,600.581 903.335,602.497 907.585,605.491 C917.234,612.287 925.992,620.601 935.33,627.937 C940.058,631.652 944.849,635.274 949.776,638.638 C953.265,641.021 958.495,641.168 960.553,645.164 C961.924,647.826 959.848,652.1 957.572,653.777 C951.481,658.263 944.235,660.537 937.164,662.39 C933.439,663.366 929.207,660.401 925.7,662.129 C923.281,663.321 920.933,667.126 921.801,669.959 C923.642,675.965 928.668,680.032 932.579,684.575 C935.621,688.11 939.143,691.072 942.58,694.102 C945.226,696.435 948.098,697.65 948.846,701.363 C949.656,705.382 949.241,709.673 946.15,711.823 C938.273,717.3 928.479,718.019 919.972,722.094 C917.326,723.362 915.606,726.553 912.931,727.738 C909.939,729.064 906.59,729.962 903.412,729.431 C900.223,728.898 897.909,724.69 894.686,724.69 C892.769,724.69 889.809,727.511 890.72,729.431 C892.868,733.961 896.912,738.659 901.429,738.912 C910.221,739.404 918.582,734.345 927.012,731.463 C934,729.073 941.355,727.337 947.637,723.11 C952.144,720.077 956.085,715.505 958.544,710.243 C960.938,705.123 964.404,698.055 961.618,693.199 C957.278,685.635 947.39,685.003 940.993,679.655 C939.239,678.188 935.971,674.695 937.721,673.221 C943.385,668.453 951.726,669.703 957.751,665.546 C961.922,662.669 965.324,657.97 967.234,652.861 C969.396,647.076 970.81,640.276 969.477,634.175 C968.866,631.379 964.737,632.139 962.442,630.925 C959.108,629.162 955.807,627.306 952.606,625.25 C940.383,617.401 928.436,609.003 916.182,601.216 C910.699,597.731 905.174,594.285 899.41,591.444 C890.983,587.29 882.377,583.586 873.67,580.261 C862.452,575.977 850.927,572.799 839.677,568.63 C831.402,565.565 823.373,561.687 815.115,558.566 C806.797,555.422 798.247,553.103 789.964,549.843 C781.043,546.331 770.73,554.498 788.12,559.032 Z" style="stroke:none;fill-rule:evenodd;fill:#000000;fill-opacity:1;"/>
        </g>
        <g id="Shape30">
            <desc shapeID="30" type="0" basicInfo-basicType="0" basicInfo-roundedRectRadius="12" basicInfo-polygonSides="6" basicInfo-starPoints="5" bounding="rect(0,0,0,0)" text="" font-familyName="Helvetica" font-pixelSize="20" font-bold="0" font-underline="0" font-alignment="1" strokeStyle="0" markerStart="0" markerEnd="0" shadowEnabled="0" shadowOffsetX="0" shadowOffsetY="2" shadowBlur="4" shadowOpacity="160" blurEnabled="0" blurRadius="4" transform="matrix(1.15059,0,-0.0675191,1.14726,61.2273,49.6653)" pers-center="0,0" pers-size="0,0" pers-start="0,0" pers-end="0,0" locked="0" mesh="" flag=""/>
            <path id="shapePath30" d="M61.2273,49.6653 Z" style="stroke:none;fill-rule:evenodd;fill:#000000;fill-opacity:1;"/>
        </g>
        <g id="Shape31">
            <desc shapeID="31" type="0" basicInfo-basicType="0" basicInfo-roundedRectRadius="12" basicInfo-polygonSides="6" basicInfo-starPoints="5" bounding="rect(-28.3471,-32.9454,56.6942,65.8909)" text="" font-familyName="Helvetica" font-pixelSize="20" font-bold="0" font-underline="0" font-alignment="1" strokeStyle="0" markerStart="0" markerEnd="0" shadowEnabled="0" shadowOffsetX="0" shadowOffsetY="2" shadowBlur="4" shadowOpacity="160" blurEnabled="0" blurRadius="4" transform="matrix(1.15059,0,-0.0675191,1.14726,282.036,162.966)" pers-center="0,0" pers-size="0,0" pers-start="0,0" pers-end="0,0" locked="0" mesh="" flag=""/>
            <path id="shapePath31" d="M253.848,200.13 C256.492,202.881 262.167,196.007 262.978,192.127 C264.307,185.761 260.034,179.745 259.435,173.383 C258.924,167.965 259.471,162.436 259.663,156.956 C259.844,151.713 259.224,146.366 260.554,141.223 C260.842,140.108 262.953,139.92 263.93,140.452 C268.863,143.137 273.124,146.863 277.44,150.416 C281.663,153.891 285.388,157.923 289.516,161.506 C291.541,163.263 293.696,164.71 294.888,167.124 C296.288,169.957 295.757,172.997 296.691,176.036 C297.644,179.139 299.433,181.941 301.429,184.458 C303.227,186.725 304.944,190.476 307.931,190.21 C310.781,189.957 313.175,186.227 313.447,183.39 C313.731,180.44 310.644,178.357 309.314,175.799 C307.509,172.326 305.778,168.813 304.043,165.302 C302.252,161.676 301.724,157.091 298.738,154.389 C290.901,147.297 280.831,142.993 272.368,136.636 C268.368,133.632 265.858,128.775 261.443,126.379 C259.2,125.162 255.317,124.385 253.588,126.445 C250.89,129.658 251.693,134.484 251.226,138.55 C250.383,145.885 249.915,153.244 249.665,160.589 C249.461,166.567 249.242,172.583 249.866,178.484 C250.641,185.809 248.845,194.925 253.848,200.13 Z" style="stroke:none;fill-rule:evenodd;fill:#000000;fill-opacity:1;"/>
        </g>
        <g id="Shape32">
            <desc shapeID="32" type="0" basicInfo-basicType="0" basicInfo-roundedRectRadius="12" basicInfo-polygonSides="6" basicInfo-starPoints="5" bounding="rect(-40.6617,-28.9925,81.3236,57.9853)" text="" font-familyName="Helvetica" font-pixelSize="20" font-bold="0" font-underline="0" font-alignment="1" strokeStyle="0" markerStart="0" markerEnd="0" shadowEnabled="0" shadowOffsetX="0" shadowOffsetY="2" shadowBlur="4" shadowOpacity="160" blurEnabled="0" blurRadius="4" transform="matrix(1.15059,0,-0.0675191,1.14726,773.277,239.585)" pers-center="0,0" pers-size="0,0" pers-start="0,0" pers-end="0,0" locked="0" mesh="" flag=""/>
            <path id="shapePath32" d="M732.363,243.888 C729.281,246.953 724.162,251.619 726.11,255.24 C727.833,258.441 733.853,254.735 737.204,252.884 C744.296,248.967 749.733,242.382 756.748,238.32 C763.406,234.466 770.665,231.774 777.899,229.324 C787.143,226.193 796.513,223.207 806.061,221.614 C807.627,221.353 810.259,222.411 810.004,223.97 C808.855,230.976 804.22,237.206 802.375,244.103 C800.345,251.699 798.428,259.49 798.437,267.234 C798.439,269.572 800.118,272.384 802.405,272.803 C804.495,273.186 807.021,270.99 807.787,268.947 C810.097,262.781 809.743,256.066 811.069,249.672 C811.745,246.416 812.833,243.236 813.784,240.033 C816.226,231.812 819.664,223.783 821.249,215.402 C821.782,212.584 822.261,208.68 820.021,207.05 C817.648,205.323 813.91,207.11 810.949,207.907 C801.12,210.552 791.567,214.313 781.826,217.33 C774.281,219.668 766.316,220.657 759.097,223.97 C755.185,225.764 752.623,229.738 749.154,232.323 C743.701,236.386 737.188,239.091 732.363,243.888 Z" style="stroke:none;fill-rule:evenodd;fill:#000000;fill-opacity:1;"/>
        </g>
        <g id="Shape33">
            <desc shapeID="33" type="0" basicInfo-basicType="0" basicInfo-roundedRectRadius="12" basicInfo-polygonSides="6" basicInfo-starPoints="5" bounding="rect(0,0,0,0)" text="" font-familyName="Helvetica" font-pixelSize="20" font-bold="0" font-underline="0" font-alignment="1" strokeStyle="0" markerStart="0" markerEnd="0" shadowEnabled="0" shadowOffsetX="0" shadowOffsetY="2" shadowBlur="4" shadowOpacity="160" blurEnabled="0" blurRadius="4" transform="matrix(1.15059,0,0,1.30969,376.854,738.945)" pers-center="0,0" pers-size="0,0" pers-start="0,0" pers-end="0,0" locked="0" mesh="" flag=""/>
            <path id="shapePath33" d="M376.854,738.945 Z" style="stroke:none;fill-rule:evenodd;fill:#000000;fill-opacity:1;"/>
        </g>
        <g id="Shape34">
            <desc shapeID="34" type="0" basicInfo-basicType="0" basicInfo-roundedRectRadius="12" basicInfo-polygonSides="6" basicInfo-starPoints="5" bounding="rect(0,0,0,0)" text="" font-familyName="Helvetica" font-pixelSize="20" font-bold="0" font-underline="0" font-alignment="1" strokeStyle="0" markerStart="0" markerEnd="0" shadowEnabled="0" shadowOffsetX="0" shadowOffsetY="2" shadowBlur="4" shadowOpacity="160" blurEnabled="0" blurRadius="4" transform="matrix(1.15059,0,0,1.30969,566.44,720.491)" pers-center="0,0" pers-size="0,0" pers-start="0,0" pers-end="0,0" locked="0" mesh="" flag=""/>
            <path id="shapePath34" d="M566.44,720.491 Z" style="stroke:none;fill-rule:evenodd;fill:#000000;fill-opacity:1;"/>
        </g>
        <g id="Shape35">
            <desc shapeID="35" type="0" basicInfo-basicType="0" basicInfo-roundedRectRadius="12" basicInfo-polygonSides="6" basicInfo-starPoints="5" bounding="rect(0,0,0,0)" text="" font-familyName="Helvetica" font-pixelSize="20" font-bold="0" font-underline="0" font-alignment="1" strokeStyle="0" markerStart="0" markerEnd="0" shadowEnabled="0" shadowOffsetX="0" shadowOffsetY="2" shadowBlur="4" shadowOpacity="160" blurEnabled="0" blurRadius="4" transform="matrix(1.15059,0,0,1.30969,588.389,740.909)" pers-center="0,0" pers-size="0,0" pers-start="0,0" pers-end="0,0" locked="0" mesh="" flag=""/>
            <path id="shapePath35" d="M588.389,740.909 Z" style="stroke:none;fill-rule:evenodd;fill:#000000;fill-opacity:1;"/>
        </g>
        <g id="Shape36">
            <desc shapeID="36" type="0" basicInfo-basicType="0" basicInfo-roundedRectRadius="12" basicInfo-polygonSides="6" basicInfo-starPoints="5" bounding="rect(-173.233,-38.4754,346.467,76.9509)" text="" font-familyName="Helvetica" font-pixelSize="20" font-bold="0" font-underline="0" font-alignment="1" strokeStyle="0" markerStart="0" markerEnd="0" shadowEnabled="0" shadowOffsetX="0" shadowOffsetY="2" shadowBlur="4" shadowOpacity="160" blurEnabled="0" blurRadius="4" transform="matrix(1.15059,0,-0.0675191,1.14726,516.927,216.932)" pers-center="0,0" pers-size="0,0" pers-start="0,0" pers-end="0,0" locked="0" mesh="" flag=""/>
            <path id="shapePath36" d="M319.383,193.792 C322.806,197.885 329.793,197.215 335.285,197.363 C341.013,197.518 346.709,195.308 352.45,194.685 C374.144,192.332 395.892,191.119 417.566,188.437 C423.982,187.644 430.186,184.361 436.609,184.272 C444.661,184.16 452.216,187.991 460.269,187.842 C468.568,187.689 476.737,183.02 484.998,183.379 C497.614,183.928 509.479,188.591 521.876,190.519 C529.901,191.768 538.322,191.078 546.203,192.899 C563.731,196.951 580.809,202.492 597.824,208.073 C614.39,213.506 631.27,218.432 646.902,225.924 C653.842,229.251 658.151,236.466 664.859,240.205 C674.658,245.666 685.916,248.363 696.015,253.295 C700.18,255.329 702.86,260.253 707.495,261.031 C709.983,261.448 712.953,258.727 713.743,256.27 C714.591,253.631 713.522,250.271 711.513,248.535 C707.686,245.229 702.354,244.057 697.559,242.287 C691.044,239.884 683.544,239.592 677.636,236.04 C666.977,229.631 659.519,220.641 648.649,214.571 C643.137,211.493 635.813,211.008 629.681,209.264 C616.606,205.543 603.921,200.746 591.048,196.47 C579.143,192.515 567.614,187.456 555.346,184.57 C544.751,182.077 533.542,182.212 522.77,180.405 C510.481,178.342 498.685,174.004 486.208,172.967 C475.835,172.104 465.237,174.691 454.773,174.751 C448.089,174.79 441.563,172.789 434.87,173.264 C426.057,173.889 417.424,176.919 408.631,178.025 C404.754,178.512 400.876,177.619 396.994,178.025 C387.536,179.011 378.146,180.963 368.702,182.189 C359.802,183.344 350.866,183.95 341.97,185.165 C337.064,185.835 332,186.055 327.321,187.842 C324.256,189.013 317.381,191.399 319.383,193.792 Z" style="stroke:none;fill-rule:evenodd;fill:#060606;fill-opacity:1;"/>
        </g>
        <g id="Shape37">
            <desc shapeID="37" type="0" basicInfo-basicType="0" basicInfo-roundedRectRadius="12" basicInfo-polygonSides="6" basicInfo-starPoints="5" bounding="rect(0,0,0,0)" text="" font-familyName="Helvetica" font-pixelSize="20" font-bold="0" font-underline="0" font-alignment="1" strokeStyle="0" markerStart="0" markerEnd="0" shadowEnabled="0" shadowOffsetX="0" shadowOffsetY="2" shadowBlur="4" shadowOpacity="160" blurEnabled="0" blurRadius="4" transform="matrix(1.15059,0,-0.0675191,1.14726,463.953,186.138)" pers-center="0,0" pers-size="0,0" pers-start="0,0" pers-end="0,0" locked="0" mesh="" flag=""/>
            <path id="shapePath37" d="M463.953,186.138 Z" style="stroke:none;fill-rule:evenodd;fill:#000000;fill-opacity:1;"/>
        </g>
        <g id="Shape38">
            <desc shapeID="38" type="0" basicInfo-basicType="0" basicInfo-roundedRectRadius="12" basicInfo-polygonSides="6" basicInfo-starPoints="5" bounding="rect(-6.44825,-19.6947,12.8967,39.3895)" text="" font-familyName="Helvetica" font-pixelSize="20" font-bold="0" font-underline="0" font-alignment="1" strokeStyle="0" markerStart="0" markerEnd="0" shadowEnabled="0" shadowOffsetX="0" shadowOffsetY="2" shadowBlur="4" shadowOpacity="160" blurEnabled="0" blurRadius="4" transform="matrix(1.15059,0,-0.0675191,1.14726,458.496,207.921)" pers-center="0,0" pers-size="0,0" pers-start="0,0" pers-end="0,0" locked="0" mesh="" flag=""/>
            <path id="shapePath38" d="M462.751,185.392 C458.594,186.388 458.175,192.796 456.72,196.822 C455.317,200.708 455.285,204.89 454.267,208.872 C453.124,213.347 450.349,217.608 450.246,222.165 C450.182,224.943 451.809,227.667 453.801,229.495 C454.962,230.56 457.375,230.961 458.639,229.867 C459.777,228.883 458.529,226.962 458.396,225.519 C458.25,223.937 457.333,222.354 457.801,220.798 C459.346,215.678 462.585,211.097 464.278,206.015 C465.528,202.265 466.863,198.317 466.578,194.461 C466.332,191.138 466.065,184.6 462.751,185.392 Z" style="stroke:none;fill-rule:evenodd;fill:#000000;fill-opacity:1;"/>
        </g>
        <g id="Shape39">
            <desc shapeID="39" type="0" basicInfo-basicType="0" basicInfo-roundedRectRadius="12" basicInfo-polygonSides="6" basicInfo-starPoints="5" bounding="rect(-5.85535,-18.9371,11.7107,37.8741)" text="" font-familyName="Helvetica" font-pixelSize="20" font-bold="0" font-underline="0" font-alignment="1" strokeStyle="0" markerStart="0" markerEnd="0" shadowEnabled="0" shadowOffsetX="0" shadowOffsetY="2" shadowBlur="4" shadowOpacity="160" blurEnabled="0" blurRadius="4" transform="matrix(1.15059,0,-0.0675191,1.14726,490.128,212.2)" pers-center="0,0" pers-size="0,0" pers-start="0,0" pers-end="0,0" locked="0" mesh="" flag=""/>
            <path id="shapePath39" d="M491.921,191.48 C488.854,196.342 487.969,202.182 486.36,207.63 C484.958,212.381 482.662,217.187 482.896,222.041 C483.094,226.148 484.82,230.318 487.595,233.222 C488.825,234.508 491.59,233.846 493.106,232.725 C494.286,231.852 494.231,229.885 493.978,228.501 C493.604,226.448 491.634,224.977 491.317,222.91 C490.863,219.953 490.9,216.794 491.726,213.841 C492.883,209.703 496.253,206.226 497.155,202.039 C497.91,198.539 498.085,194.581 496.548,191.48 C495.881,190.134 492.763,190.145 491.921,191.48 Z" style="stroke:none;fill-rule:evenodd;fill:#000000;fill-opacity:1;"/>
        </g>
        <g id="Shape40">
            <desc shapeID="40" type="0" basicInfo-basicType="0" basicInfo-roundedRectRadius="12" basicInfo-polygonSides="6" basicInfo-starPoints="5" bounding="rect(-5.00109,-16.3115,10.0021,32.6229)" text="" font-familyName="Helvetica" font-pixelSize="20" font-bold="0" font-underline="0" font-alignment="1" strokeStyle="0" markerStart="0" markerEnd="0" shadowEnabled="0" shadowOffsetX="0" shadowOffsetY="2" shadowBlur="4" shadowOpacity="160" blurEnabled="0" blurRadius="4" transform="matrix(1.15059,0,-0.0675191,1.14726,526.405,218.001)" pers-center="0,0" pers-size="0,0" pers-start="0,0" pers-end="0,0" locked="0" mesh="" flag=""/>
            <path id="shapePath40" d="M523.87,200.634 C522.396,204.319 524.671,208.368 524.3,212.257 C523.826,217.213 522.24,222.067 521.353,226.991 C520.804,230.04 519.001,233.326 519.997,236.171 C520.455,237.48 523.293,236.161 524.15,234.987 C527.338,230.613 529.682,225.619 531.385,220.549 C532.401,217.528 532.505,214.237 532.161,211.146 C531.739,207.351 531.44,203.138 529.121,200.197 C528.071,198.866 524.529,198.983 523.87,200.634 Z" style="stroke:none;fill-rule:evenodd;fill:#000000;fill-opacity:1;"/>
        </g>
    </g>
    <g id="Layer3" name="old_text" opacity="1">
        <g id="Shape41">
            <desc shapeID="41" type="0" basicInfo-basicType="0" basicInfo-roundedRectRadius="12" basicInfo-polygonSides="6" basicInfo-starPoints="5" bounding="rect(-49.9267,-51.9632,99.8535,103.925)" text="" font-familyName="Helvetica" font-pixelSize="20" font-bold="0" font-underline="0" font-alignment="1" strokeStyle="0" markerStart="0" markerEnd="0" shadowEnabled="0" shadowOffsetX="0" shadowOffsetY="2" shadowBlur="4" shadowOpacity="160" blurEnabled="0" blurRadius="4" transform="matrix(1.15059,0,0,1.0735,220.615,811.378)" pers-center="0,0" pers-size="0,0" pers-start="0,0" pers-end="0,0" locked="0" mesh="" flag=""/>
            <path id="shapePath41" d="M163.371,756.905 C162.363,762.512 165.415,768.117 166.412,773.726 C167.732,781.154 169.11,788.574 170.322,796.019 C171.572,803.707 171.616,811.617 173.797,819.122 C176.066,826.931 180.129,834.191 183.572,841.618 C186.864,848.719 189.436,856.232 193.998,862.695 C195.645,865.027 198.611,867.294 201.6,867.153 C209.408,866.786 216.532,862.737 224.191,861.276 C229.322,860.296 234.597,859.665 239.83,859.857 C247.566,860.141 255.21,861.559 262.855,862.695 C266.586,863.249 270.375,866.109 273.933,864.923 C276.709,863.999 278.06,860.377 278.06,857.628 C278.06,855.813 275.812,854.246 273.933,853.778 C265.228,851.604 256.187,850.714 247.215,849.927 C241.521,849.427 235.725,849.219 230.056,849.927 C223.18,850.784 216.569,852.962 209.855,854.588 C207.082,855.26 204.367,857.509 201.6,856.817 C199.389,856.264 198.669,853.479 197.691,851.548 C194.307,844.867 191.597,837.907 188.568,831.079 C186.891,827.301 184.823,823.649 183.572,819.731 C181.771,814.091 180.413,808.318 179.445,802.504 C178.092,794.38 178.389,786.036 176.621,777.982 C175.035,770.759 173.434,763.263 169.436,756.904 C168.413,755.277 163.705,755.045 163.371,756.905 Z" style="stroke:none;fill-rule:evenodd;fill:#000000;fill-opacity:1;"/>
        </g>
        <g id="Shape42">
            <desc shapeID="42" type="0" basicInfo-basicType="0" basicInfo-roundedRectRadius="12" basicInfo-polygonSides="6" basicInfo-starPoints="5" bounding="rect(-21.8255,-44.0525,43.6509,88.1052)" text="" font-familyName="Helvetica" font-pixelSize="20" font-bold="0" font-underline="0" font-alignment="1" strokeStyle="0" markerStart="0" markerEnd="0" shadowEnabled="0" shadowOffsetX="0" shadowOffsetY="2" shadowBlur="4" shadowOpacity="160" blurEnabled="0" blurRadius="4" transform="matrix(1.15059,0,0,1.0735,331.887,817.483)" pers-center="0,0" pers-size="0,0" pers-start="0,0" pers-end="0,0" locked="0" mesh="" flag=""/>
            <path id="shapePath42" d="M321.2,775.043 C317.773,779.905 317.455,786.153 315.972,791.805 C314.584,797.094 313.658,802.48 312.596,807.834 C311.373,813.999 310.038,820.152 309.12,826.364 C308.119,833.143 306.894,839.941 306.841,846.784 C306.801,851.975 306.296,857.629 308.843,862.245 C310.062,864.454 314.125,865.413 316.516,864.32 C319.034,863.168 319.997,859.777 319.964,857.16 C319.918,853.519 316.699,850.407 316.294,846.784 C315.902,843.285 317.245,839.804 317.628,836.304 C317.912,833.716 316.241,830.282 318.296,828.522 C320.455,826.674 324.22,827.618 327.081,828.211 C331.382,829.102 334.938,832.406 339.315,832.88 C343.251,833.307 347.366,832.294 350.992,830.805 C353.489,829.78 356.949,828.162 356.998,825.617 C357.051,822.818 354.153,819.747 351.215,819.184 C347.609,818.492 344.418,822.117 340.761,822.504 C337.059,822.896 333.281,822.199 329.639,821.467 C325.674,820.668 319.684,821.412 318.073,817.939 C315.917,813.288 319.749,807.911 321.076,802.997 C322.127,799.105 323.665,795.337 325.191,791.583 C326.929,787.307 329.646,783.355 330.863,778.925 C331.608,776.21 333.732,771.627 330.974,770.52 C327.634,769.178 323.198,772.208 321.2,775.043 Z" style="stroke:none;fill-rule:evenodd;fill:#000000;fill-opacity:1;"/>
        </g>
        <g id="Shape43">
            <desc shapeID="43" type="0" basicInfo-basicType="0" basicInfo-roundedRectRadius="12" basicInfo-polygonSides="6" basicInfo-starPoints="5" bounding="rect(-24.4571,-35.8849,48.9141,71.7698)" text="" font-familyName="Helvetica" font-pixelSize="20" font-bold="0" font-underline="0" font-alignment="1" strokeStyle="0" markerStart="0" markerEnd="0" shadowEnabled="0" shadowOffsetX="0" shadowOffsetY="2" shadowBlur="4" shadowOpacity="160" blurEnabled="0" blurRadius="4" transform="matrix(1.15059,0,0,1.0735,351.584,817.391)" pers-center="0,0" pers-size="0,0" pers-start="0,0" pers-end="0,0" locked="0" mesh="" flag=""/>
            <path id="shapePath43" d="M323.634,781.622 C322.6,784.431 326.029,787.182 327.86,789.611 C332.991,796.421 339.006,802.614 344.431,809.223 C347.127,812.508 349.868,815.777 352.215,819.287 C356.215,825.267 360.339,831.23 363.448,837.653 C365.894,842.708 365.617,848.837 368.786,853.528 C370.055,855.407 373.383,856.478 375.57,855.604 C378.03,854.62 380.029,851.647 379.685,849.171 C378.924,843.703 375.463,838.828 372.567,834.021 C368.396,827.098 363.435,820.608 358.555,814.1 C355.57,810.12 352.064,806.501 348.99,802.582 C343.054,795.013 339.053,785.861 331.529,779.64 C329.489,777.954 324.519,779.217 323.634,781.622 Z" style="stroke:none;fill-rule:evenodd;fill:#000000;fill-opacity:1;"/>
        </g>
        <g id="Shape44">
            <desc shapeID="44" type="0" basicInfo-basicType="0" basicInfo-roundedRectRadius="12" basicInfo-polygonSides="6" basicInfo-starPoints="5" bounding="rect(-38.8818,-42.9928,77.7637,85.9858)" text="" font-familyName="Helvetica" font-pixelSize="20" font-bold="0" font-underline="0" font-alignment="1" strokeStyle="0" markerStart="0" markerEnd="0" shadowEnabled="0" shadowOffsetX="0" shadowOffsetY="2" shadowBlur="4" shadowOpacity="160" blurEnabled="0" blurRadius="4" transform="matrix(1.15059,0,0,1.0735,461.604,823.665)" pers-center="0,0" pers-size="0,0" pers-start="0,0" pers-end="0,0" locked="0" mesh="" flag=""/>
            <path id="shapePath44" d="M417.237,784.43 C421.417,787.245 426.817,788.116 431.85,789.156 C436.564,790.131 441.655,789.105 446.269,790.429 C447.947,790.911 450.066,792.673 449.582,794.247 C447.801,800.034 443.577,804.916 440.229,810.063 C436.752,815.408 431.385,819.813 429.122,825.698 C426.964,831.312 427.274,837.551 427.369,843.514 C427.47,849.917 427.815,856.446 429.707,862.603 C430.563,865.387 432.333,868.859 435.358,869.511 C440.97,870.719 446.769,868.01 452.505,867.511 C459.31,866.918 466.134,866.004 472.964,866.238 C480.298,866.491 487.473,868.397 494.787,868.965 C497.638,869.187 500.949,870.037 503.361,868.602 C505.425,867.373 506.968,864.371 506.089,862.239 C505.202,860.089 501.846,859.752 499.464,859.148 C496.501,858.397 493.363,858.496 490.306,858.239 C481.802,857.526 473.317,856.399 464.78,856.24 C460.277,856.155 455.803,856.975 451.336,857.512 C447.226,858.006 443.178,859.752 439.06,859.33 C437.325,859.152 435.745,857.464 435.358,855.876 C434.174,851.025 434.113,845.924 434.578,840.969 C434.903,837.511 436.15,834.127 437.696,830.97 C440.656,824.926 444.368,819.221 448.023,813.518 C451.712,807.761 457.294,802.925 459.714,796.61 C460.989,793.283 460.724,788.957 458.545,786.066 C456.052,782.758 451.312,781.461 447.244,780.067 C442.891,778.575 438.236,777.713 433.604,777.521 C430.753,777.404 428.001,778.539 425.225,779.158 C423.232,779.602 420.98,779.605 419.307,780.709 C418.084,781.516 416.022,783.612 417.237,784.43 Z" style="stroke:none;fill-rule:evenodd;fill:#000000;fill-opacity:1;"/>
        </g>
        <g id="Shape45">
            <desc shapeID="45" type="0" basicInfo-basicType="0" basicInfo-roundedRectRadius="12" basicInfo-polygonSides="6" basicInfo-starPoints="5" bounding="rect(-29.4734,-8.40537,58.9467,16.8107)" text="" font-familyName="Helvetica" font-pixelSize="20" font-bold="0" font-underline="0" font-alignment="1" strokeStyle="0" markerStart="0" markerEnd="0" shadowEnabled="0" shadowOffsetX="0" shadowOffsetY="2" shadowBlur="4" shadowOpacity="160" blurEnabled="0" blurRadius="4" transform="matrix(1.15059,0,0,1.0735,438.718,825.864)" pers-center="0,0" pers-size="0,0" pers-start="0,0" pers-end="0,0" locked="0" mesh="" flag=""/>
            <path id="shapePath45" d="M405.223,821.974 C410.278,824.976 416.946,824.331 422.718,825.832 C429.889,827.697 436.764,830.549 444.03,832.064 C451.288,833.577 458.699,834.961 466.136,834.884 C468.438,834.859 471.22,833.719 472.18,831.767 C473.092,829.914 472.642,826.532 470.59,825.832 C463.837,823.529 456.216,824.978 449.119,823.903 C441.82,822.797 434.702,820.823 427.489,819.303 C423.675,818.499 419.933,817.255 416.038,816.929 C413.729,816.735 411.214,816.798 409.14,817.766 C407.359,818.596 403.544,820.976 405.223,821.974 Z" style="stroke:none;fill-rule:evenodd;fill:#000000;fill-opacity:1;"/>
        </g>
        <g id="Shape46">
            <desc shapeID="46" type="0" basicInfo-basicType="0" basicInfo-roundedRectRadius="12" basicInfo-polygonSides="6" basicInfo-starPoints="5" bounding="rect(-34.4501,-46.9375,68.9001,93.8749)" text="" font-familyName="Helvetica" font-pixelSize="20" font-bold="0" font-underline="0" font-alignment="1" strokeStyle="0" markerStart="0" markerEnd="0" shadowEnabled="0" shadowOffsetX="0" shadowOffsetY="2" shadowBlur="4" shadowOpacity="160" blurEnabled="0" blurRadius="4" transform="matrix(1.15059,0,0,1.0735,554.701,829.432)" pers-center="0,0" pers-size="0,0" pers-start="0,0" pers-end="0,0" locked="0" mesh="" flag=""/>
            <path id="shapePath46" d="M515.133,785.493 C516.878,790.878 521.664,794.996 525.622,799.239 C529.526,803.424 534.87,806.337 538.606,810.654 C540.549,812.9 541.823,815.732 542.352,818.576 C543.924,827.027 543.53,835.714 544.849,844.203 C546.031,851.815 547.768,859.358 549.843,866.801 C551.021,871.033 551.417,875.928 554.586,879.148 C556.068,880.653 559.228,879.308 561.078,878.217 C562.721,877.249 564.299,875.357 564.076,873.558 C563.406,868.191 560.015,863.416 558.581,858.181 C557.01,852.441 556.007,846.57 555.086,840.708 C554.091,834.37 552.729,828.01 552.839,821.604 C552.898,818.158 553.369,814.344 555.586,811.586 C559.135,807.172 563.802,804.932 568.06,801.103 C570.745,798.687 574.218,794.825 577.361,792.949 C582.802,789.7 588.776,790.022 593.765,786.193 C595.318,785.001 593.402,782.193 591.793,781.067 C589.724,779.62 586.815,778.647 584.302,779.203 C579.7,780.223 575.476,782.697 571.817,785.493 C567.007,789.169 563.523,794.141 559.245,798.35 C555.865,801.675 553.666,807.212 548.844,808.092 C545.551,808.693 543.994,803.765 541.603,801.568 C538.667,798.873 535.68,796.219 532.862,793.414 C530.682,791.246 528.918,788.719 526.62,786.659 C524.609,784.856 522.773,782.166 520,781.885 C517.94,781.676 514.534,783.642 515.133,785.493 Z" style="stroke:none;fill-rule:evenodd;fill:#000000;fill-opacity:1;"/>
        </g>
        <g id="Shape47">
            <desc shapeID="47" type="0" basicInfo-basicType="0" basicInfo-roundedRectRadius="12" basicInfo-polygonSides="6" basicInfo-starPoints="5" bounding="rect(-5.03263,-55.9389,10.0651,111.878)" text="" font-familyName="Helvetica" font-pixelSize="20" font-bold="0" font-underline="0" font-alignment="1" strokeStyle="0" markerStart="0" markerEnd="0" shadowEnabled="0" shadowOffsetX="0" shadowOffsetY="2" shadowBlur="4" shadowOpacity="160" blurEnabled="0" blurRadius="4" transform="matrix(1.15059,0,0,1.0735,646.823,822.365)" pers-center="0,0" pers-size="0,0" pers-start="0,0" pers-end="0,0" locked="0" mesh="" flag=""/>
            <path id="shapePath47" d="M645.525,762.943 C642.658,768.999 643.713,776.286 643.329,782.996 C642.614,795.473 642.5,807.974 642.23,820.467 C641.977,832.175 641.921,843.887 641.76,855.597 C641.66,862.817 640.398,870.104 641.446,877.259 C641.759,879.396 643.391,882.095 645.682,882.382 C648.154,882.692 651.32,880.827 651.957,878.576 C653.532,873.009 651.797,867.061 651.643,861.305 C651.378,851.35 650.935,841.4 650.702,831.445 C650.569,825.737 650.545,820.028 650.545,814.319 C650.545,803.829 650.552,793.338 650.702,782.849 C650.761,778.748 652.209,774.539 651.173,770.554 C650.393,767.555 646.861,760.12 645.525,762.943 Z" style="stroke:none;fill-rule:evenodd;fill:#000000;fill-opacity:1;"/>
        </g>
        <g id="Shape48">
            <desc shapeID="48" type="0" basicInfo-basicType="0" basicInfo-roundedRectRadius="12" basicInfo-polygonSides="6" basicInfo-starPoints="5" bounding="rect(-26.2659,-28.8797,52.5317,57.7591)" text="" font-familyName="Helvetica" font-pixelSize="20" font-bold="0" font-underline="0" font-alignment="1" strokeStyle="0" markerStart="0" markerEnd="0" shadowEnabled="0" shadowOffsetX="0" shadowOffsetY="2" shadowBlur="4" shadowOpacity="160" blurEnabled="0" blurRadius="4" transform="matrix(1.15059,0,0,1.0735,661.158,799.612)" pers-center="0,0" pers-size="0,0" pers-start="0,0" pers-end="0,0" locked="0" mesh="" flag=""/>
            <path id="shapePath48" d="M657.06,773.9 C659.714,776.631 664.55,776.262 668.357,777.248 C671.733,778.123 675.434,778.064 678.592,779.48 C681.312,780.7 684.457,782.295 685.503,784.937 C686.291,786.925 684.624,789.308 683.111,790.889 C678.947,795.24 673.868,798.77 668.889,802.298 C664.456,805.439 659.869,808.453 654.933,810.855 C650.556,812.985 645.475,813.663 641.11,815.815 C637.608,817.541 633.474,819.163 631.54,822.388 C630.305,824.446 631.051,827.831 633.002,829.332 C635.163,830.994 638.75,830.859 641.376,829.953 C647.468,827.847 652.777,824.094 658.123,820.651 C662.815,817.63 667.182,814.171 671.414,810.607 C677.206,805.729 683.584,801.247 688.162,795.353 C690.433,792.429 691.573,788.542 691.352,784.937 C691.149,781.63 689.567,778.137 686.966,775.884 C683.072,772.512 678.04,770.103 672.877,768.94 C669.15,768.1 665.08,768.996 661.446,770.135 C659.563,770.726 655.725,772.526 657.06,773.9 Z" style="stroke:none;fill-rule:evenodd;fill:#000000;fill-opacity:1;"/>
        </g>
        <g id="Shape49">
            <desc shapeID="49" type="0" basicInfo-basicType="0" basicInfo-roundedRectRadius="12" basicInfo-polygonSides="6" basicInfo-starPoints="5" bounding="rect(-6.89499,-42.352,13.7899,84.7039)" text="" font-familyName="Helvetica" font-pixelSize="20" font-bold="0" font-underline="0" font-alignment="1" strokeStyle="0" markerStart="0" markerEnd="0" shadowEnabled="0" shadowOffsetX="0" shadowOffsetY="2" shadowBlur="4" shadowOpacity="160" blurEnabled="0" blurRadius="4" transform="matrix(1.15059,0,0,1.0735,734.22,831.138)" pers-center="0,0" pers-size="0,0" pers-start="0,0" pers-end="0,0" locked="0" mesh="" flag=""/>
            <path id="shapePath49" d="M738.973,785.935 C735.496,789.947 734.167,795.301 732.786,800.297 C730.877,807.2 730.163,814.349 729.164,821.417 C727.999,829.654 726.578,837.894 726.296,846.199 C726.173,849.847 727.249,853.45 727.956,857.041 C729.061,862.654 729.058,868.662 731.729,873.796 C732.742,875.742 735.827,877.029 738.068,876.472 C739.981,875.995 740.985,873.381 740.784,871.543 C740.237,866.552 737.005,862.102 735.955,857.182 C734.73,851.442 733.865,845.572 733.993,839.722 C734.118,833.981 735.826,828.367 736.709,822.685 C737.738,816.07 738.646,809.439 739.728,802.832 C740.456,798.378 742.339,794.007 742.138,789.506 C742.069,787.963 740.014,784.734 738.973,785.935 Z" style="stroke:none;fill-rule:evenodd;fill:#000000;fill-opacity:1;"/>
        </g>
        <g id="Shape50">
            <desc shapeID="50" type="0" basicInfo-basicType="0" basicInfo-roundedRectRadius="12" basicInfo-polygonSides="6" basicInfo-starPoints="5" bounding="rect(-34.5096,-43.6604,69.0191,87.3208)" text="" font-familyName="Helvetica" font-pixelSize="20" font-bold="0" font-underline="0" font-alignment="1" strokeStyle="0" markerStart="0" markerEnd="0" shadowEnabled="0" shadowOffsetX="0" shadowOffsetY="2" shadowBlur="4" shadowOpacity="160" blurEnabled="0" blurRadius="4" transform="matrix(1.15059,0,0,1.0735,815.26,823.146)" pers-center="0,0" pers-size="0,0" pers-start="0,0" pers-end="0,0" locked="0" mesh="" flag=""/>
            <path id="shapePath50" d="M854.922,792.239 C853.26,787.058 850.725,781.054 845.587,778.553 C839.269,775.477 831.237,776.004 824.249,777.308 C815.263,778.985 806.499,782.468 798.911,787.262 C792.076,791.58 785.892,797.315 781.908,804.06 C777.861,810.909 775.306,818.949 775.573,826.767 C775.882,835.821 777.74,845.657 783.575,852.896 C789.302,860.003 798.941,863.896 807.913,866.894 C815.804,869.531 824.696,870.904 832.918,869.382 C839.026,868.252 845.677,864.718 848.254,859.428 C849.571,856.725 842.761,855.893 839.586,855.696 C832.458,855.252 825.327,858.455 818.248,857.562 C810.203,856.546 801.621,854.784 795.244,850.097 C789.851,846.133 786.576,839.582 785.242,833.299 C784.102,827.931 786.356,822.305 788.242,817.124 C790.4,811.196 792.617,804.86 797.244,800.327 C801.912,795.754 808.528,793.087 814.914,790.995 C823.263,788.26 832.116,785.179 840.919,786.018 C845.316,786.437 846.68,792.627 850.67,794.4 C852.127,795.047 855.385,793.682 854.922,792.239 Z" style="stroke:none;fill-rule:evenodd;fill:#000000;fill-opacity:1;"/>
        </g>
    </g>
    <g id="Layer4" name="guide_line" visibility="hidden" opacity="1">
        <g id="Shape51">
            <desc shapeID="51" type="0" basicInfo-basicType="4" basicInfo-roundedRectRadius="12" basicInfo-polygonSides="6" basicInfo-starPoints="5" bounding="rect(-496.658,-496.658,993.317,993.316)" text="" font-familyName="Helvetica" font-pixelSize="20" font-bold="0" font-underline="0" font-alignment="1" strokeStyle="0" markerStart="0" markerEnd="0" shadowEnabled="0" shadowOffsetX="0" shadowOffsetY="2" shadowBlur="4" shadowOpacity="160" blurEnabled="0" blurRadius="4" transform="matrix(1.03089,0,0,1.03089,512,512)" pers-center="0,0" pers-size="0,0" pers-start="0,0" pers-end="0,0" locked="0" mesh="" flag=""/>
            <path id="shapePath51" d="M-9.15527e-05,512 C6.10352e-05,229.23 229.23,-0.00012207 512,0 C794.77,0 1024,229.23 1024,512 C1024,794.77 794.77,1024 512,1024 C229.23,1024 -9.15527e-05,794.77 -9.15527e-05,512 Z" style="stroke:#323232;stroke-opacity:1;stroke-width:1;stroke-linejoin:miter;stroke-miterlimit:2;stroke-linecap:round;fill:none;"/>
        </g>
        <g id="Shape52">
            <desc shapeID="52" type="0" basicInfo-basicType="2" basicInfo-roundedRectRadius="150" basicInfo-polygonSides="6" basicInfo-starPoints="5" bounding="rect(-512.21,-512.209,1024.42,1024.41)" text="" font-familyName="Helvetica" font-pixelSize="20" font-bold="0" font-underline="0" font-alignment="1" strokeStyle="0" markerStart="0" markerEnd="0" shadowEnabled="0" shadowOffsetX="0" shadowOffsetY="2" shadowBlur="4" shadowOpacity="160" blurEnabled="0" blurRadius="4" transform="matrix(1,0,0,1,513.124,511.295)" pers-center="0,0" pers-size="0,0" pers-start="0,0" pers-end="0,0" locked="0" mesh="" flag=""/>
            <path id="shapePath52" d="M0.914673,149.085 C0.914673,66.2426 68.072,-0.914581 150.915,-0.914581 L875.329,-0.914581 C958.171,-0.914581 1025.33,66.2426 1025.33,149.085 L1025.33,873.499 C1025.33,956.342 958.171,1023.5 875.329,1023.5 L150.915,1023.5 C68.072,1023.5 0.914673,956.342 0.914673,873.499 L0.914673,149.085 Z" style="stroke:#323232;stroke-opacity:1;stroke-width:1;stroke-linejoin:miter;stroke-miterlimit:2;stroke-linecap:round;fill:none;"/>
        </g>
    </g>
</svg>
