<?xml version="1.0" encoding="UTF-8" standalone="no"?>
<!-- Created with Inkscape (http://www.inkscape.org/) -->

<svg
   xmlns:dc="http://purl.org/dc/elements/1.1/"
   xmlns:cc="http://creativecommons.org/ns#"
   xmlns:rdf="http://www.w3.org/1999/02/22-rdf-syntax-ns#"
   xmlns:svg="http://www.w3.org/2000/svg"
   xmlns="http://www.w3.org/2000/svg"
   xmlns:sodipodi="http://sodipodi.sourceforge.net/DTD/sodipodi-0.dtd"
   xmlns:inkscape="http://www.inkscape.org/namespaces/inkscape"
   width="94.099998mm"
   height="53.099998mm"
   viewBox="0 0 94.099998 53.099998"
   version="1.1"
   id="svg8"
   inkscape:version="0.92.2 5c3e80d, 2017-08-06"
   sodipodi:docname="namecard_template_front.svg">
  <defs
     id="defs2" />
  <sodipodi:namedview
     id="base"
     pagecolor="#ffffff"
     bordercolor="#666666"
     borderopacity="1.0"
     inkscape:pageopacity="0.0"
     inkscape:pageshadow="2"
     inkscape:zoom="2.8"
     inkscape:cx="297.83637"
     inkscape:cy="60.215496"
     inkscape:document-units="mm"
     inkscape:current-layer="g822"
     showgrid="false"
     inkscape:window-width="2560"
     inkscape:window-height="1341"
     inkscape:window-x="0"
     inkscape:window-y="1"
     inkscape:window-maximized="1" />
  <metadata
     id="metadata5">
    <rdf:RDF>
      <cc:Work
         rdf:about="">
        <dc:format>image/svg+xml</dc:format>
        <dc:type
           rdf:resource="http://purl.org/dc/dcmitype/StillImage" />
        <dc:title></dc:title>
      </cc:Work>
    </rdf:RDF>
  </metadata>
  <g
     inkscape:label="Layer 1"
     inkscape:groupmode="layer"
     id="layer1"
     transform="translate(0,-243.9)">
    <g
       id="g822"
       transform="matrix(0.85179024,0,0,0.85179024,-2.1631993,-234.32462)">
      <g
         name="front"
         id="Layer1"
         style="opacity:1"
         transform="matrix(0.10012831,0,0,0.10012831,2.3234048,561.43996)">
        <g
           id="Shape1">
          <desc
             id="desc600"
             flag=""
             mesh=""
             locked="0"
             pers-end="0,0"
             pers-start="0,0"
             pers-size="0,0"
             pers-center="0,0"
             transform="matrix(2.23239,0,0,2.23239,423.8,281.677)"
             blurRadius="4"
             blurEnabled="0"
             shadowOpacity="160"
             shadowBlur="4"
             shadowOffsetY="2"
             shadowOffsetX="0"
             shadowEnabled="0"
             markerEnd="0"
             markerStart="0"
             strokeStyle="0"
             font-alignment="1"
             font-underline="0"
             font-bold="0"
             font-pixelSize="20"
             font-familyName="Helvetica"
             text=""
             bounding="rect(-0.0164664,0,0.0329336,0)"
             basicInfo-starPoints="5"
             basicInfo-polygonSides="6"
             basicInfo-roundedRectRadius="12"
             basicInfo-basicType="0"
             type="0"
             shapeID="1" />
          <path
             style="fill:#000000;fill-opacity:1;fill-rule:evenodd;stroke:none"
             d="m 423.763,281.677 c 0.166,0 0,0 0,0 z"
             id="shapePath1"
             inkscape:connector-curvature="0" />
        </g>
        <g
           id="Shape2">
          <desc
             id="desc604"
             flag=""
             mesh=""
             locked="0"
             pers-end="0,0"
             pers-start="0,0"
             pers-size="0,0"
             pers-center="0,0"
             transform="matrix(2.23239,0,0,2.23239,467.402,326.047)"
             blurRadius="4"
             blurEnabled="0"
             shadowOpacity="160"
             shadowBlur="4"
             shadowOffsetY="2"
             shadowOffsetX="0"
             shadowEnabled="0"
             markerEnd="0"
             markerStart="0"
             strokeStyle="0"
             font-alignment="1"
             font-underline="0"
             font-bold="0"
             font-pixelSize="20"
             font-familyName="Helvetica"
             text=""
             bounding="rect(-22.1306,-19.8753,44.2613,39.7506)"
             basicInfo-starPoints="5"
             basicInfo-polygonSides="6"
             basicInfo-roundedRectRadius="12"
             basicInfo-basicType="0"
             type="0"
             shapeID="2" />
          <path
             style="fill:#fbbbb8;fill-opacity:1;fill-rule:evenodd;stroke:none"
             d="m 422.108,281.678 c 0,0 32.614,23.508 32.614,23.508 0,0 62.084,23.014 62.084,23.014 0,0 -8.94,27.15 -8.94,27.15 0,0 -8.609,15.066 -8.609,15.066 0,0 -57.779,-33.11 -57.779,-33.11 0,0 -21.026,-26.325 -21.026,-26.325 0,0 -2.846,-9.563 -2.408,-17.305 0.387,-6.857 4.064,-11.998 4.064,-11.998 z"
             id="shapePath2"
             inkscape:connector-curvature="0" />
        </g>
        <g
           id="Shape3">
          <desc
             id="desc608"
             flag=""
             mesh=""
             locked="0"
             pers-end="0,0"
             pers-start="0,0"
             pers-size="0,0"
             pers-center="0,0"
             transform="matrix(2.23239,0,0,2.23239,654.188,346.821)"
             blurRadius="4"
             blurEnabled="0"
             shadowOpacity="160"
             shadowBlur="4"
             shadowOffsetY="2"
             shadowOffsetX="0"
             shadowEnabled="0"
             markerEnd="0"
             markerStart="0"
             strokeStyle="0"
             font-alignment="1"
             font-underline="0"
             font-bold="0"
             font-pixelSize="20"
             font-familyName="Helvetica"
             text=""
             bounding="rect(-21.4964,-10.7635,42.9929,21.527)"
             basicInfo-starPoints="5"
             basicInfo-polygonSides="6"
             basicInfo-roundedRectRadius="12"
             basicInfo-basicType="0"
             type="0"
             shapeID="3" />
          <path
             style="fill:#fbbbb8;fill-opacity:1;fill-rule:evenodd;stroke:none"
             d="m 698.424,370.849 c 0,0 -61.087,-13.847 -61.087,-13.847 0,0 -21.666,-8.796 -29.649,-15.149 -7.98,-6.354 18.735,-5.702 18.735,-5.702 0,0 29.811,-13.358 29.811,-13.358 0,0 45.775,11.729 45.938,11.729 0.163,0 -3.748,36.327 -3.748,36.327 z"
             id="shapePath3"
             inkscape:connector-curvature="0" />
        </g>
        <g
           id="Shape4">
          <desc
             id="desc612"
             flag=""
             mesh=""
             locked="0"
             pers-end="0,0"
             pers-start="0,0"
             pers-size="0,0"
             pers-center="0,0"
             transform="matrix(2.23239,0,0,2.23239,541.949,223.689)"
             blurRadius="4"
             blurEnabled="0"
             shadowOpacity="160"
             shadowBlur="4"
             shadowOffsetY="2"
             shadowOffsetX="0"
             shadowEnabled="0"
             markerEnd="0"
             markerStart="0"
             strokeStyle="0"
             font-alignment="1"
             font-underline="0"
             font-bold="0"
             font-pixelSize="20"
             font-familyName="Helvetica"
             text=""
             bounding="rect(-66.4877,-52.38,132.976,104.76)"
             basicInfo-starPoints="5"
             basicInfo-polygonSides="6"
             basicInfo-roundedRectRadius="12"
             basicInfo-basicType="0"
             type="0"
             shapeID="4" />
          <path
             style="fill:#fff9ee;fill-opacity:1;fill-rule:evenodd;stroke:none"
             d="m 410.673,269.271 c 0,0 30.956,31.745 30.956,31.745 0,0 16.019,8.581 34.013,15.082 21.462,7.753 45.513,13.649 45.513,13.649 0,0 55.155,10.874 55.155,10.874 0,0 50.874,-3.762 50.874,-3.762 0,0 36.026,-20.192 36.026,-20.192 0,0 23.806,-33.396 23.806,-33.396 0,0 3.36,-44.661 3.36,-44.661 0,0 -15.68,-43.401 -15.68,-43.401 0,0 -10.921,-18.341 -10.921,-18.341 0,0 1.96,-19.32 2.101,-19.32 0.14,0 -30.986,6.354 -30.986,6.354 0,0 -47.271,-24.859 -47.271,-24.859 0,0 -55.347,-10.574 -55.525,-10.574 -0.178,0 -32.569,0.356 -32.569,0.356 0,0 -22.425,-22.069 -22.425,-22.069 0,0 -7.475,25.628 -7.475,25.628 0,0 -8.932,3.954 -8.932,3.954 0,0 -19.576,6.344 -19.576,6.344 0,0 -28.589,25.781 -28.589,25.781 0,0 -13.575,26.315 -13.575,26.315 0,0 -5.431,26.525 -5.431,26.525 0,0 5.639,26.733 5.639,26.733 0,0 11.512,21.235 11.512,21.235 z"
             id="shapePath4"
             inkscape:connector-curvature="0" />
        </g>
        <g
           id="Shape5">
          <desc
             id="desc616"
             flag=""
             mesh=""
             locked="0"
             pers-end="0,0"
             pers-start="0,0"
             pers-size="0,0"
             pers-center="0,0"
             transform="matrix(2.23239,0,0,2.23239,498.319,369.439)"
             blurRadius="4"
             blurEnabled="0"
             shadowOpacity="160"
             shadowBlur="4"
             shadowOffsetY="2"
             shadowOffsetX="0"
             shadowEnabled="0"
             markerEnd="0"
             markerStart="0"
             strokeStyle="0"
             font-alignment="1"
             font-underline="0"
             font-bold="0"
             font-pixelSize="20"
             font-familyName="Helvetica"
             text=""
             bounding="rect(0,0,0,0)"
             basicInfo-starPoints="5"
             basicInfo-polygonSides="6"
             basicInfo-roundedRectRadius="12"
             basicInfo-basicType="0"
             type="0"
             shapeID="5" />
          <path
             style="fill:#000000;fill-opacity:1;fill-rule:evenodd;stroke:none"
             d="M 498.319,369.439 Z"
             id="shapePath5"
             inkscape:connector-curvature="0" />
        </g>
        <g
           id="Shape6">
          <desc
             id="desc620"
             flag=""
             mesh=""
             locked="0"
             pers-end="0,0"
             pers-start="0,0"
             pers-size="0,0"
             pers-center="0,0"
             transform="matrix(2.23239,0,0,2.23239,514.469,350.748)"
             blurRadius="4"
             blurEnabled="0"
             shadowOpacity="160"
             shadowBlur="4"
             shadowOffsetY="2"
             shadowOffsetX="0"
             shadowEnabled="0"
             markerEnd="0"
             markerStart="0"
             strokeStyle="0"
             font-alignment="1"
             font-underline="0"
             font-bold="0"
             font-pixelSize="20"
             font-familyName="Helvetica"
             text=""
             bounding="rect(-6.95312,-10.3777,13.9062,20.7553)"
             basicInfo-starPoints="5"
             basicInfo-polygonSides="6"
             basicInfo-roundedRectRadius="12"
             basicInfo-basicType="0"
             type="0"
             shapeID="6" />
          <path
             style="fill:#fff9ee;fill-opacity:1;fill-rule:evenodd;stroke:none"
             d="m 498.947,369.858 c 0,0 11.86,-21.558 11.86,-21.558 0,0 5.302,-20.719 5.371,-20.719 0.07,0 5.86,7.534 5.86,7.534 0,0 7.953,8.792 7.953,8.792 0,0 -6.139,5.719 -6.069,5.719 0.07,0 1.256,6.697 1.256,6.697 0,0 -4.953,5.512 -4.953,5.512 0,0 -0.768,7.534 -0.768,7.534 0,0 -4.92,4.432 -9.663,4.543 -5.461,0.13 -10.847,-4.054 -10.847,-4.054 z"
             id="shapePath6"
             inkscape:connector-curvature="0" />
        </g>
        <g
           id="Shape7">
          <desc
             id="desc624"
             flag=""
             mesh=""
             locked="0"
             pers-end="0,0"
             pers-start="0,0"
             pers-size="0,0"
             pers-center="0,0"
             transform="matrix(2.23239,0,0,2.23239,706.887,353.63)"
             blurRadius="4"
             blurEnabled="0"
             shadowOpacity="160"
             shadowBlur="4"
             shadowOffsetY="2"
             shadowOffsetX="0"
             shadowEnabled="0"
             markerEnd="0"
             markerStart="0"
             strokeStyle="0"
             font-alignment="1"
             font-underline="0"
             font-bold="0"
             font-pixelSize="20"
             font-familyName="Helvetica"
             text=""
             bounding="rect(-4.33381,-8.33136,8.66763,16.6627)"
             basicInfo-starPoints="5"
             basicInfo-polygonSides="6"
             basicInfo-roundedRectRadius="12"
             basicInfo-basicType="0"
             type="0"
             shapeID="7" />
          <path
             style="fill:#fff9ee;fill-opacity:1;fill-rule:evenodd;stroke:none"
             d="m 702.724,335.046 c 0,0 -5.512,36.346 -5.512,36.346 0,0 9.139,0.837 9.139,0.837 0,0 10.115,-5.998 10.115,-5.998 0,0 -0.21,-9.629 -0.21,-9.629 0,0 0,-4.357 -1.654,-9.237 0.038,-2.987 2.875,-4.746 1.654,-6.97 -3.252,-5.92 -13.532,-5.349 -13.532,-5.349 z"
             id="shapePath7"
             inkscape:connector-curvature="0" />
        </g>
        <g
           id="Shape8">
          <desc
             id="desc628"
             flag=""
             mesh=""
             locked="0"
             pers-end="0,0"
             pers-start="0,0"
             pers-size="0,0"
             pers-center="0,0"
             transform="matrix(2.23239,0,0,2.23239,518.618,249.883)"
             blurRadius="4"
             blurEnabled="0"
             shadowOpacity="160"
             shadowBlur="4"
             shadowOffsetY="2"
             shadowOffsetX="0"
             shadowEnabled="0"
             markerEnd="0"
             markerStart="0"
             strokeStyle="0"
             font-alignment="1"
             font-underline="0"
             font-bold="0"
             font-pixelSize="20"
             font-familyName="Helvetica"
             text=""
             bounding="rect(0,0,0,0)"
             basicInfo-starPoints="5"
             basicInfo-polygonSides="6"
             basicInfo-roundedRectRadius="12"
             basicInfo-basicType="0"
             type="0"
             shapeID="8" />
          <path
             style="fill:#fff5ea;fill-opacity:1;fill-rule:evenodd;stroke:none"
             d="M 518.618,249.883 Z"
             id="shapePath8"
             inkscape:connector-curvature="0" />
        </g>
        <g
           id="Shape9">
          <desc
             id="desc632"
             flag=""
             mesh=""
             locked="0"
             pers-end="0,0"
             pers-start="0,0"
             pers-size="0,0"
             pers-center="0,0"
             transform="matrix(2.23239,0,0,2.23239,543.548,246.064)"
             blurRadius="4"
             blurEnabled="0"
             shadowOpacity="160"
             shadowBlur="4"
             shadowOffsetY="2"
             shadowOffsetX="0"
             shadowEnabled="0"
             markerEnd="0"
             markerStart="0"
             strokeStyle="0"
             font-alignment="1"
             font-underline="0"
             font-bold="0"
             font-pixelSize="20"
             font-familyName="Helvetica"
             text=""
             bounding="rect(-12.2086,-11.2344,24.4173,22.4688)"
             basicInfo-starPoints="5"
             basicInfo-polygonSides="6"
             basicInfo-roundedRectRadius="12"
             basicInfo-basicType="0"
             type="0"
             shapeID="9" />
          <path
             style="fill:#ffffff;fill-opacity:1;fill-rule:evenodd;stroke:none"
             d="m 529.065,257.74 c 0,0 19.858,-0.518 19.858,-0.518 0,0 7.605,3.198 7.605,3.198 0,0 5.624,8.701 5.624,8.701 0,0 5.162,2.023 5.162,2.023 0,0 3.489,-1.326 3.489,-1.326 0,0 -1.117,-5.023 -1.117,-5.023 0,0 -4.674,-8.929 -4.674,-8.929 0,0 -3.418,-6.488 -3.348,-6.488 0.069,0 -1.396,-5.093 -1.396,-5.093 0,0 -1.604,-12.975 -1.604,-12.975 0,0 -3.209,-3.419 -3.209,-3.419 0,0 -22.394,-6.906 -22.394,-6.906 0,0 -6.278,0.418 -6.278,0.418 0,0 -5.682,6.026 -5.682,6.026 0,0 -4.807,10.14 -4.807,10.14 0,0 0.075,6.96 3.146,11.809 3.306,5.223 9.625,8.362 9.625,8.362 z"
             id="shapePath9"
             inkscape:connector-curvature="0" />
        </g>
        <g
           id="Shape10">
          <desc
             id="desc636"
             flag=""
             mesh=""
             locked="0"
             pers-end="0,0"
             pers-start="0,0"
             pers-size="0,0"
             pers-center="0,0"
             transform="matrix(1.18985,0,0,1.18985,498.015,401.762)"
             blurRadius="4"
             blurEnabled="0"
             shadowOpacity="160"
             shadowBlur="4"
             shadowOffsetY="2"
             shadowOffsetX="0"
             shadowEnabled="0"
             markerEnd="0"
             markerStart="0"
             strokeStyle="0"
             font-alignment="1"
             font-underline="0"
             font-bold="0"
             font-pixelSize="20"
             font-familyName=""
             text=""
             bounding="rect(-11.5247,-13.7458,23.0493,27.4917)"
             basicInfo-starPoints="5"
             basicInfo-polygonSides="6"
             basicInfo-roundedRectRadius="12"
             basicInfo-basicType="0"
             type="0"
             shapeID="10" />
          <path
             style="fill:#583735;fill-opacity:1;fill-rule:evenodd;stroke:none"
             d="m 493.161,389.615 c -4.402,5.474 -10.233,23.916 -8.567,27.01 1.666,3.212 3.689,1.19 5.711,-5.593 1.19,-4.045 2.023,-5.234 3.57,-4.877 1.071,0.236 3.569,0.832 5.711,1.308 2.618,0.475 4.522,2.022 6.187,4.878 1.666,2.737 2.975,3.808 4.284,3.333 2.617,-1.072 2.26,-3.927 -1.785,-14.875 -6.068,-16.658 -9.043,-18.799 -15.111,-11.184 m 7.853,11.541 c 0.119,0.596 -1.785,0.954 -4.046,0.954 h -4.164 l 2.499,-5.117 2.617,-4.998 1.547,4.165 c 0.833,2.259 1.547,4.521 1.547,4.996 z"
             id="shapePath10"
             inkscape:connector-curvature="0" />
        </g>
        <g
           id="Shape11">
          <desc
             id="desc640"
             flag=""
             mesh=""
             locked="0"
             pers-end="0,0"
             pers-start="0,0"
             pers-size="0,0"
             pers-center="0,0"
             transform="matrix(1.18985,0,0,1.18985,462.946,403.262)"
             blurRadius="4"
             blurEnabled="0"
             shadowOpacity="160"
             shadowBlur="4"
             shadowOffsetY="2"
             shadowOffsetX="0"
             shadowEnabled="0"
             markerEnd="0"
             markerStart="0"
             strokeStyle="0"
             font-alignment="1"
             font-underline="0"
             font-bold="0"
             font-pixelSize="20"
             font-familyName=""
             text=""
             bounding="rect(-11.8634,-12.9689,23.7268,25.9378)"
             basicInfo-starPoints="5"
             basicInfo-polygonSides="6"
             basicInfo-roundedRectRadius="12"
             basicInfo-basicType="0"
             type="0"
             shapeID="11" />
          <path
             style="fill:#583735;fill-opacity:1;fill-rule:evenodd;stroke:none"
             d="m 449.612,388.664 c -1.189,1.19 -0.951,27.485 0.238,28.199 0.595,0.358 6.307,1.07 12.732,1.427 10.352,0.714 12.017,0.596 13.564,-1.308 2.975,-3.57 -1.309,-5.354 -12.731,-5.354 h -9.876 V 399.73 c 0,-9.162 -0.357,-11.899 -1.547,-11.899 -0.952,0 -2.023,0.357 -2.38,0.833 z"
             id="shapePath11"
             inkscape:connector-curvature="0" />
        </g>
        <g
           id="Shape12">
          <desc
             id="desc644"
             flag=""
             mesh=""
             locked="0"
             pers-end="0,0"
             pers-start="0,0"
             pers-size="0,0"
             pers-center="0,0"
             transform="matrix(1.18985,0,0,1.18985,534.857,403.749)"
             blurRadius="4"
             blurEnabled="0"
             shadowOpacity="160"
             shadowBlur="4"
             shadowOffsetY="2"
             shadowOffsetX="0"
             shadowEnabled="0"
             markerEnd="0"
             markerStart="0"
             strokeStyle="0"
             font-alignment="1"
             font-underline="0"
             font-bold="0"
             font-pixelSize="20"
             font-familyName=""
             text=""
             bounding="rect(-10.3736,-11.4348,20.7473,22.8696)"
             basicInfo-starPoints="5"
             basicInfo-polygonSides="6"
             basicInfo-roundedRectRadius="12"
             basicInfo-basicType="0"
             type="0"
             shapeID="12" />
          <path
             style="fill:#583735;fill-opacity:1;fill-rule:evenodd;stroke:none"
             d="m 523.383,391.044 c -1.904,1.783 -0.595,3.806 3.094,4.52 8.329,1.666 8.21,1.429 4.521,6.546 -4.878,6.782 -6.782,11.659 -4.997,13.443 1.666,1.668 17.967,2.5 20.227,1.072 1.19,-0.833 1.309,-1.666 0.238,-3.688 -1.19,-2.023 -2.498,-2.498 -7.972,-2.498 -6.425,0 -6.425,0 -5.116,-2.737 0.833,-1.429 2.974,-4.403 4.759,-6.427 1.904,-2.141 3.094,-4.639 2.737,-5.592 -1.428,-3.688 -14.873,-7.258 -17.491,-4.639 z"
             id="shapePath12"
             inkscape:connector-curvature="0" />
        </g>
        <g
           id="Shape13">
          <desc
             id="desc648"
             flag=""
             mesh=""
             locked="0"
             pers-end="0,0"
             pers-start="0,0"
             pers-size="0,0"
             pers-center="0,0"
             transform="matrix(1.18985,0,0,1.18985,568.386,407.315)"
             blurRadius="4"
             blurEnabled="0"
             shadowOpacity="160"
             shadowBlur="4"
             shadowOffsetY="2"
             shadowOffsetX="0"
             shadowEnabled="0"
             markerEnd="0"
             markerStart="0"
             strokeStyle="0"
             font-alignment="1"
             font-underline="0"
             font-bold="0"
             font-pixelSize="20"
             font-familyName=""
             text=""
             bounding="rect(-11.124,-12.6233,22.248,25.2466)"
             basicInfo-starPoints="5"
             basicInfo-polygonSides="6"
             basicInfo-roundedRectRadius="12"
             basicInfo-basicType="0"
             type="0"
             shapeID="13" />
          <path
             style="fill:#583735;fill-opacity:1;fill-rule:evenodd;stroke:none"
             d="m 576.808,394.85 c -1.785,1.786 -4.522,4.045 -6.188,4.88 -2.737,1.545 -3.213,1.308 -7.615,-2.976 -2.975,-2.973 -5.235,-4.284 -6.544,-3.688 -1.785,0.594 -1.785,1.072 0.238,4.402 1.19,2.023 3.331,4.997 4.878,6.664 1.785,1.902 2.618,4.402 2.618,7.496 0,5.711 2.141,10.707 4.521,10.707 1.428,0 1.666,-1.308 1.071,-7.615 l -0.714,-7.614 4.641,-3.094 c 4.998,-3.331 9.28,-9.756 7.496,-11.542 -0.596,-0.594 -2.498,0.357 -4.402,2.38 z"
             id="shapePath13"
             inkscape:connector-curvature="0" />
        </g>
        <g
           id="Shape14">
          <desc
             id="desc652"
             flag=""
             mesh=""
             locked="0"
             pers-end="0,0"
             pers-start="0,0"
             pers-size="0,0"
             pers-center="0,0"
             transform="matrix(1.18985,0,0,1.18985,605.835,406.257)"
             blurRadius="4"
             blurEnabled="0"
             shadowOpacity="160"
             shadowBlur="4"
             shadowOffsetY="2"
             shadowOffsetX="0"
             shadowEnabled="0"
             markerEnd="0"
             markerStart="0"
             strokeStyle="0"
             font-alignment="1"
             font-underline="0"
             font-bold="0"
             font-pixelSize="20"
             font-familyName=""
             text=""
             bounding="rect(-8.00444,-12.2878,16.0089,24.5755)"
             basicInfo-starPoints="5"
             basicInfo-polygonSides="6"
             basicInfo-roundedRectRadius="12"
             basicInfo-basicType="0"
             type="0"
             shapeID="14" />
          <path
             style="fill:#583735;fill-opacity:1;fill-rule:evenodd;stroke:none"
             d="m 600.842,392.948 c -2.023,0.833 -3.331,2.38 -3.807,4.757 -1.189,5.831 -0.832,22.014 0.476,22.846 2.38,1.429 4.759,-2.022 4.759,-6.663 0,-4.164 0.358,-4.639 3.094,-4.639 3.331,0 9.995,-5.831 9.995,-8.686 0,-3.452 -1.547,-5.713 -4.88,-7.378 -3.806,-2.023 -5.115,-2.023 -9.637,-0.237 m 8.686,5.114 c 1.308,1.668 1.19,2.262 -1.19,4.166 -4.641,3.806 -7.257,2.38 -7.257,-3.809 0,-2.855 6.067,-3.212 8.447,-0.357 z"
             id="shapePath14"
             inkscape:connector-curvature="0" />
        </g>
        <g
           id="Shape15">
          <desc
             id="desc656"
             flag=""
             mesh=""
             locked="0"
             pers-end="0,0"
             pers-start="0,0"
             pers-size="0,0"
             pers-center="0,0"
             transform="matrix(1.18985,0,0,1.18985,655.084,405.719)"
             blurRadius="4"
             blurEnabled="0"
             shadowOpacity="160"
             shadowBlur="4"
             shadowOffsetY="2"
             shadowOffsetX="0"
             shadowEnabled="0"
             markerEnd="0"
             markerStart="0"
             strokeStyle="0"
             font-alignment="1"
             font-underline="0"
             font-bold="0"
             font-pixelSize="20"
             font-familyName=""
             text=""
             bounding="rect(-10.4608,-11.2901,20.9215,22.5803)"
             basicInfo-starPoints="5"
             basicInfo-polygonSides="6"
             basicInfo-roundedRectRadius="12"
             basicInfo-basicType="0"
             type="0"
             shapeID="15" />
          <path
             style="fill:#583735;fill-opacity:1;fill-rule:evenodd;stroke:none"
             d="m 649.863,394.138 c -7.376,4.639 -9.638,15.944 -4.282,20.94 6.543,6.067 17.966,5.235 21.179,-1.666 2.141,-4.641 -0.476,-6.663 -4.166,-3.212 -3.092,2.855 -10.113,3.569 -12.492,1.19 -2.141,-2.141 -1.666,-6.188 1.189,-9.876 2.141,-2.737 3.213,-3.095 7.021,-2.619 3.331,0.478 4.639,0.121 5.235,-1.19 1.784,-4.878 -7.735,-7.376 -13.684,-3.567 z"
             id="shapePath15"
             inkscape:connector-curvature="0" />
        </g>
        <g
           id="Shape16">
          <desc
             id="desc660"
             flag=""
             mesh=""
             locked="0"
             pers-end="0,0"
             pers-start="0,0"
             pers-size="0,0"
             pers-center="0,0"
             transform="matrix(1.18985,0,0,1.18985,628.646,408.024)"
             blurRadius="4"
             blurEnabled="0"
             shadowOpacity="160"
             shadowBlur="4"
             shadowOffsetY="2"
             shadowOffsetX="0"
             shadowEnabled="0"
             markerEnd="0"
             markerStart="0"
             strokeStyle="0"
             font-alignment="1"
             font-underline="0"
             font-bold="0"
             font-pixelSize="20"
             font-familyName=""
             text=""
             bounding="rect(-2.39476,-10.9446,4.7895,21.8892)"
             basicInfo-starPoints="5"
             basicInfo-polygonSides="6"
             basicInfo-roundedRectRadius="12"
             basicInfo-basicType="0"
             type="0"
             shapeID="16" />
          <path
             style="fill:#583735;fill-opacity:1;fill-rule:evenodd;stroke:none"
             d="m 626.661,396.16 c -1.071,1.784 -1.189,19.038 -0.118,22.25 1.19,3.688 3.927,3.449 4.641,-0.357 0.712,-3.808 0.119,-17.372 -0.953,-20.703 -0.833,-2.619 -2.38,-3.094 -3.57,-1.19 z"
             id="shapePath16"
             inkscape:connector-curvature="0" />
        </g>
        <g
           id="Shape17">
          <desc
             id="desc664"
             flag=""
             mesh=""
             locked="0"
             pers-end="0,0"
             pers-start="0,0"
             pers-size="0,0"
             pers-center="0,0"
             transform="matrix(1.20895,-0.0226762,0.0226762,1.20895,554.156,240.213)"
             blurRadius="4"
             blurEnabled="0"
             shadowOpacity="160"
             shadowBlur="4"
             shadowOffsetY="2"
             shadowOffsetX="0"
             shadowEnabled="0"
             markerEnd="0"
             markerStart="0"
             strokeStyle="0"
             font-alignment="1"
             font-underline="0"
             font-bold="0"
             font-pixelSize="20"
             font-familyName=""
             text=""
             bounding="rect(-134.764,-113.435,269.528,226.871)"
             basicInfo-starPoints="5"
             basicInfo-polygonSides="6"
             basicInfo-roundedRectRadius="12"
             basicInfo-basicType="0"
             type="0"
             shapeID="17" />
          <path
             style="fill:#583735;fill-opacity:1;fill-rule:evenodd;stroke:none"
             d="m 474.58,105.644 c -2.067,7.453 -3.249,13.076 -5.753,21.421 -1.534,5.113 -1.31,7.523 -0.325,8.472 2.092,1.895 4.2,-1.772 7.034,-11.863 1.239,-4.861 2.601,-9.603 2.946,-10.577 0.459,-1.339 1.435,-0.874 3.907,1.982 1.852,2.022 6.177,6.899 9.516,10.827 0,0 3.813,5.247 6.796,6.15 4.518,1.368 13.515,0 13.515,0 12.323,-0.715 23.098,-0.07 36.203,2.224 3.154,0.545 3.156,0.666 2.168,6.006 -0.548,3.033 -0.728,6.302 -0.345,7.383 1.393,3.36 4.218,-0.804 4.469,-6.735 0.272,-4.843 0.509,-5.089 3.181,-4.534 1.578,0.333 4.372,1.006 6.313,1.332 4.003,0.651 4.131,1.011 1.79,5.167 -2.222,4.033 -2.214,10.926 0.083,10.883 2.056,-0.038 2.631,-1.621 3.58,-9.016 0.427,-3.032 0.984,-5.582 1.347,-5.589 0.242,-0.005 2.913,0.55 5.948,1.219 5.831,1.342 5.958,1.702 4.313,10.682 -0.538,3.518 -0.494,5.936 0.245,6.647 2.094,2.017 4.659,-3.11 4.552,-8.792 -0.053,-2.902 0.386,-5.208 0.991,-5.219 1.088,-0.021 7.794,2.877 29.015,12.396 3.536,1.506 8.065,4.444 10.159,6.461 3.327,3.203 4.418,3.424 9.49,2.966 3.137,-0.421 10.367,-1.766 16.147,-3.084 5.778,-1.439 10.72,-2.257 11.091,-1.902 0.37,0.356 0.091,4.836 -0.782,9.932 -0.748,5.214 -0.623,6.882 0.277,10.255 0.998,3.735 4.715,6.266 7.615,9.225 9.934,13.721 18.933,42.095 18.85,57.093 0.005,6.651 -2.188,24.473 -3.987,31.763 -4.494,18.346 -24.576,40.364 -47.003,50.461 -13.551,6.179 -22.027,8.849 -37.381,9.137 -7.979,0.15 -16.54,-0.156 -18.237,-0.366 -1.699,-0.33 -9.569,-0.701 -17.199,-1.284 -13.93,-1.189 -23.668,-3.792 -44.47,-10.295 -5.963,-1.945 -18.89,-5.22 -27.637,-7.354 -8.629,-2.257 -17.499,-4.853 -19.818,-6.021 -2.32,-1.165 -11.367,-6.119 -19.423,-10.079 -15.745,-7.688 -21.341,-12.786 -39.628,-33.486 -9.885,-11.183 -16.978,-29.267 -17.907,-40.134 -1.484,-14.606 3.246,-35.021 12.849,-51.77 7.843,-13.813 16.279,-21.655 38.266,-35.854 1.79,-1.243 7.087,-2.83 10.1,-3.37 6.392,-0.966 7.92,-2.688 2.699,-3.799 -5.098,-0.993 -11.588,1.185 -21.151,7.169 -22.592,14.09 -35.708,30.542 -44.422,55.981 -3.441,9.982 -4.456,11.831 -3.495,26.43 0.66,10.032 2.495,15.986 4.115,20.745 5.981,17.563 11.484,24.314 17.284,30.494 l 6.541,7.013 -1.588,5.593 c -4.306,15.439 1.048,30.092 17.196,46.36 15.904,16.149 21.531,19.549 65.69,39.766 6.708,3.018 8.043,3.234 12.253,2.067 7.699,-2.201 10.649,-6.126 9.797,-12.881 -0.144,-1.208 0.906,-3.284 2.331,-4.641 1.663,-1.603 2.352,-3.552 1.956,-5.358 -0.397,-1.806 0.415,-3.637 2.199,-5.242 1.545,-1.48 2.843,-3.196 2.829,-3.922 -0.052,-2.782 -4.388,-8.262 -7.677,-9.532 -5.116,-1.96 -5.568,-0.257 -1.138,3.77 2.212,1.895 3.943,3.918 3.952,4.402 0.034,1.813 -2.705,4.041 -4.882,4.081 -3.506,0.067 -3.939,2.735 -0.874,4.976 3.186,2.237 3.189,2.36 -1.487,4.503 -3.358,1.514 -4.394,4.315 -2.07,5.722 2.08,1.292 1.427,5.174 -1.317,7.161 -2.742,2.107 -10.108,2.728 -12.676,1.206 -1.099,-0.585 -0.529,-2.409 1.817,-6.325 1.756,-3.056 3.855,-7.206 4.544,-9.155 0.687,-2.069 2.522,-7.425 4.247,-12.173 1.672,-4.603 2.61,-9.119 2.353,-9.961 -0.883,-1.918 3.362,-1.272 11.646,1.958 3.166,1.15 6.451,2.176 7.418,2.159 0.967,-0.018 4.977,0.995 8.989,2.129 8.148,2.387 28.743,4.298 53.665,4.798 14.52,0.332 17.297,0.04 25.351,-2.532 11.421,-3.598 24.494,-9.407 28.425,-12.626 3.693,-2.972 7.8,-3.17 14.979,-0.884 2.923,1.033 7.783,2.272 10.819,2.94 3.033,0.549 9.11,2.127 13.729,3.371 l 8.148,2.386 0.098,5.199 c 0.107,5.802 -1.509,16.355 -3.348,21.349 l -1.152,3.165 -6.318,-1.574 c -3.525,-0.901 -12.262,-2.551 -19.661,-3.623 -7.277,-1.194 -15.769,-2.607 -18.805,-3.275 -10.443,-2.223 -14.56,-2.509 -14.533,-1.058 0.038,2.056 6.851,4.226 22.634,7.436 28.892,5.746 32.414,6.648 34.388,8.669 1.603,1.663 3.786,1.984 9.345,1.759 6.041,-0.355 8.085,-0.998 11.778,-3.972 4.052,-3.219 4.52,-3.953 3.846,-7.69 -0.529,-2.409 -0.219,-5.195 0.603,-6.541 1.174,-1.958 1.031,-3.043 -0.714,-5.914 -1.751,-2.989 -1.764,-3.714 -0.335,-4.951 4.165,-3.585 -1.168,-10.622 -8.43,-10.968 -2.42,-0.076 -5.217,-0.871 -6.201,-1.819 -2.085,-1.534 -2.815,-1.762 -20.304,-5.666 -5.71,-1.344 -12.633,-2.909 -15.549,-3.699 l -5.223,-1.232 8.311,-8.14 c 16.859,-16.763 23.201,-33.329 23.978,-62.853 0.259,-11.977 -0.183,-16.202 -2.268,-24.145 -5.327,-19.613 -11.365,-32.077 -23.516,-48.055 -0.744,-0.953 -0.701,-5.066 0.147,-11.491 1.572,-12.849 0.949,-13.805 -9.061,-12.408 -3.983,0.437 -10.968,2.02 -15.538,3.436 l -8.172,2.693 -3.333,-3.566 c -3.456,-3.684 -12.631,-9.317 -19.694,-11.966 -2.313,-0.803 -7.923,-3.238 -12.437,-5.33 -13.54,-6.156 -23.264,-8.755 -48.981,-12.989 -14.437,-2.39 -36.332,-2.705 -46.577,-0.819 -4.096,0.802 -4.708,0.451 -8.049,-3.599 -5.57,-6.788 -11.576,-12.651 -18.083,-17.97 -1.012,-0.827 -3.361,-0.542 -3.902,0.698 M 449.592,307.26 c 6.95,3.013 14.643,6.983 17.211,8.505 4.282,2.581 26.058,9.43 41.851,13.245 l 5.589,1.346 -1.356,5.105 c -1.704,5.836 -6.897,19.116 -9.695,24.731 -2.443,5.126 -3.171,5.018 -27.942,-6.731 -16.84,-8.03 -21.855,-11.079 -31.806,-19.359 -18.671,-15.37 -25.433,-27.702 -23.538,-42.733 l 0.744,-5.456 8.25,7.827 c 6.525,6.166 10.932,8.986 20.692,13.52 m 264.255,32.655 c 1.351,1.063 1.244,1.791 -0.888,4.128 -2.487,2.828 -2.465,4.038 0.511,7.974 1.241,1.67 -1.402,2.84 -1.487,4.38 -0.091,1.681 0.295,3.413 0.976,4.954 0.455,1.033 1.353,1.939 1.103,3.042 -0.348,1.534 -2.367,2.532 -2.367,2.532 -3.692,3.092 -7.183,3.884 -9.996,2.243 -1.226,-0.823 -1.125,-1.913 0.261,-5.447 0.922,-2.435 1.998,-9.472 2.369,-15.524 l 0.52,-11.017 3.638,0.659 c 2.063,0.324 4.378,1.248 5.36,2.076 z"
             id="shapePath17"
             inkscape:connector-curvature="0" />
        </g>
        <g
           id="Shape18">
          <desc
             id="desc668"
             flag=""
             mesh=""
             locked="0"
             pers-end="0,0"
             pers-start="0,0"
             pers-size="0,0"
             pers-center="0,0"
             transform="matrix(1.20895,-0.0226762,0.0226762,1.20895,426.029,189.472)"
             blurRadius="4"
             blurEnabled="0"
             shadowOpacity="160"
             shadowBlur="4"
             shadowOffsetY="2"
             shadowOffsetX="0"
             shadowEnabled="0"
             markerEnd="0"
             markerStart="0"
             strokeStyle="0"
             font-alignment="1"
             font-underline="0"
             font-bold="0"
             font-pixelSize="20"
             font-familyName=""
             text=""
             bounding="rect(-5.95638,-1.66109,11.9127,3.32217)"
             basicInfo-starPoints="5"
             basicInfo-polygonSides="6"
             basicInfo-roundedRectRadius="12"
             basicInfo-basicType="0"
             type="0"
             shapeID="18" />
          <path
             style="fill:#583735;fill-opacity:1;fill-rule:evenodd;stroke:none"
             d="m 424.858,187.875 c -8.565,1.128 -7.79,3.774 1.035,3.609 5.44,-0.102 7.366,-0.622 7.343,-1.831 -0.043,-2.297 -2.107,-2.742 -8.378,-1.778 z"
             id="shapePath18"
             inkscape:connector-curvature="0" />
        </g>
        <g
           id="Shape19">
          <desc
             id="desc672"
             flag=""
             mesh=""
             locked="0"
             pers-end="0,0"
             pers-start="0,0"
             pers-size="0,0"
             pers-center="0,0"
             transform="matrix(1.20895,-0.0226762,0.0226762,1.20895,526.985,201.006)"
             blurRadius="4"
             blurEnabled="0"
             shadowOpacity="160"
             shadowBlur="4"
             shadowOffsetY="2"
             shadowOffsetX="0"
             shadowEnabled="0"
             markerEnd="0"
             markerStart="0"
             strokeStyle="0"
             font-alignment="1"
             font-underline="0"
             font-bold="0"
             font-pixelSize="20"
             font-familyName=""
             text=""
             bounding="rect(-6.35454,-2.82267,12.7091,5.64534)"
             basicInfo-starPoints="5"
             basicInfo-polygonSides="6"
             basicInfo-roundedRectRadius="12"
             basicInfo-basicType="0"
             type="0"
             shapeID="19" />
          <path
             style="fill:#583735;fill-opacity:1;fill-rule:evenodd;stroke:none"
             d="m 519.983,197.942 c -1.9,1.85 -0.053,2.866 5.907,4.69 6.328,2.058 10.069,2.388 8.452,0 -1.248,-2.033 -13.173,-5.921 -14.359,-4.69 z"
             id="shapePath19"
             inkscape:connector-curvature="0" />
        </g>
        <g
           id="Shape20">
          <desc
             id="desc676"
             flag=""
             mesh=""
             locked="0"
             pers-end="0,0"
             pers-start="0,0"
             pers-size="0,0"
             pers-center="0,0"
             transform="matrix(1.20895,-0.0226762,0.0226762,1.20895,422.683,203.877)"
             blurRadius="4"
             blurEnabled="0"
             shadowOpacity="160"
             shadowBlur="4"
             shadowOffsetY="2"
             shadowOffsetX="0"
             shadowEnabled="0"
             markerEnd="0"
             markerStart="0"
             strokeStyle="0"
             font-alignment="1"
             font-underline="0"
             font-bold="0"
             font-pixelSize="20"
             font-familyName=""
             text=""
             bounding="rect(-7.08133,-2.24172,14.1627,4.48345)"
             basicInfo-starPoints="5"
             basicInfo-polygonSides="6"
             basicInfo-roundedRectRadius="12"
             basicInfo-basicType="0"
             type="0"
             shapeID="20" />
          <path
             style="fill:#583735;fill-opacity:1;fill-rule:evenodd;stroke:none"
             d="m 414.503,203.186 c -0.92,2.557 -0.797,2.676 8.526,3.227 8.232,0.45 10.027,-0.551 6.579,-3.873 -2.217,-2.135 -14.181,-1.669 -15.105,0.646 z"
             id="shapePath20"
             inkscape:connector-curvature="0" />
        </g>
        <g
           id="Shape21">
          <desc
             id="desc680"
             flag=""
             mesh=""
             locked="0"
             pers-end="0,0"
             pers-start="0,0"
             pers-size="0,0"
             pers-center="0,0"
             transform="matrix(1.20895,-0.0226762,0.0226762,1.20895,543.529,240.719)"
             blurRadius="4"
             blurEnabled="0"
             shadowOpacity="160"
             shadowBlur="4"
             shadowOffsetY="2"
             shadowOffsetX="0"
             shadowEnabled="0"
             markerEnd="0"
             markerStart="0"
             strokeStyle="0"
             font-alignment="1"
             font-underline="0"
             font-bold="0"
             font-pixelSize="20"
             font-familyName=""
             text=""
             bounding="rect(-23.4062,-26.4636,46.8124,52.9273)"
             basicInfo-starPoints="5"
             basicInfo-polygonSides="6"
             basicInfo-roundedRectRadius="12"
             basicInfo-basicType="0"
             type="0"
             shapeID="21" />
          <path
             style="fill:#583735;fill-opacity:1;fill-rule:evenodd;stroke:none"
             d="m 543.679,210.438 c 0.018,0.967 0.518,1.805 1.122,1.793 1.088,-0.02 0.638,8.212 -0.425,9.562 -0.237,0.247 -1.937,-0.084 -3.764,-0.776 -1.827,-0.691 -5.469,-1.469 -7.896,-1.907 -4.001,-0.53 -5.083,-0.147 -9.36,3.924 -6.654,6.293 -8.277,10.072 -8.109,19.018 0.138,7.375 0.392,7.975 4.821,12.004 6.279,5.929 9.684,6.953 20.791,5.899 11.829,-1.19 15.197,2.493 19.92,9.298 1.866,2.746 6.796,3.02 8.247,2.993 4.715,-0.089 4.649,-3.827 -1.487,-15.08 -5.136,-9.458 -6.323,-11.692 -6.571,-18.459 -0.123,-6.529 -0.708,-8.262 -3.171,-10.635 -1.601,-1.542 -4.532,-3.059 -6.717,-3.502 -3.034,-0.548 -3.65,-1.141 -3.084,-3.207 0.336,-1.458 0.655,-3.762 0.63,-5.092 -0.038,-2.055 0.559,-2.429 2.986,-1.991 4.124,0.649 4.054,-3.099 -0.207,-4.591 -4.505,-1.609 -7.764,-1.306 -7.726,0.749 m 3.333,16.506 c 5.356,1.835 9.861,3.443 9.986,3.683 0.247,0.237 0.798,3.855 1.24,8.08 0.748,7.604 2.291,13.22 4.645,16.199 0.741,0.833 2.339,4.633 4.269,7.7 4.184,6.647 -0.467,10.41 -4.697,4.079 -1.371,-2.151 -3.468,-7.433 -6.885,-9.062 -5.251,-2.683 -7.678,-3.122 -16.02,-2.965 -7.979,0.15 -10.648,-0.284 -14.071,-2.276 -8.684,-5.158 -9.036,-17.487 -0.987,-26.829 2.724,-3.075 3.565,-3.333 7.931,-2.689 2.667,0.313 9.234,2.246 14.589,4.08 z"
             id="shapePath21"
             inkscape:connector-curvature="0" />
        </g>
        <g
           id="Shape22">
          <desc
             id="desc684"
             flag=""
             mesh=""
             locked="0"
             pers-end="0,0"
             pers-start="0,0"
             pers-size="0,0"
             pers-center="0,0"
             transform="matrix(1.20895,-0.0226762,0.0226762,1.20895,420.702,217.824)"
             blurRadius="4"
             blurEnabled="0"
             shadowOpacity="160"
             shadowBlur="4"
             shadowOffsetY="2"
             shadowOffsetX="0"
             shadowEnabled="0"
             markerEnd="0"
             markerStart="0"
             strokeStyle="0"
             font-alignment="1"
             font-underline="0"
             font-bold="0"
             font-pixelSize="20"
             font-familyName=""
             text=""
             bounding="rect(-6.80071,-2.22321,13.6014,4.44642)"
             basicInfo-starPoints="5"
             basicInfo-polygonSides="6"
             basicInfo-roundedRectRadius="12"
             basicInfo-basicType="0"
             type="0"
             shapeID="22" />
          <path
             style="fill:#583735;fill-opacity:1;fill-rule:evenodd;stroke:none"
             d="m 414.499,215.885 c -4.197,1.893 -1.871,3.421 6.973,4.223 6.421,0.605 7.504,0.343 7.475,-1.229 -0.021,-1.088 -0.525,-2.167 -1.015,-2.521 -2.324,-1.407 -10.673,-1.613 -13.433,-0.473 z"
             id="shapePath22"
             inkscape:connector-curvature="0" />
        </g>
        <g
           id="Shape23">
          <desc
             id="desc688"
             flag=""
             mesh=""
             locked="0"
             pers-end="0,0"
             pers-start="0,0"
             pers-size="0,0"
             pers-center="0,0"
             transform="matrix(1.20895,-0.0226762,0.0226762,1.20895,574.681,217.577)"
             blurRadius="4"
             blurEnabled="0"
             shadowOpacity="160"
             shadowBlur="4"
             shadowOffsetY="2"
             shadowOffsetX="0"
             shadowEnabled="0"
             markerEnd="0"
             markerStart="0"
             strokeStyle="0"
             font-alignment="1"
             font-underline="0"
             font-bold="0"
             font-pixelSize="20"
             font-familyName=""
             text=""
             bounding="rect(-7.21095,-3.18319,14.4219,6.36638)"
             basicInfo-starPoints="5"
             basicInfo-polygonSides="6"
             basicInfo-roundedRectRadius="12"
             basicInfo-basicType="0"
             type="0"
             shapeID="23" />
          <path
             style="fill:#583735;fill-opacity:1;fill-rule:evenodd;stroke:none"
             d="m 567.571,213.981 c -3.614,0.794 -1.17,2.106 5.769,4.516 8.274,2.747 9.502,3.663 10.071,1.839 0.799,-2.555 -11.385,-7.406 -15.84,-6.355 z"
             id="shapePath23"
             inkscape:connector-curvature="0" />
        </g>
        <g
           id="Shape24">
          <desc
             id="desc692"
             flag=""
             mesh=""
             locked="0"
             pers-end="0,0"
             pers-start="0,0"
             pers-size="0,0"
             pers-center="0,0"
             transform="matrix(1.20895,-0.0226762,0.0226762,1.20895,671.369,261.32)"
             blurRadius="4"
             blurEnabled="0"
             shadowOpacity="160"
             shadowBlur="4"
             shadowOffsetY="2"
             shadowOffsetX="0"
             shadowEnabled="0"
             markerEnd="0"
             markerStart="0"
             strokeStyle="0"
             font-alignment="1"
             font-underline="0"
             font-bold="0"
             font-pixelSize="20"
             font-familyName=""
             text=""
             bounding="rect(-6.70611,-2.64716,13.4123,5.29431)"
             basicInfo-starPoints="5"
             basicInfo-polygonSides="6"
             basicInfo-roundedRectRadius="12"
             basicInfo-basicType="0"
             type="0"
             shapeID="24" />
          <path
             style="fill:#583735;fill-opacity:1;fill-rule:evenodd;stroke:none"
             d="m 663.728,259.706 c -1.176,1.836 -0.565,2.188 6.231,3.39 9.103,1.765 9.586,1.756 9.55,-0.179 -0.069,-3.747 -13.79,-6.635 -15.781,-3.211 z"
             id="shapePath24"
             inkscape:connector-curvature="0" />
        </g>
        <g
           id="Shape25">
          <desc
             id="desc696"
             flag=""
             mesh=""
             locked="0"
             pers-end="0,0"
             pers-start="0,0"
             pers-size="0,0"
             pers-center="0,0"
             transform="matrix(1.20895,-0.0226762,0.0226762,1.20895,670.287,273.131)"
             blurRadius="4"
             blurEnabled="0"
             shadowOpacity="160"
             shadowBlur="4"
             shadowOffsetY="2"
             shadowOffsetX="0"
             shadowEnabled="0"
             markerEnd="0"
             markerStart="0"
             strokeStyle="0"
             font-alignment="1"
             font-underline="0"
             font-bold="0"
             font-pixelSize="20"
             font-familyName=""
             text=""
             bounding="rect(-5.28698,-3.26878,10.5739,6.53759)"
             basicInfo-starPoints="5"
             basicInfo-polygonSides="6"
             basicInfo-roundedRectRadius="12"
             basicInfo-basicType="0"
             type="0"
             shapeID="25" />
          <path
             style="fill:#583735;fill-opacity:1;fill-rule:evenodd;stroke:none"
             d="m 664.047,270.343 c -0.823,1.225 0.898,2.644 6.389,5.322 6.836,3.379 8.823,-0.286 2.34,-4.156 -4.277,-2.459 -7.675,-3 -8.729,-1.166 z"
             id="shapePath25"
             inkscape:connector-curvature="0" />
        </g>
        <g
           id="Shape26">
          <desc
             id="desc700"
             flag=""
             mesh=""
             locked="0"
             pers-end="0,0"
             pers-start="0,0"
             pers-size="0,0"
             pers-center="0,0"
             transform="matrix(1.20895,-0.0226762,0.0226762,1.20895,664.02,286.847)"
             blurRadius="4"
             blurEnabled="0"
             shadowOpacity="160"
             shadowBlur="4"
             shadowOffsetY="2"
             shadowOffsetX="0"
             shadowEnabled="0"
             markerEnd="0"
             markerStart="0"
             strokeStyle="0"
             font-alignment="1"
             font-underline="0"
             font-bold="0"
             font-pixelSize="20"
             font-familyName=""
             text=""
             bounding="rect(-6.32055,-4.45303,12.641,8.90606)"
             basicInfo-starPoints="5"
             basicInfo-polygonSides="6"
             basicInfo-roundedRectRadius="12"
             basicInfo-basicType="0"
             type="0"
             shapeID="26" />
          <path
             style="fill:#583735;fill-opacity:1;fill-rule:evenodd;stroke:none"
             d="m 656.305,283.065 c 0.034,1.814 10.33,9.119 12.868,9.071 5.199,-0.097 2.09,-4.635 -5.719,-8.358 -5.494,-2.679 -7.191,-2.889 -7.149,-0.713 z"
             id="shapePath26"
             inkscape:connector-curvature="0" />
        </g>
        <g
           id="Shape27">
          <desc
             id="desc704"
             flag=""
             mesh=""
             locked="0"
             pers-end="0,0"
             pers-start="0,0"
             pers-size="0,0"
             pers-center="0,0"
             transform="matrix(1.8588,-0.0348653,0.0348653,1.8588,501.926,212.564)"
             blurRadius="4"
             blurEnabled="0"
             shadowOpacity="160"
             shadowBlur="4"
             shadowOffsetY="2"
             shadowOffsetX="0"
             shadowEnabled="0"
             markerEnd="0"
             markerStart="0"
             strokeStyle="0"
             font-alignment="1"
             font-underline="0"
             font-bold="0"
             font-pixelSize="20"
             font-familyName=""
             text=""
             bounding="rect(-7.13133,-4.86247,14.2626,9.72495)"
             basicInfo-starPoints="5"
             basicInfo-polygonSides="6"
             basicInfo-roundedRectRadius="12"
             basicInfo-basicType="0"
             type="0"
             shapeID="27" />
          <path
             style="fill:#fc8e76;fill-opacity:0.67450998;fill-rule:evenodd;stroke:none"
             d="m 491.17,206.141 c -5.318,4.005 -2.046,9.893 7.504,13.433 7.859,2.642 8.602,2.628 13.011,-0.244 3.855,-2.675 4.392,-3.801 2.474,-6.926 -1.929,-3.683 -12.253,-8.882 -17.272,-8.787 -1.301,0.024 -3.883,1.188 -5.717,2.524 z"
             id="shapePath27"
             inkscape:connector-curvature="0" />
        </g>
        <g
           id="Shape28">
          <desc
             id="desc708"
             flag=""
             mesh=""
             locked="0"
             pers-end="0,0"
             pers-start="0,0"
             pers-size="0,0"
             pers-center="0,0"
             transform="matrix(1.97373,-0.0370209,0.0370211,1.97373,592.647,238.769)"
             blurRadius="4"
             blurEnabled="0"
             shadowOpacity="160"
             shadowBlur="4"
             shadowOffsetY="2"
             shadowOffsetX="0"
             shadowEnabled="0"
             markerEnd="0"
             markerStart="0"
             strokeStyle="0"
             font-alignment="1"
             font-underline="0"
             font-bold="0"
             font-pixelSize="20"
             font-familyName=""
             text=""
             bounding="rect(-6.40503,-4.29662,12.8101,8.59324)"
             basicInfo-starPoints="5"
             basicInfo-polygonSides="6"
             basicInfo-roundedRectRadius="12"
             basicInfo-basicType="0"
             type="0"
             shapeID="28" />
          <path
             style="fill:#fc8e76;fill-opacity:0.64313696;fill-rule:evenodd;stroke:none"
             d="m 581.257,232.043 c -0.779,0.607 -1.319,3.381 -1.27,5.947 0.169,9.079 22.161,13.01 25.159,4.464 2.444,-6.561 -18.659,-15.84 -23.889,-10.411 z"
             id="shapePath28"
             inkscape:connector-curvature="0" />
        </g>
        <g
           id="Shape29">
          <desc
             id="desc712"
             flag=""
             mesh=""
             locked="0"
             pers-end="0,0"
             pers-start="0,0"
             pers-size="0,0"
             pers-center="0,0"
             transform="matrix(1,0,0,1,555.151,481.594)"
             blurRadius="4"
             blurEnabled="0"
             shadowOpacity="160"
             shadowBlur="4"
             shadowOffsetY="2"
             shadowOffsetX="0"
             shadowEnabled="0"
             markerEnd="0"
             markerStart="0"
             strokeStyle="0"
             font-alignment="1"
             font-underline="0"
             font-bold="0"
             font-pixelSize="27"
             font-familyName="Roboto"
             text="We use opensource and cloud(AWS) to create contents.
https://lazypic.org"
             bounding="rect(-331.657,-29.7109,663.314,59.4219)"
             basicInfo-starPoints="5"
             basicInfo-polygonSides="6"
             basicInfo-roundedRectRadius="12"
             basicInfo-basicType="0"
             type="0"
             shapeID="29" />
          <path
             style="fill:#60605f;fill-opacity:1;fill-rule:nonzero;stroke:none"
             d="m 229.057,467.493 0.369,2.531 0.541,-2.281 3.797,-13.394 h 2.135 l 3.705,13.394 0.527,2.32 0.409,-2.584 2.979,-13.13 h 2.545 l -4.654,19.195 h -2.307 l -3.955,-13.988 -0.303,-1.463 -0.304,1.463 -4.1,13.988 h -2.307 l -4.64,-19.195 h 2.531 l 3.032,13.144 m 24.929,6.315 c -1.934,0 -3.507,-0.635 -4.72,-1.905 -1.213,-1.27 -1.819,-2.969 -1.819,-5.096 v -0.448 c 0,-1.415 0.27,-2.679 0.811,-3.79 0.54,-1.112 1.296,-1.982 2.267,-2.611 0.971,-0.628 2.024,-0.942 3.158,-0.942 1.854,0 3.295,0.61 4.324,1.832 1.028,1.222 1.542,2.971 1.542,5.247 v 1.015 h -9.663 c 0.035,1.407 0.446,2.543 1.232,3.408 0.787,0.866 1.787,1.299 3,1.299 0.861,0 1.59,-0.176 2.188,-0.527 0.598,-0.352 1.121,-0.818 1.569,-1.398 l 1.49,1.16 c -1.196,1.837 -2.989,2.756 -5.379,2.756 m -0.303,-12.788 c -0.985,0 -1.811,0.358 -2.479,1.074 -0.668,0.716 -1.081,1.72 -1.239,3.012 h 7.145 v -0.184 c -0.07,-1.239 -0.404,-2.2 -1.002,-2.881 -0.597,-0.681 -1.406,-1.021 -2.425,-1.021 m 24.159,11.113 c -0.949,1.117 -2.343,1.675 -4.179,1.675 -1.521,0 -2.679,-0.442 -3.474,-1.325 -0.796,-0.884 -1.198,-2.191 -1.207,-3.922 v -9.282 h 2.439 v 9.216 c 0,2.162 0.879,3.243 2.637,3.243 1.863,0 3.103,-0.695 3.718,-2.083 v -10.376 h 2.439 v 14.265 h -2.321 l -0.052,-1.411 m 14.374,-2.373 c 0,-0.659 -0.249,-1.171 -0.745,-1.536 -0.497,-0.364 -1.362,-0.679 -2.597,-0.942 -1.235,-0.264 -2.215,-0.58 -2.94,-0.949 -0.725,-0.37 -1.261,-0.809 -1.609,-1.319 -0.347,-0.51 -0.52,-1.116 -0.52,-1.819 0,-1.169 0.494,-2.158 1.483,-2.966 0.989,-0.809 2.252,-1.213 3.79,-1.213 1.617,0 2.929,0.417 3.935,1.252 1.007,0.835 1.51,1.903 1.51,3.204 h -2.452 c 0,-0.668 -0.284,-1.244 -0.851,-1.727 -0.566,-0.484 -1.281,-0.725 -2.142,-0.725 -0.888,0 -1.582,0.193 -2.083,0.58 -0.501,0.386 -0.751,0.892 -0.751,1.516 0,0.589 0.233,1.032 0.698,1.331 0.466,0.299 1.308,0.585 2.525,0.857 1.217,0.273 2.204,0.598 2.96,0.976 0.756,0.378 1.316,0.833 1.681,1.364 0.364,0.532 0.547,1.18 0.547,1.945 0,1.274 -0.51,2.296 -1.53,3.065 -1.019,0.769 -2.342,1.154 -3.968,1.154 -1.142,0 -2.153,-0.203 -3.032,-0.607 -0.879,-0.404 -1.567,-0.969 -2.063,-1.694 -0.497,-0.725 -0.745,-1.509 -0.745,-2.353 h 2.439 c 0.044,0.817 0.371,1.465 0.982,1.944 0.611,0.479 1.417,0.719 2.419,0.719 0.923,0 1.663,-0.187 2.222,-0.56 0.558,-0.374 0.837,-0.873 0.837,-1.497 m 11.535,4.048 c -1.933,0 -3.506,-0.635 -4.719,-1.905 -1.213,-1.27 -1.82,-2.969 -1.82,-5.096 v -0.448 c 0,-1.415 0.271,-2.679 0.811,-3.79 0.541,-1.112 1.297,-1.982 2.268,-2.611 0.971,-0.628 2.023,-0.942 3.157,-0.942 1.855,0 3.296,0.61 4.324,1.832 1.029,1.222 1.543,2.971 1.543,5.247 v 1.015 h -9.664 c 0.035,1.407 0.446,2.543 1.233,3.408 0.787,0.866 1.786,1.299 2.999,1.299 0.862,0 1.591,-0.176 2.189,-0.527 0.597,-0.352 1.12,-0.818 1.569,-1.398 l 1.489,1.16 c -1.195,1.837 -2.988,2.756 -5.379,2.756 m -0.303,-12.788 c -0.984,0 -1.81,0.358 -2.478,1.074 -0.668,0.716 -1.081,1.72 -1.24,3.012 h 7.146 v -0.184 c -0.07,-1.239 -0.404,-2.2 -1.002,-2.881 -0.598,-0.681 -1.406,-1.021 -2.426,-1.021 m 14.707,5.26 c 0,-1.398 0.274,-2.655 0.824,-3.771 0.549,-1.116 1.314,-1.977 2.294,-2.584 0.98,-0.606 2.098,-0.909 3.355,-0.909 1.942,0 3.513,0.672 4.713,2.017 1.2,1.344 1.8,3.133 1.8,5.365 v 0.172 c 0,1.388 -0.266,2.634 -0.798,3.737 -0.532,1.103 -1.292,1.963 -2.281,2.578 -0.989,0.615 -2.125,0.923 -3.408,0.923 -1.933,0 -3.5,-0.673 -4.7,-2.017 -1.199,-1.345 -1.799,-3.125 -1.799,-5.34 v -0.171 m 2.452,0.29 c 0,1.582 0.367,2.852 1.101,3.81 0.734,0.958 1.716,1.437 2.946,1.437 1.239,0 2.224,-0.486 2.953,-1.457 0.73,-0.971 1.095,-2.331 1.095,-4.08 0,-1.565 -0.372,-2.832 -1.114,-3.804 -0.743,-0.971 -1.73,-1.456 -2.96,-1.456 -1.204,0 -2.175,0.479 -2.914,1.437 -0.738,0.958 -1.107,2.329 -1.107,4.113 m 25.634,0 c 0,2.171 -0.496,3.92 -1.49,5.247 -0.993,1.327 -2.337,1.991 -4.034,1.991 -1.731,0 -3.094,-0.55 -4.087,-1.648 v 6.868 h -2.439 v -19.749 h 2.228 l 0.119,1.582 c 0.993,-1.23 2.373,-1.845 4.14,-1.845 1.714,0 3.069,0.646 4.067,1.938 0.997,1.292 1.496,3.089 1.496,5.392 v 0.224 m -2.439,-0.277 c 0,-1.608 -0.343,-2.878 -1.028,-3.81 -0.686,-0.932 -1.626,-1.398 -2.821,-1.398 -1.477,0 -2.584,0.655 -3.323,1.965 v 6.816 c 0.73,1.301 1.846,1.951 3.349,1.951 1.169,0 2.098,-0.464 2.788,-1.391 0.69,-0.927 1.035,-2.305 1.035,-4.133 m 11.449,7.515 c -1.933,0 -3.506,-0.635 -4.719,-1.905 -1.213,-1.27 -1.82,-2.969 -1.82,-5.096 v -0.448 c 0,-1.415 0.271,-2.679 0.811,-3.79 0.541,-1.112 1.297,-1.982 2.268,-2.611 0.971,-0.628 2.023,-0.942 3.157,-0.942 1.855,0 3.296,0.61 4.324,1.832 1.029,1.222 1.543,2.971 1.543,5.247 v 1.015 h -9.664 c 0.035,1.407 0.446,2.543 1.233,3.408 0.787,0.866 1.786,1.299 2.999,1.299 0.862,0 1.591,-0.176 2.189,-0.527 0.597,-0.352 1.12,-0.818 1.569,-1.398 l 1.489,1.16 c -1.195,1.837 -2.988,2.756 -5.379,2.756 m -0.303,-12.788 c -0.984,0 -1.81,0.358 -2.478,1.074 -0.668,0.716 -1.081,1.72 -1.24,3.012 h 7.146 v -0.184 c -0.07,-1.239 -0.404,-2.2 -1.002,-2.881 -0.598,-0.681 -1.406,-1.021 -2.426,-1.021 m 10.988,-1.741 0.079,1.793 c 1.09,-1.371 2.514,-2.056 4.272,-2.056 3.014,0 4.535,1.7 4.561,5.102 v 9.426 h -2.439 v -9.44 c -0.009,-1.028 -0.244,-1.788 -0.705,-2.28 -0.462,-0.492 -1.18,-0.739 -2.156,-0.739 -0.791,0 -1.485,0.211 -2.083,0.633 -0.597,0.422 -1.063,0.976 -1.397,1.661 v 10.165 h -2.439 v -14.265 h 2.307 m 20.889,10.481 c 0,-0.659 -0.248,-1.171 -0.745,-1.536 -0.496,-0.364 -1.362,-0.679 -2.597,-0.942 -1.235,-0.264 -2.215,-0.58 -2.94,-0.949 -0.725,-0.37 -1.261,-0.809 -1.608,-1.319 -0.347,-0.51 -0.521,-1.116 -0.521,-1.819 0,-1.169 0.494,-2.158 1.483,-2.966 0.989,-0.809 2.252,-1.213 3.79,-1.213 1.618,0 2.929,0.417 3.936,1.252 1.006,0.835 1.509,1.903 1.509,3.204 h -2.452 c 0,-0.668 -0.283,-1.244 -0.85,-1.727 -0.567,-0.484 -1.281,-0.725 -2.143,-0.725 -0.887,0 -1.582,0.193 -2.083,0.58 -0.501,0.386 -0.751,0.892 -0.751,1.516 0,0.589 0.233,1.032 0.699,1.331 0.466,0.299 1.307,0.585 2.524,0.857 1.218,0.273 2.204,0.598 2.96,0.976 0.756,0.378 1.316,0.833 1.681,1.364 0.365,0.532 0.547,1.18 0.547,1.945 0,1.274 -0.51,2.296 -1.529,3.065 -1.02,0.769 -2.342,1.154 -3.968,1.154 -1.143,0 -2.154,-0.203 -3.033,-0.607 -0.879,-0.404 -1.566,-0.969 -2.063,-1.694 -0.497,-0.725 -0.745,-1.509 -0.745,-2.353 h 2.439 c 0.044,0.817 0.372,1.465 0.982,1.944 0.611,0.479 1.418,0.719 2.42,0.719 0.922,0 1.663,-0.187 2.221,-0.56 0.558,-0.374 0.837,-0.873 0.837,-1.497 m 4.97,-3.48 c 0,-1.398 0.275,-2.655 0.824,-3.771 0.55,-1.116 1.314,-1.977 2.294,-2.584 0.98,-0.606 2.099,-0.909 3.355,-0.909 1.943,0 3.514,0.672 4.714,2.017 1.199,1.344 1.799,3.133 1.799,5.365 v 0.172 c 0,1.388 -0.266,2.634 -0.797,3.737 -0.532,1.103 -1.292,1.963 -2.281,2.578 -0.989,0.615 -2.125,0.923 -3.408,0.923 -1.934,0 -3.5,-0.673 -4.7,-2.017 -1.2,-1.345 -1.8,-3.125 -1.8,-5.34 v -0.171 m 2.452,0.29 c 0,1.582 0.367,2.852 1.101,3.81 0.734,0.958 1.716,1.437 2.947,1.437 1.239,0 2.223,-0.486 2.953,-1.457 0.729,-0.971 1.094,-2.331 1.094,-4.08 0,-1.565 -0.371,-2.832 -1.114,-3.804 -0.742,-0.971 -1.729,-1.456 -2.96,-1.456 -1.204,0 -2.175,0.479 -2.913,1.437 -0.738,0.958 -1.108,2.329 -1.108,4.113 m 22.392,5.563 c -0.95,1.117 -2.343,1.675 -4.18,1.675 -1.52,0 -2.678,-0.442 -3.473,-1.325 -0.796,-0.884 -1.198,-2.191 -1.207,-3.922 v -9.282 h 2.439 v 9.216 c 0,2.162 0.879,3.243 2.637,3.243 1.863,0 3.102,-0.695 3.718,-2.083 v -10.376 h 2.439 v 14.265 h -2.321 l -0.052,-1.411 m 12.963,-10.665 c -0.369,-0.062 -0.769,-0.093 -1.2,-0.093 -1.599,0 -2.685,0.682 -3.256,2.044 v 10.125 h -2.439 v -14.265 h 2.373 l 0.04,1.648 c 0.799,-1.274 1.933,-1.911 3.401,-1.911 0.475,0 0.835,0.061 1.081,0.184 v 2.268 m 7.702,10.349 c 0.87,0 1.63,-0.264 2.28,-0.791 0.651,-0.527 1.011,-1.187 1.081,-1.978 h 2.308 c -0.044,0.818 -0.326,1.596 -0.844,2.334 -0.519,0.738 -1.211,1.327 -2.077,1.766 -0.865,0.44 -1.782,0.66 -2.748,0.66 -1.943,0 -3.487,-0.649 -4.634,-1.945 -1.147,-1.296 -1.721,-3.07 -1.721,-5.32 v -0.408 c 0,-1.389 0.255,-2.624 0.765,-3.705 0.51,-1.081 1.241,-1.92 2.195,-2.518 0.953,-0.598 2.081,-0.896 3.381,-0.896 1.6,0 2.929,0.479 3.989,1.437 1.059,0.958 1.623,2.201 1.694,3.731 h -2.308 c -0.07,-0.923 -0.419,-1.681 -1.048,-2.275 -0.628,-0.593 -1.404,-0.889 -2.327,-0.889 -1.239,0 -2.199,0.446 -2.88,1.338 -0.681,0.892 -1.022,2.182 -1.022,3.869 v 0.461 c 0,1.644 0.339,2.91 1.015,3.797 0.677,0.888 1.644,1.332 2.901,1.332 m 14.322,1.991 c -1.933,0 -3.506,-0.635 -4.719,-1.905 -1.213,-1.27 -1.82,-2.969 -1.82,-5.096 v -0.448 c 0,-1.415 0.271,-2.679 0.811,-3.79 0.541,-1.112 1.297,-1.982 2.268,-2.611 0.971,-0.628 2.023,-0.942 3.157,-0.942 1.855,0 3.296,0.61 4.324,1.832 1.029,1.222 1.543,2.971 1.543,5.247 v 1.015 h -9.664 c 0.035,1.407 0.446,2.543 1.233,3.408 0.787,0.866 1.786,1.299 2.999,1.299 0.862,0 1.591,-0.176 2.189,-0.527 0.597,-0.352 1.12,-0.818 1.569,-1.398 l 1.489,1.16 c -1.195,1.837 -2.988,2.756 -5.379,2.756 m -0.303,-12.788 c -0.984,0 -1.81,0.358 -2.478,1.074 -0.668,0.716 -1.081,1.72 -1.24,3.012 h 7.146 v -0.184 c -0.07,-1.239 -0.404,-2.2 -1.002,-2.881 -0.598,-0.681 -1.406,-1.021 -2.426,-1.021 m 24.159,12.524 c -0.14,-0.281 -0.255,-0.782 -0.342,-1.503 -1.134,1.178 -2.488,1.767 -4.061,1.767 -1.406,0 -2.56,-0.398 -3.461,-1.193 -0.901,-0.796 -1.351,-1.804 -1.351,-3.026 0,-1.485 0.565,-2.639 1.694,-3.461 1.13,-0.822 2.718,-1.232 4.766,-1.232 h 2.373 v -1.121 c 0,-0.853 -0.255,-1.532 -0.765,-2.037 -0.509,-0.505 -1.261,-0.758 -2.254,-0.758 -0.87,0 -1.6,0.22 -2.188,0.659 -0.589,0.44 -0.884,0.971 -0.884,1.595 h -2.452 c 0,-0.712 0.253,-1.399 0.758,-2.063 0.505,-0.663 1.191,-1.189 2.057,-1.575 0.865,-0.387 1.817,-0.58 2.854,-0.58 1.644,0 2.931,0.411 3.863,1.232 0.931,0.822 1.415,1.954 1.45,3.395 v 6.565 c 0,1.31 0.167,2.352 0.501,3.125 v 0.211 h -2.558 m -4.047,-1.859 c 0.765,0 1.49,-0.198 2.175,-0.593 0.686,-0.396 1.182,-0.91 1.49,-1.543 v -2.926 h -1.912 c -2.988,0 -4.482,0.874 -4.482,2.623 0,0.765 0.255,1.362 0.765,1.793 0.509,0.431 1.164,0.646 1.964,0.646 m 12.22,-12.406 0.079,1.793 c 1.09,-1.371 2.513,-2.056 4.271,-2.056 3.015,0 4.535,1.7 4.562,5.102 v 9.426 h -2.439 v -9.44 c -0.009,-1.028 -0.244,-1.788 -0.705,-2.28 -0.462,-0.492 -1.18,-0.739 -2.156,-0.739 -0.791,0 -1.485,0.211 -2.083,0.633 -0.598,0.422 -1.063,0.976 -1.397,1.661 v 10.165 h -2.439 v -14.265 h 2.307 m 11.99,7.014 c 0,-2.189 0.519,-3.949 1.556,-5.28 1.037,-1.332 2.395,-1.997 4.073,-1.997 1.67,0 2.993,0.571 3.969,1.713 v -7.435 h 2.439 v 20.25 h -2.242 l -0.118,-1.529 c -0.976,1.195 -2.334,1.793 -4.074,1.793 -1.652,0 -2.999,-0.677 -4.041,-2.031 -1.041,-1.353 -1.562,-3.12 -1.562,-5.299 v -0.185 m 2.439,0.277 c 0,1.617 0.334,2.883 1.002,3.797 0.668,0.914 1.591,1.371 2.768,1.371 1.547,0 2.677,-0.695 3.389,-2.083 v -6.552 c -0.73,-1.345 -1.85,-2.018 -3.362,-2.018 -1.196,0 -2.127,0.462 -2.795,1.385 -0.668,0.923 -1.002,2.289 -1.002,4.1 m 25.767,5.247 c 0.87,0 1.63,-0.264 2.28,-0.791 0.651,-0.527 1.011,-1.187 1.081,-1.978 h 2.307 c -0.043,0.818 -0.325,1.596 -0.843,2.334 -0.519,0.738 -1.211,1.327 -2.077,1.766 -0.865,0.44 -1.782,0.66 -2.748,0.66 -1.943,0 -3.488,-0.649 -4.635,-1.945 -1.146,-1.296 -1.72,-3.07 -1.72,-5.32 v -0.408 c 0,-1.389 0.255,-2.624 0.765,-3.705 0.509,-1.081 1.241,-1.92 2.195,-2.518 0.953,-0.598 2.081,-0.896 3.381,-0.896 1.6,0 2.929,0.479 3.988,1.437 1.059,0.958 1.624,2.201 1.694,3.731 h -2.307 c -0.07,-0.923 -0.419,-1.681 -1.048,-2.275 -0.628,-0.593 -1.404,-0.889 -2.327,-0.889 -1.239,0 -2.199,0.446 -2.88,1.338 -0.681,0.892 -1.022,2.182 -1.022,3.869 v 0.461 c 0,1.644 0.338,2.91 1.015,3.797 0.677,0.888 1.644,1.332 2.901,1.332 m 11.053,1.727 h -2.439 v -20.25 h 2.439 v 20.25 m 3.251,-7.264 c 0,-1.398 0.274,-2.655 0.824,-3.771 0.549,-1.116 1.314,-1.977 2.294,-2.584 0.98,-0.606 2.098,-0.909 3.355,-0.909 1.942,0 3.513,0.672 4.713,2.017 1.2,1.344 1.8,3.133 1.8,5.365 v 0.172 c 0,1.388 -0.266,2.634 -0.798,3.737 -0.532,1.103 -1.292,1.963 -2.281,2.578 -0.989,0.615 -2.125,0.923 -3.408,0.923 -1.933,0 -3.5,-0.673 -4.7,-2.017 -1.199,-1.345 -1.799,-3.125 -1.799,-5.34 v -0.171 m 2.452,0.29 c 0,1.582 0.367,2.852 1.101,3.81 0.734,0.958 1.716,1.437 2.946,1.437 1.239,0 2.224,-0.486 2.953,-1.457 0.73,-0.971 1.095,-2.331 1.095,-4.08 0,-1.565 -0.372,-2.832 -1.114,-3.804 -0.743,-0.971 -1.73,-1.456 -2.96,-1.456 -1.204,0 -2.175,0.479 -2.914,1.437 -0.738,0.958 -1.107,2.329 -1.107,4.113 m 22.391,5.563 c -0.949,1.117 -2.342,1.675 -4.179,1.675 -1.521,0 -2.679,-0.442 -3.474,-1.325 -0.796,-0.884 -1.198,-2.191 -1.206,-3.922 v -9.282 h 2.439 v 9.216 c 0,2.162 0.878,3.243 2.636,3.243 1.864,0 3.103,-0.695 3.718,-2.083 v -10.376 h 2.439 v 14.265 h -2.32 l -0.053,-1.411 m 5.475,-5.84 c 0,-2.189 0.519,-3.949 1.556,-5.28 1.037,-1.332 2.395,-1.997 4.073,-1.997 1.67,0 2.993,0.571 3.969,1.713 v -7.435 h 2.439 v 20.25 h -2.242 l -0.118,-1.529 c -0.976,1.195 -2.334,1.793 -4.074,1.793 -1.652,0 -2.999,-0.677 -4.041,-2.031 -1.041,-1.353 -1.562,-3.12 -1.562,-5.299 v -0.185 m 2.439,0.277 c 0,1.617 0.334,2.883 1.002,3.797 0.668,0.914 1.591,1.371 2.769,1.371 1.546,0 2.676,-0.695 3.388,-2.083 v -6.552 c -0.73,-1.345 -1.85,-2.018 -3.362,-2.018 -1.195,0 -2.127,0.462 -2.795,1.385 -0.668,0.923 -1.002,2.289 -1.002,4.1 m 13.281,-0.818 c 0,-1.986 0.266,-3.893 0.797,-5.721 0.532,-1.828 1.325,-3.489 2.38,-4.984 1.055,-1.494 2.149,-2.548 3.283,-3.164 l 0.501,1.609 c -1.283,0.984 -2.336,2.487 -3.158,4.508 -0.822,2.022 -1.272,4.285 -1.351,6.79 l -0.013,1.121 c 0,3.392 0.619,6.337 1.859,8.833 0.747,1.494 1.634,2.663 2.663,3.506 l -0.501,1.49 c -1.169,-0.65 -2.285,-1.74 -3.349,-3.269 -2.074,-2.989 -3.111,-6.561 -3.111,-10.719 m 20.293,2.782 h -8.042 l -1.806,5.01 h -2.611 l 7.33,-19.195 h 2.215 l 7.343,19.195 h -2.597 l -1.832,-5.01 m -7.278,-2.083 h 6.526 l -3.269,-8.978 -3.257,8.978 m 17.521,1.042 0.369,2.531 0.541,-2.281 3.796,-13.394 h 2.136 l 3.705,13.394 0.527,2.32 0.409,-2.584 2.979,-13.13 h 2.545 l -4.654,19.195 h -2.307 l -3.955,-13.988 -0.303,-1.463 -0.304,1.463 -4.1,13.988 h -2.307 l -4.641,-19.195 h 2.532 l 3.032,13.144 m 25.469,-2.505 c -2.171,-0.624 -3.751,-1.391 -4.739,-2.301 -0.989,-0.909 -1.483,-2.032 -1.483,-3.368 0,-1.512 0.604,-2.762 1.812,-3.751 1.209,-0.989 2.78,-1.483 4.713,-1.483 1.319,0 2.494,0.255 3.527,0.765 1.033,0.509 1.833,1.212 2.399,2.109 0.567,0.896 0.851,1.876 0.851,2.94 h -2.545 c 0,-1.16 -0.369,-2.072 -1.107,-2.736 -0.738,-0.663 -1.78,-0.995 -3.125,-0.995 -1.248,0 -2.221,0.275 -2.92,0.824 -0.698,0.549 -1.048,1.312 -1.048,2.287 0,0.783 0.332,1.444 0.996,1.984 0.663,0.541 1.792,1.035 3.388,1.484 1.595,0.448 2.843,0.942 3.744,1.483 0.901,0.54 1.569,1.171 2.004,1.892 0.435,0.72 0.652,1.568 0.652,2.544 0,1.556 -0.606,2.802 -1.819,3.738 -1.213,0.936 -2.834,1.404 -4.865,1.404 -1.318,0 -2.549,-0.253 -3.691,-0.758 -1.143,-0.506 -2.024,-1.198 -2.643,-2.077 -0.62,-0.879 -0.93,-1.876 -0.93,-2.993 h 2.545 c 0,1.161 0.428,2.077 1.285,2.749 0.857,0.673 2.002,1.009 3.434,1.009 1.336,0 2.36,-0.273 3.072,-0.818 0.712,-0.545 1.068,-1.287 1.068,-2.228 0,-0.94 -0.33,-1.667 -0.989,-2.182 -0.659,-0.514 -1.854,-1.021 -3.586,-1.522 m 15.607,0.896 c 0,1.96 -0.257,3.839 -0.771,5.636 -0.514,1.798 -1.301,3.457 -2.36,4.977 -1.059,1.521 -2.169,2.602 -3.329,3.243 l -0.514,-1.49 c 1.354,-1.037 2.441,-2.647 3.263,-4.831 0.822,-2.184 1.241,-4.608 1.259,-7.271 v -0.422 c 0,-1.846 -0.193,-3.562 -0.58,-5.148 -0.387,-1.587 -0.925,-3.008 -1.615,-4.265 -0.69,-1.257 -1.466,-2.237 -2.327,-2.94 l 0.514,-1.49 c 1.16,0.642 2.266,1.714 3.316,3.217 1.05,1.503 1.837,3.16 2.36,4.97 0.523,1.811 0.784,3.749 0.784,5.814 m 13.727,-10.059 v 3.454 h 2.663 v 1.886 h -2.663 v 8.846 c 0,0.571 0.118,0.999 0.356,1.285 0.237,0.286 0.641,0.429 1.213,0.429 0.281,0 0.667,-0.053 1.16,-0.159 v 1.978 c -0.642,0.176 -1.266,0.264 -1.872,0.264 -1.09,0 -1.912,-0.33 -2.466,-0.989 -0.553,-0.659 -0.83,-1.595 -0.83,-2.808 v -8.846 h -2.597 v -1.886 h 2.597 v -3.454 h 2.439 m 4.591,10.455 c 0,-1.398 0.275,-2.655 0.824,-3.771 0.55,-1.116 1.314,-1.977 2.294,-2.584 0.98,-0.606 2.099,-0.909 3.356,-0.909 1.942,0 3.513,0.672 4.713,2.017 1.199,1.344 1.799,3.133 1.799,5.365 v 0.172 c 0,1.388 -0.266,2.634 -0.797,3.737 -0.532,1.103 -1.292,1.963 -2.281,2.578 -0.989,0.615 -2.125,0.923 -3.408,0.923 -1.934,0 -3.5,-0.673 -4.7,-2.017 -1.2,-1.345 -1.8,-3.125 -1.8,-5.34 v -0.171 m 2.453,0.29 c 0,1.582 0.367,2.852 1.1,3.81 0.734,0.958 1.717,1.437 2.947,1.437 1.239,0 2.224,-0.486 2.953,-1.457 0.73,-0.971 1.094,-2.331 1.094,-4.08 0,-1.565 -0.371,-2.832 -1.114,-3.804 -0.742,-0.971 -1.729,-1.456 -2.959,-1.456 -1.204,0 -2.176,0.479 -2.914,1.437 -0.738,0.958 -1.107,2.329 -1.107,4.113 m 25.978,5.247 c 0.87,0 1.63,-0.264 2.28,-0.791 0.651,-0.527 1.011,-1.187 1.081,-1.978 h 2.308 c -0.044,0.818 -0.326,1.596 -0.844,2.334 -0.519,0.738 -1.211,1.327 -2.077,1.766 -0.865,0.44 -1.782,0.66 -2.748,0.66 -1.943,0 -3.487,-0.649 -4.634,-1.945 -1.147,-1.296 -1.721,-3.07 -1.721,-5.32 v -0.408 c 0,-1.389 0.255,-2.624 0.765,-3.705 0.51,-1.081 1.241,-1.92 2.195,-2.518 0.953,-0.598 2.081,-0.896 3.381,-0.896 1.6,0 2.929,0.479 3.989,1.437 1.059,0.958 1.623,2.201 1.694,3.731 h -2.308 c -0.07,-0.923 -0.419,-1.681 -1.048,-2.275 -0.628,-0.593 -1.404,-0.889 -2.327,-0.889 -1.239,0 -2.199,0.446 -2.88,1.338 -0.681,0.892 -1.022,2.182 -1.022,3.869 v 0.461 c 0,1.644 0.339,2.91 1.015,3.797 0.677,0.888 1.644,1.332 2.901,1.332 m 15.298,-10.349 c -0.369,-0.062 -0.769,-0.093 -1.2,-0.093 -1.599,0 -2.685,0.682 -3.256,2.044 v 10.125 h -2.439 v -14.265 h 2.373 l 0.04,1.648 c 0.799,-1.274 1.933,-1.911 3.401,-1.911 0.475,0 0.835,0.061 1.081,0.184 v 2.268 m 7.899,12.34 c -1.933,0 -3.506,-0.635 -4.719,-1.905 -1.213,-1.27 -1.82,-2.969 -1.82,-5.096 v -0.448 c 0,-1.415 0.271,-2.679 0.811,-3.79 0.541,-1.112 1.297,-1.982 2.268,-2.611 0.971,-0.628 2.023,-0.942 3.157,-0.942 1.855,0 3.296,0.61 4.324,1.832 1.029,1.222 1.543,2.971 1.543,5.247 v 1.015 h -9.664 c 0.035,1.407 0.446,2.543 1.233,3.408 0.787,0.866 1.786,1.299 2.999,1.299 0.862,0 1.591,-0.176 2.189,-0.527 0.597,-0.352 1.12,-0.818 1.569,-1.398 l 1.489,1.16 c -1.195,1.837 -2.988,2.756 -5.379,2.756 m -0.303,-12.788 c -0.984,0 -1.81,0.358 -2.478,1.074 -0.668,0.716 -1.081,1.72 -1.24,3.012 h 7.146 v -0.184 c -0.07,-1.239 -0.404,-2.2 -1.002,-2.881 -0.598,-0.681 -1.406,-1.021 -2.426,-1.021 m 17.487,12.524 c -0.14,-0.281 -0.254,-0.782 -0.342,-1.503 -1.134,1.178 -2.488,1.767 -4.061,1.767 -1.406,0 -2.56,-0.398 -3.461,-1.193 -0.9,-0.796 -1.351,-1.804 -1.351,-3.026 0,-1.485 0.565,-2.639 1.694,-3.461 1.13,-0.822 2.718,-1.232 4.766,-1.232 h 2.373 v -1.121 c 0,-0.853 -0.255,-1.532 -0.764,-2.037 -0.51,-0.505 -1.262,-0.758 -2.255,-0.758 -0.87,0 -1.599,0.22 -2.188,0.659 -0.589,0.44 -0.884,0.971 -0.884,1.595 h -2.452 c 0,-0.712 0.253,-1.399 0.758,-2.063 0.506,-0.663 1.191,-1.189 2.057,-1.575 0.866,-0.387 1.817,-0.58 2.854,-0.58 1.644,0 2.931,0.411 3.863,1.232 0.932,0.822 1.415,1.954 1.45,3.395 v 6.565 c 0,1.31 0.167,2.352 0.501,3.125 v 0.211 h -2.558 m -4.047,-1.859 c 0.765,0 1.49,-0.198 2.175,-0.593 0.686,-0.396 1.183,-0.91 1.49,-1.543 v -2.926 h -1.911 c -2.989,0 -4.483,0.874 -4.483,2.623 0,0.765 0.255,1.362 0.765,1.793 0.51,0.431 1.164,0.646 1.964,0.646 m 13.222,-15.86 v 3.454 h 2.663 v 1.886 h -2.663 v 8.846 c 0,0.571 0.118,0.999 0.356,1.285 0.237,0.286 0.641,0.429 1.213,0.429 0.281,0 0.668,-0.053 1.16,-0.159 v 1.978 c -0.642,0.176 -1.266,0.264 -1.872,0.264 -1.09,0 -1.912,-0.33 -2.466,-0.989 -0.553,-0.659 -0.83,-1.595 -0.83,-2.808 v -8.846 h -2.597 v -1.886 h 2.597 v -3.454 h 2.439 m 11.423,17.983 c -1.934,0 -3.507,-0.635 -4.72,-1.905 -1.213,-1.27 -1.819,-2.969 -1.819,-5.096 v -0.448 c 0,-1.415 0.27,-2.679 0.81,-3.79 0.541,-1.112 1.297,-1.982 2.268,-2.611 0.971,-0.628 2.024,-0.942 3.157,-0.942 1.855,0 3.296,0.61 4.325,1.832 1.028,1.222 1.542,2.971 1.542,5.247 v 1.015 h -9.663 c 0.035,1.407 0.446,2.543 1.232,3.408 0.787,0.866 1.787,1.299 2.999,1.299 0.862,0 1.591,-0.176 2.189,-0.527 0.598,-0.352 1.121,-0.818 1.569,-1.398 l 1.49,1.16 c -1.196,1.837 -2.989,2.756 -5.379,2.756 m -0.304,-12.788 c -0.984,0 -1.81,0.358 -2.478,1.074 -0.668,0.716 -1.081,1.72 -1.239,3.012 h 7.145 v -0.184 c -0.07,-1.239 -0.404,-2.2 -1.002,-2.881 -0.597,-0.681 -1.406,-1.021 -2.426,-1.021 m 21.075,10.797 c 0.87,0 1.63,-0.264 2.28,-0.791 0.651,-0.527 1.011,-1.187 1.081,-1.978 h 2.308 c -0.044,0.818 -0.326,1.596 -0.844,2.334 -0.519,0.738 -1.211,1.327 -2.077,1.766 -0.865,0.44 -1.782,0.66 -2.748,0.66 -1.943,0 -3.487,-0.649 -4.634,-1.945 -1.147,-1.296 -1.721,-3.07 -1.721,-5.32 v -0.408 c 0,-1.389 0.255,-2.624 0.765,-3.705 0.51,-1.081 1.241,-1.92 2.195,-2.518 0.953,-0.598 2.081,-0.896 3.381,-0.896 1.6,0 2.929,0.479 3.989,1.437 1.059,0.958 1.623,2.201 1.694,3.731 h -2.308 c -0.07,-0.923 -0.419,-1.681 -1.048,-2.275 -0.628,-0.593 -1.404,-0.889 -2.327,-0.889 -1.239,0 -2.199,0.446 -2.88,1.338 -0.681,0.892 -1.022,2.182 -1.022,3.869 v 0.461 c 0,1.644 0.339,2.91 1.015,3.797 0.677,0.888 1.644,1.332 2.901,1.332 m 7.757,-5.537 c 0,-1.398 0.275,-2.655 0.824,-3.771 0.549,-1.116 1.314,-1.977 2.294,-2.584 0.98,-0.606 2.098,-0.909 3.355,-0.909 1.943,0 3.514,0.672 4.713,2.017 1.2,1.344 1.8,3.133 1.8,5.365 v 0.172 c 0,1.388 -0.266,2.634 -0.798,3.737 -0.532,1.103 -1.292,1.963 -2.281,2.578 -0.988,0.615 -2.124,0.923 -3.408,0.923 -1.933,0 -3.5,-0.673 -4.699,-2.017 -1.2,-1.345 -1.8,-3.125 -1.8,-5.34 v -0.171 m 2.452,0.29 c 0,1.582 0.367,2.852 1.101,3.81 0.734,0.958 1.716,1.437 2.946,1.437 1.24,0 2.224,-0.486 2.954,-1.457 0.729,-0.971 1.094,-2.331 1.094,-4.08 0,-1.565 -0.371,-2.832 -1.114,-3.804 -0.743,-0.971 -1.729,-1.456 -2.96,-1.456 -1.204,0 -2.175,0.479 -2.913,1.437 -0.739,0.958 -1.108,2.329 -1.108,4.113 m 15.892,-7.291 0.079,1.793 c 1.09,-1.371 2.513,-2.056 4.271,-2.056 3.015,0 4.535,1.7 4.562,5.102 v 9.426 h -2.439 v -9.44 c -0.009,-1.028 -0.244,-1.788 -0.705,-2.28 -0.462,-0.492 -1.18,-0.739 -2.156,-0.739 -0.791,0 -1.485,0.211 -2.083,0.633 -0.598,0.422 -1.063,0.976 -1.397,1.661 v 10.165 h -2.439 v -14.265 h 2.307 m 15.892,-3.454 v 3.454 h 2.663 v 1.886 h -2.663 v 8.846 c 0,0.571 0.119,0.999 0.356,1.285 0.238,0.286 0.642,0.429 1.213,0.429 0.281,0 0.668,-0.053 1.16,-0.159 v 1.978 c -0.641,0.176 -1.265,0.264 -1.872,0.264 -1.09,0 -1.911,-0.33 -2.465,-0.989 -0.554,-0.659 -0.831,-1.595 -0.831,-2.808 v -8.846 h -2.597 v -1.886 h 2.597 v -3.454 h 2.439 m 11.423,17.983 c -1.933,0 -3.507,-0.635 -4.72,-1.905 -1.212,-1.27 -1.819,-2.969 -1.819,-5.096 v -0.448 c 0,-1.415 0.27,-2.679 0.811,-3.79 0.54,-1.112 1.296,-1.982 2.267,-2.611 0.972,-0.628 2.024,-0.942 3.158,-0.942 1.854,0 3.296,0.61 4.324,1.832 1.028,1.222 1.543,2.971 1.543,5.247 v 1.015 h -9.664 c 0.035,1.407 0.446,2.543 1.233,3.408 0.786,0.866 1.786,1.299 2.999,1.299 0.861,0 1.591,-0.176 2.188,-0.527 0.598,-0.352 1.121,-0.818 1.569,-1.398 l 1.49,1.16 c -1.195,1.837 -2.988,2.756 -5.379,2.756 m -0.303,-12.788 c -0.984,0 -1.811,0.358 -2.479,1.074 -0.668,0.716 -1.081,1.72 -1.239,3.012 h 7.146 v -0.184 c -0.071,-1.239 -0.405,-2.2 -1.002,-2.881 -0.598,-0.681 -1.407,-1.021 -2.426,-1.021 m 10.988,-1.741 0.079,1.793 c 1.09,-1.371 2.513,-2.056 4.271,-2.056 3.015,0 4.535,1.7 4.562,5.102 v 9.426 h -2.439 v -9.44 c -0.009,-1.028 -0.244,-1.788 -0.705,-2.28 -0.462,-0.492 -1.18,-0.739 -2.156,-0.739 -0.791,0 -1.485,0.211 -2.083,0.633 -0.598,0.422 -1.063,0.976 -1.397,1.661 v 10.165 h -2.439 v -14.265 h 2.307 m 15.892,-3.454 v 3.454 h 2.663 v 1.886 h -2.663 v 8.846 c 0,0.571 0.119,0.999 0.356,1.285 0.238,0.286 0.642,0.429 1.213,0.429 0.281,0 0.668,-0.053 1.16,-0.159 v 1.978 c -0.641,0.176 -1.265,0.264 -1.872,0.264 -1.09,0 -1.911,-0.33 -2.465,-0.989 -0.554,-0.659 -0.831,-1.595 -0.831,-2.808 v -8.846 h -2.597 v -1.886 h 2.597 v -3.454 h 2.439 m 13.809,13.935 c 0,-0.659 -0.248,-1.171 -0.744,-1.536 -0.497,-0.364 -1.363,-0.679 -2.598,-0.942 -1.235,-0.264 -2.215,-0.58 -2.94,-0.949 -0.725,-0.37 -1.261,-0.809 -1.608,-1.319 -0.347,-0.51 -0.521,-1.116 -0.521,-1.819 0,-1.169 0.495,-2.158 1.483,-2.966 0.989,-0.809 2.253,-1.213 3.791,-1.213 1.617,0 2.929,0.417 3.935,1.252 1.006,0.835 1.51,1.903 1.51,3.204 h -2.453 c 0,-0.668 -0.283,-1.244 -0.85,-1.727 -0.567,-0.484 -1.281,-0.725 -2.142,-0.725 -0.888,0 -1.582,0.193 -2.083,0.58 -0.501,0.386 -0.752,0.892 -0.752,1.516 0,0.589 0.233,1.032 0.699,1.331 0.466,0.299 1.307,0.585 2.525,0.857 1.217,0.273 2.203,0.598 2.959,0.976 0.756,0.378 1.316,0.833 1.681,1.364 0.365,0.532 0.547,1.18 0.547,1.945 0,1.274 -0.509,2.296 -1.529,3.065 -1.019,0.769 -2.342,1.154 -3.968,1.154 -1.143,0 -2.154,-0.203 -3.032,-0.607 -0.879,-0.404 -1.567,-0.969 -2.064,-1.694 -0.496,-0.725 -0.745,-1.509 -0.745,-2.353 h 2.439 c 0.044,0.817 0.372,1.465 0.983,1.944 0.61,0.479 1.417,0.719 2.419,0.719 0.923,0 1.663,-0.187 2.221,-0.56 0.558,-0.374 0.837,-0.873 0.837,-1.497 m 5.669,2.505 c 0,-0.422 0.126,-0.773 0.376,-1.055 0.251,-0.281 0.626,-0.421 1.127,-0.421 0.501,0 0.881,0.14 1.141,0.421 0.259,0.282 0.389,0.633 0.389,1.055 0,0.404 -0.13,0.743 -0.389,1.015 -0.26,0.273 -0.64,0.409 -1.141,0.409 -0.501,0 -0.876,-0.136 -1.127,-0.409 -0.25,-0.272 -0.376,-0.611 -0.376,-1.015 m -432.176,20.741 c 1.081,-1.327 2.487,-1.99 4.219,-1.99 3.014,0 4.535,1.7 4.561,5.102 v 9.426 h -2.439 v -9.44 c -0.008,-1.028 -0.244,-1.788 -0.705,-2.28 -0.461,-0.492 -1.18,-0.739 -2.155,-0.739 -0.791,0 -1.486,0.211 -2.083,0.633 -0.598,0.422 -1.064,0.976 -1.398,1.661 v 10.165 h -2.439 v -20.25 h 2.439 v 7.712 m 15.73,-5.181 v 3.454 h 2.663 v 1.886 h -2.663 v 8.846 c 0,0.571 0.118,0.999 0.356,1.285 0.237,0.286 0.641,0.429 1.212,0.429 0.282,0 0.668,-0.053 1.161,-0.159 v 1.978 c -0.642,0.176 -1.266,0.264 -1.873,0.264 -1.089,0 -1.911,-0.33 -2.465,-0.989 -0.554,-0.659 -0.83,-1.595 -0.83,-2.808 v -8.846 h -2.598 v -1.886 h 2.598 v -3.454 h 2.439 m 8.812,0 v 3.454 h 2.663 v 1.886 h -2.663 v 8.846 c 0,0.571 0.119,0.999 0.356,1.285 0.237,0.286 0.642,0.429 1.213,0.429 0.281,0 0.668,-0.053 1.16,-0.159 v 1.978 c -0.642,0.176 -1.266,0.264 -1.872,0.264 -1.09,0 -1.912,-0.33 -2.465,-0.989 -0.554,-0.659 -0.831,-1.595 -0.831,-2.808 v -8.846 h -2.597 v -1.886 h 2.597 v -3.454 h 2.439 m 17.553,10.745 c 0,2.171 -0.496,3.92 -1.489,5.247 -0.994,1.327 -2.338,1.991 -4.035,1.991 -1.731,0 -3.093,-0.55 -4.087,-1.648 v 6.868 h -2.439 v -19.749 h 2.228 l 0.119,1.582 c 0.993,-1.23 2.373,-1.845 4.14,-1.845 1.714,0 3.069,0.646 4.067,1.938 0.997,1.292 1.496,3.089 1.496,5.392 v 0.224 m -2.439,-0.277 c 0,-1.608 -0.342,-2.878 -1.028,-3.81 -0.686,-0.932 -1.626,-1.398 -2.821,-1.398 -1.477,0 -2.584,0.655 -3.323,1.965 v 6.816 c 0.73,1.301 1.846,1.951 3.349,1.951 1.169,0 2.098,-0.464 2.788,-1.391 0.69,-0.927 1.035,-2.305 1.035,-4.133 m 13.836,3.467 c 0,-0.659 -0.249,-1.171 -0.745,-1.536 -0.497,-0.364 -1.362,-0.679 -2.597,-0.942 -1.235,-0.264 -2.215,-0.58 -2.94,-0.949 -0.725,-0.37 -1.261,-0.809 -1.609,-1.319 -0.347,-0.51 -0.52,-1.116 -0.52,-1.819 0,-1.169 0.494,-2.158 1.483,-2.966 0.989,-0.809 2.252,-1.213 3.79,-1.213 1.617,0 2.929,0.417 3.935,1.252 1.007,0.835 1.51,1.903 1.51,3.204 h -2.452 c 0,-0.668 -0.284,-1.244 -0.851,-1.727 -0.566,-0.484 -1.281,-0.725 -2.142,-0.725 -0.888,0 -1.582,0.193 -2.083,0.58 -0.501,0.386 -0.751,0.892 -0.751,1.516 0,0.589 0.233,1.032 0.698,1.331 0.466,0.299 1.308,0.585 2.525,0.857 1.217,0.273 2.204,0.598 2.96,0.976 0.756,0.378 1.316,0.833 1.681,1.364 0.364,0.532 0.547,1.18 0.547,1.945 0,1.274 -0.51,2.296 -1.53,3.065 -1.019,0.769 -2.342,1.154 -3.968,1.154 -1.142,0 -2.153,-0.203 -3.032,-0.607 -0.879,-0.404 -1.567,-0.969 -2.063,-1.694 -0.497,-0.725 -0.745,-1.509 -0.745,-2.353 h 2.439 c 0.044,0.817 0.371,1.465 0.982,1.944 0.611,0.479 1.417,0.719 2.419,0.719 0.923,0 1.663,-0.187 2.222,-0.56 0.558,-0.374 0.837,-0.873 0.837,-1.497 m 5.537,2.505 c 0,-0.422 0.125,-0.773 0.376,-1.055 0.25,-0.281 0.626,-0.421 1.127,-0.421 0.501,0 0.881,0.14 1.14,0.421 0.259,0.282 0.389,0.633 0.389,1.055 0,0.404 -0.13,0.743 -0.389,1.015 -0.259,0.273 -0.639,0.409 -1.14,0.409 -0.501,0 -0.877,-0.136 -1.127,-0.409 -0.251,-0.272 -0.376,-0.611 -0.376,-1.015 m 0.013,-11.641 c 0,-0.422 0.125,-0.773 0.376,-1.055 0.25,-0.281 0.626,-0.422 1.127,-0.422 0.501,0 0.881,0.141 1.14,0.422 0.26,0.282 0.389,0.633 0.389,1.055 0,0.404 -0.129,0.743 -0.389,1.015 -0.259,0.273 -0.639,0.409 -1.14,0.409 -0.501,0 -0.877,-0.136 -1.127,-0.409 -0.251,-0.272 -0.376,-0.611 -0.376,-1.015 m 7.085,14.568 h -2.096 l 8.015,-20.843 h 2.083 l -8.002,20.843 m 8.172,0 h -2.096 l 8.015,-20.843 h 2.083 l -8.002,20.843 m 13.287,-1.648 h -2.439 v -20.25 h 2.439 v 20.25 m 12.704,0 c -0.141,-0.281 -0.255,-0.782 -0.343,-1.503 -1.134,1.178 -2.487,1.767 -4.061,1.767 -1.406,0 -2.56,-0.398 -3.46,-1.193 -0.901,-0.796 -1.352,-1.804 -1.352,-3.026 0,-1.485 0.565,-2.639 1.694,-3.461 1.13,-0.822 2.718,-1.232 4.766,-1.232 h 2.373 v -1.121 c 0,-0.853 -0.255,-1.532 -0.764,-2.037 -0.51,-0.505 -1.262,-0.758 -2.255,-0.758 -0.87,0 -1.599,0.22 -2.188,0.659 -0.589,0.44 -0.884,0.971 -0.884,1.595 h -2.452 c 0,-0.712 0.253,-1.399 0.758,-2.063 0.506,-0.663 1.191,-1.189 2.057,-1.575 0.866,-0.387 1.817,-0.58 2.854,-0.58 1.644,0 2.931,0.411 3.863,1.232 0.932,0.822 1.415,1.954 1.45,3.395 v 6.565 c 0,1.31 0.167,2.352 0.501,3.125 v 0.211 h -2.557 m -4.048,-1.859 c 0.765,0 1.49,-0.198 2.176,-0.593 0.685,-0.396 1.182,-0.91 1.489,-1.543 v -2.926 h -1.911 c -2.989,0 -4.483,0.874 -4.483,2.623 0,0.765 0.255,1.362 0.765,1.793 0.51,0.431 1.164,0.646 1.964,0.646 m 12.207,-0.132 h 8.345 v 1.991 h -11.325 v -1.793 l 7.871,-10.455 h -7.752 v -2.017 h 10.81 v 1.727 l -7.949,10.547 m 15.748,-1.582 3.322,-10.692 h 2.61 l -5.734,16.467 c -0.888,2.373 -2.299,3.559 -4.232,3.559 l -0.462,-0.039 -0.909,-0.172 v -1.977 l 0.659,0.052 c 0.826,0 1.47,-0.167 1.931,-0.501 0.462,-0.334 0.842,-0.944 1.141,-1.832 l 0.54,-1.45 -5.089,-14.107 h 2.663 l 3.56,10.692 m 20.148,-3.401 c 0,2.171 -0.496,3.92 -1.489,5.247 -0.994,1.327 -2.338,1.991 -4.035,1.991 -1.731,0 -3.093,-0.55 -4.087,-1.648 v 6.868 h -2.439 v -19.749 h 2.228 l 0.119,1.582 c 0.993,-1.23 2.373,-1.845 4.14,-1.845 1.714,0 3.069,0.646 4.067,1.938 0.997,1.292 1.496,3.089 1.496,5.392 v 0.224 m -2.439,-0.277 c 0,-1.608 -0.342,-2.878 -1.028,-3.81 -0.686,-0.932 -1.626,-1.398 -2.821,-1.398 -1.477,0 -2.584,0.655 -3.323,1.965 v 6.816 c 0.73,1.301 1.846,1.951 3.349,1.951 1.169,0 2.098,-0.464 2.788,-1.391 0.69,-0.927 1.035,-2.305 1.035,-4.133 m 8.18,7.251 h -2.439 v -14.265 h 2.439 v 14.265 m -2.637,-18.048 c 0,-0.396 0.121,-0.73 0.363,-1.002 0.242,-0.273 0.6,-0.409 1.074,-0.409 0.475,0 0.835,0.136 1.081,0.409 0.246,0.272 0.369,0.606 0.369,1.002 0,0.395 -0.123,0.725 -0.369,0.988 -0.246,0.264 -0.606,0.396 -1.081,0.396 -0.474,0 -0.832,-0.132 -1.074,-0.396 -0.242,-0.263 -0.363,-0.593 -0.363,-0.988 m 12.256,16.321 c 0.87,0 1.63,-0.264 2.28,-0.791 0.651,-0.527 1.011,-1.187 1.081,-1.978 h 2.308 c -0.044,0.818 -0.326,1.596 -0.844,2.334 -0.519,0.738 -1.211,1.327 -2.077,1.766 -0.865,0.44 -1.782,0.66 -2.748,0.66 -1.943,0 -3.487,-0.649 -4.634,-1.945 -1.147,-1.296 -1.721,-3.07 -1.721,-5.32 v -0.408 c 0,-1.389 0.255,-2.624 0.765,-3.705 0.51,-1.081 1.241,-1.92 2.195,-2.518 0.953,-0.598 2.081,-0.896 3.381,-0.896 1.6,0 2.929,0.479 3.989,1.437 1.059,0.958 1.623,2.201 1.694,3.731 h -2.308 c -0.07,-0.923 -0.419,-1.681 -1.048,-2.275 -0.628,-0.593 -1.404,-0.889 -2.327,-0.889 -1.239,0 -2.199,0.446 -2.88,1.338 -0.681,0.892 -1.022,2.182 -1.022,3.869 v 0.461 c 0,1.644 0.339,2.91 1.015,3.797 0.677,0.888 1.644,1.332 2.901,1.332 m 8.456,0.448 c 0,-0.422 0.125,-0.773 0.375,-1.055 0.251,-0.281 0.627,-0.421 1.128,-0.421 0.501,0 0.881,0.14 1.14,0.421 0.259,0.282 0.389,0.633 0.389,1.055 0,0.404 -0.13,0.743 -0.389,1.015 -0.259,0.273 -0.639,0.409 -1.14,0.409 -0.501,0 -0.877,-0.136 -1.128,-0.409 -0.25,-0.272 -0.375,-0.611 -0.375,-1.015 m 6.395,-5.985 c 0,-1.398 0.274,-2.655 0.824,-3.771 0.549,-1.116 1.314,-1.977 2.294,-2.584 0.98,-0.606 2.098,-0.909 3.355,-0.909 1.942,0 3.513,0.672 4.713,2.017 1.2,1.344 1.8,3.133 1.8,5.365 v 0.172 c 0,1.388 -0.266,2.634 -0.798,3.737 -0.532,1.103 -1.292,1.963 -2.281,2.578 -0.989,0.615 -2.125,0.923 -3.408,0.923 -1.933,0 -3.5,-0.673 -4.7,-2.017 -1.199,-1.345 -1.799,-3.125 -1.799,-5.34 v -0.171 m 2.452,0.29 c 0,1.582 0.367,2.852 1.101,3.81 0.734,0.958 1.716,1.437 2.946,1.437 1.239,0 2.224,-0.486 2.953,-1.457 0.73,-0.971 1.095,-2.331 1.095,-4.08 0,-1.565 -0.372,-2.832 -1.114,-3.804 -0.743,-0.971 -1.73,-1.456 -2.96,-1.456 -1.204,0 -2.175,0.479 -2.914,1.437 -0.738,0.958 -1.107,2.329 -1.107,4.113 m 20.479,-5.102 c -0.369,-0.062 -0.769,-0.093 -1.199,-0.093 -1.6,0 -2.685,0.682 -3.257,2.044 v 10.125 h -2.439 v -14.265 h 2.373 l 0.04,1.648 c 0.8,-1.274 1.934,-1.911 3.401,-1.911 0.475,0 0.835,0.061 1.081,0.184 v 2.268 m 1.4,4.825 c 0,-2.224 0.514,-3.992 1.543,-5.306 1.028,-1.314 2.39,-1.971 4.087,-1.971 1.74,0 3.098,0.615 4.073,1.845 l 0.119,-1.582 h 2.228 v 13.922 c 0,1.846 -0.547,3.3 -1.641,4.364 -1.095,1.063 -2.564,1.595 -4.41,1.595 -1.029,0 -2.035,-0.22 -3.019,-0.659 -0.985,-0.439 -1.736,-1.042 -2.255,-1.806 l 1.266,-1.464 c 1.046,1.292 2.325,1.938 3.836,1.938 1.187,0 2.112,-0.334 2.776,-1.002 0.663,-0.667 0.995,-1.608 0.995,-2.821 v -1.226 c -0.976,1.125 -2.307,1.688 -3.995,1.688 -1.67,0 -3.021,-0.673 -4.054,-2.017 -1.032,-1.345 -1.549,-3.178 -1.549,-5.498 m 2.452,0.277 c 0,1.608 0.33,2.872 0.989,3.79 0.659,0.919 1.582,1.378 2.769,1.378 1.538,0 2.667,-0.699 3.388,-2.096 v -6.513 c -0.747,-1.362 -1.868,-2.044 -3.362,-2.044 -1.186,0 -2.114,0.462 -2.782,1.385 -0.668,0.923 -1.002,2.289 -1.002,4.1 z"
             id="shapePath29"
             inkscape:connector-curvature="0" />
        </g>
      </g>
      <g
         name="Layer 1"
         id="Layer2"
         style="opacity:1"
         transform="matrix(0.10012831,0,0,0.10012831,2.3234048,561.43996)">
        <g
           id="Shape30">
          <desc
             id="desc717"
             flag=""
             mesh=""
             locked="0"
             pers-end="0,0"
             pers-start="0,0"
             pers-size="0,0"
             pers-center="0,0"
             transform="matrix(1.00347,0,0,1.00469,555,313)"
             blurRadius="4"
             blurEnabled="0"
             shadowOpacity="160"
             shadowBlur="4"
             shadowOffsetY="2"
             shadowOffsetX="0"
             shadowEnabled="0"
             markerEnd="0"
             markerStart="0"
             strokeStyle="0"
             font-alignment="2"
             font-underline="0"
             font-bold="0"
             font-pixelSize="32"
             font-familyName="Lao Sangam MN"
             text=""
             bounding="rect(-553.078,-311.539,1106.16,623.078)"
             basicInfo-starPoints="5"
             basicInfo-polygonSides="6"
             basicInfo-roundedRectRadius="12"
             basicInfo-basicType="1"
             type="0"
             shapeID="30" />
          <path
             style="fill:none;stroke:#323232;stroke-width:1;stroke-linecap:round;stroke-linejoin:miter;stroke-miterlimit:2;stroke-opacity:1"
             d="M -6.10352e-5,-3.05176e-5 H 1110 V 626 H -6.10352e-5 Z"
             id="shapePath30"
             inkscape:connector-curvature="0" />
        </g>
      </g>
    </g>
  </g>
</svg>
