<?xml version="1.0"?>
<svg version="1.1" xmlns="http://www.w3.org/2000/svg" xmlns:xlink="http://www.w3.org/1999/xlink" width="94.1" height="53.1">
    <desc iVinci="yes" version="4.6" gridStep="20" showGrid="no" snapToGrid="no" codePlatform="0"/>
    <g id="Layer1" name="Layer 1" opacity="1">
        <g id="Shape1">
            <desc shapeID="1" type="0" basicInfo-basicType="0" basicInfo-roundedRectRadius="12" basicInfo-polygonSides="6" basicInfo-starPoints="5" bounding="rect(-0.00314713,0,0.0062934,0)" text="" font-familyName="" font-pixelSize="20" font-bold="0" font-underline="0" font-alignment="1" strokeStyle="0" markerStart="0" markerEnd="0" shadowEnabled="0" shadowOffsetX="0" shadowOffsetY="2" shadowBlur="4" shadowOpacity="160" blurEnabled="0" blurRadius="4" transform="matrix(1,0,0,1,36.6012,23.1602)" pers-center="0,0" pers-size="0,0" pers-start="0,0" pers-end="0,0" locked="0" mesh="" flag=""/>
            <path id="shapePath1" d="M36.598,23.1602 C36.6122,23.1602 36.598,23.1602 36.598,23.1602 Z" style="stroke:none;fill-rule:evenodd;fill:#000000;fill-opacity:1;"/>
        </g>
        <g id="Shape2">
            <desc shapeID="2" type="0" basicInfo-basicType="0" basicInfo-roundedRectRadius="12" basicInfo-polygonSides="6" basicInfo-starPoints="5" bounding="rect(-4.21358,-3.78416,8.42715,7.56831)" text="" font-familyName="" font-pixelSize="20" font-bold="0" font-underline="0" font-alignment="1" strokeStyle="0" markerStart="0" markerEnd="0" shadowEnabled="0" shadowOffsetX="0" shadowOffsetY="2" shadowBlur="4" shadowOpacity="160" blurEnabled="0" blurRadius="4" transform="matrix(1,0,0,1,39.6798,26.7569)" pers-center="0,0" pers-size="0,0" pers-start="0,0" pers-end="0,0" locked="0" mesh="" flag=""/>
            <path id="shapePath2" d="M35.8167,22.9728 C35.8167,22.9728 38.5983,24.9777 38.5983,24.9777 C38.5983,24.9777 43.8934,26.9405 43.8934,26.9405 C43.8934,26.9405 43.1309,29.2561 43.1309,29.2561 C43.1309,29.2561 42.3966,30.5411 42.3966,30.5411 C42.3966,30.5411 37.4688,27.7172 37.4688,27.7172 C37.4688,27.7172 35.6755,25.472 35.6755,25.472 C35.6755,25.472 35.4328,24.6563 35.4701,23.996 C35.5031,23.4112 35.8167,22.9728 35.8167,22.9728 Z" style="stroke:none;fill-rule:evenodd;fill:#fbbbb8;fill-opacity:1;"/>
        </g>
        <g id="Shape3">
            <desc shapeID="3" type="0" basicInfo-basicType="0" basicInfo-roundedRectRadius="12" basicInfo-polygonSides="6" basicInfo-starPoints="5" bounding="rect(-4.09286,-2.04931,8.18572,4.09862)" text="" font-familyName="" font-pixelSize="20" font-bold="0" font-underline="0" font-alignment="1" strokeStyle="0" markerStart="0" markerEnd="0" shadowEnabled="0" shadowOffsetX="0" shadowOffsetY="2" shadowBlur="4" shadowOpacity="160" blurEnabled="0" blurRadius="4" transform="matrix(1,0,0,1,55.6105,28.5287)" pers-center="0,0" pers-size="0,0" pers-start="0,0" pers-end="0,0" locked="0" mesh="" flag=""/>
            <path id="shapePath3" d="M59.3833,30.578 C59.3833,30.578 54.1733,29.397 54.1733,29.397 C54.1733,29.397 52.3254,28.6468 51.6445,28.105 C50.9639,27.5631 53.2424,27.6187 53.2424,27.6187 C53.2424,27.6187 55.7849,26.4794 55.7849,26.4794 C55.7849,26.4794 59.689,27.4797 59.7029,27.4797 C59.7168,27.4797 59.3833,30.578 59.3833,30.578 Z" style="stroke:none;fill-rule:evenodd;fill:#fbbbb8;fill-opacity:1;"/>
        </g>
        <g id="Shape4">
            <desc shapeID="4" type="0" basicInfo-basicType="0" basicInfo-roundedRectRadius="12" basicInfo-polygonSides="6" basicInfo-starPoints="5" bounding="rect(-12.6591,-9.97298,25.3182,19.946)" text="" font-familyName="" font-pixelSize="20" font-bold="0" font-underline="0" font-alignment="1" strokeStyle="0" markerStart="0" markerEnd="0" shadowEnabled="0" shadowOffsetX="0" shadowOffsetY="2" shadowBlur="4" shadowOpacity="160" blurEnabled="0" blurRadius="4" transform="matrix(1,0,0,1,46.0378,18.0269)" pers-center="0,0" pers-size="0,0" pers-start="0,0" pers-end="0,0" locked="0" mesh="" flag=""/>
            <path id="shapePath4" d="M34.8415,21.9146 C34.8415,21.9146 37.4816,24.6221 37.4816,24.6221 C37.4816,24.6221 38.8479,25.3539 40.3826,25.9084 C42.213,26.5696 44.2643,27.0725 44.2643,27.0725 C44.2643,27.0725 48.9684,27.9999 48.9684,27.9999 C48.9684,27.9999 53.3073,27.679 53.3073,27.679 C53.3073,27.679 56.3799,25.9569 56.3799,25.9569 C56.3799,25.9569 58.4103,23.1086 58.4103,23.1086 C58.4103,23.1086 58.6969,19.2996 58.6969,19.2996 C58.6969,19.2996 57.3595,15.598 57.3595,15.598 C57.3595,15.598 56.4281,14.0337 56.4281,14.0337 C56.4281,14.0337 56.5953,12.3859 56.6073,12.3859 C56.6192,12.3859 53.9646,12.9278 53.9646,12.9278 C53.9646,12.9278 49.9329,10.8077 49.9329,10.8077 C49.9329,10.8077 45.2124,9.90581 45.1973,9.90581 C45.1821,9.90581 42.4195,9.93618 42.4195,9.93618 C42.4195,9.93618 40.5069,8.05395 40.5069,8.05395 C40.5069,8.05395 39.8694,10.2397 39.8694,10.2397 C39.8694,10.2397 39.1076,10.5769 39.1076,10.5769 C39.1076,10.5769 37.438,11.118 37.438,11.118 C37.438,11.118 34.9997,13.3168 34.9997,13.3168 C34.9997,13.3168 33.8419,15.5612 33.8419,15.5612 C33.8419,15.5612 33.3787,17.8235 33.3787,17.8235 C33.3787,17.8235 33.8596,20.1035 33.8596,20.1035 C33.8596,20.1035 34.8415,21.9146 34.8415,21.9146 Z" style="stroke:none;fill-rule:evenodd;fill:#fff9ee;fill-opacity:1;"/>
        </g>
        <g id="Shape5">
            <desc shapeID="5" type="0" basicInfo-basicType="0" basicInfo-roundedRectRadius="12" basicInfo-polygonSides="6" basicInfo-starPoints="5" bounding="rect(0,0,0,0)" text="" font-familyName="" font-pixelSize="20" font-bold="0" font-underline="0" font-alignment="1" strokeStyle="0" markerStart="0" markerEnd="0" shadowEnabled="0" shadowOffsetX="0" shadowOffsetY="2" shadowBlur="4" shadowOpacity="160" blurEnabled="0" blurRadius="4" transform="matrix(1,0,0,1,42.3166,30.4577)" pers-center="0,0" pers-size="0,0" pers-start="0,0" pers-end="0,0" locked="0" mesh="" flag=""/>
            <path id="shapePath5" d="M42.3166,30.4577 Z" style="stroke:none;fill-rule:evenodd;fill:#000000;fill-opacity:1;"/>
        </g>
        <g id="Shape6">
            <desc shapeID="6" type="0" basicInfo-basicType="0" basicInfo-roundedRectRadius="12" basicInfo-polygonSides="6" basicInfo-starPoints="5" bounding="rect(-1.32384,-1.97587,2.64769,3.95175)" text="" font-familyName="" font-pixelSize="20" font-bold="0" font-underline="0" font-alignment="1" strokeStyle="0" markerStart="0" markerEnd="0" shadowEnabled="0" shadowOffsetX="0" shadowOffsetY="2" shadowBlur="4" shadowOpacity="160" blurEnabled="0" blurRadius="4" transform="matrix(1,0,0,1,43.694,28.8636)" pers-center="0,0" pers-size="0,0" pers-start="0,0" pers-end="0,0" locked="0" mesh="" flag=""/>
            <path id="shapePath6" d="M42.3702,30.4935 C42.3702,30.4935 43.3817,28.6548 43.3817,28.6548 C43.3817,28.6548 43.8339,26.8877 43.8398,26.8877 C43.8458,26.8877 44.3396,27.5303 44.3396,27.5303 C44.3396,27.5303 45.0179,28.2802 45.0179,28.2802 C45.0179,28.2802 44.4943,28.7679 44.5003,28.7679 C44.5062,28.7679 44.6074,29.3391 44.6074,29.3391 C44.6074,29.3391 44.185,29.8092 44.185,29.8092 C44.185,29.8092 44.1195,30.4518 44.1195,30.4518 C44.1195,30.4518 43.6998,30.8298 43.2953,30.8392 C42.8296,30.8503 42.3702,30.4935 42.3702,30.4935 Z" style="stroke:none;fill-rule:evenodd;fill:#fff9ee;fill-opacity:1;"/>
        </g>
        <g id="Shape7">
            <desc shapeID="7" type="0" basicInfo-basicType="0" basicInfo-roundedRectRadius="12" basicInfo-polygonSides="6" basicInfo-starPoints="5" bounding="rect(-0.825119,-1.58627,1.65024,3.17255)" text="" font-familyName="" font-pixelSize="20" font-bold="0" font-underline="0" font-alignment="1" strokeStyle="0" markerStart="0" markerEnd="0" shadowEnabled="0" shadowOffsetX="0" shadowOffsetY="2" shadowBlur="4" shadowOpacity="160" blurEnabled="0" blurRadius="4" transform="matrix(1,0,0,1,60.105,29.1094)" pers-center="0,0" pers-size="0,0" pers-start="0,0" pers-end="0,0" locked="0" mesh="" flag=""/>
            <path id="shapePath7" d="M59.75,27.5244 C59.75,27.5244 59.2799,30.6243 59.2799,30.6243 C59.2799,30.6243 60.0593,30.6957 60.0593,30.6957 C60.0593,30.6957 60.922,30.1841 60.922,30.1841 C60.922,30.1841 60.9041,29.3629 60.9041,29.3629 C60.9041,29.3629 60.9041,28.9913 60.7631,28.5751 C60.7663,28.3203 61.0083,28.1703 60.9041,27.9806 C60.6268,27.4757 59.75,27.5244 59.75,27.5244 Z" style="stroke:none;fill-rule:evenodd;fill:#fff9ee;fill-opacity:1;"/>
        </g>
        <g id="Shape8">
            <desc shapeID="8" type="0" basicInfo-basicType="0" basicInfo-roundedRectRadius="12" basicInfo-polygonSides="6" basicInfo-starPoints="5" bounding="rect(0,0,0,0)" text="" font-familyName="" font-pixelSize="20" font-bold="0" font-underline="0" font-alignment="1" strokeStyle="0" markerStart="0" markerEnd="0" shadowEnabled="0" shadowOffsetX="0" shadowOffsetY="2" shadowBlur="4" shadowOpacity="160" blurEnabled="0" blurRadius="4" transform="matrix(1,0,0,1,44.0479,20.261)" pers-center="0,0" pers-size="0,0" pers-start="0,0" pers-end="0,0" locked="0" mesh="" flag=""/>
            <path id="shapePath8" d="M44.0479,20.261 Z" style="stroke:none;fill-rule:evenodd;fill:#fff5ea;fill-opacity:1;"/>
        </g>
        <g id="Shape9">
            <desc shapeID="9" type="0" basicInfo-basicType="0" basicInfo-roundedRectRadius="12" basicInfo-polygonSides="6" basicInfo-starPoints="5" bounding="rect(-2.32449,-2.13899,4.64898,4.27798)" text="" font-familyName="" font-pixelSize="20" font-bold="0" font-underline="0" font-alignment="1" strokeStyle="0" markerStart="0" markerEnd="0" shadowEnabled="0" shadowOffsetX="0" shadowOffsetY="2" shadowBlur="4" shadowOpacity="160" blurEnabled="0" blurRadius="4" transform="matrix(1,0,0,1,46.1742,19.9353)" pers-center="0,0" pers-size="0,0" pers-start="0,0" pers-end="0,0" locked="0" mesh="" flag=""/>
            <path id="shapePath9" d="M44.9389,20.9311 C44.9389,20.9311 46.6326,20.8869 46.6326,20.8869 C46.6326,20.8869 47.2812,21.1597 47.2812,21.1597 C47.2812,21.1597 47.7609,21.9018 47.7609,21.9018 C47.7609,21.9018 48.2011,22.0743 48.2011,22.0743 C48.2011,22.0743 48.4987,21.9612 48.4987,21.9612 C48.4987,21.9612 48.4034,21.5328 48.4034,21.5328 C48.4034,21.5328 48.0048,20.7713 48.0048,20.7713 C48.0048,20.7713 47.7133,20.2179 47.7192,20.2179 C47.7251,20.2179 47.6002,19.7836 47.6002,19.7836 C47.6002,19.7836 47.4634,18.6769 47.4634,18.6769 C47.4634,18.6769 47.1897,18.3853 47.1897,18.3853 C47.1897,18.3853 45.2797,17.7963 45.2797,17.7963 C45.2797,17.7963 44.7443,17.832 44.7443,17.832 C44.7443,17.832 44.2597,18.3459 44.2597,18.3459 C44.2597,18.3459 43.8497,19.2108 43.8497,19.2108 C43.8497,19.2108 43.8561,19.8044 44.118,20.2179 C44.4,20.6634 44.9389,20.9311 44.9389,20.9311 Z" style="stroke:none;fill-rule:evenodd;fill:#ffffff;fill-opacity:1;"/>
        </g>
        <g id="Shape10">
            <desc shapeID="10" type="0" basicInfo-basicType="0" basicInfo-roundedRectRadius="12" basicInfo-polygonSides="6" basicInfo-starPoints="5" bounding="rect(-1.16952,-1.39495,2.33903,2.78989)" text="" font-familyName="" font-pixelSize="20" font-bold="0" font-underline="0" font-alignment="1" strokeStyle="0" markerStart="0" markerEnd="0" shadowEnabled="0" shadowOffsetX="0" shadowOffsetY="2" shadowBlur="4" shadowOpacity="160" blurEnabled="0" blurRadius="4" transform="matrix(1,0,0,1,42.2907,33.2145)" pers-center="0,0" pers-size="0,0" pers-start="0,0" pers-end="0,0" locked="0" mesh="" flag=""/>
            <path id="shapePath10" d="M41.8767,32.1785 C41.5013,32.6454 41.004,34.2183 41.1461,34.4821 C41.2882,34.7561 41.4607,34.5836 41.6331,34.0051 C41.7346,33.6601 41.8057,33.5587 41.9376,33.5892 C42.029,33.6093 42.242,33.6601 42.4247,33.7007 C42.648,33.7412 42.8104,33.8732 42.9524,34.1168 C43.0945,34.3502 43.2061,34.4415 43.3178,34.401 C43.541,34.3096 43.5105,34.0661 43.1655,33.1324 C42.648,31.7116 42.3943,31.529 41.8767,32.1785 M42.5465,33.1628 C42.5566,33.2136 42.3943,33.2442 42.2014,33.2442 L41.8463,33.2442 L42.0594,32.8078 L42.2826,32.3815 L42.4146,32.7367 C42.4856,32.9294 42.5465,33.1223 42.5465,33.1628 Z" style="stroke:none;fill-rule:evenodd;fill:#583735;fill-opacity:1;"/>
        </g>
        <g id="Shape11">
            <desc shapeID="11" type="0" basicInfo-basicType="0" basicInfo-roundedRectRadius="12" basicInfo-polygonSides="6" basicInfo-starPoints="5" bounding="rect(-1.20389,-1.31609,2.40779,2.63218)" text="" font-familyName="" font-pixelSize="20" font-bold="0" font-underline="0" font-alignment="1" strokeStyle="0" markerStart="0" markerEnd="0" shadowEnabled="0" shadowOffsetX="0" shadowOffsetY="2" shadowBlur="4" shadowOpacity="160" blurEnabled="0" blurRadius="4" transform="matrix(1,0,0,1,39.2997,33.3424)" pers-center="0,0" pers-size="0,0" pers-start="0,0" pers-end="0,0" locked="0" mesh="" flag=""/>
            <path id="shapePath11" d="M38.1625,32.0974 C38.0611,32.1989 38.0814,34.4415 38.1828,34.5024 C38.2336,34.533 38.7207,34.5937 39.2687,34.6241 C40.1516,34.685 40.2936,34.675 40.4255,34.5126 C40.6793,34.2081 40.3139,34.056 39.3397,34.056 L38.4974,34.056 L38.4974,33.0412 C38.4974,32.2598 38.467,32.0263 38.3655,32.0263 C38.2843,32.0263 38.193,32.0568 38.1625,32.0974 Z" style="stroke:none;fill-rule:evenodd;fill:#583735;fill-opacity:1;"/>
        </g>
        <g id="Shape12">
            <desc shapeID="12" type="0" basicInfo-basicType="0" basicInfo-roundedRectRadius="12" basicInfo-polygonSides="6" basicInfo-starPoints="5" bounding="rect(-1.05273,-1.1604,2.10546,2.3208)" text="" font-familyName="" font-pixelSize="20" font-bold="0" font-underline="0" font-alignment="1" strokeStyle="0" markerStart="0" markerEnd="0" shadowEnabled="0" shadowOffsetX="0" shadowOffsetY="2" shadowBlur="4" shadowOpacity="160" blurEnabled="0" blurRadius="4" transform="matrix(1,0,0,1,45.4329,33.384)" pers-center="0,0" pers-size="0,0" pers-start="0,0" pers-end="0,0" locked="0" mesh="" flag=""/>
            <path id="shapePath12" d="M44.4543,32.3004 C44.2919,32.4524 44.4036,32.625 44.7182,32.6859 C45.4286,32.828 45.4184,32.8078 45.1038,33.2442 C44.6877,33.8226 44.5254,34.2386 44.6776,34.3907 C44.8197,34.533 46.21,34.6039 46.4027,34.4821 C46.5042,34.4111 46.5144,34.34 46.423,34.1676 C46.3215,33.9951 46.21,33.9545 45.7431,33.9545 C45.1951,33.9545 45.1951,33.9545 45.3068,33.7211 C45.3778,33.5992 45.5604,33.3456 45.7127,33.173 C45.875,32.9904 45.9765,32.7773 45.9461,32.696 C45.8243,32.3815 44.6776,32.077 44.4543,32.3004 Z" style="stroke:none;fill-rule:evenodd;fill:#583735;fill-opacity:1;"/>
        </g>
        <g id="Shape13">
            <desc shapeID="13" type="0" basicInfo-basicType="0" basicInfo-roundedRectRadius="12" basicInfo-polygonSides="6" basicInfo-starPoints="5" bounding="rect(-1.12887,-1.28102,2.25774,2.56204)" text="" font-familyName="" font-pixelSize="20" font-bold="0" font-underline="0" font-alignment="1" strokeStyle="0" markerStart="0" markerEnd="0" shadowEnabled="0" shadowOffsetX="0" shadowOffsetY="2" shadowBlur="4" shadowOpacity="160" blurEnabled="0" blurRadius="4" transform="matrix(1,0,0,1,48.2926,33.6881)" pers-center="0,0" pers-size="0,0" pers-start="0,0" pers-end="0,0" locked="0" mesh="" flag=""/>
            <path id="shapePath13" d="M49.0108,32.625 C48.8586,32.7773 48.6252,32.97 48.4831,33.0412 C48.2496,33.173 48.209,33.1527 47.8336,32.7874 C47.5799,32.5338 47.3871,32.422 47.2755,32.4728 C47.1232,32.5235 47.1232,32.5643 47.2958,32.8483 C47.3973,33.0208 47.5799,33.2745 47.7118,33.4166 C47.8641,33.5788 47.9351,33.7921 47.9351,34.056 C47.9351,34.543 48.1177,34.9691 48.3207,34.9691 C48.4425,34.9691 48.4628,34.8576 48.412,34.3197 L48.3511,33.6703 L48.747,33.4064 C49.1732,33.1223 49.5384,32.5743 49.3863,32.422 C49.3354,32.3713 49.1732,32.4524 49.0108,32.625 Z" style="stroke:none;fill-rule:evenodd;fill:#583735;fill-opacity:1;"/>
        </g>
        <g id="Shape14">
            <desc shapeID="14" type="0" basicInfo-basicType="0" basicInfo-roundedRectRadius="12" basicInfo-polygonSides="6" basicInfo-starPoints="5" bounding="rect(-0.812288,-1.24695,1.62458,2.4939)" text="" font-familyName="" font-pixelSize="20" font-bold="0" font-underline="0" font-alignment="1" strokeStyle="0" markerStart="0" markerEnd="0" shadowEnabled="0" shadowOffsetX="0" shadowOffsetY="2" shadowBlur="4" shadowOpacity="160" blurEnabled="0" blurRadius="4" transform="matrix(1,0,0,1,51.4865,33.5979)" pers-center="0,0" pers-size="0,0" pers-start="0,0" pers-end="0,0" locked="0" mesh="" flag=""/>
            <path id="shapePath14" d="M51.0607,32.4628 C50.8881,32.5338 50.7766,32.6658 50.736,32.8685 C50.6346,33.3658 50.665,34.746 50.7766,34.817 C50.9795,34.9389 51.1824,34.6445 51.1824,34.2487 C51.1824,33.8936 51.213,33.8531 51.4463,33.8531 C51.7304,33.8531 52.2988,33.3557 52.2988,33.1122 C52.2988,32.8178 52.1668,32.625 51.8826,32.483 C51.558,32.3104 51.4463,32.3104 51.0607,32.4628 M51.8015,32.8989 C51.913,33.0412 51.903,33.0919 51.7,33.2542 C51.3042,33.5788 51.081,33.4572 51.081,32.9294 C51.081,32.6859 51.5985,32.6554 51.8015,32.8989 Z" style="stroke:none;fill-rule:evenodd;fill:#583735;fill-opacity:1;"/>
        </g>
        <g id="Shape15">
            <desc shapeID="15" type="0" basicInfo-basicType="0" basicInfo-roundedRectRadius="12" basicInfo-polygonSides="6" basicInfo-starPoints="5" bounding="rect(-1.06158,-1.14574,2.12316,2.29147)" text="" font-familyName="" font-pixelSize="20" font-bold="0" font-underline="0" font-alignment="1" strokeStyle="0" markerStart="0" markerEnd="0" shadowEnabled="0" shadowOffsetX="0" shadowOffsetY="2" shadowBlur="4" shadowOpacity="160" blurEnabled="0" blurRadius="4" transform="matrix(1,0,0,1,55.6869,33.552)" pers-center="0,0" pers-size="0,0" pers-start="0,0" pers-end="0,0" locked="0" mesh="" flag=""/>
            <path id="shapePath15" d="M55.2416,32.5643 C54.6125,32.9599 54.4196,33.9241 54.8764,34.3502 C55.4344,34.8676 56.4087,34.7967 56.6827,34.2081 C56.8653,33.8123 56.6421,33.6398 56.3274,33.9342 C56.0637,34.1777 55.4649,34.2386 55.262,34.0357 C55.0794,33.8531 55.1199,33.5079 55.3634,33.1933 C55.546,32.9599 55.6374,32.9294 55.9622,32.97 C56.2463,33.0107 56.3578,32.9803 56.4087,32.8685 C56.5608,32.4524 55.749,32.2394 55.2416,32.5643 Z" style="stroke:none;fill-rule:evenodd;fill:#583735;fill-opacity:1;"/>
        </g>
        <g id="Shape16">
            <desc shapeID="16" type="0" basicInfo-basicType="0" basicInfo-roundedRectRadius="12" basicInfo-polygonSides="6" basicInfo-starPoints="5" bounding="rect(-0.243008,-1.11065,0.486012,2.2213)" text="" font-familyName="" font-pixelSize="20" font-bold="0" font-underline="0" font-alignment="1" strokeStyle="0" markerStart="0" markerEnd="0" shadowEnabled="0" shadowOffsetX="0" shadowOffsetY="2" shadowBlur="4" shadowOpacity="160" blurEnabled="0" blurRadius="4" transform="matrix(1,0,0,1,53.432,33.7486)" pers-center="0,0" pers-size="0,0" pers-start="0,0" pers-end="0,0" locked="0" mesh="" flag=""/>
            <path id="shapePath16" d="M53.2627,32.7367 C53.1714,32.8889 53.1613,34.3604 53.2527,34.6344 C53.3541,34.9489 53.5876,34.9285 53.6485,34.6039 C53.7092,34.2792 53.6586,33.1223 53.5672,32.8382 C53.4962,32.6148 53.3642,32.5743 53.2627,32.7367 Z" style="stroke:none;fill-rule:evenodd;fill:#583735;fill-opacity:1;"/>
        </g>
        <g id="Shape17">
            <desc shapeID="17" type="0" basicInfo-basicType="0" basicInfo-roundedRectRadius="12" basicInfo-polygonSides="6" basicInfo-starPoints="5" bounding="rect(-14.0105,-11.6164,28.021,23.2328)" text="" font-familyName="" font-pixelSize="20" font-bold="0" font-underline="0" font-alignment="1" strokeStyle="0" markerStart="0" markerEnd="0" shadowEnabled="0" shadowOffsetX="0" shadowOffsetY="2" shadowBlur="4" shadowOpacity="160" blurEnabled="0" blurRadius="4" transform="matrix(1,0,0,1,47.1509,19.4759)" pers-center="0,0" pers-size="0,0" pers-start="0,0" pers-end="0,0" locked="0" mesh="" flag=""/>
            <path id="shapePath17" d="M40.292,7.95911 C40.1157,8.59476 40.0149,9.07434 39.8013,9.78607 C39.6705,10.2221 39.6896,10.4277 39.7736,10.5086 C39.952,10.6703 40.1318,10.3575 40.3735,9.49686 C40.4792,9.08227 40.5954,8.67783 40.6248,8.59476 C40.6639,8.48056 40.7472,8.52022 40.958,8.7638 C41.116,8.93626 41.4848,9.35221 41.7696,9.68722 C41.7696,9.68722 42.0948,10.1347 42.3492,10.2117 C42.7346,10.3284 43.5019,10.2117 43.5019,10.2117 C44.5529,10.1508 45.4719,10.2058 46.5896,10.4014 C46.8586,10.4479 46.8588,10.4582 46.7745,10.9137 C46.7278,11.1723 46.7124,11.4512 46.7451,11.5433 C46.8639,11.8299 47.1048,11.4748 47.1262,10.9689 C47.1494,10.5559 47.1696,10.5349 47.3975,10.5822 C47.5321,10.6106 47.7704,10.668 47.9359,10.6958 C48.2774,10.7514 48.2883,10.7821 48.0886,11.1365 C47.8991,11.4805 47.8998,12.0684 48.0957,12.0647 C48.271,12.0615 48.3201,11.9265 48.401,11.2958 C48.4374,11.0372 48.485,10.8197 48.5159,10.8191 C48.5365,10.8187 48.7644,10.866 49.0232,10.923 C49.5205,11.0375 49.5314,11.0682 49.3911,11.8341 C49.3452,12.1341 49.3489,12.3404 49.4119,12.401 C49.5905,12.573 49.8093,12.1358 49.8002,11.6512 C49.7957,11.4036 49.8331,11.207 49.8847,11.206 C49.9775,11.2042 50.5494,11.4514 52.3593,12.2633 C52.6609,12.3917 53.0472,12.6423 53.2258,12.8143 C53.5095,13.0875 53.6026,13.1063 54.0352,13.0673 C54.3027,13.0314 54.9194,12.9167 55.4123,12.8043 C55.9051,12.6815 56.3266,12.6118 56.3583,12.642 C56.3898,12.6724 56.366,13.0545 56.2916,13.4891 C56.2278,13.9338 56.2384,14.0761 56.3152,14.3637 C56.4003,14.6823 56.7173,14.8982 56.9647,15.1505 C57.8119,16.3208 58.5794,18.7407 58.5723,20.0199 C58.5728,20.5872 58.3857,22.1072 58.2323,22.7289 C57.849,24.2936 56.1362,26.1715 54.2235,27.0326 C53.0677,27.5596 52.3448,27.7874 51.0353,27.8119 C50.3548,27.8247 49.6247,27.7986 49.4799,27.7807 C49.335,27.7526 48.6638,27.7209 48.0131,27.6712 C46.825,27.5698 45.9944,27.3478 44.2203,26.7932 C43.7117,26.6273 42.6092,26.348 41.8632,26.1659 C41.1272,25.9734 40.3707,25.752 40.1729,25.6524 C39.9751,25.5531 39.2034,25.1305 38.5164,24.7928 C37.1735,24.1371 36.6962,23.7023 35.1366,21.9368 C34.2935,20.9831 33.6885,19.4407 33.6093,18.5139 C33.4827,17.2682 33.8862,15.527 34.7052,14.0985 C35.3741,12.9204 36.0936,12.2516 37.9688,11.0406 C38.1215,10.9346 38.5733,10.7992 38.8302,10.7532 C39.3754,10.6708 39.5057,10.5239 39.0604,10.4291 C38.6256,10.3445 38.0721,10.5302 37.2565,11.0406 C35.3297,12.2423 34.211,13.6455 33.4678,15.8151 C33.1743,16.6664 33.0878,16.8241 33.1697,18.0693 C33.226,18.9249 33.3825,19.4327 33.5207,19.8386 C34.0308,21.3365 34.5001,21.9123 34.9948,22.4394 L35.5527,23.0375 L35.4172,23.5145 C35.05,24.8313 35.5066,26.081 36.8839,27.4685 C38.2403,28.8458 38.7202,29.1358 42.4865,30.86 C43.0586,31.1174 43.1724,31.1359 43.5315,31.0363 C44.1881,30.8486 44.4397,30.5139 44.3671,29.9377 C44.3548,29.8347 44.4443,29.6576 44.5659,29.5419 C44.7077,29.4052 44.7665,29.239 44.7327,29.0849 C44.6988,28.9309 44.7681,28.7747 44.9202,28.6379 C45.052,28.5116 45.1627,28.3653 45.1615,28.3034 C45.1571,28.0661 44.7873,27.5987 44.5068,27.4904 C44.0704,27.3232 44.0319,27.4685 44.4097,27.8119 C44.5984,27.9735 44.746,28.1461 44.7468,28.1874 C44.7497,28.342 44.5161,28.532 44.3304,28.5354 C44.0314,28.5411 43.9944,28.7687 44.2558,28.9598 C44.5276,29.1506 44.5278,29.1611 44.129,29.3439 C43.8426,29.473 43.7543,29.7119 43.9525,29.8319 C44.1299,29.9421 44.0742,30.2732 43.8401,30.4426 C43.6063,30.6223 42.9781,30.6753 42.759,30.5455 C42.6653,30.4956 42.7139,30.34 42.914,30.0061 C43.0638,29.7454 43.2428,29.3915 43.3016,29.2252 C43.3601,29.0488 43.5167,28.592 43.6638,28.187 C43.8064,27.7944 43.8864,27.4093 43.8645,27.3375 C43.7891,27.1739 44.1512,27.229 44.8577,27.5045 C45.1277,27.6025 45.4079,27.69 45.4904,27.6886 C45.5729,27.6871 45.9149,27.7735 46.257,27.8702 C46.952,28.0738 48.7085,28.2367 50.834,28.2794 C52.0724,28.3077 52.3093,28.2828 52.9962,28.0634 C53.9703,27.7566 55.0852,27.2611 55.4205,26.9866 C55.7355,26.7331 56.0858,26.7162 56.698,26.9112 C56.9473,26.9993 57.3618,27.105 57.6208,27.1619 C57.8795,27.2088 58.3978,27.3434 58.7917,27.4494 L59.4866,27.6529 L59.495,28.0964 C59.5041,28.5912 59.3663,29.4913 59.2094,29.9172 L59.1112,30.1871 L58.5723,30.0529 C58.2717,29.976 57.5265,29.8353 56.8955,29.7439 C56.2748,29.642 55.5506,29.5215 55.2916,29.4646 C54.401,29.275 54.0498,29.2506 54.0521,29.3743 C54.0554,29.5497 54.6365,29.7348 55.9826,30.0085 C58.4467,30.4986 58.7471,30.5755 58.9155,30.7479 C59.0522,30.8897 59.2384,30.9171 59.7125,30.8979 C60.2277,30.8676 60.402,30.8128 60.717,30.5591 C61.0626,30.2846 61.1025,30.222 61.045,29.9033 C60.9999,29.6978 61.0263,29.4602 61.0964,29.3454 C61.1966,29.1784 61.1844,29.0859 61.0356,28.841 C60.8862,28.5861 60.8851,28.5243 61.007,28.4188 C61.3622,28.113 60.9074,27.5128 60.288,27.4833 C60.0816,27.4768 59.8431,27.409 59.7591,27.3282 C59.5813,27.1973 59.519,27.1779 58.0274,26.8449 C57.5404,26.7303 56.95,26.5968 56.7013,26.5294 L56.2558,26.4244 L56.9647,25.7301 C58.4025,24.3004 58.9434,22.8875 59.0097,20.3695 C59.0318,19.348 58.9941,18.9877 58.8163,18.3102 C58.3619,16.6374 57.847,15.5744 56.8106,14.2117 C56.7472,14.1304 56.7508,13.7796 56.8232,13.2316 C56.9572,12.1358 56.9041,12.0542 56.0504,12.1734 C55.7107,12.2106 55.1149,12.3457 54.7252,12.4664 L54.0282,12.6961 L53.7439,12.392 C53.4492,12.0778 52.6666,11.5973 52.0642,11.3714 C51.867,11.3029 51.3885,11.0952 51.0035,10.9168 C49.8487,10.3918 49.0194,10.1701 46.826,9.80901 C45.5947,9.60517 43.7273,9.57831 42.8535,9.73916 C42.5042,9.80756 42.452,9.77763 42.167,9.43221 C41.692,8.85327 41.1797,8.35322 40.6248,7.89958 C40.5385,7.82904 40.3381,7.85335 40.292,7.95911 M38.1608,25.1546 C38.7536,25.4116 39.4097,25.7502 39.6287,25.88 C39.9939,26.1001 41.8511,26.6842 43.1981,27.0096 L43.6748,27.1244 L43.5591,27.5598 C43.4138,28.0576 42.9709,29.1902 42.7323,29.6691 C42.5239,30.1063 42.4618,30.0971 40.3491,29.095 C38.9129,28.4101 38.4851,28.1501 37.6364,27.4439 C36.044,26.133 35.4673,25.0812 35.6289,23.7993 L35.6924,23.3339 L36.396,24.0015 C36.9525,24.5274 37.3284,24.7679 38.1608,25.1546 M60.6987,27.9397 C60.8139,28.0303 60.8048,28.0924 60.6229,28.2918 C60.4108,28.533 60.4127,28.6362 60.6665,28.9718 C60.7724,29.1143 60.5469,29.2141 60.5397,29.3454 C60.5319,29.4888 60.5648,29.6365 60.6229,29.7679 C60.6617,29.856 60.7383,29.9333 60.717,30.0274 C60.6873,30.1582 60.5151,30.2433 60.5151,30.2433 C60.2002,30.507 59.9025,30.5746 59.6626,30.4346 C59.558,30.3644 59.5666,30.2715 59.6848,29.9701 C59.7635,29.7624 59.8552,29.1622 59.8869,28.646 L59.9312,27.7064 L60.2415,27.7626 C60.4175,27.7903 60.6149,27.8691 60.6987,27.9397 Z" style="stroke:none;fill-rule:evenodd;fill:#583735;fill-opacity:1;"/>
        </g>
        <g id="Shape18">
            <desc shapeID="18" type="0" basicInfo-basicType="0" basicInfo-roundedRectRadius="12" basicInfo-polygonSides="6" basicInfo-starPoints="5" bounding="rect(-0.614058,-0.17461,1.22812,0.34922)" text="" font-familyName="" font-pixelSize="20" font-bold="0" font-underline="0" font-alignment="1" strokeStyle="0" markerStart="0" markerEnd="0" shadowEnabled="0" shadowOffsetX="0" shadowOffsetY="2" shadowBlur="4" shadowOpacity="160" blurEnabled="0" blurRadius="4" transform="matrix(1,0,0,1,36.1518,15.1063)" pers-center="0,0" pers-size="0,0" pers-start="0,0" pers-end="0,0" locked="0" mesh="" flag=""/>
            <path id="shapePath18" d="M36.0513,14.9724 C35.3208,15.0687 35.3869,15.2943 36.1396,15.2802 C36.6035,15.2716 36.7678,15.2272 36.7658,15.1241 C36.7622,14.9282 36.5861,14.8902 36.0513,14.9724 Z" style="stroke:none;fill-rule:evenodd;fill:#583735;fill-opacity:1;"/>
        </g>
        <g id="Shape19">
            <desc shapeID="19" type="0" basicInfo-basicType="0" basicInfo-roundedRectRadius="12" basicInfo-polygonSides="6" basicInfo-starPoints="5" bounding="rect(-0.658929,-0.281258,1.31786,0.562517)" text="" font-familyName="" font-pixelSize="20" font-bold="0" font-underline="0" font-alignment="1" strokeStyle="0" markerStart="0" markerEnd="0" shadowEnabled="0" shadowOffsetX="0" shadowOffsetY="2" shadowBlur="4" shadowOpacity="160" blurEnabled="0" blurRadius="4" transform="matrix(1,0,0,1,44.7621,16.0922)" pers-center="0,0" pers-size="0,0" pers-start="0,0" pers-end="0,0" locked="0" mesh="" flag=""/>
            <path id="shapePath19" d="M44.1643,15.831 C44.0023,15.9888 44.1598,16.0755 44.6681,16.2311 C45.2078,16.4066 45.5269,16.4347 45.389,16.2311 C45.2825,16.0577 44.2655,15.7261 44.1643,15.831 Z" style="stroke:none;fill-rule:evenodd;fill:#583735;fill-opacity:1;"/>
        </g>
        <g id="Shape20">
            <desc shapeID="20" type="0" basicInfo-basicType="0" basicInfo-roundedRectRadius="12" basicInfo-polygonSides="6" basicInfo-starPoints="5" bounding="rect(-0.73073,-0.227986,1.46146,0.455972)" text="" font-familyName="" font-pixelSize="20" font-bold="0" font-underline="0" font-alignment="1" strokeStyle="0" markerStart="0" markerEnd="0" shadowEnabled="0" shadowOffsetX="0" shadowOffsetY="2" shadowBlur="4" shadowOpacity="160" blurEnabled="0" blurRadius="4" transform="matrix(1,0,0,1,35.8673,16.3342)" pers-center="0,0" pers-size="0,0" pers-start="0,0" pers-end="0,0" locked="0" mesh="" flag=""/>
            <path id="shapePath20" d="M35.1681,16.2783 C35.0897,16.4964 35.1001,16.5065 35.8953,16.5535 C36.5974,16.5919 36.7505,16.5065 36.4564,16.2232 C36.2673,16.0411 35.2469,16.0809 35.1681,16.2783 Z" style="stroke:none;fill-rule:evenodd;fill:#583735;fill-opacity:1;"/>
        </g>
        <g id="Shape21">
            <desc shapeID="21" type="0" basicInfo-basicType="0" basicInfo-roundedRectRadius="12" basicInfo-polygonSides="6" basicInfo-starPoints="5" bounding="rect(-2.43656,-2.71159,4.87312,5.42318)" text="" font-familyName="" font-pixelSize="20" font-bold="0" font-underline="0" font-alignment="1" strokeStyle="0" markerStart="0" markerEnd="0" shadowEnabled="0" shadowOffsetX="0" shadowOffsetY="2" shadowBlur="4" shadowOpacity="160" blurEnabled="0" blurRadius="4" transform="matrix(1,0,0,1,46.196,19.4569)" pers-center="0,0" pers-size="0,0" pers-start="0,0" pers-end="0,0" locked="0" mesh="" flag=""/>
            <path id="shapePath21" d="M46.1853,16.8968 C46.1869,16.9793 46.2295,17.0508 46.281,17.0497 C46.3738,17.048 46.3354,17.7501 46.2448,17.8653 C46.2246,17.8863 46.0796,17.8581 45.9237,17.7991 C45.7679,17.7401 45.4573,17.6738 45.2503,17.6364 C44.9091,17.5912 44.8168,17.6239 44.452,17.9711 C43.8845,18.5078 43.7461,18.8301 43.7604,19.5931 C43.7722,20.2221 43.7938,20.2733 44.1716,20.6169 C44.7071,21.1226 44.9975,21.2099 45.9448,21.12 C46.9537,21.0185 47.2409,21.3327 47.6438,21.913 C47.8029,22.1472 48.2234,22.1706 48.3471,22.1683 C48.7493,22.1607 48.7436,21.8419 48.2203,20.8822 C47.7823,20.0755 47.681,19.885 47.6599,19.3078 C47.6494,18.751 47.5995,18.6032 47.3894,18.4008 C47.2529,18.2693 47.0029,18.1399 46.8165,18.1021 C46.5578,18.0554 46.5052,18.0048 46.5535,17.8286 C46.5822,17.7042 46.6094,17.5077 46.6072,17.3943 C46.604,17.219 46.6549,17.1871 46.8619,17.2245 C47.2136,17.2798 47.2077,16.9602 46.8443,16.8329 C46.46,16.6957 46.1821,16.7215 46.1853,16.8968 M46.4696,18.3046 C46.9264,18.4611 47.3106,18.5982 47.3213,18.6187 C47.3423,18.6389 47.3893,18.9475 47.427,19.3078 C47.4908,19.9564 47.6224,20.4353 47.8232,20.6894 C47.8864,20.7605 48.0227,21.0846 48.1873,21.3461 C48.5441,21.913 48.1475,22.234 47.7867,21.694 C47.6698,21.5106 47.4909,21.0601 47.1995,20.9211 C46.7516,20.6923 46.5446,20.6549 45.8332,20.6683 C45.1526,20.6811 44.925,20.644 44.6331,20.4741 C43.8924,20.0342 43.8624,18.9827 44.5489,18.1859 C44.7812,17.9237 44.8529,17.9017 45.2253,17.9566 C45.4528,17.9833 46.0129,18.1482 46.4696,18.3046 Z" style="stroke:none;fill-rule:evenodd;fill:#583735;fill-opacity:1;"/>
        </g>
        <g id="Shape22">
            <desc shapeID="22" type="0" basicInfo-basicType="0" basicInfo-roundedRectRadius="12" basicInfo-polygonSides="6" basicInfo-starPoints="5" bounding="rect(-0.70252,-0.224245,1.40504,0.44849)" text="" font-familyName="" font-pixelSize="20" font-bold="0" font-underline="0" font-alignment="1" strokeStyle="0" markerStart="0" markerEnd="0" shadowEnabled="0" shadowOffsetX="0" shadowOffsetY="2" shadowBlur="4" shadowOpacity="160" blurEnabled="0" blurRadius="4" transform="matrix(1,0,0,1,35.6975,17.5229)" pers-center="0,0" pers-size="0,0" pers-start="0,0" pers-end="0,0" locked="0" mesh="" flag=""/>
            <path id="shapePath22" d="M35.1678,17.3614 C34.8098,17.5228 35.0082,17.6531 35.7625,17.7215 C36.3101,17.7731 36.4025,17.7508 36.4,17.6167 C36.3982,17.5239 36.3552,17.4319 36.3135,17.4017 C36.1152,17.2817 35.4032,17.2641 35.1678,17.3614 Z" style="stroke:none;fill-rule:evenodd;fill:#583735;fill-opacity:1;"/>
        </g>
        <g id="Shape23">
            <desc shapeID="23" type="0" basicInfo-basicType="0" basicInfo-roundedRectRadius="12" basicInfo-polygonSides="6" basicInfo-starPoints="5" bounding="rect(-0.747917,-0.317659,1.49584,0.63532)" text="" font-familyName="" font-pixelSize="20" font-bold="0" font-underline="0" font-alignment="1" strokeStyle="0" markerStart="0" markerEnd="0" shadowEnabled="0" shadowOffsetX="0" shadowOffsetY="2" shadowBlur="4" shadowOpacity="160" blurEnabled="0" blurRadius="4" transform="matrix(1,0,0,1,48.8293,17.5041)" pers-center="0,0" pers-size="0,0" pers-start="0,0" pers-end="0,0" locked="0" mesh="" flag=""/>
            <path id="shapePath23" d="M48.223,17.199 C47.9148,17.2667 48.1232,17.3786 48.7151,17.5842 C49.4207,17.8184 49.5255,17.8966 49.574,17.741 C49.6421,17.5231 48.603,17.1094 48.223,17.199 Z" style="stroke:none;fill-rule:evenodd;fill:#583735;fill-opacity:1;"/>
        </g>
        <g id="Shape24">
            <desc shapeID="24" type="0" basicInfo-basicType="0" basicInfo-roundedRectRadius="12" basicInfo-polygonSides="6" basicInfo-starPoints="5" bounding="rect(-0.693433,-0.265081,1.38686,0.530162)" text="" font-familyName="" font-pixelSize="20" font-bold="0" font-underline="0" font-alignment="1" strokeStyle="0" markerStart="0" markerEnd="0" shadowEnabled="0" shadowOffsetX="0" shadowOffsetY="2" shadowBlur="4" shadowOpacity="160" blurEnabled="0" blurRadius="4" transform="matrix(1,0,0,1,57.0767,21.2336)" pers-center="0,0" pers-size="0,0" pers-start="0,0" pers-end="0,0" locked="0" mesh="" flag=""/>
            <path id="shapePath24" d="M56.4241,21.0988 C56.3238,21.2554 56.3759,21.2854 56.9555,21.3879 C57.7319,21.5385 57.7731,21.5377 57.77,21.3727 C57.7641,21.0531 56.5939,20.8068 56.4241,21.0988 Z" style="stroke:none;fill-rule:evenodd;fill:#583735;fill-opacity:1;"/>
        </g>
        <g id="Shape25">
            <desc shapeID="25" type="0" basicInfo-basicType="0" basicInfo-roundedRectRadius="12" basicInfo-polygonSides="6" basicInfo-starPoints="5" bounding="rect(-0.549185,-0.330234,1.09837,0.660467)" text="" font-familyName="" font-pixelSize="20" font-bold="0" font-underline="0" font-alignment="1" strokeStyle="0" markerStart="0" markerEnd="0" shadowEnabled="0" shadowOffsetX="0" shadowOffsetY="2" shadowBlur="4" shadowOpacity="160" blurEnabled="0" blurRadius="4" transform="matrix(1,0,0,1,56.9839,22.2433)" pers-center="0,0" pers-size="0,0" pers-start="0,0" pers-end="0,0" locked="0" mesh="" flag=""/>
            <path id="shapePath25" d="M56.4513,22.006 C56.3811,22.1105 56.5279,22.2315 56.9962,22.4599 C57.5792,22.7481 57.7487,22.4355 57.1958,22.1055 C56.831,21.8957 56.5412,21.8496 56.4513,22.006 Z" style="stroke:none;fill-rule:evenodd;fill:#583735;fill-opacity:1;"/>
        </g>
        <g id="Shape26">
            <desc shapeID="26" type="0" basicInfo-basicType="0" basicInfo-roundedRectRadius="12" basicInfo-polygonSides="6" basicInfo-starPoints="5" bounding="rect(-0.658104,-0.449974,1.31621,0.899947)" text="" font-familyName="" font-pixelSize="20" font-bold="0" font-underline="0" font-alignment="1" strokeStyle="0" markerStart="0" markerEnd="0" shadowEnabled="0" shadowOffsetX="0" shadowOffsetY="2" shadowBlur="4" shadowOpacity="160" blurEnabled="0" blurRadius="4" transform="matrix(1,0,0,1,56.449,23.4147)" pers-center="0,0" pers-size="0,0" pers-start="0,0" pers-end="0,0" locked="0" mesh="" flag=""/>
            <path id="shapePath26" d="M55.791,23.091 C55.7939,23.2458 56.672,23.8688 56.8885,23.8647 C57.3319,23.8564 57.0667,23.4694 56.4007,23.1519 C55.9322,22.9234 55.7874,22.9055 55.791,23.091 Z" style="stroke:none;fill-rule:evenodd;fill:#583735;fill-opacity:1;"/>
        </g>
        <g id="Shape27">
            <desc shapeID="27" type="0" basicInfo-basicType="0" basicInfo-roundedRectRadius="12" basicInfo-polygonSides="6" basicInfo-starPoints="5" bounding="rect(-1.1347,-0.763551,2.2694,1.5271)" text="" font-familyName="" font-pixelSize="20" font-bold="0" font-underline="0" font-alignment="1" strokeStyle="0" markerStart="0" markerEnd="0" shadowEnabled="0" shadowOffsetX="0" shadowOffsetY="2" shadowBlur="4" shadowOpacity="160" blurEnabled="0" blurRadius="4" transform="matrix(1,0,0,1,42.6248,17.0785)" pers-center="0,0" pers-size="0,0" pers-start="0,0" pers-end="0,0" locked="0" mesh="" flag=""/>
            <path id="shapePath27" d="M41.7069,16.5303 C41.2534,16.8719 41.5324,17.3741 42.3469,17.676 C43.0172,17.9013 43.0806,17.9001 43.4566,17.6552 C43.7854,17.427 43.8312,17.331 43.6676,17.0645 C43.5031,16.7504 42.6226,16.307 42.1945,16.3151 C42.0835,16.3171 41.8633,16.4164 41.7069,16.5303 Z" style="stroke:none;fill-rule:evenodd;fill:#fc8e76;fill-opacity:0.67451;"/>
        </g>
        <g id="Shape28">
            <desc shapeID="28" type="0" basicInfo-basicType="0" basicInfo-roundedRectRadius="12" basicInfo-polygonSides="6" basicInfo-starPoints="5" bounding="rect(-1.08138,-0.71589,2.16276,1.43178)" text="" font-familyName="" font-pixelSize="20" font-bold="0" font-underline="0" font-alignment="1" strokeStyle="0" markerStart="0" markerEnd="0" shadowEnabled="0" shadowOffsetX="0" shadowOffsetY="2" shadowBlur="4" shadowOpacity="160" blurEnabled="0" blurRadius="4" transform="matrix(1,0,0,1,50.3631,19.3158)" pers-center="0,0" pers-size="0,0" pers-start="0,0" pers-end="0,0" locked="0" mesh="" flag=""/>
            <path id="shapePath28" d="M49.3903,18.7395 C49.3238,18.7912 49.2778,19.0278 49.282,19.2467 C49.2964,20.021 51.172,20.3563 51.4277,19.6274 C51.6362,19.0678 49.8363,18.2764 49.3903,18.7395 Z" style="stroke:none;fill-rule:evenodd;fill:#fc8e76;fill-opacity:0.643137;"/>
        </g>
        <g id="Shape29">
            <desc shapeID="29" type="0" basicInfo-basicType="0" basicInfo-roundedRectRadius="12" basicInfo-polygonSides="6" basicInfo-starPoints="5" bounding="rect(-38.8323,-3.41138,77.6646,6.82275)" text="We create contents and contents pipeline with opensource.&#10;https://lazypic.org" font-familyName="Helvetica" font-pixelSize="3" font-bold="0" font-underline="0" font-alignment="1" strokeStyle="0" markerStart="0" markerEnd="0" shadowEnabled="0" shadowOffsetX="0" shadowOffsetY="2" shadowBlur="4" shadowOpacity="160" blurEnabled="0" blurRadius="4" transform="matrix(0.947028,0,0,0.947028,47,41.1454)" pers-center="0,0" pers-size="0,0" pers-start="0,0" pers-end="0,0" locked="0" mesh="" flag=""/>
            <path id="shapePath29" d="M10.5244,37.9217 L10.9087,39.5795 L11.3692,37.9217 L11.6689,37.9217 L12.1294,39.5795 L12.5137,37.9217 L12.8161,37.9217 L12.2807,39.9596 L11.9907,39.9596 L11.5204,38.2699 L11.0474,39.9596 L10.7575,39.9596 L10.2248,37.9217 L10.5244,37.9217 M13.5944,38.4405 C13.6998,38.4405 13.802,38.4653 13.901,38.5148 C13.9999,38.5642 14.0753,38.6283 14.1271,38.7069 C14.177,38.7818 14.2103,38.8692 14.227,38.9691 C14.2418,39.0375 14.2492,39.1467 14.2492,39.2965 L13.1602,39.2965 C13.1648,39.4472 13.2004,39.5681 13.267,39.6592 C13.3336,39.7503 13.4367,39.7959 13.5763,39.7959 C13.7067,39.7959 13.8108,39.7529 13.8885,39.6669 C13.9329,39.6169 13.9643,39.5591 13.9828,39.4935 L14.2283,39.4935 C14.2219,39.548 14.2004,39.6088 14.1638,39.6759 C14.1273,39.7429 14.0864,39.7977 14.0411,39.8403 C13.9652,39.9143 13.8714,39.9642 13.7595,39.9901 C13.6993,40.0049 13.6314,40.0123 13.5555,40.0123 C13.3706,40.0123 13.2138,39.945 13.0853,39.8105 C12.9567,39.6759 12.8924,39.4875 12.8924,39.2451 C12.8924,39.0065 12.9572,38.8128 13.0866,38.6639 C13.2161,38.515 13.3854,38.4405 13.5944,38.4405 M13.9925,39.0981 C13.9823,38.9899 13.9588,38.9034 13.9218,38.8387 C13.8533,38.7185 13.7391,38.6583 13.5791,38.6583 C13.4644,38.6583 13.3683,38.6997 13.2906,38.7825 C13.2129,38.8653 13.1717,38.9705 13.1671,39.0981 L13.9925,39.0981 M15.9014,38.4308 C16.0688,38.4308 16.2049,38.4715 16.3099,38.5529 C16.4149,38.6343 16.478,38.7744 16.4993,38.9732 L16.2565,38.9732 C16.2417,38.8817 16.2079,38.8056 16.1552,38.745 C16.1025,38.6845 16.0179,38.6542 15.9014,38.6542 C15.7423,38.6542 15.6285,38.7319 15.5601,38.8872 C15.5157,38.988 15.4935,39.1124 15.4935,39.2604 C15.4935,39.4093 15.525,39.5346 15.5878,39.6364 C15.6507,39.7381 15.7497,39.7889 15.8847,39.7889 C15.9883,39.7889 16.0704,39.7573 16.131,39.6939 C16.1915,39.6306 16.2334,39.5439 16.2565,39.4338 L16.4993,39.4338 C16.4715,39.6308 16.4022,39.7748 16.2912,39.8659 C16.1802,39.957 16.0382,40.0026 15.8653,40.0026 C15.6711,40.0026 15.5162,39.9316 15.4006,39.7896 C15.285,39.6477 15.2272,39.4703 15.2272,39.2576 C15.2272,38.9968 15.2905,38.7938 15.4172,38.6486 C15.5439,38.5034 15.7053,38.4308 15.9014,38.4308 M16.7559,38.4738 L16.9931,38.4738 L16.9931,38.7305 C17.0126,38.6805 17.0602,38.6197 17.136,38.5481 C17.2119,38.4764 17.2993,38.4405 17.3982,38.4405 C17.4028,38.4405 17.4107,38.441 17.4218,38.4419 C17.4329,38.4429 17.4518,38.4447 17.4787,38.4475 L17.4787,38.7111 C17.4639,38.7083 17.4502,38.7064 17.4377,38.7055 C17.4253,38.7046 17.4116,38.7041 17.3968,38.7041 C17.271,38.7041 17.1744,38.7446 17.1069,38.8255 C17.0394,38.9064 17.0056,38.9996 17.0056,39.105 L17.0056,39.9596 L16.7559,39.9596 L16.7559,38.4738 M18.2999,38.4405 C18.4053,38.4405 18.5075,38.4653 18.6065,38.5148 C18.7055,38.5642 18.7808,38.6283 18.8326,38.7069 C18.8826,38.7818 18.9159,38.8692 18.9325,38.9691 C18.9473,39.0375 18.9547,39.1467 18.9547,39.2965 L17.8657,39.2965 C17.8703,39.4472 17.9059,39.5681 17.9725,39.6592 C18.0391,39.7503 18.1422,39.7959 18.2819,39.7959 C18.4123,39.7959 18.5163,39.7529 18.594,39.6669 C18.6384,39.6169 18.6699,39.5591 18.6883,39.4935 L18.9339,39.4935 C18.9274,39.548 18.9059,39.6088 18.8694,39.6759 C18.8329,39.7429 18.7919,39.7977 18.7466,39.8403 C18.6708,39.9143 18.5769,39.9642 18.465,39.9901 C18.4049,40.0049 18.3369,40.0123 18.2611,40.0123 C18.0761,40.0123 17.9194,39.945 17.7908,39.8105 C17.6622,39.6759 17.598,39.4875 17.598,39.2451 C17.598,39.0065 17.6627,38.8128 17.7922,38.6639 C17.9217,38.515 18.0909,38.4405 18.2999,38.4405 M18.6981,39.0981 C18.6879,38.9899 18.6643,38.9034 18.6273,38.8387 C18.5589,38.7185 18.4447,38.6583 18.2847,38.6583 C18.17,38.6583 18.0738,38.6997 17.9961,38.7825 C17.9184,38.8653 17.8773,38.9705 17.8726,39.0981 L18.6981,39.0981 M19.4412,39.5642 C19.4412,39.6364 19.4675,39.6932 19.5202,39.7348 C19.573,39.7765 19.6354,39.7973 19.7075,39.7973 C19.7954,39.7973 19.8805,39.7769 19.9628,39.7362 C20.1015,39.6687 20.1709,39.5582 20.1709,39.4047 L20.1709,39.2035 C20.1403,39.223 20.101,39.2391 20.0529,39.2521 C20.0048,39.265 19.9577,39.2743 19.9114,39.2798 L19.7602,39.2993 C19.6696,39.3113 19.6016,39.3302 19.5563,39.3561 C19.4795,39.3996 19.4412,39.469 19.4412,39.5642 M20.046,39.0593 C20.1033,39.0519 20.1417,39.0278 20.1611,38.9871 C20.1722,38.9649 20.1778,38.933 20.1778,38.8914 C20.1778,38.8063 20.1475,38.7446 20.0869,38.7062 C20.0264,38.6678 19.9396,38.6486 19.8268,38.6486 C19.6964,38.6486 19.6039,38.6838 19.5494,38.7541 C19.5188,38.7929 19.499,38.8507 19.4897,38.9275 L19.2567,38.9275 C19.2613,38.7444 19.3207,38.617 19.4349,38.5453 C19.5491,38.4736 19.6816,38.4378 19.8324,38.4378 C20.0072,38.4378 20.1491,38.4711 20.2583,38.5377 C20.3665,38.6042 20.4206,38.7078 20.4206,38.8484 L20.4206,39.7043 C20.4206,39.7302 20.4259,39.751 20.4365,39.7668 C20.4471,39.7825 20.4696,39.7903 20.5038,39.7903 C20.5149,39.7903 20.5274,39.7896 20.5413,39.7883 C20.5551,39.7869 20.5699,39.7848 20.5856,39.782 L20.5856,39.9665 C20.5468,39.9776 20.5172,39.9846 20.4969,39.9873 C20.4765,39.9901 20.4488,39.9915 20.4136,39.9915 C20.3276,39.9915 20.2652,39.961 20.2263,39.8999 C20.206,39.8676 20.1917,39.8218 20.1833,39.7626 C20.1325,39.8292 20.0594,39.887 19.9642,39.936 C19.8689,39.985 19.7639,40.0095 19.6493,40.0095 C19.5114,40.0095 19.3989,39.9677 19.3115,39.884 C19.2241,39.8003 19.1804,39.6955 19.1804,39.5698 C19.1804,39.432 19.2234,39.3251 19.3094,39.2493 C19.3954,39.1735 19.5082,39.1268 19.6479,39.1092 L20.046,39.0593 M20.8682,38.0591 L21.1207,38.0591 L21.1207,38.4738 L21.3579,38.4738 L21.3579,38.6778 L21.1207,38.6778 L21.1207,39.6474 C21.1207,39.6992 21.1382,39.7339 21.1734,39.7515 C21.1928,39.7617 21.2252,39.7668 21.2705,39.7668 C21.2825,39.7668 21.2955,39.7665 21.3093,39.7661 C21.3232,39.7656 21.3394,39.7644 21.3579,39.7626 L21.3579,39.9596 C21.3292,39.9679 21.2994,39.9739 21.2684,39.9776 C21.2374,39.9813 21.2039,39.9832 21.1678,39.9832 C21.0513,39.9832 20.9722,39.9533 20.9306,39.8937 C20.889,39.834 20.8682,39.7566 20.8682,39.6613 L20.8682,38.6778 L20.667,38.6778 L20.667,38.4738 L20.8682,38.4738 L20.8682,38.0591 M22.2212,38.4405 C22.3266,38.4405 22.4288,38.4653 22.5278,38.5148 C22.6267,38.5642 22.7021,38.6283 22.7539,38.7069 C22.8039,38.7818 22.8371,38.8692 22.8538,38.9691 C22.8686,39.0375 22.876,39.1467 22.876,39.2965 L21.787,39.2965 C21.7916,39.4472 21.8272,39.5681 21.8938,39.6592 C21.9604,39.7503 22.0635,39.7959 22.2032,39.7959 C22.3336,39.7959 22.4376,39.7529 22.5153,39.6669 C22.5597,39.6169 22.5911,39.5591 22.6096,39.4935 L22.8552,39.4935 C22.8487,39.548 22.8272,39.6088 22.7907,39.6759 C22.7541,39.7429 22.7132,39.7977 22.6679,39.8403 C22.5921,39.9143 22.4982,39.9642 22.3863,39.9901 C22.3262,40.0049 22.2582,40.0123 22.1824,40.0123 C21.9974,40.0123 21.8406,39.945 21.7121,39.8105 C21.5835,39.6759 21.5193,39.4875 21.5193,39.2451 C21.5193,39.0065 21.584,38.8128 21.7135,38.6639 C21.843,38.515 22.0122,38.4405 22.2212,38.4405 M22.6193,39.0981 C22.6092,38.9899 22.5856,38.9034 22.5486,38.8387 C22.4802,38.7185 22.3659,38.6583 22.2059,38.6583 C22.0913,38.6583 21.9951,38.6997 21.9174,38.7825 C21.8397,38.8653 21.7986,38.9705 21.7939,39.0981 L22.6193,39.0981 M24.5282,38.4308 C24.6956,38.4308 24.8318,38.4715 24.9367,38.5529 C25.0417,38.6343 25.1048,38.7744 25.1261,38.9732 L24.8833,38.9732 C24.8685,38.8817 24.8348,38.8056 24.7821,38.745 C24.7294,38.6845 24.6447,38.6542 24.5282,38.6542 C24.3691,38.6542 24.2554,38.7319 24.1869,38.8872 C24.1425,38.988 24.1203,39.1124 24.1203,39.2604 C24.1203,39.4093 24.1518,39.5346 24.2147,39.6364 C24.2776,39.7381 24.3765,39.7889 24.5116,39.7889 C24.6151,39.7889 24.6972,39.7573 24.7578,39.6939 C24.8184,39.6306 24.8602,39.5439 24.8833,39.4338 L25.1261,39.4338 C25.0984,39.6308 25.029,39.7748 24.918,39.8659 C24.807,39.957 24.6651,40.0026 24.4921,40.0026 C24.2979,40.0026 24.143,39.9316 24.0274,39.7896 C23.9118,39.6477 23.854,39.4703 23.854,39.2576 C23.854,38.9968 23.9173,38.7938 24.0441,38.6486 C24.1708,38.5034 24.3321,38.4308 24.5282,38.4308 M25.9654,39.7987 C26.1309,39.7987 26.2445,39.736 26.306,39.6107 C26.3675,39.4854 26.3982,39.346 26.3982,39.1924 C26.3982,39.0537 26.376,38.9409 26.3316,38.8539 C26.2613,38.7171 26.1402,38.6486 25.9682,38.6486 C25.8156,38.6486 25.7046,38.7069 25.6352,38.8234 C25.5659,38.94 25.5312,39.0805 25.5312,39.2451 C25.5312,39.4033 25.5659,39.5351 25.6352,39.6405 C25.7046,39.7459 25.8146,39.7987 25.9654,39.7987 M25.9751,38.4308 C26.1665,38.4308 26.3284,38.4946 26.4606,38.6223 C26.5929,38.7499 26.659,38.9376 26.659,39.1855 C26.659,39.425 26.6007,39.6229 26.4842,39.7792 C26.3677,39.9355 26.1869,40.0137 25.9418,40.0137 C25.7374,40.0137 25.5751,39.9446 25.4549,39.8063 C25.3347,39.668 25.2745,39.4824 25.2745,39.2493 C25.2745,38.9996 25.3379,38.8008 25.4646,38.6528 C25.5913,38.5048 25.7615,38.4308 25.9751,38.4308 M26.9443,38.4738 L27.1815,38.4738 L27.1815,38.6847 C27.2518,38.5978 27.3263,38.5353 27.4049,38.4974 C27.4835,38.4595 27.5709,38.4405 27.6671,38.4405 C27.8779,38.4405 28.0204,38.5141 28.0944,38.6611 C28.135,38.7416 28.1554,38.8567 28.1554,39.0065 L28.1554,39.9596 L27.9015,39.9596 L27.9015,39.0232 C27.9015,38.9326 27.8881,38.8595 27.8613,38.804 C27.8169,38.7115 27.7364,38.6653 27.6199,38.6653 C27.5607,38.6653 27.5122,38.6713 27.4743,38.6833 C27.4058,38.7037 27.3457,38.7444 27.2939,38.8054 C27.2523,38.8544 27.2252,38.905 27.2128,38.9573 C27.2003,39.0095 27.194,39.0842 27.194,39.1813 L27.194,39.9596 L26.9443,39.9596 L26.9443,38.4738 M28.5628,38.0591 L28.8153,38.0591 L28.8153,38.4738 L29.0525,38.4738 L29.0525,38.6778 L28.8153,38.6778 L28.8153,39.6474 C28.8153,39.6992 28.8328,39.7339 28.868,39.7515 C28.8874,39.7617 28.9198,39.7668 28.9651,39.7668 C28.9771,39.7668 28.9901,39.7665 29.0039,39.7661 C29.0178,39.7656 29.034,39.7644 29.0525,39.7626 L29.0525,39.9596 C29.0238,39.9679 28.994,39.9739 28.963,39.9776 C28.932,39.9813 28.8985,39.9832 28.8624,39.9832 C28.7459,39.9832 28.6668,39.9533 28.6252,39.8937 C28.5836,39.834 28.5628,39.7566 28.5628,39.6613 L28.5628,38.6778 L28.3616,38.6778 L28.3616,38.4738 L28.5628,38.4738 L28.5628,38.0591 M29.9158,38.4405 C30.0212,38.4405 30.1234,38.4653 30.2224,38.5148 C30.3213,38.5642 30.3967,38.6283 30.4485,38.7069 C30.4985,38.7818 30.5317,38.8692 30.5484,38.9691 C30.5632,39.0375 30.5706,39.1467 30.5706,39.2965 L29.4816,39.2965 C29.4862,39.4472 29.5218,39.5681 29.5884,39.6592 C29.655,39.7503 29.7581,39.7959 29.8978,39.7959 C30.0282,39.7959 30.1322,39.7529 30.2099,39.6669 C30.2543,39.6169 30.2857,39.5591 30.3042,39.4935 L30.5498,39.4935 C30.5433,39.548 30.5218,39.6088 30.4853,39.6759 C30.4487,39.7429 30.4078,39.7977 30.3625,39.8403 C30.2867,39.9143 30.1928,39.9642 30.0809,39.9901 C30.0208,40.0049 29.9528,40.0123 29.877,40.0123 C29.692,40.0123 29.5352,39.945 29.4067,39.8105 C29.2781,39.6759 29.2139,39.4875 29.2139,39.2451 C29.2139,39.0065 29.2786,38.8128 29.4081,38.6639 C29.5376,38.515 29.7068,38.4405 29.9158,38.4405 M30.3139,39.0981 C30.3038,38.9899 30.2802,38.9034 30.2432,38.8387 C30.1748,38.7185 30.0605,38.6583 29.9005,38.6583 C29.7859,38.6583 29.6897,38.6997 29.612,38.7825 C29.5343,38.8653 29.4932,38.9705 29.4885,39.0981 L30.3139,39.0981 M30.8656,38.4738 L31.1028,38.4738 L31.1028,38.6847 C31.1731,38.5978 31.2476,38.5353 31.3262,38.4974 C31.4048,38.4595 31.4922,38.4405 31.5884,38.4405 C31.7992,38.4405 31.9417,38.5141 32.0156,38.6611 C32.0563,38.7416 32.0767,38.8567 32.0767,39.0065 L32.0767,39.9596 L31.8228,39.9596 L31.8228,39.0232 C31.8228,38.9326 31.8094,38.8595 31.7826,38.804 C31.7382,38.7115 31.6577,38.6653 31.5412,38.6653 C31.482,38.6653 31.4335,38.6713 31.3955,38.6833 C31.3271,38.7037 31.267,38.7444 31.2152,38.8054 C31.1736,38.8544 31.1465,38.905 31.134,38.9573 C31.1216,39.0095 31.1153,39.0842 31.1153,39.1813 L31.1153,39.9596 L30.8656,39.9596 L30.8656,38.4738 M32.4841,38.0591 L32.7365,38.0591 L32.7365,38.4738 L32.9738,38.4738 L32.9738,38.6778 L32.7365,38.6778 L32.7365,39.6474 C32.7365,39.6992 32.7541,39.7339 32.7893,39.7515 C32.8087,39.7617 32.8411,39.7668 32.8864,39.7668 C32.8984,39.7668 32.9113,39.7665 32.9252,39.7661 C32.9391,39.7656 32.9553,39.7644 32.9738,39.7626 L32.9738,39.9596 C32.9451,39.9679 32.9153,39.9739 32.8843,39.9776 C32.8533,39.9813 32.8198,39.9832 32.7837,39.9832 C32.6672,39.9832 32.5881,39.9533 32.5465,39.8937 C32.5049,39.834 32.4841,39.7566 32.4841,39.6613 L32.4841,38.6778 L32.2829,38.6778 L32.2829,38.4738 L32.4841,38.4738 L32.4841,38.0591 M33.3668,39.4935 C33.3742,39.5767 33.395,39.6405 33.4292,39.6849 C33.4921,39.7654 33.6013,39.8056 33.7566,39.8056 C33.8491,39.8056 33.9305,39.7855 34.0008,39.7453 C34.0711,39.705 34.1062,39.6428 34.1062,39.5587 C34.1062,39.4949 34.078,39.4463 34.0216,39.413 C33.9855,39.3927 33.9143,39.3691 33.808,39.3423 L33.6096,39.2923 C33.4829,39.2609 33.3895,39.2257 33.3294,39.1869 C33.2221,39.1194 33.1684,39.026 33.1684,38.9067 C33.1684,38.7661 33.2191,38.6523 33.3203,38.5654 C33.4216,38.4785 33.5578,38.435 33.7289,38.435 C33.9527,38.435 34.1141,38.5007 34.213,38.632 C34.275,38.7152 34.3051,38.8049 34.3032,38.9011 L34.0674,38.9011 C34.0628,38.8447 34.0429,38.7934 34.0077,38.7471 C33.9504,38.6815 33.851,38.6486 33.7095,38.6486 C33.6151,38.6486 33.5437,38.6667 33.4951,38.7027 C33.4466,38.7388 33.4223,38.7864 33.4223,38.8456 C33.4223,38.9104 33.4542,38.9622 33.518,39.001 C33.555,39.0241 33.6096,39.0445 33.6817,39.062 L33.8468,39.1023 C34.0262,39.1457 34.1465,39.1878 34.2075,39.2285 C34.3046,39.2923 34.3532,39.3927 34.3532,39.5295 C34.3532,39.6618 34.303,39.776 34.2026,39.8722 C34.1023,39.9684 33.9495,40.0165 33.7442,40.0165 C33.5231,40.0165 33.3666,39.9663 33.2746,39.8659 C33.1825,39.7656 33.1333,39.6414 33.1268,39.4935 L33.3668,39.4935 M35.6146,39.5642 C35.6146,39.6364 35.641,39.6932 35.6937,39.7348 C35.7464,39.7765 35.8088,39.7973 35.881,39.7973 C35.9688,39.7973 36.0539,39.7769 36.1362,39.7362 C36.275,39.6687 36.3443,39.5582 36.3443,39.4047 L36.3443,39.2035 C36.3138,39.223 36.2745,39.2391 36.2264,39.2521 C36.1783,39.265 36.1311,39.2743 36.0849,39.2798 L35.9337,39.2993 C35.8431,39.3113 35.7751,39.3302 35.7298,39.3561 C35.653,39.3996 35.6146,39.469 35.6146,39.5642 M36.2195,39.0593 C36.2768,39.0519 36.3152,39.0278 36.3346,38.9871 C36.3457,38.9649 36.3513,38.933 36.3513,38.8914 C36.3513,38.8063 36.321,38.7446 36.2604,38.7062 C36.1998,38.6678 36.1131,38.6486 36.0003,38.6486 C35.8699,38.6486 35.7774,38.6838 35.7228,38.7541 C35.6923,38.7929 35.6724,38.8507 35.6632,38.9275 L35.4301,38.9275 C35.4347,38.7444 35.4942,38.617 35.6084,38.5453 C35.7226,38.4736 35.8551,38.4378 36.0058,38.4378 C36.1806,38.4378 36.3226,38.4711 36.4317,38.5377 C36.5399,38.6042 36.594,38.7078 36.594,38.8484 L36.594,39.7043 C36.594,39.7302 36.5993,39.751 36.61,39.7668 C36.6206,39.7825 36.643,39.7903 36.6773,39.7903 C36.6884,39.7903 36.7008,39.7896 36.7147,39.7883 C36.7286,39.7869 36.7434,39.7848 36.7591,39.782 L36.7591,39.9665 C36.7203,39.9776 36.6907,39.9846 36.6703,39.9873 C36.65,39.9901 36.6222,39.9915 36.5871,39.9915 C36.5011,39.9915 36.4386,39.961 36.3998,39.8999 C36.3795,39.8676 36.3651,39.8218 36.3568,39.7626 C36.3059,39.8292 36.2329,39.887 36.1376,39.936 C36.0424,39.985 35.9374,40.0095 35.8227,40.0095 C35.6849,40.0095 35.5723,39.9677 35.4849,39.884 C35.3975,39.8003 35.3538,39.6955 35.3538,39.5698 C35.3538,39.432 35.3968,39.3251 35.4828,39.2493 C35.5688,39.1735 35.6817,39.1268 35.8213,39.1092 L36.2195,39.0593 M36.9917,38.4738 L37.2289,38.4738 L37.2289,38.6847 C37.2992,38.5978 37.3737,38.5353 37.4523,38.4974 C37.5309,38.4595 37.6183,38.4405 37.7145,38.4405 C37.9253,38.4405 38.0677,38.5141 38.1417,38.6611 C38.1824,38.7416 38.2028,38.8567 38.2028,39.0065 L38.2028,39.9596 L37.9489,39.9596 L37.9489,39.0232 C37.9489,38.9326 37.9355,38.8595 37.9087,38.804 C37.8643,38.7115 37.7838,38.6653 37.6673,38.6653 C37.6081,38.6653 37.5595,38.6713 37.5216,38.6833 C37.4532,38.7037 37.3931,38.7444 37.3413,38.8054 C37.2997,38.8544 37.2726,38.905 37.2601,38.9573 C37.2476,39.0095 37.2414,39.0842 37.2414,39.1813 L37.2414,39.9596 L36.9917,39.9596 L36.9917,38.4738 M38.7184,39.2341 C38.7184,39.3931 38.7521,39.5263 38.8196,39.6336 C38.8871,39.7409 38.9953,39.7945 39.1442,39.7945 C39.2598,39.7945 39.3549,39.7448 39.4293,39.6454 C39.5038,39.5459 39.541,39.4033 39.541,39.2174 C39.541,39.0297 39.5026,38.8907 39.4259,38.8005 C39.3491,38.7104 39.2543,38.6653 39.1415,38.6653 C39.0157,38.6653 38.9137,38.7134 38.8356,38.8096 C38.7574,38.9057 38.7184,39.0472 38.7184,39.2341 M39.0943,38.4475 C39.2081,38.4475 39.3033,38.4715 39.3801,38.5196 C39.4245,38.5474 39.4749,38.5959 39.5313,38.6653 L39.5313,37.9148 L39.7713,37.9148 L39.7713,39.9596 L39.5465,39.9596 L39.5465,39.7529 C39.4883,39.8444 39.4194,39.9106 39.3398,39.9513 C39.2603,39.992 39.1692,40.0123 39.0666,40.0123 C38.901,40.0123 38.7577,39.9427 38.6365,39.8035 C38.5154,39.6643 38.4548,39.4791 38.4548,39.2479 C38.4548,39.0315 38.51,38.844 38.6206,38.6854 C38.7311,38.5268 38.889,38.4475 39.0943,38.4475 M41.4859,38.4308 C41.6533,38.4308 41.7895,38.4715 41.8945,38.5529 C41.9994,38.6343 42.0626,38.7744 42.0838,38.9732 L41.8411,38.9732 C41.8263,38.8817 41.7925,38.8056 41.7398,38.745 C41.6871,38.6845 41.6024,38.6542 41.4859,38.6542 C41.3269,38.6542 41.2131,38.7319 41.1447,38.8872 C41.1003,38.988 41.0781,39.1124 41.0781,39.2604 C41.0781,39.4093 41.1095,39.5346 41.1724,39.6364 C41.2353,39.7381 41.3342,39.7889 41.4693,39.7889 C41.5729,39.7889 41.6549,39.7573 41.7155,39.6939 C41.7761,39.6306 41.8179,39.5439 41.8411,39.4338 L42.0838,39.4338 C42.0561,39.6308 41.9867,39.7748 41.8757,39.8659 C41.7648,39.957 41.6228,40.0026 41.4499,40.0026 C41.2556,40.0026 41.1007,39.9316 40.9851,39.7896 C40.8695,39.6477 40.8117,39.4703 40.8117,39.2576 C40.8117,38.9968 40.8751,38.7938 41.0018,38.6486 C41.1285,38.5034 41.2899,38.4308 41.4859,38.4308 M42.9231,39.7987 C43.0887,39.7987 43.2022,39.736 43.2637,39.6107 C43.3252,39.4854 43.3559,39.346 43.3559,39.1924 C43.3559,39.0537 43.3337,38.9409 43.2893,38.8539 C43.2191,38.7171 43.0979,38.6486 42.9259,38.6486 C42.7733,38.6486 42.6623,38.7069 42.5929,38.8234 C42.5236,38.94 42.4889,39.0805 42.4889,39.2451 C42.4889,39.4033 42.5236,39.5351 42.5929,39.6405 C42.6623,39.7459 42.7724,39.7987 42.9231,39.7987 M42.9328,38.4308 C43.1243,38.4308 43.2861,38.4946 43.4184,38.6223 C43.5506,38.7499 43.6167,38.9376 43.6167,39.1855 C43.6167,39.425 43.5585,39.6229 43.4419,39.7792 C43.3254,39.9355 43.1446,40.0137 42.8995,40.0137 C42.6951,40.0137 42.5328,39.9446 42.4126,39.8063 C42.2924,39.668 42.2323,39.4824 42.2323,39.2493 C42.2323,38.9996 42.2956,38.8008 42.4223,38.6528 C42.549,38.5048 42.7192,38.4308 42.9328,38.4308 M43.902,38.4738 L44.1393,38.4738 L44.1393,38.6847 C44.2095,38.5978 44.284,38.5353 44.3626,38.4974 C44.4412,38.4595 44.5286,38.4405 44.6248,38.4405 C44.8357,38.4405 44.9781,38.5141 45.0521,38.6611 C45.0928,38.7416 45.1131,38.8567 45.1131,39.0065 L45.1131,39.9596 L44.8592,39.9596 L44.8592,39.0232 C44.8592,38.9326 44.8458,38.8595 44.819,38.804 C44.7746,38.7115 44.6942,38.6653 44.5776,38.6653 C44.5184,38.6653 44.4699,38.6713 44.432,38.6833 C44.3635,38.7037 44.3034,38.7444 44.2516,38.8054 C44.21,38.8544 44.183,38.905 44.1705,38.9573 C44.158,39.0095 44.1517,39.0842 44.1517,39.1813 L44.1517,39.9596 L43.902,39.9596 L43.902,38.4738 M45.5205,38.0591 L45.773,38.0591 L45.773,38.4738 L46.0102,38.4738 L46.0102,38.6778 L45.773,38.6778 L45.773,39.6474 C45.773,39.6992 45.7906,39.7339 45.8257,39.7515 C45.8451,39.7617 45.8775,39.7668 45.9228,39.7668 C45.9348,39.7668 45.9478,39.7665 45.9616,39.7661 C45.9755,39.7656 45.9917,39.7644 46.0102,39.7626 L46.0102,39.9596 C45.9815,39.9679 45.9517,39.9739 45.9207,39.9776 C45.8897,39.9813 45.8562,39.9832 45.8201,39.9832 C45.7036,39.9832 45.6245,39.9533 45.5829,39.8937 C45.5413,39.834 45.5205,39.7566 45.5205,39.6613 L45.5205,38.6778 L45.3193,38.6778 L45.3193,38.4738 L45.5205,38.4738 L45.5205,38.0591 M46.8735,38.4405 C46.979,38.4405 47.0812,38.4653 47.1801,38.5148 C47.2791,38.5642 47.3544,38.6283 47.4062,38.7069 C47.4562,38.7818 47.4895,38.8692 47.5061,38.9691 C47.5209,39.0375 47.5283,39.1467 47.5283,39.2965 L46.4393,39.2965 C46.4439,39.4472 46.4795,39.5681 46.5461,39.6592 C46.6127,39.7503 46.7158,39.7959 46.8555,39.7959 C46.9859,39.7959 47.0899,39.7529 47.1676,39.6669 C47.212,39.6169 47.2435,39.5591 47.262,39.4935 L47.5075,39.4935 C47.501,39.548 47.4795,39.6088 47.443,39.6759 C47.4065,39.7429 47.3655,39.7977 47.3202,39.8403 C47.2444,39.9143 47.1505,39.9642 47.0386,39.9901 C46.9785,40.0049 46.9105,40.0123 46.8347,40.0123 C46.6497,40.0123 46.493,39.945 46.3644,39.8105 C46.2359,39.6759 46.1716,39.4875 46.1716,39.2451 C46.1716,39.0065 46.2363,38.8128 46.3658,38.6639 C46.4953,38.515 46.6645,38.4405 46.8735,38.4405 M47.2717,39.0981 C47.2615,38.9899 47.2379,38.9034 47.2009,38.8387 C47.1325,38.7185 47.0183,38.6583 46.8583,38.6583 C46.7436,38.6583 46.6474,38.6997 46.5697,38.7825 C46.492,38.8653 46.4509,38.9705 46.4463,39.0981 L47.2717,39.0981 M47.8233,38.4738 L48.0606,38.4738 L48.0606,38.6847 C48.1308,38.5978 48.2053,38.5353 48.2839,38.4974 C48.3625,38.4595 48.4499,38.4405 48.5461,38.4405 C48.757,38.4405 48.8994,38.5141 48.9734,38.6611 C49.0141,38.7416 49.0344,38.8567 49.0344,39.0065 L49.0344,39.9596 L48.7805,39.9596 L48.7805,39.0232 C48.7805,38.9326 48.7671,38.8595 48.7403,38.804 C48.6959,38.7115 48.6155,38.6653 48.4989,38.6653 C48.4397,38.6653 48.3912,38.6713 48.3533,38.6833 C48.2848,38.7037 48.2247,38.7444 48.1729,38.8054 C48.1313,38.8544 48.1042,38.905 48.0918,38.9573 C48.0793,39.0095 48.073,39.0842 48.073,39.1813 L48.073,39.9596 L47.8233,39.9596 L47.8233,38.4738 M49.4418,38.0591 L49.6943,38.0591 L49.6943,38.4738 L49.9315,38.4738 L49.9315,38.6778 L49.6943,38.6778 L49.6943,39.6474 C49.6943,39.6992 49.7118,39.7339 49.747,39.7515 C49.7664,39.7617 49.7988,39.7668 49.8441,39.7668 C49.8561,39.7668 49.8691,39.7665 49.8829,39.7661 C49.8968,39.7656 49.913,39.7644 49.9315,39.7626 L49.9315,39.9596 C49.9028,39.9679 49.873,39.9739 49.842,39.9776 C49.811,39.9813 49.7775,39.9832 49.7414,39.9832 C49.6249,39.9832 49.5458,39.9533 49.5042,39.8937 C49.4626,39.834 49.4418,39.7566 49.4418,39.6613 L49.4418,38.6778 L49.2406,38.6778 L49.2406,38.4738 L49.4418,38.4738 L49.4418,38.0591 M50.3245,39.4935 C50.3319,39.5767 50.3527,39.6405 50.387,39.6849 C50.4499,39.7654 50.559,39.8056 50.7144,39.8056 C50.8068,39.8056 50.8882,39.7855 50.9585,39.7453 C51.0288,39.705 51.0639,39.6428 51.0639,39.5587 C51.0639,39.4949 51.0357,39.4463 50.9793,39.413 C50.9433,39.3927 50.872,39.3691 50.7657,39.3423 L50.5673,39.2923 C50.4406,39.2609 50.3472,39.2257 50.2871,39.1869 C50.1798,39.1194 50.1262,39.026 50.1262,38.9067 C50.1262,38.7661 50.1768,38.6523 50.2781,38.5654 C50.3793,38.4785 50.5155,38.435 50.6866,38.435 C50.9104,38.435 51.0718,38.5007 51.1708,38.632 C51.2327,38.7152 51.2628,38.8049 51.2609,38.9011 L51.0251,38.9011 C51.0205,38.8447 51.0006,38.7934 50.9654,38.7471 C50.9081,38.6815 50.8087,38.6486 50.6672,38.6486 C50.5729,38.6486 50.5014,38.6667 50.4529,38.7027 C50.4043,38.7388 50.38,38.7864 50.38,38.8456 C50.38,38.9104 50.4119,38.9622 50.4757,39.001 C50.5127,39.0241 50.5673,39.0445 50.6394,39.062 L50.8045,39.1023 C50.9839,39.1457 51.1042,39.1878 51.1652,39.2285 C51.2623,39.2923 51.3109,39.3927 51.3109,39.5295 C51.3109,39.6618 51.2607,39.776 51.1604,39.8722 C51.06,39.9684 50.9072,40.0165 50.7019,40.0165 C50.4808,40.0165 50.3243,39.9663 50.2323,39.8659 C50.1403,39.7656 50.091,39.6414 50.0845,39.4935 L50.3245,39.4935 M53.0079,39.7917 C53.1245,39.7917 53.2213,39.7429 53.2986,39.6454 C53.3758,39.5478 53.4144,39.4019 53.4144,39.2077 C53.4144,39.0893 53.3973,38.9876 53.3631,38.9025 C53.2983,38.7388 53.18,38.657 53.0079,38.657 C52.835,38.657 52.7166,38.7434 52.6528,38.9164 C52.6186,39.0089 52.6015,39.1263 52.6015,39.2687 C52.6015,39.3834 52.6186,39.481 52.6528,39.5614 C52.7175,39.715 52.8359,39.7917 53.0079,39.7917 M52.3615,38.4808 L52.6043,38.4808 L52.6043,38.6778 C52.6542,38.6103 52.7088,38.558 52.7679,38.521 C52.8521,38.4655 52.9511,38.4378 53.0648,38.4378 C53.2331,38.4378 53.376,38.5023 53.4935,38.6313 C53.6109,38.7603 53.6697,38.9446 53.6697,39.1841 C53.6697,39.5078 53.585,39.739 53.4158,39.8777 C53.3085,39.9656 53.1837,40.0095 53.0412,40.0095 C52.9293,40.0095 52.8355,39.985 52.7596,39.936 C52.7152,39.9083 52.6658,39.8606 52.6112,39.7931 L52.6112,40.5519 L52.3615,40.5519 L52.3615,38.4808 M53.9494,38.4808 L54.2033,38.4808 L54.2033,39.9596 L53.9494,39.9596 L53.9494,38.4808 M53.9494,37.9217 L54.2033,37.9217 L54.2033,38.2047 L53.9494,38.2047 L53.9494,37.9217 M55.1979,39.7917 C55.3145,39.7917 55.4113,39.7429 55.4886,39.6454 C55.5658,39.5478 55.6044,39.4019 55.6044,39.2077 C55.6044,39.0893 55.5873,38.9876 55.5531,38.9025 C55.4883,38.7388 55.37,38.657 55.1979,38.657 C55.025,38.657 54.9066,38.7434 54.8428,38.9164 C54.8086,39.0089 54.7915,39.1263 54.7915,39.2687 C54.7915,39.3834 54.8086,39.481 54.8428,39.5614 C54.9075,39.715 55.0259,39.7917 55.1979,39.7917 M54.5515,38.4808 L54.7943,38.4808 L54.7943,38.6778 C54.8442,38.6103 54.8988,38.558 54.9579,38.521 C55.0421,38.4655 55.1411,38.4378 55.2548,38.4378 C55.4231,38.4378 55.566,38.5023 55.6835,38.6313 C55.8009,38.7603 55.8597,38.9446 55.8597,39.1841 C55.8597,39.5078 55.775,39.739 55.6058,39.8777 C55.4985,39.9656 55.3737,40.0095 55.2312,40.0095 C55.1193,40.0095 55.0255,39.985 54.9496,39.936 C54.9052,39.9083 54.8558,39.8606 54.8012,39.7931 L54.8012,40.5519 L54.5515,40.5519 L54.5515,38.4808 M56.7581,38.4405 C56.8636,38.4405 56.9658,38.4653 57.0647,38.5148 C57.1637,38.5642 57.239,38.6283 57.2908,38.7069 C57.3408,38.7818 57.3741,38.8692 57.3907,38.9691 C57.4055,39.0375 57.4129,39.1467 57.4129,39.2965 L56.3239,39.2965 C56.3285,39.4472 56.3642,39.5681 56.4307,39.6592 C56.4973,39.7503 56.6004,39.7959 56.7401,39.7959 C56.8705,39.7959 56.9745,39.7529 57.0522,39.6669 C57.0966,39.6169 57.1281,39.5591 57.1466,39.4935 L57.3921,39.4935 C57.3856,39.548 57.3641,39.6088 57.3276,39.6759 C57.2911,39.7429 57.2501,39.7977 57.2048,39.8403 C57.129,39.9143 57.0351,39.9642 56.9232,39.9901 C56.8631,40.0049 56.7951,40.0123 56.7193,40.0123 C56.5343,40.0123 56.3776,39.945 56.249,39.8105 C56.1205,39.6759 56.0562,39.4875 56.0562,39.2451 C56.0562,39.0065 56.1209,38.8128 56.2504,38.6639 C56.3799,38.515 56.5491,38.4405 56.7581,38.4405 M57.1563,39.0981 C57.1461,38.9899 57.1225,38.9034 57.0855,38.8387 C57.0171,38.7185 56.9029,38.6583 56.7429,38.6583 C56.6282,38.6583 56.532,38.6997 56.4543,38.7825 C56.3766,38.8653 56.3355,38.9705 56.3309,39.0981 L57.1563,39.0981 M57.7149,37.9217 L57.9646,37.9217 L57.9646,39.9596 L57.7149,39.9596 L57.7149,37.9217 M58.3294,38.4808 L58.5833,38.4808 L58.5833,39.9596 L58.3294,39.9596 L58.3294,38.4808 M58.3294,37.9217 L58.5833,37.9217 L58.5833,38.2047 L58.3294,38.2047 L58.3294,37.9217 M58.9509,38.4738 L59.1881,38.4738 L59.1881,38.6847 C59.2584,38.5978 59.3329,38.5353 59.4115,38.4974 C59.4901,38.4595 59.5775,38.4405 59.6737,38.4405 C59.8845,38.4405 60.027,38.5141 60.1009,38.6611 C60.1416,38.7416 60.162,38.8567 60.162,39.0065 L60.162,39.9596 L59.9081,39.9596 L59.9081,39.0232 C59.9081,38.9326 59.8947,38.8595 59.8679,38.804 C59.8235,38.7115 59.743,38.6653 59.6265,38.6653 C59.5673,38.6653 59.5188,38.6713 59.4808,38.6833 C59.4124,38.7037 59.3523,38.7444 59.3005,38.8054 C59.2589,38.8544 59.2318,38.905 59.2193,38.9573 C59.2069,39.0095 59.2006,39.0842 59.2006,39.1813 L59.2006,39.9596 L58.9509,39.9596 L58.9509,38.4738 M61.1381,38.4405 C61.2436,38.4405 61.3458,38.4653 61.4447,38.5148 C61.5437,38.5642 61.619,38.6283 61.6708,38.7069 C61.7208,38.7818 61.7541,38.8692 61.7707,38.9691 C61.7855,39.0375 61.7929,39.1467 61.7929,39.2965 L60.7039,39.2965 C60.7086,39.4472 60.7442,39.5681 60.8107,39.6592 C60.8773,39.7503 60.9805,39.7959 61.1201,39.7959 C61.2505,39.7959 61.3545,39.7529 61.4322,39.6669 C61.4766,39.6169 61.5081,39.5591 61.5266,39.4935 L61.7721,39.4935 C61.7656,39.548 61.7441,39.6088 61.7076,39.6759 C61.6711,39.7429 61.6301,39.7977 61.5848,39.8403 C61.509,39.9143 61.4151,39.9642 61.3032,39.9901 C61.2431,40.0049 61.1751,40.0123 61.0993,40.0123 C60.9143,40.0123 60.7576,39.945 60.629,39.8105 C60.5005,39.6759 60.4362,39.4875 60.4362,39.2451 C60.4362,39.0065 60.5009,38.8128 60.6304,38.6639 C60.7599,38.515 60.9291,38.4405 61.1381,38.4405 M61.5363,39.0981 C61.5261,38.9899 61.5025,38.9034 61.4655,38.8387 C61.3971,38.7185 61.2829,38.6583 61.1229,38.6583 C61.0082,38.6583 60.912,38.6997 60.8343,38.7825 C60.7566,38.8653 60.7155,38.9705 60.7109,39.0981 L61.5363,39.0981 M62.9873,38.4738 L63.2731,39.6447 L63.563,38.4738 L63.8433,38.4738 L64.1346,39.6377 L64.4384,38.4738 L64.6881,38.4738 L64.2567,39.9596 L63.9973,39.9596 L63.6948,38.8096 L63.4021,39.9596 L63.1427,39.9596 L62.7141,38.4738 L62.9873,38.4738 M64.9142,38.4808 L65.1681,38.4808 L65.1681,39.9596 L64.9142,39.9596 L64.9142,38.4808 M64.9142,37.9217 L65.1681,37.9217 L65.1681,38.2047 L64.9142,38.2047 L64.9142,37.9217 M65.5857,38.0591 L65.8381,38.0591 L65.8381,38.4738 L66.0754,38.4738 L66.0754,38.6778 L65.8381,38.6778 L65.8381,39.6474 C65.8381,39.6992 65.8557,39.7339 65.8909,39.7515 C65.9103,39.7617 65.9426,39.7668 65.988,39.7668 C66,39.7668 66.0129,39.7665 66.0268,39.7661 C66.0407,39.7656 66.0569,39.7644 66.0754,39.7626 L66.0754,39.9596 C66.0467,39.9679 66.0169,39.9739 65.9859,39.9776 C65.9549,39.9813 65.9214,39.9832 65.8853,39.9832 C65.7688,39.9832 65.6897,39.9533 65.6481,39.8937 C65.6065,39.834 65.5857,39.7566 65.5857,39.6613 L65.5857,38.6778 L65.3845,38.6778 L65.3845,38.4738 L65.5857,38.4738 L65.5857,38.0591 M66.32,37.9148 L66.5697,37.9148 L66.5697,38.675 C66.6289,38.6001 66.682,38.5474 66.7292,38.5168 C66.8097,38.4641 66.91,38.4378 67.0302,38.4378 C67.2457,38.4378 67.3919,38.5131 67.4686,38.6639 C67.5102,38.7462 67.531,38.8604 67.531,39.0065 L67.531,39.9596 L67.2744,39.9596 L67.2744,39.0232 C67.2744,38.9141 67.2605,38.8341 67.2328,38.7832 C67.1875,38.7018 67.1024,38.6611 66.9775,38.6611 C66.8739,38.6611 66.7801,38.6967 66.6959,38.7679 C66.6118,38.8391 66.5697,38.9737 66.5697,39.1716 L66.5697,39.9596 L66.32,39.9596 L66.32,37.9148 M69.2623,39.7987 C69.4279,39.7987 69.5414,39.736 69.6029,39.6107 C69.6644,39.4854 69.6951,39.346 69.6951,39.1924 C69.6951,39.0537 69.673,38.9409 69.6286,38.8539 C69.5583,38.7171 69.4371,38.6486 69.2651,38.6486 C69.1125,38.6486 69.0015,38.7069 68.9322,38.8234 C68.8628,38.94 68.8281,39.0805 68.8281,39.2451 C68.8281,39.4033 68.8628,39.5351 68.9322,39.6405 C69.0015,39.7459 69.1116,39.7987 69.2623,39.7987 M69.272,38.4308 C69.4635,38.4308 69.6253,38.4946 69.7576,38.6223 C69.8898,38.7499 69.9559,38.9376 69.9559,39.1855 C69.9559,39.425 69.8977,39.6229 69.7812,39.7792 C69.6646,39.9355 69.4838,40.0137 69.2387,40.0137 C69.0344,40.0137 68.872,39.9446 68.7518,39.8063 C68.6316,39.668 68.5715,39.4824 68.5715,39.2493 C68.5715,38.9996 68.6348,38.8008 68.7615,38.6528 C68.8882,38.5048 69.0584,38.4308 69.272,38.4308 M70.8683,39.7917 C70.9848,39.7917 71.0817,39.7429 71.1589,39.6454 C71.2361,39.5478 71.2748,39.4019 71.2748,39.2077 C71.2748,39.0893 71.2577,38.9876 71.2234,38.9025 C71.1587,38.7388 71.0403,38.657 70.8683,38.657 C70.6954,38.657 70.577,38.7434 70.5132,38.9164 C70.4789,39.0089 70.4618,39.1263 70.4618,39.2687 C70.4618,39.3834 70.4789,39.481 70.5132,39.5614 C70.5779,39.715 70.6963,39.7917 70.8683,39.7917 M70.2218,38.4808 L70.4646,38.4808 L70.4646,38.6778 C70.5145,38.6103 70.5691,38.558 70.6283,38.521 C70.7125,38.4655 70.8114,38.4378 70.9252,38.4378 C71.0935,38.4378 71.2364,38.5023 71.3538,38.6313 C71.4713,38.7603 71.53,38.9446 71.53,39.1841 C71.53,39.5078 71.4454,39.739 71.2761,39.8777 C71.1689,39.9656 71.044,40.0095 70.9016,40.0095 C70.7897,40.0095 70.6958,39.985 70.62,39.936 C70.5756,39.9083 70.5261,39.8606 70.4715,39.7931 L70.4715,40.5519 L70.2218,40.5519 L70.2218,38.4808 M72.4285,38.4405 C72.5339,38.4405 72.6361,38.4653 72.7351,38.5148 C72.834,38.5642 72.9094,38.6283 72.9612,38.7069 C73.0111,38.7818 73.0444,38.8692 73.0611,38.9691 C73.0759,39.0375 73.0833,39.1467 73.0833,39.2965 L71.9943,39.2965 C71.9989,39.4472 72.0345,39.5681 72.1011,39.6592 C72.1677,39.7503 72.2708,39.7959 72.4105,39.7959 C72.5409,39.7959 72.6449,39.7529 72.7226,39.6669 C72.767,39.6169 72.7984,39.5591 72.8169,39.4935 L73.0625,39.4935 C73.056,39.548 73.0345,39.6088 72.998,39.6759 C72.9614,39.7429 72.9205,39.7977 72.8752,39.8403 C72.7993,39.9143 72.7055,39.9642 72.5936,39.9901 C72.5335,40.0049 72.4655,40.0123 72.3896,40.0123 C72.2047,40.0123 72.0479,39.945 71.9194,39.8105 C71.7908,39.6759 71.7265,39.4875 71.7265,39.2451 C71.7265,39.0065 71.7913,38.8128 71.9208,38.6639 C72.0502,38.515 72.2195,38.4405 72.4285,38.4405 M72.8266,39.0981 C72.8165,38.9899 72.7929,38.9034 72.7559,38.8387 C72.6874,38.7185 72.5732,38.6583 72.4132,38.6583 C72.2985,38.6583 72.2024,38.6997 72.1247,38.7825 C72.047,38.8653 72.0058,38.9705 72.0012,39.0981 L72.8266,39.0981 M73.3783,38.4738 L73.6155,38.4738 L73.6155,38.6847 C73.6858,38.5978 73.7602,38.5353 73.8389,38.4974 C73.9175,38.4595 74.0049,38.4405 74.101,38.4405 C74.3119,38.4405 74.4543,38.5141 74.5283,38.6611 C74.569,38.7416 74.5894,38.8567 74.5894,39.0065 L74.5894,39.9596 L74.3355,39.9596 L74.3355,39.0232 C74.3355,38.9326 74.3221,38.8595 74.2953,38.804 C74.2509,38.7115 74.1704,38.6653 74.0539,38.6653 C73.9947,38.6653 73.9461,38.6713 73.9082,38.6833 C73.8398,38.7037 73.7797,38.7444 73.7279,38.8054 C73.6863,38.8544 73.6592,38.905 73.6467,38.9573 C73.6342,39.0095 73.628,39.0842 73.628,39.1813 L73.628,39.9596 L73.3783,39.9596 L73.3783,38.4738 M75.0952,39.4935 C75.1026,39.5767 75.1234,39.6405 75.1577,39.6849 C75.2206,39.7654 75.3297,39.8056 75.4851,39.8056 C75.5775,39.8056 75.6589,39.7855 75.7292,39.7453 C75.7995,39.705 75.8346,39.6428 75.8346,39.5587 C75.8346,39.4949 75.8064,39.4463 75.75,39.413 C75.714,39.3927 75.6427,39.3691 75.5364,39.3423 L75.338,39.2923 C75.2113,39.2609 75.1179,39.2257 75.0578,39.1869 C74.9505,39.1194 74.8969,39.026 74.8969,38.9067 C74.8969,38.7661 74.9475,38.6523 75.0488,38.5654 C75.15,38.4785 75.2862,38.435 75.4573,38.435 C75.6811,38.435 75.8425,38.5007 75.9415,38.632 C76.0034,38.7152 76.0335,38.8049 76.0316,38.9011 L75.7958,38.9011 C75.7912,38.8447 75.7713,38.7934 75.7361,38.7471 C75.6788,38.6815 75.5794,38.6486 75.4379,38.6486 C75.3436,38.6486 75.2721,38.6667 75.2236,38.7027 C75.175,38.7388 75.1507,38.7864 75.1507,38.8456 C75.1507,38.9104 75.1826,38.9622 75.2465,39.001 C75.2834,39.0241 75.338,39.0445 75.4101,39.062 L75.5752,39.1023 C75.7546,39.1457 75.8749,39.1878 75.9359,39.2285 C76.033,39.2923 76.0816,39.3927 76.0816,39.5295 C76.0816,39.6618 76.0314,39.776 75.9311,39.8722 C75.8307,39.9684 75.6779,40.0165 75.4726,40.0165 C75.2515,40.0165 75.095,39.9663 75.003,39.8659 C74.911,39.7656 74.8617,39.6414 74.8552,39.4935 L75.0952,39.4935 M76.9569,39.7987 C77.1225,39.7987 77.236,39.736 77.2975,39.6107 C77.359,39.4854 77.3897,39.346 77.3897,39.1924 C77.3897,39.0537 77.3676,38.9409 77.3232,38.8539 C77.2529,38.7171 77.1317,38.6486 76.9597,38.6486 C76.8071,38.6486 76.6961,38.7069 76.6268,38.8234 C76.5574,38.94 76.5227,39.0805 76.5227,39.2451 C76.5227,39.4033 76.5574,39.5351 76.6268,39.6405 C76.6961,39.7459 76.8062,39.7987 76.9569,39.7987 M76.9666,38.4308 C77.1581,38.4308 77.3199,38.4946 77.4522,38.6223 C77.5844,38.7499 77.6506,38.9376 77.6506,39.1855 C77.6506,39.425 77.5923,39.6229 77.4758,39.7792 C77.3592,39.9355 77.1784,40.0137 76.9333,40.0137 C76.729,40.0137 76.5667,39.9446 76.4464,39.8063 C76.3262,39.668 76.2661,39.4824 76.2661,39.2493 C76.2661,38.9996 76.3294,38.8008 76.4561,38.6528 C76.5828,38.5048 76.753,38.4308 76.9666,38.4308 M78.1856,38.4738 L78.1856,39.4602 C78.1856,39.536 78.1976,39.598 78.2216,39.6461 C78.266,39.7348 78.3488,39.7792 78.47,39.7792 C78.6438,39.7792 78.7622,39.7016 78.8251,39.5462 C78.8593,39.4629 78.8764,39.3487 78.8764,39.2035 L78.8764,38.4738 L79.1261,38.4738 L79.1261,39.9596 L78.8903,39.9596 L78.8931,39.7404 C78.8607,39.7968 78.8205,39.8444 78.7724,39.8833 C78.6771,39.961 78.5615,39.9998 78.4256,39.9998 C78.2138,39.9998 78.0695,39.9291 77.9927,39.7876 C77.9511,39.7117 77.9303,39.6105 77.9303,39.4838 L77.9303,38.4738 L78.1856,38.4738 M79.5113,38.4738 L79.7485,38.4738 L79.7485,38.7305 C79.768,38.6805 79.8156,38.6197 79.8914,38.5481 C79.9673,38.4764 80.0547,38.4405 80.1536,38.4405 C80.1582,38.4405 80.1661,38.441 80.1772,38.4419 C80.1883,38.4429 80.2072,38.4447 80.2341,38.4475 L80.2341,38.7111 C80.2193,38.7083 80.2056,38.7064 80.1931,38.7055 C80.1807,38.7046 80.167,38.7041 80.1522,38.7041 C80.0264,38.7041 79.9298,38.7446 79.8623,38.8255 C79.7948,38.9064 79.761,38.9996 79.761,39.105 L79.761,39.9596 L79.5113,39.9596 L79.5113,38.4738 M81.0095,38.4308 C81.1769,38.4308 81.3131,38.4715 81.4181,38.5529 C81.5231,38.6343 81.5862,38.7744 81.6074,38.9732 L81.3647,38.9732 C81.3499,38.8817 81.3161,38.8056 81.2634,38.745 C81.2107,38.6845 81.1261,38.6542 81.0095,38.6542 C80.8505,38.6542 80.7367,38.7319 80.6683,38.8872 C80.6239,38.988 80.6017,39.1124 80.6017,39.2604 C80.6017,39.4093 80.6331,39.5346 80.696,39.6364 C80.7589,39.7381 80.8579,39.7889 80.9929,39.7889 C81.0965,39.7889 81.1786,39.7573 81.2391,39.6939 C81.2997,39.6306 81.3416,39.5439 81.3647,39.4338 L81.6074,39.4338 C81.5797,39.6308 81.5103,39.7748 81.3994,39.8659 C81.2884,39.957 81.1464,40.0026 80.9735,40.0026 C80.7793,40.0026 80.6243,39.9316 80.5087,39.7896 C80.3931,39.6477 80.3353,39.4703 80.3353,39.2576 C80.3353,38.9968 80.3987,38.7938 80.5254,38.6486 C80.6521,38.5034 80.8135,38.4308 81.0095,38.4308 M82.4759,38.4405 C82.5813,38.4405 82.6835,38.4653 82.7824,38.5148 C82.8814,38.5642 82.9568,38.6283 83.0086,38.7069 C83.0585,38.7818 83.0918,38.8692 83.1084,38.9691 C83.1232,39.0375 83.1306,39.1467 83.1306,39.2965 L82.0417,39.2965 C82.0463,39.4472 82.0819,39.5681 82.1485,39.6592 C82.2151,39.7503 82.3182,39.7959 82.4578,39.7959 C82.5882,39.7959 82.6923,39.7529 82.77,39.6669 C82.8143,39.6169 82.8458,39.5591 82.8643,39.4935 L83.1098,39.4935 C83.1034,39.548 83.0819,39.6088 83.0453,39.6759 C83.0088,39.7429 82.9679,39.7977 82.9226,39.8403 C82.8467,39.9143 82.7529,39.9642 82.6409,39.9901 C82.5808,40.0049 82.5129,40.0123 82.437,40.0123 C82.2521,40.0123 82.0953,39.945 81.9667,39.8105 C81.8382,39.6759 81.7739,39.4875 81.7739,39.2451 C81.7739,39.0065 81.8387,38.8128 81.9681,38.6639 C82.0976,38.515 82.2668,38.4405 82.4759,38.4405 M82.874,39.0981 C82.8638,38.9899 82.8402,38.9034 82.8033,38.8387 C82.7348,38.7185 82.6206,38.6583 82.4606,38.6583 C82.3459,38.6583 82.2497,38.6997 82.1721,38.7825 C82.0944,38.8653 82.0532,38.9705 82.0486,39.0981 L82.874,39.0981 M83.4853,39.6572 L83.7753,39.6572 L83.7753,39.9596 L83.4853,39.9596 L83.4853,39.6572 M36.2962,41.7029 L36.5459,41.7029 L36.5459,42.4631 C36.6051,42.3882 36.6583,42.3355 36.7055,42.305 C36.7859,42.2522 36.8863,42.2259 37.0065,42.2259 C37.222,42.2259 37.3681,42.3013 37.4449,42.452 C37.4865,42.5343 37.5073,42.6485 37.5073,42.7947 L37.5073,43.7477 L37.2507,43.7477 L37.2507,42.8113 C37.2507,42.7022 37.2368,42.6222 37.209,42.5713 C37.1637,42.4899 37.0786,42.4492 36.9538,42.4492 C36.8502,42.4492 36.7563,42.4848 36.6722,42.556 C36.588,42.6273 36.5459,42.7618 36.5459,42.9597 L36.5459,43.7477 L36.2962,43.7477 L36.2962,41.7029 M37.9147,41.8472 L38.1672,41.8472 L38.1672,42.262 L38.4044,42.262 L38.4044,42.4659 L38.1672,42.4659 L38.1672,43.4356 C38.1672,43.4874 38.1847,43.522 38.2199,43.5396 C38.2393,43.5498 38.2717,43.5549 38.317,43.5549 C38.329,43.5549 38.342,43.5546 38.3558,43.5542 C38.3697,43.5537 38.3859,43.5526 38.4044,43.5507 L38.4044,43.7477 C38.3757,43.756 38.3459,43.762 38.3149,43.7657 C38.2839,43.7694 38.2504,43.7713 38.2143,43.7713 C38.0978,43.7713 38.0187,43.7415 37.9771,43.6818 C37.9355,43.6221 37.9147,43.5447 37.9147,43.4494 L37.9147,42.4659 L37.7135,42.4659 L37.7135,42.262 L37.9147,42.262 L37.9147,41.8472 M38.6989,41.8472 L38.9514,41.8472 L38.9514,42.262 L39.1886,42.262 L39.1886,42.4659 L38.9514,42.4659 L38.9514,43.4356 C38.9514,43.4874 38.969,43.522 39.0041,43.5396 C39.0236,43.5498 39.0559,43.5549 39.1012,43.5549 C39.1133,43.5549 39.1262,43.5546 39.1401,43.5542 C39.154,43.5537 39.1701,43.5526 39.1886,43.5507 L39.1886,43.7477 C39.16,43.756 39.1301,43.762 39.0992,43.7657 C39.0682,43.7694 39.0347,43.7713 38.9986,43.7713 C38.8821,43.7713 38.803,43.7415 38.7614,43.6818 C38.7197,43.6221 38.6989,43.5447 38.6989,43.4494 L38.6989,42.4659 L38.4978,42.4659 L38.4978,42.262 L38.6989,42.262 L38.6989,41.8472 M40.0603,43.5798 C40.1768,43.5798 40.2737,43.5311 40.3509,43.4335 C40.4281,43.3359 40.4668,43.19 40.4668,42.9958 C40.4668,42.8774 40.4496,42.7757 40.4154,42.6906 C40.3507,42.5269 40.2323,42.4451 40.0603,42.4451 C39.8873,42.4451 39.769,42.5315 39.7052,42.7045 C39.6709,42.797 39.6538,42.9144 39.6538,43.0568 C39.6538,43.1715 39.6709,43.2691 39.7052,43.3496 C39.7699,43.5031 39.8883,43.5798 40.0603,43.5798 M39.4138,42.2689 L39.6566,42.2689 L39.6566,42.4659 C39.7065,42.3984 39.7611,42.3461 39.8203,42.3091 C39.9045,42.2536 40.0034,42.2259 40.1172,42.2259 C40.2855,42.2259 40.4284,42.2904 40.5458,42.4194 C40.6633,42.5484 40.722,42.7327 40.722,42.9722 C40.722,43.2959 40.6374,43.5271 40.4681,43.6658 C40.3609,43.7537 40.236,43.7976 40.0936,43.7976 C39.9817,43.7976 39.8878,43.7731 39.812,43.7241 C39.7676,43.6964 39.7181,43.6487 39.6635,43.5812 L39.6635,44.34 L39.4138,44.34 L39.4138,42.2689 M41.1502,43.2816 C41.1576,43.3648 41.1784,43.4286 41.2126,43.473 C41.2755,43.5535 41.3847,43.5937 41.54,43.5937 C41.6325,43.5937 41.7139,43.5736 41.7842,43.5334 C41.8545,43.4931 41.8896,43.4309 41.8896,43.3468 C41.8896,43.283 41.8614,43.2344 41.805,43.2011 C41.7689,43.1808 41.6977,43.1572 41.5914,43.1304 L41.393,43.0804 C41.2663,43.049 41.1729,43.0138 41.1128,42.975 C41.0055,42.9075 40.9518,42.8141 40.9518,42.6948 C40.9518,42.5542 41.0025,42.4404 41.1037,42.3535 C41.205,42.2666 41.3412,42.2231 41.5123,42.2231 C41.7361,42.2231 41.8975,42.2888 41.9964,42.4201 C42.0584,42.5033 42.0884,42.593 42.0866,42.6892 L41.8508,42.6892 C41.8461,42.6328 41.8263,42.5815 41.7911,42.5352 C41.7338,42.4696 41.6344,42.4367 41.4929,42.4367 C41.3985,42.4367 41.3271,42.4548 41.2785,42.4908 C41.23,42.5269 41.2057,42.5745 41.2057,42.6337 C41.2057,42.6985 41.2376,42.7503 41.3014,42.7891 C41.3384,42.8122 41.393,42.8326 41.4651,42.8501 L41.6302,42.8904 C41.8096,42.9338 41.9298,42.9759 41.9909,43.0166 C42.088,43.0804 42.1365,43.1808 42.1365,43.3176 C42.1365,43.4499 42.0864,43.5641 41.986,43.6603 C41.8857,43.7565 41.7328,43.8046 41.5275,43.8046 C41.3065,43.8046 41.15,43.7544 41.058,43.6541 C40.9659,43.5537 40.9167,43.4296 40.9102,43.2816 L41.1502,43.2816 M42.5541,42.2814 L42.844,42.2814 L42.844,42.5838 L42.5541,42.5838 L42.5541,42.2814 M42.5541,43.4453 L42.844,43.4453 L42.844,43.7477 L42.5541,43.7477 L42.5541,43.4453 M43.6699,41.7098 L43.8808,41.7098 L43.2343,43.7477 L43.0235,43.7477 L43.6699,41.7098 M44.4542,41.7098 L44.665,41.7098 L44.0186,43.7477 L43.8077,43.7477 L44.4542,41.7098 M44.782,41.7098 L45.0317,41.7098 L45.0317,43.7477 L44.782,43.7477 L44.782,41.7098 M45.588,43.3523 C45.588,43.4245 45.6144,43.4813 45.6671,43.523 C45.7198,43.5646 45.7822,43.5854 45.8544,43.5854 C45.9422,43.5854 46.0273,43.565 46.1096,43.5243 C46.2483,43.4568 46.3177,43.3463 46.3177,43.1928 L46.3177,42.9916 C46.2872,43.0111 46.2479,43.0272 46.1998,43.0402 C46.1517,43.0531 46.1045,43.0624 46.0583,43.0679 L45.9071,43.0874 C45.8164,43.0994 45.7485,43.1183 45.7032,43.1442 C45.6264,43.1877 45.588,43.2571 45.588,43.3523 M46.1929,42.8474 C46.2502,42.84 46.2886,42.8159 46.308,42.7752 C46.3191,42.753 46.3246,42.7211 46.3246,42.6795 C46.3246,42.5944 46.2944,42.5327 46.2338,42.4943 C46.1732,42.4559 46.0865,42.4367 45.9737,42.4367 C45.8433,42.4367 45.7508,42.4719 45.6962,42.5422 C45.6657,42.581 45.6458,42.6388 45.6366,42.7156 L45.4035,42.7156 C45.4081,42.5325 45.4676,42.4051 45.5818,42.3334 C45.696,42.2617 45.8285,42.2259 45.9792,42.2259 C46.154,42.2259 46.296,42.2592 46.4051,42.3258 C46.5133,42.3924 46.5674,42.4959 46.5674,42.6365 L46.5674,43.4924 C46.5674,43.5183 46.5727,43.5391 46.5834,43.5549 C46.594,43.5706 46.6164,43.5784 46.6506,43.5784 C46.6617,43.5784 46.6742,43.5778 46.6881,43.5764 C46.702,43.575 46.7168,43.5729 46.7325,43.5701 L46.7325,43.7546 C46.6936,43.7657 46.6641,43.7727 46.6437,43.7754 C46.6234,43.7782 46.5956,43.7796 46.5605,43.7796 C46.4745,43.7796 46.412,43.7491 46.3732,43.688 C46.3528,43.6557 46.3385,43.6099 46.3302,43.5507 C46.2793,43.6173 46.2063,43.6751 46.111,43.7241 C46.0157,43.7731 45.9108,43.7976 45.7961,43.7976 C45.6583,43.7976 45.5457,43.7558 45.4583,43.6721 C45.3709,43.5884 45.3272,43.4837 45.3272,43.3579 C45.3272,43.2201 45.3702,43.1133 45.4562,43.0374 C45.5422,42.9616 45.6551,42.9149 45.7947,42.8973 L46.1929,42.8474 M46.8541,43.5507 L47.735,42.4853 L46.9193,42.4853 L46.9193,42.262 L48.0707,42.262 L48.0707,42.4659 L47.1954,43.5243 L48.0971,43.5243 L48.0971,43.7477 L46.8541,43.7477 L46.8541,43.5507 M49.3137,42.262 L49.5898,42.262 C49.5546,42.3572 49.4765,42.5745 49.3553,42.914 C49.2647,43.1692 49.1888,43.3773 49.1278,43.5382 C48.9835,43.9174 48.8818,44.1486 48.8226,44.2318 C48.7634,44.3151 48.6617,44.3567 48.5174,44.3567 C48.4823,44.3567 48.4552,44.3553 48.4363,44.3525 C48.4173,44.3498 48.394,44.3447 48.3662,44.3373 L48.3662,44.1098 C48.4097,44.1218 48.4411,44.1292 48.4605,44.132 C48.48,44.1347 48.4971,44.1361 48.5119,44.1361 C48.5581,44.1361 48.5921,44.1285 48.6138,44.1132 C48.6356,44.098 48.6538,44.0792 48.6686,44.057 C48.6733,44.0497 48.6899,44.0117 48.7186,43.9433 C48.7472,43.8749 48.768,43.824 48.781,43.7907 L48.2316,42.262 L48.5146,42.262 L48.9128,43.4716 L49.3137,42.262 M50.4332,43.5798 C50.5497,43.5798 50.6466,43.5311 50.7238,43.4335 C50.8011,43.3359 50.8397,43.19 50.8397,42.9958 C50.8397,42.8774 50.8226,42.7757 50.7883,42.6906 C50.7236,42.5269 50.6052,42.4451 50.4332,42.4451 C50.2603,42.4451 50.1419,42.5315 50.0781,42.7045 C50.0439,42.797 50.0267,42.9144 50.0267,43.0568 C50.0267,43.1715 50.0439,43.2691 50.0781,43.3496 C50.1428,43.5031 50.2612,43.5798 50.4332,43.5798 M49.7868,42.2689 L50.0295,42.2689 L50.0295,42.4659 C50.0795,42.3984 50.134,42.3461 50.1932,42.3091 C50.2774,42.2536 50.3763,42.2259 50.4901,42.2259 C50.6584,42.2259 50.8013,42.2904 50.9187,42.4194 C51.0362,42.5484 51.0949,42.7327 51.0949,42.9722 C51.0949,43.2959 51.0103,43.5271 50.8411,43.6658 C50.7338,43.7537 50.6089,43.7976 50.4665,43.7976 C50.3546,43.7976 50.2607,43.7731 50.1849,43.7241 C50.1405,43.6964 50.091,43.6487 50.0365,43.5812 L50.0365,44.34 L49.7868,44.34 L49.7868,42.2689 M51.3747,42.2689 L51.6286,42.2689 L51.6286,43.7477 L51.3747,43.7477 L51.3747,42.2689 M51.3747,41.7098 L51.6286,41.7098 L51.6286,41.9928 L51.3747,41.9928 L51.3747,41.7098 M52.5691,42.2189 C52.7365,42.2189 52.8727,42.2596 52.9777,42.341 C53.0826,42.4224 53.1457,42.5625 53.167,42.7614 L52.9242,42.7614 C52.9094,42.6698 52.8757,42.5937 52.823,42.5332 C52.7703,42.4726 52.6856,42.4423 52.5691,42.4423 C52.41,42.4423 52.2963,42.52 52.2278,42.6754 C52.1835,42.7762 52.1613,42.9005 52.1613,43.0485 C52.1613,43.1974 52.1927,43.3227 52.2556,43.4245 C52.3185,43.5262 52.4174,43.5771 52.5525,43.5771 C52.656,43.5771 52.7381,43.5454 52.7987,43.482 C52.8593,43.4187 52.9011,43.332 52.9242,43.2219 L53.167,43.2219 C53.1393,43.4189 53.0699,43.563 52.9589,43.6541 C52.8479,43.7451 52.706,43.7907 52.533,43.7907 C52.3388,43.7907 52.1839,43.7197 52.0683,43.5778 C51.9527,43.4358 51.8949,43.2585 51.8949,43.0457 C51.8949,42.7849 51.9583,42.5819 52.085,42.4367 C52.2117,42.2915 52.373,42.2189 52.5691,42.2189 M53.4764,43.4453 L53.7663,43.4453 L53.7663,43.7477 L53.4764,43.7477 L53.4764,43.4453 M54.7906,43.5868 C54.9561,43.5868 55.0696,43.5241 55.1311,43.3988 C55.1926,43.2735 55.2234,43.1341 55.2234,42.9805 C55.2234,42.8418 55.2012,42.729 55.1568,42.6421 C55.0865,42.5052 54.9653,42.4367 54.7933,42.4367 C54.6407,42.4367 54.5298,42.495 54.4604,42.6115 C54.391,42.7281 54.3563,42.8686 54.3563,43.0333 C54.3563,43.1914 54.391,43.3232 54.4604,43.4286 C54.5298,43.5341 54.6398,43.5868 54.7906,43.5868 M54.8003,42.2189 C54.9917,42.2189 55.1535,42.2828 55.2858,42.4104 C55.4181,42.538 55.4842,42.7258 55.4842,42.9736 C55.4842,43.2131 55.4259,43.4111 55.3094,43.5674 C55.1929,43.7236 55.0121,43.8018 54.767,43.8018 C54.5626,43.8018 54.4003,43.7327 54.28,43.5944 C54.1598,43.4561 54.0997,43.2705 54.0997,43.0374 C54.0997,42.7877 54.1631,42.5889 54.2898,42.4409 C54.4165,42.2929 54.5866,42.2189 54.8003,42.2189 M55.7764,42.262 L56.0136,42.262 L56.0136,42.5186 C56.0331,42.4687 56.0807,42.4078 56.1565,42.3362 C56.2324,42.2645 56.3198,42.2287 56.4187,42.2287 C56.4233,42.2287 56.4312,42.2291 56.4423,42.23 C56.4534,42.231 56.4724,42.2328 56.4992,42.2356 L56.4992,42.4992 C56.4844,42.4964 56.4707,42.4945 56.4583,42.4936 C56.4458,42.4927 56.4321,42.4922 56.4173,42.4922 C56.2916,42.4922 56.1949,42.5327 56.1274,42.6136 C56.0599,42.6945 56.0261,42.7877 56.0261,42.8931 L56.0261,43.7477 L55.7764,43.7477 L55.7764,42.262 M57.2261,42.2356 C57.3426,42.2356 57.4444,42.2643 57.5313,42.3216 C57.5785,42.354 57.6265,42.4011 57.6756,42.4631 L57.6756,42.2758 L57.9058,42.2758 L57.9058,43.627 C57.9058,43.8157 57.8781,43.9646 57.8226,44.0737 C57.719,44.2753 57.5234,44.3761 57.2358,44.3761 C57.0758,44.3761 56.9412,44.3403 56.8321,44.2686 C56.723,44.1969 56.6619,44.0848 56.649,43.9322 L56.9029,43.9322 C56.9149,43.9988 56.9389,44.0501 56.975,44.0862 C57.0314,44.1417 57.1202,44.1694 57.2414,44.1694 C57.4328,44.1694 57.5581,44.1019 57.6173,43.9669 C57.6524,43.8873 57.6686,43.7454 57.6659,43.541 C57.6159,43.6168 57.5558,43.6732 57.4855,43.7102 C57.4152,43.7472 57.3223,43.7657 57.2067,43.7657 C57.0458,43.7657 56.905,43.7086 56.7843,43.5944 C56.6636,43.4802 56.6032,43.2913 56.6032,43.0277 C56.6032,42.7789 56.664,42.5847 56.7856,42.4451 C56.9073,42.3054 57.0541,42.2356 57.2261,42.2356 M57.6756,42.9986 C57.6756,42.8145 57.6376,42.6781 57.5618,42.5893 C57.486,42.5006 57.3893,42.4562 57.2719,42.4562 C57.0962,42.4562 56.9759,42.5385 56.9112,42.7031 C56.877,42.791 56.8599,42.9061 56.8599,43.0485 C56.8599,43.2159 56.8939,43.3433 56.9618,43.4307 C57.0298,43.5181 57.1211,43.5618 57.2358,43.5618 C57.4152,43.5618 57.5415,43.4809 57.6145,43.319 C57.6552,43.2275 57.6756,43.1207 57.6756,42.9986 Z" style="stroke:none;fill-rule:nonzero;fill:#5e5e5e;fill-opacity:1;"/>
        </g>
    </g>
</svg>
