<?xml version="1.0"?>
<svg version="1.1" xmlns="http://www.w3.org/2000/svg" xmlns:xlink="http://www.w3.org/1999/xlink" width="94.1" height="53.1">
    <desc iVinci="yes" version="4.6" gridStep="20" showGrid="no" snapToGrid="no" codePlatform="0"/>
    <g id="Layer1" name="Layer 1" opacity="1">
        <g id="Shape1">
            <desc shapeID="1" type="0" basicInfo-basicType="0" basicInfo-roundedRectRadius="12" basicInfo-polygonSides="6" basicInfo-starPoints="5" bounding="rect(-0.00315646,0,0.00631205,0)" text="" font-familyName="" font-pixelSize="20" font-bold="0" font-underline="0" font-alignment="1" strokeStyle="0" markerStart="0" markerEnd="0" shadowEnabled="0" shadowOffsetX="0" shadowOffsetY="2" shadowBlur="4" shadowOpacity="160" blurEnabled="0" blurRadius="4" transform="matrix(0.964197,0,0,0.964197,36.828,22.0045)" pers-center="0,0" pers-size="0,0" pers-start="0,0" pers-end="0,0" locked="0" mesh="" flag=""/>
            <path id="shapePath1" d="M36.8249,22.0045 C36.8386,22.0045 36.8249,22.0045 36.8249,22.0045 Z" style="stroke:none;fill-rule:evenodd;fill:#000000;fill-opacity:1;"/>
        </g>
        <g id="Shape2">
            <desc shapeID="2" type="0" basicInfo-basicType="0" basicInfo-roundedRectRadius="12" basicInfo-polygonSides="6" basicInfo-starPoints="5" bounding="rect(-4.2136,-3.78416,8.4272,7.5683)" text="" font-familyName="" font-pixelSize="20" font-bold="0" font-underline="0" font-alignment="1" strokeStyle="0" markerStart="0" markerEnd="0" shadowEnabled="0" shadowOffsetX="0" shadowOffsetY="2" shadowBlur="4" shadowOpacity="160" blurEnabled="0" blurRadius="4" transform="matrix(0.964197,0,0,0.964197,39.7964,25.4724)" pers-center="0,0" pers-size="0,0" pers-start="0,0" pers-end="0,0" locked="0" mesh="" flag=""/>
            <path id="shapePath2" d="M36.0716,21.8238 C36.0716,21.8238 38.7536,23.7569 38.7536,23.7569 C38.7536,23.7569 43.8591,25.6494 43.8591,25.6494 C43.8591,25.6494 43.1239,27.8821 43.1239,27.8821 C43.1239,27.8821 42.4159,29.1211 42.4159,29.1211 C42.4159,29.1211 37.6646,26.3983 37.6646,26.3983 C37.6646,26.3983 35.9355,24.2335 35.9355,24.2335 C35.9355,24.2335 35.7015,23.447 35.7374,22.8103 C35.7692,22.2465 36.0716,21.8238 36.0716,21.8238 Z" style="stroke:none;fill-rule:evenodd;fill:#fbbbb8;fill-opacity:1;"/>
        </g>
        <g id="Shape3">
            <desc shapeID="3" type="0" basicInfo-basicType="0" basicInfo-roundedRectRadius="12" basicInfo-polygonSides="6" basicInfo-starPoints="5" bounding="rect(-4.09287,-2.0493,8.18574,4.0986)" text="" font-familyName="" font-pixelSize="20" font-bold="0" font-underline="0" font-alignment="1" strokeStyle="0" markerStart="0" markerEnd="0" shadowEnabled="0" shadowOffsetX="0" shadowOffsetY="2" shadowBlur="4" shadowOpacity="160" blurEnabled="0" blurRadius="4" transform="matrix(0.964197,0,0,0.964197,55.1567,27.1808)" pers-center="0,0" pers-size="0,0" pers-start="0,0" pers-end="0,0" locked="0" mesh="" flag=""/>
            <path id="shapePath3" d="M58.7945,29.1567 C58.7945,29.1567 53.771,28.018 53.771,28.018 C53.771,28.018 51.9893,27.2946 51.3327,26.7722 C50.6765,26.2497 52.8734,26.3033 52.8734,26.3033 C52.8734,26.3033 55.3249,25.2048 55.3249,25.2048 C55.3249,25.2048 59.0892,26.1693 59.1026,26.1693 C59.116,26.1693 58.7945,29.1567 58.7945,29.1567 Z" style="stroke:none;fill-rule:evenodd;fill:#fbbbb8;fill-opacity:1;"/>
        </g>
        <g id="Shape4">
            <desc shapeID="4" type="0" basicInfo-basicType="0" basicInfo-roundedRectRadius="12" basicInfo-polygonSides="6" basicInfo-starPoints="5" bounding="rect(-12.6591,-9.97296,25.3182,19.946)" text="" font-familyName="" font-pixelSize="20" font-bold="0" font-underline="0" font-alignment="1" strokeStyle="0" markerStart="0" markerEnd="0" shadowEnabled="0" shadowOffsetX="0" shadowOffsetY="2" shadowBlur="4" shadowOpacity="160" blurEnabled="0" blurRadius="4" transform="matrix(0.964197,0,0,0.964197,45.9268,17.055)" pers-center="0,0" pers-size="0,0" pers-start="0,0" pers-end="0,0" locked="0" mesh="" flag=""/>
            <path id="shapePath4" d="M35.1313,20.8035 C35.1313,20.8035 37.6769,23.414 37.6769,23.414 C37.6769,23.414 38.9943,24.1196 40.474,24.6543 C42.2389,25.2918 44.2168,25.7767 44.2168,25.7767 C44.2168,25.7767 48.7524,26.6709 48.7524,26.6709 C48.7524,26.6709 52.936,26.3615 52.936,26.3615 C52.936,26.3615 55.8986,24.701 55.8986,24.701 C55.8986,24.701 57.8563,21.9547 57.8563,21.9547 C57.8563,21.9547 58.1326,18.2821 58.1326,18.2821 C58.1326,18.2821 56.8431,14.713 56.8431,14.713 C56.8431,14.713 55.9451,13.2047 55.9451,13.2047 C55.9451,13.2047 56.1063,11.6159 56.1179,11.6159 C56.1293,11.6159 53.5698,12.1384 53.5698,12.1384 C53.5698,12.1384 49.6824,10.0942 49.6824,10.0942 C49.6824,10.0942 45.1309,9.22462 45.1164,9.22462 C45.1017,9.22462 42.438,9.25391 42.438,9.25391 C42.438,9.25391 40.5939,7.43907 40.5939,7.43907 C40.5939,7.43907 39.9792,9.54656 39.9792,9.54656 C39.9792,9.54656 39.2447,9.87169 39.2447,9.87169 C39.2447,9.87169 37.6349,10.3934 37.6349,10.3934 C37.6349,10.3934 35.2839,12.5135 35.2839,12.5135 C35.2839,12.5135 34.1675,14.6775 34.1675,14.6775 C34.1675,14.6775 33.7209,16.8588 33.7209,16.8588 C33.7209,16.8588 34.1846,19.0572 34.1846,19.0572 C34.1846,19.0572 35.1313,20.8035 35.1313,20.8035 Z" style="stroke:none;fill-rule:evenodd;fill:#fff9ee;fill-opacity:1;"/>
        </g>
        <g id="Shape5">
            <desc shapeID="5" type="0" basicInfo-basicType="0" basicInfo-roundedRectRadius="12" basicInfo-polygonSides="6" basicInfo-starPoints="5" bounding="rect(0,0,0,0)" text="" font-familyName="" font-pixelSize="20" font-bold="0" font-underline="0" font-alignment="1" strokeStyle="0" markerStart="0" markerEnd="0" shadowEnabled="0" shadowOffsetX="0" shadowOffsetY="2" shadowBlur="4" shadowOpacity="160" blurEnabled="0" blurRadius="4" transform="matrix(0.964197,0,0,0.964197,42.3388,29.0407)" pers-center="0,0" pers-size="0,0" pers-start="0,0" pers-end="0,0" locked="0" mesh="" flag=""/>
            <path id="shapePath5" d="M42.3388,29.0407 Z" style="stroke:none;fill-rule:evenodd;fill:#000000;fill-opacity:1;"/>
        </g>
        <g id="Shape6">
            <desc shapeID="6" type="0" basicInfo-basicType="0" basicInfo-roundedRectRadius="12" basicInfo-polygonSides="6" basicInfo-starPoints="5" bounding="rect(-1.32384,-1.97587,2.6477,3.95175)" text="" font-familyName="" font-pixelSize="20" font-bold="0" font-underline="0" font-alignment="1" strokeStyle="0" markerStart="0" markerEnd="0" shadowEnabled="0" shadowOffsetX="0" shadowOffsetY="2" shadowBlur="4" shadowOpacity="160" blurEnabled="0" blurRadius="4" transform="matrix(0.964197,0,0,0.964197,43.6669,27.5036)" pers-center="0,0" pers-size="0,0" pers-start="0,0" pers-end="0,0" locked="0" mesh="" flag=""/>
            <path id="shapePath6" d="M42.3905,29.0752 C42.3905,29.0752 43.3658,27.3023 43.3658,27.3023 C43.3658,27.3023 43.8018,25.5985 43.8075,25.5985 C43.8132,25.5985 44.2894,26.2181 44.2894,26.2181 C44.2894,26.2181 44.9434,26.9412 44.9434,26.9412 C44.9434,26.9412 44.4385,27.4114 44.4443,27.4114 C44.45,27.4114 44.5476,27.9621 44.5476,27.9621 C44.5476,27.9621 44.1403,28.4154 44.1403,28.4154 C44.1403,28.4154 44.0771,29.035 44.0771,29.035 C44.0771,29.035 43.6725,29.3995 43.2825,29.4085 C42.8334,29.4192 42.3905,29.0752 42.3905,29.0752 Z" style="stroke:none;fill-rule:evenodd;fill:#fff9ee;fill-opacity:1;"/>
        </g>
        <g id="Shape7">
            <desc shapeID="7" type="0" basicInfo-basicType="0" basicInfo-roundedRectRadius="12" basicInfo-polygonSides="6" basicInfo-starPoints="5" bounding="rect(-0.825117,-1.58628,1.65024,3.17257)" text="" font-familyName="" font-pixelSize="20" font-bold="0" font-underline="0" font-alignment="1" strokeStyle="0" markerStart="0" markerEnd="0" shadowEnabled="0" shadowOffsetX="0" shadowOffsetY="2" shadowBlur="4" shadowOpacity="160" blurEnabled="0" blurRadius="4" transform="matrix(0.964197,0,0,0.964197,59.4903,27.7407)" pers-center="0,0" pers-size="0,0" pers-start="0,0" pers-end="0,0" locked="0" mesh="" flag=""/>
            <path id="shapePath7" d="M59.148,26.2124 C59.148,26.2124 58.6948,29.2013 58.6948,29.2013 C58.6948,29.2013 59.4463,29.2702 59.4463,29.2702 C59.4463,29.2702 60.2781,28.7769 60.2781,28.7769 C60.2781,28.7769 60.2608,27.9851 60.2608,27.9851 C60.2608,27.9851 60.2608,27.6268 60.1249,27.2255 C60.1279,26.9798 60.3613,26.8352 60.2608,26.6523 C59.9934,26.1655 59.148,26.2124 59.148,26.2124 Z" style="stroke:none;fill-rule:evenodd;fill:#fff9ee;fill-opacity:1;"/>
        </g>
        <g id="Shape8">
            <desc shapeID="8" type="0" basicInfo-basicType="0" basicInfo-roundedRectRadius="12" basicInfo-polygonSides="6" basicInfo-starPoints="5" bounding="rect(0,0,0,0)" text="" font-familyName="" font-pixelSize="20" font-bold="0" font-underline="0" font-alignment="1" strokeStyle="0" markerStart="0" markerEnd="0" shadowEnabled="0" shadowOffsetX="0" shadowOffsetY="2" shadowBlur="4" shadowOpacity="160" blurEnabled="0" blurRadius="4" transform="matrix(0.964197,0,0,0.964197,44.0081,19.2091)" pers-center="0,0" pers-size="0,0" pers-start="0,0" pers-end="0,0" locked="0" mesh="" flag=""/>
            <path id="shapePath8" d="M44.0081,19.2091 Z" style="stroke:none;fill-rule:evenodd;fill:#fff5ea;fill-opacity:1;"/>
        </g>
        <g id="Shape9">
            <desc shapeID="9" type="0" basicInfo-basicType="0" basicInfo-roundedRectRadius="12" basicInfo-polygonSides="6" basicInfo-starPoints="5" bounding="rect(-2.3245,-2.139,4.649,4.278)" text="" font-familyName="" font-pixelSize="20" font-bold="0" font-underline="0" font-alignment="1" strokeStyle="0" markerStart="0" markerEnd="0" shadowEnabled="0" shadowOffsetX="0" shadowOffsetY="2" shadowBlur="4" shadowOpacity="160" blurEnabled="0" blurRadius="4" transform="matrix(0.964197,0,0,0.964197,46.0583,18.895)" pers-center="0,0" pers-size="0,0" pers-start="0,0" pers-end="0,0" locked="0" mesh="" flag=""/>
            <path id="shapePath9" d="M44.8672,19.8552 C44.8672,19.8552 46.5003,19.8126 46.5003,19.8126 C46.5003,19.8126 47.1257,20.0756 47.1257,20.0756 C47.1257,20.0756 47.5882,20.7911 47.5882,20.7911 C47.5882,20.7911 48.0126,20.9574 48.0126,20.9574 C48.0126,20.9574 48.2996,20.8484 48.2996,20.8484 C48.2996,20.8484 48.2077,20.4353 48.2077,20.4353 C48.2077,20.4353 47.8233,19.7011 47.8233,19.7011 C47.8233,19.7011 47.5423,19.1675 47.548,19.1675 C47.5537,19.1675 47.4332,18.7488 47.4332,18.7488 C47.4332,18.7488 47.3013,17.6817 47.3013,17.6817 C47.3013,17.6817 47.0374,17.4005 47.0374,17.4005 C47.0374,17.4005 45.1958,16.8326 45.1958,16.8326 C45.1958,16.8326 44.6796,16.867 44.6796,16.867 C44.6796,16.867 44.2123,17.3625 44.2123,17.3625 C44.2123,17.3625 43.817,18.1965 43.817,18.1965 C43.817,18.1965 43.8232,18.7688 44.0757,19.1675 C44.3476,19.5971 44.8672,19.8552 44.8672,19.8552 Z" style="stroke:none;fill-rule:evenodd;fill:#ffffff;fill-opacity:1;"/>
        </g>
        <g id="Shape10">
            <desc shapeID="10" type="0" basicInfo-basicType="0" basicInfo-roundedRectRadius="12" basicInfo-polygonSides="6" basicInfo-starPoints="5" bounding="rect(-1.16952,-1.39495,2.33902,2.7899)" text="" font-familyName="" font-pixelSize="20" font-bold="0" font-underline="0" font-alignment="1" strokeStyle="0" markerStart="0" markerEnd="0" shadowEnabled="0" shadowOffsetX="0" shadowOffsetY="2" shadowBlur="4" shadowOpacity="160" blurEnabled="0" blurRadius="4" transform="matrix(0.964197,0,0,0.964197,42.411,31.6988)" pers-center="0,0" pers-size="0,0" pers-start="0,0" pers-end="0,0" locked="0" mesh="" flag=""/>
            <path id="shapePath10" d="M42.0118,30.6999 C41.6498,31.1501 41.1703,32.6667 41.3073,32.921 C41.4443,33.1852 41.6107,33.0189 41.7769,32.4611 C41.8748,32.1284 41.9433,32.0307 42.0705,32.0601 C42.1586,32.0795 42.364,32.1284 42.5401,32.1676 C42.7555,32.2066 42.912,32.3339 43.049,32.5688 C43.186,32.7938 43.2936,32.8819 43.4013,32.8428 C43.6165,32.7547 43.5871,32.5199 43.2544,31.6196 C42.7555,30.2497 42.5108,30.0736 42.0118,30.6999 M42.6576,31.6489 C42.6673,31.6979 42.5108,31.7274 42.3248,31.7274 L41.9825,31.7274 L42.1879,31.3067 L42.4031,30.8956 L42.5304,31.2381 C42.5989,31.4239 42.6576,31.6099 42.6576,31.6489 Z" style="stroke:none;fill-rule:evenodd;fill:#583735;fill-opacity:1;"/>
        </g>
        <g id="Shape11">
            <desc shapeID="11" type="0" basicInfo-basicType="0" basicInfo-roundedRectRadius="12" basicInfo-polygonSides="6" basicInfo-starPoints="5" bounding="rect(-1.20388,-1.3161,2.40777,2.63221)" text="" font-familyName="" font-pixelSize="20" font-bold="0" font-underline="0" font-alignment="1" strokeStyle="0" markerStart="0" markerEnd="0" shadowEnabled="0" shadowOffsetX="0" shadowOffsetY="2" shadowBlur="4" shadowOpacity="160" blurEnabled="0" blurRadius="4" transform="matrix(0.964197,0,0,0.964197,39.5271,31.8221)" pers-center="0,0" pers-size="0,0" pers-start="0,0" pers-end="0,0" locked="0" mesh="" flag=""/>
            <path id="shapePath11" d="M38.4305,30.6217 C38.3328,30.7196 38.3524,32.8819 38.4501,32.9406 C38.4991,32.9701 38.9688,33.0286 39.4971,33.0579 C40.3484,33.1166 40.4854,33.107 40.6125,32.9504 C40.8572,32.6568 40.5049,32.5102 39.5656,32.5102 L38.7535,32.5102 L38.7535,31.5317 C38.7535,30.7783 38.7241,30.5531 38.6263,30.5531 C38.548,30.5531 38.46,30.5825 38.4305,30.6217 Z" style="stroke:none;fill-rule:evenodd;fill:#583735;fill-opacity:1;"/>
        </g>
        <g id="Shape12">
            <desc shapeID="12" type="0" basicInfo-basicType="0" basicInfo-roundedRectRadius="12" basicInfo-polygonSides="6" basicInfo-starPoints="5" bounding="rect(-1.05274,-1.16039,2.10547,2.32078)" text="" font-familyName="" font-pixelSize="20" font-bold="0" font-underline="0" font-alignment="1" strokeStyle="0" markerStart="0" markerEnd="0" shadowEnabled="0" shadowOffsetX="0" shadowOffsetY="2" shadowBlur="4" shadowOpacity="160" blurEnabled="0" blurRadius="4" transform="matrix(0.964197,0,0,0.964197,45.4407,31.8622)" pers-center="0,0" pers-size="0,0" pers-start="0,0" pers-end="0,0" locked="0" mesh="" flag=""/>
            <path id="shapePath12" d="M44.4971,30.8174 C44.3405,30.964 44.4482,31.1304 44.7515,31.1891 C45.4365,31.3261 45.4267,31.3067 45.1233,31.7274 C44.7221,32.2851 44.5656,32.6862 44.7124,32.8329 C44.8494,32.9701 46.1899,33.0385 46.3757,32.921 C46.4736,32.8526 46.4834,32.784 46.3953,32.6178 C46.2974,32.4514 46.1899,32.4123 45.7397,32.4123 C45.2114,32.4123 45.2114,32.4123 45.3191,32.1873 C45.3875,32.0697 45.5636,31.8252 45.7104,31.6588 C45.8669,31.4827 45.9648,31.2773 45.9355,31.1989 C45.818,30.8956 44.7124,30.602 44.4971,30.8174 Z" style="stroke:none;fill-rule:evenodd;fill:#583735;fill-opacity:1;"/>
        </g>
        <g id="Shape13">
            <desc shapeID="13" type="0" basicInfo-basicType="0" basicInfo-roundedRectRadius="12" basicInfo-polygonSides="6" basicInfo-starPoints="5" bounding="rect(-1.12888,-1.28101,2.25776,2.56203)" text="" font-familyName="" font-pixelSize="20" font-bold="0" font-underline="0" font-alignment="1" strokeStyle="0" markerStart="0" markerEnd="0" shadowEnabled="0" shadowOffsetX="0" shadowOffsetY="2" shadowBlur="4" shadowOpacity="160" blurEnabled="0" blurRadius="4" transform="matrix(0.964197,0,0,0.964197,48.1979,32.0097)" pers-center="0,0" pers-size="0,0" pers-start="0,0" pers-end="0,0" locked="0" mesh="" flag=""/>
            <path id="shapePath13" d="M48.8904,30.9847 C48.7437,31.1316 48.5187,31.3174 48.3816,31.386 C48.1565,31.5131 48.1174,31.4935 47.7554,31.1413 C47.5108,30.8968 47.3249,30.789 47.2173,30.838 C47.0704,30.8869 47.0704,30.9262 47.2369,31.2 C47.3347,31.3663 47.5108,31.611 47.638,31.748 C47.7848,31.9044 47.8533,32.11 47.8533,32.3645 C47.8533,32.834 48.0293,33.2449 48.2251,33.2449 C48.3425,33.2449 48.3621,33.1374 48.3131,32.6187 L48.2544,31.9926 L48.6361,31.7381 C49.047,31.4642 49.3992,30.9358 49.2525,30.789 C49.2034,30.7401 49.047,30.8183 48.8904,30.9847 Z" style="stroke:none;fill-rule:evenodd;fill:#583735;fill-opacity:1;"/>
        </g>
        <g id="Shape14">
            <desc shapeID="14" type="0" basicInfo-basicType="0" basicInfo-roundedRectRadius="12" basicInfo-polygonSides="6" basicInfo-starPoints="5" bounding="rect(-0.812281,-1.24697,1.62457,2.49395)" text="" font-familyName="" font-pixelSize="20" font-bold="0" font-underline="0" font-alignment="1" strokeStyle="0" markerStart="0" markerEnd="0" shadowEnabled="0" shadowOffsetX="0" shadowOffsetY="2" shadowBlur="4" shadowOpacity="160" blurEnabled="0" blurRadius="4" transform="matrix(0.964197,0,0,0.964197,51.2135,31.9228)" pers-center="0,0" pers-size="0,0" pers-start="0,0" pers-end="0,0" locked="0" mesh="" flag=""/>
            <path id="shapePath14" d="M50.8029,30.8283 C50.6365,30.8968 50.529,31.0241 50.4898,31.2195 C50.392,31.699 50.4214,33.0298 50.529,33.0982 C50.7246,33.2158 50.9202,32.9319 50.9202,32.5503 C50.9202,32.2079 50.9497,32.1688 51.1747,32.1688 C51.4486,32.1688 51.9967,31.6893 51.9967,31.4545 C51.9967,31.1706 51.8694,30.9847 51.5954,30.8478 C51.2824,30.6814 51.1747,30.6814 50.8029,30.8283 M51.5172,31.2488 C51.6247,31.386 51.615,31.4349 51.4193,31.5914 C51.0377,31.9044 50.8225,31.7871 50.8225,31.2782 C50.8225,31.0434 51.3214,31.014 51.5172,31.2488 Z" style="stroke:none;fill-rule:evenodd;fill:#583735;fill-opacity:1;"/>
        </g>
        <g id="Shape15">
            <desc shapeID="15" type="0" basicInfo-basicType="0" basicInfo-roundedRectRadius="12" basicInfo-polygonSides="6" basicInfo-starPoints="5" bounding="rect(-1.06157,-1.14573,2.12314,2.29146)" text="" font-familyName="" font-pixelSize="20" font-bold="0" font-underline="0" font-alignment="1" strokeStyle="0" markerStart="0" markerEnd="0" shadowEnabled="0" shadowOffsetX="0" shadowOffsetY="2" shadowBlur="4" shadowOpacity="160" blurEnabled="0" blurRadius="4" transform="matrix(0.964197,0,0,0.964197,55.3596,31.8785)" pers-center="0,0" pers-size="0,0" pers-start="0,0" pers-end="0,0" locked="0" mesh="" flag=""/>
            <path id="shapePath15" d="M54.9302,30.9262 C54.3236,31.3076 54.1376,32.2373 54.5781,32.6482 C55.1161,33.147 56.0555,33.0787 56.3197,32.5111 C56.4958,32.1295 56.2806,31.9632 55.9771,32.247 C55.7229,32.4818 55.1455,32.5406 54.9499,32.3449 C54.7738,32.1688 54.8129,31.836 55.0476,31.5327 C55.2237,31.3076 55.3118,31.2782 55.625,31.3174 C55.8989,31.3566 56.0064,31.3273 56.0555,31.2195 C56.2022,30.8183 55.4194,30.6129 54.9302,30.9262 Z" style="stroke:none;fill-rule:evenodd;fill:#583735;fill-opacity:1;"/>
        </g>
        <g id="Shape16">
            <desc shapeID="16" type="0" basicInfo-basicType="0" basicInfo-roundedRectRadius="12" basicInfo-polygonSides="6" basicInfo-starPoints="5" bounding="rect(-0.243004,-1.11065,0.486003,2.2213)" text="" font-familyName="" font-pixelSize="20" font-bold="0" font-underline="0" font-alignment="1" strokeStyle="0" markerStart="0" markerEnd="0" shadowEnabled="0" shadowOffsetX="0" shadowOffsetY="2" shadowBlur="4" shadowOpacity="160" blurEnabled="0" blurRadius="4" transform="matrix(0.964197,0,0,0.964197,53.1213,32.068)" pers-center="0,0" pers-size="0,0" pers-start="0,0" pers-end="0,0" locked="0" mesh="" flag=""/>
            <path id="shapePath16" d="M52.9581,31.0924 C52.8701,31.2392 52.8603,32.658 52.9484,32.9222 C53.0462,33.2254 53.2714,33.2057 53.3301,32.8928 C53.3886,32.5797 53.3398,31.4642 53.2517,31.1903 C53.1832,30.9749 53.056,30.9358 52.9581,31.0924 Z" style="stroke:none;fill-rule:evenodd;fill:#583735;fill-opacity:1;"/>
        </g>
        <g id="Shape17">
            <desc shapeID="17" type="0" basicInfo-basicType="0" basicInfo-roundedRectRadius="12" basicInfo-polygonSides="6" basicInfo-starPoints="5" bounding="rect(-14.0105,-11.6164,28.021,23.2328)" text="" font-familyName="" font-pixelSize="20" font-bold="0" font-underline="0" font-alignment="1" strokeStyle="0" markerStart="0" markerEnd="0" shadowEnabled="0" shadowOffsetX="0" shadowOffsetY="2" shadowBlur="4" shadowOpacity="160" blurEnabled="0" blurRadius="4" transform="matrix(0.964197,0,0,0.964197,47,18.4521)" pers-center="0,0" pers-size="0,0" pers-start="0,0" pers-end="0,0" locked="0" mesh="" flag=""/>
            <path id="shapePath17" d="M40.3867,7.34762 C40.2167,7.96052 40.1195,8.42292 39.9136,9.10917 C39.7874,9.52959 39.8059,9.72783 39.8868,9.80583 C40.0589,9.96174 40.2322,9.66014 40.4653,8.83032 C40.5672,8.43057 40.6792,8.04061 40.7076,7.96052 C40.7453,7.8504 40.8256,7.88864 41.0288,8.1235 C41.1812,8.28979 41.5368,8.69085 41.8114,9.01386 C41.8114,9.01386 42.1249,9.44532 42.3702,9.51956 C42.7418,9.63208 43.4817,9.51956 43.4817,9.51956 C44.495,9.46084 45.3811,9.51388 46.4588,9.70247 C46.7182,9.74731 46.7184,9.75724 46.6371,10.1964 C46.5921,10.4458 46.5772,10.7147 46.6087,10.8035 C46.7233,11.0798 46.9556,10.7374 46.9762,10.2497 C46.9986,9.85144 47.018,9.83119 47.2378,9.8768 C47.3676,9.90418 47.5973,9.95953 47.7569,9.98633 C48.0862,10.0399 48.0967,10.0695 47.9041,10.4113 C47.7214,10.7429 47.7221,11.3098 47.911,11.3062 C48.08,11.3031 48.1274,11.173 48.2054,10.5648 C48.2405,10.3155 48.2864,10.1058 48.3161,10.1052 C48.336,10.1048 48.5557,10.1504 48.8053,10.2054 C49.2848,10.3158 49.2953,10.3454 49.16,11.0839 C49.1158,11.3731 49.1193,11.572 49.1801,11.6305 C49.3523,11.7963 49.5632,11.3748 49.5545,10.9075 C49.5501,10.6688 49.5862,10.4792 49.6359,10.4783 C49.7254,10.4765 50.2768,10.7149 52.0219,11.4977 C52.3127,11.6215 52.6852,11.8631 52.8574,12.029 C53.131,12.2924 53.2207,12.3105 53.6378,12.2729 C53.8958,12.2383 54.4904,12.1277 54.9656,12.0193 C55.4408,11.9009 55.8472,11.8337 55.8778,11.8629 C55.9081,11.8922 55.8852,12.2606 55.8134,12.6796 C55.7519,13.1084 55.7622,13.2456 55.8362,13.5229 C55.9183,13.8301 56.2239,14.0383 56.4625,14.2815 C57.2793,15.4099 58.0193,17.7432 58.0125,18.9766 C58.013,19.5236 57.8326,20.9892 57.6847,21.5886 C57.3151,23.0973 55.6636,24.908 53.8194,25.7382 C52.705,26.2464 52.008,26.466 50.7453,26.4896 C50.0892,26.502 49.3852,26.4768 49.2456,26.4595 C49.1059,26.4324 48.4587,26.4019 47.8313,26.354 C46.6858,26.2562 45.8849,26.0421 44.1743,25.5074 C43.6839,25.3474 42.6209,25.0781 41.9016,24.9026 C41.192,24.7169 40.4626,24.5035 40.2719,24.4074 C40.0811,24.3117 39.3371,23.9042 38.6747,23.5786 C37.3798,22.9464 36.9196,22.5272 35.4159,20.8249 C34.603,19.9053 34.0196,18.4181 33.9432,17.5245 C33.8212,16.3234 34.2102,14.6446 34.9999,13.2672 C35.6449,12.1313 36.3386,11.4864 38.1467,10.3188 C38.2939,10.2166 38.7295,10.086 38.9772,10.0417 C39.5029,9.96223 39.6285,9.82059 39.1992,9.72918 C38.7799,9.64761 38.2463,9.82666 37.4599,10.3188 C35.6021,11.4775 34.5234,12.8304 33.8068,14.9223 C33.5238,15.7432 33.4404,15.8952 33.5194,17.0958 C33.5737,17.9208 33.7246,18.4104 33.8578,18.8018 C34.3497,20.2461 34.8022,20.8012 35.2791,21.3095 L35.8171,21.8862 L35.6864,22.3461 C35.3324,23.6157 35.7726,24.8207 37.1006,26.1585 C38.4084,27.4865 38.8712,27.7661 42.5026,29.4286 C43.0542,29.6768 43.164,29.6946 43.5102,29.5986 C44.1433,29.4176 44.3859,29.0949 44.3159,28.5393 C44.304,28.44 44.3903,28.2692 44.5076,28.1577 C44.6443,28.0259 44.701,27.8656 44.6684,27.717 C44.6357,27.5686 44.7025,27.418 44.8492,27.286 C44.9763,27.1643 45.083,27.0232 45.0818,26.9635 C45.0776,26.7347 44.721,26.2841 44.4506,26.1796 C44.0298,26.0184 43.9927,26.1585 44.357,26.4896 C44.5389,26.6454 44.6812,26.8119 44.682,26.8517 C44.6848,27.0007 44.4596,27.1839 44.2805,27.1872 C43.9922,27.1927 43.9565,27.4122 44.2086,27.5964 C44.4706,27.7804 44.4708,27.7905 44.0863,27.9668 C43.8102,28.0913 43.725,28.3216 43.9161,28.4373 C44.0872,28.5436 44.0335,28.8628 43.8078,29.0261 C43.5823,29.1994 42.9766,29.2505 42.7654,29.1254 C42.675,29.0772 42.7219,28.9272 42.9148,28.6053 C43.0592,28.3539 43.2318,28.0127 43.2885,27.8523 C43.3449,27.6822 43.4959,27.2418 43.6378,26.8513 C43.7753,26.4727 43.8524,26.1014 43.8313,26.0322 C43.7586,25.8745 44.1077,25.9276 44.7889,26.1932 C45.0493,26.2877 45.3194,26.3721 45.399,26.3707 C45.4785,26.3693 45.8083,26.4526 46.1381,26.5458 C46.8082,26.7421 48.5019,26.8992 50.5513,26.9404 C51.7453,26.9677 51.9737,26.9437 52.636,26.7321 C53.5753,26.4363 54.6502,25.9585 54.9735,25.6939 C55.2773,25.4494 55.615,25.4332 56.2053,25.6212 C56.4457,25.7061 56.8453,25.808 57.0951,25.8629 C57.3445,25.9081 57.8442,26.0379 58.224,26.1401 L58.8941,26.3363 L58.9022,26.7639 C58.9109,27.241 58.7781,28.1089 58.6268,28.5195 L58.5321,28.7798 L58.0125,28.6504 C57.7227,28.5762 57.0041,28.4406 56.3957,28.3525 C55.7973,28.2542 55.099,28.138 54.8493,28.0832 C53.9905,27.9003 53.6519,27.8768 53.6541,27.9961 C53.6573,28.1652 54.2176,28.3437 55.5155,28.6076 C57.8914,29.0801 58.181,29.1543 58.3434,29.3205 C58.4752,29.4572 58.6547,29.4836 59.1119,29.4651 C59.6086,29.4359 59.7767,29.3831 60.0804,29.1385 C60.4136,28.8738 60.4521,28.8134 60.3967,28.5061 C60.3532,28.308 60.3786,28.0789 60.4462,27.9682 C60.5428,27.8072 60.5311,27.718 60.3876,27.4819 C60.2436,27.2361 60.2425,27.1765 60.36,27.0748 C60.7025,26.7799 60.264,26.2012 59.6668,26.1728 C59.4678,26.1665 59.2378,26.1011 59.1568,26.0232 C58.9854,25.897 58.9253,25.8783 57.4871,25.5572 C57.0175,25.4467 56.4483,25.318 56.2085,25.253 L55.7789,25.1518 L56.4625,24.4824 C57.8488,23.1038 58.3703,21.7415 58.4342,19.3137 C58.4555,18.3288 58.4192,17.9814 58.2478,17.3281 C57.8096,15.7152 57.3132,14.6903 56.3139,13.3764 C56.2527,13.298 56.2562,12.9597 56.326,12.4313 C56.4552,11.3748 56.404,11.2961 55.5809,11.411 C55.2533,11.4469 54.6789,11.5772 54.3031,11.6935 L53.6311,11.915 L53.357,11.6218 C53.0728,11.3189 52.3182,10.8556 51.7374,10.6377 C51.5473,10.5717 51.0859,10.3714 50.7147,10.1994 C49.6012,9.69322 48.8016,9.47945 46.6867,9.13129 C45.4995,8.93475 43.699,8.90885 42.8565,9.06394 C42.5197,9.12989 42.4693,9.10103 42.1946,8.76798 C41.7366,8.20977 41.2426,7.72762 40.7076,7.29022 C40.6244,7.22221 40.4311,7.24565 40.3867,7.34762 M38.3318,23.9275 C38.9034,24.1753 39.536,24.5017 39.7471,24.6269 C40.0993,24.8391 41.89,25.4023 43.1887,25.716 L43.6484,25.8267 L43.5368,26.2465 C43.3967,26.7265 42.9697,27.8186 42.7396,28.2803 C42.5387,28.7019 42.4788,28.693 40.4417,27.7268 C39.057,27.0664 38.6445,26.8157 37.8262,26.1348 C36.2908,24.8708 35.7347,23.8567 35.8905,22.6207 L35.9518,22.1719 L36.6302,22.8156 C37.1667,23.3227 37.5292,23.5546 38.3318,23.9275 M60.0628,26.6128 C60.1738,26.7002 60.1651,26.7601 59.9897,26.9523 C59.7852,27.1849 59.787,27.2844 60.0317,27.608 C60.1338,27.7454 59.9164,27.8416 59.9095,27.9682 C59.9019,28.1065 59.9337,28.2489 59.9897,28.3756 C60.0271,28.4605 60.1009,28.5351 60.0804,28.6258 C60.0518,28.7519 59.8857,28.834 59.8857,28.834 C59.5821,29.0882 59.2951,29.1534 59.0638,29.0184 C58.9629,28.9507 58.9712,28.8612 59.0852,28.5706 C59.161,28.3703 59.2495,27.7916 59.28,27.2939 L59.3227,26.3879 L59.6219,26.4421 C59.7916,26.4688 59.982,26.5448 60.0628,26.6128 Z" style="stroke:none;fill-rule:evenodd;fill:#583735;fill-opacity:1;"/>
        </g>
        <g id="Shape18">
            <desc shapeID="18" type="0" basicInfo-basicType="0" basicInfo-roundedRectRadius="12" basicInfo-polygonSides="6" basicInfo-starPoints="5" bounding="rect(-0.614034,-0.174597,1.22807,0.349195)" text="" font-familyName="" font-pixelSize="20" font-bold="0" font-underline="0" font-alignment="1" strokeStyle="0" markerStart="0" markerEnd="0" shadowEnabled="0" shadowOffsetX="0" shadowOffsetY="2" shadowBlur="4" shadowOpacity="160" blurEnabled="0" blurRadius="4" transform="matrix(0.964197,0,0,0.964197,36.3947,14.2389)" pers-center="0,0" pers-size="0,0" pers-start="0,0" pers-end="0,0" locked="0" mesh="" flag=""/>
            <path id="shapePath18" d="M36.2978,14.1098 C35.5935,14.2027 35.6572,14.4202 36.383,14.4066 C36.8302,14.3983 36.9887,14.3555 36.9867,14.2561 C36.9833,14.0672 36.8135,14.0306 36.2978,14.1098 Z" style="stroke:none;fill-rule:evenodd;fill:#583735;fill-opacity:1;"/>
        </g>
        <g id="Shape19">
            <desc shapeID="19" type="0" basicInfo-basicType="0" basicInfo-roundedRectRadius="12" basicInfo-polygonSides="6" basicInfo-starPoints="5" bounding="rect(-0.658938,-0.281274,1.31788,0.562549)" text="" font-familyName="" font-pixelSize="20" font-bold="0" font-underline="0" font-alignment="1" strokeStyle="0" markerStart="0" markerEnd="0" shadowEnabled="0" shadowOffsetX="0" shadowOffsetY="2" shadowBlur="4" shadowOpacity="160" blurEnabled="0" blurRadius="4" transform="matrix(0.964197,0,0,0.964197,44.6968,15.1895)" pers-center="0,0" pers-size="0,0" pers-start="0,0" pers-end="0,0" locked="0" mesh="" flag=""/>
            <path id="shapePath19" d="M44.1203,14.9377 C43.9641,15.0898 44.116,15.1734 44.6061,15.3235 C45.1265,15.4927 45.4342,15.5198 45.3012,15.3235 C45.1985,15.1563 44.2179,14.8365 44.1203,14.9377 Z" style="stroke:none;fill-rule:evenodd;fill:#583735;fill-opacity:1;"/>
        </g>
        <g id="Shape20">
            <desc shapeID="20" type="0" basicInfo-basicType="0" basicInfo-roundedRectRadius="12" basicInfo-polygonSides="6" basicInfo-starPoints="5" bounding="rect(-0.730734,-0.227973,1.46147,0.455946)" text="" font-familyName="" font-pixelSize="20" font-bold="0" font-underline="0" font-alignment="1" strokeStyle="0" markerStart="0" markerEnd="0" shadowEnabled="0" shadowOffsetX="0" shadowOffsetY="2" shadowBlur="4" shadowOpacity="160" blurEnabled="0" blurRadius="4" transform="matrix(0.964197,0,0,0.964197,36.1204,15.4229)" pers-center="0,0" pers-size="0,0" pers-start="0,0" pers-end="0,0" locked="0" mesh="" flag=""/>
            <path id="shapePath20" d="M35.4462,15.369 C35.3706,15.5793 35.3807,15.589 36.1474,15.6343 C36.8244,15.6713 36.972,15.589 36.6884,15.3158 C36.5061,15.1403 35.5222,15.1786 35.4462,15.369 Z" style="stroke:none;fill-rule:evenodd;fill:#583735;fill-opacity:1;"/>
        </g>
        <g id="Shape21">
            <desc shapeID="21" type="0" basicInfo-basicType="0" basicInfo-roundedRectRadius="12" basicInfo-polygonSides="6" basicInfo-starPoints="5" bounding="rect(-2.43656,-2.71159,4.87312,5.42319)" text="" font-familyName="" font-pixelSize="20" font-bold="0" font-underline="0" font-alignment="1" strokeStyle="0" markerStart="0" markerEnd="0" shadowEnabled="0" shadowOffsetX="0" shadowOffsetY="2" shadowBlur="4" shadowOpacity="160" blurEnabled="0" blurRadius="4" transform="matrix(0.964197,0,0,0.964197,46.0793,18.4337)" pers-center="0,0" pers-size="0,0" pers-start="0,0" pers-end="0,0" locked="0" mesh="" flag=""/>
            <path id="shapePath21" d="M46.069,15.9653 C46.0705,16.0449 46.1116,16.1138 46.1613,16.1127 C46.2507,16.1111 46.2137,16.7881 46.1264,16.8991 C46.1069,16.9194 45.9671,16.8922 45.8168,16.8353 C45.6665,16.7784 45.3671,16.7145 45.1675,16.6784 C44.8385,16.6349 44.7495,16.6664 44.3977,17.0012 C43.8506,17.5186 43.7171,17.8294 43.7309,18.5651 C43.7423,19.1716 43.7631,19.2209 44.1274,19.5522 C44.6437,20.0398 44.9237,20.124 45.8371,20.0373 C46.8099,19.9394 47.0868,20.2424 47.4753,20.8019 C47.6287,21.0277 48.0341,21.0503 48.1534,21.0481 C48.5412,21.0408 48.5357,20.7334 48.0311,19.808 C47.6088,19.0302 47.5111,18.8465 47.4908,18.29 C47.4807,17.7531 47.4326,17.6106 47.23,17.4155 C47.0984,17.2887 46.8573,17.1639 46.6776,17.1275 C46.4282,17.0824 46.3774,17.0336 46.424,16.8638 C46.4517,16.7438 46.4779,16.5543 46.4758,16.445 C46.4727,16.276 46.5218,16.2452 46.7214,16.2813 C47.0605,16.3346 47.0548,16.0264 46.7044,15.9037 C46.3339,15.7714 46.0659,15.7963 46.069,15.9653 M46.3431,17.3227 C46.7836,17.4736 47.154,17.6058 47.1643,17.6256 C47.1846,17.645 47.2299,17.9426 47.2662,18.29 C47.3277,18.9154 47.4546,19.3771 47.6482,19.6221 C47.7092,19.6907 47.8406,20.0032 47.9993,20.2553 C48.3433,20.8019 47.9609,21.1114 47.6131,20.5908 C47.5003,20.4139 47.3278,19.9796 47.0469,19.8455 C46.615,19.6249 46.4154,19.5889 45.7295,19.6018 C45.0733,19.6141 44.8538,19.5784 44.5724,19.4145 C43.8582,18.9904 43.8293,17.9765 44.4912,17.2083 C44.7152,16.9555 44.7843,16.9342 45.1434,16.9872 C45.3627,17.0129 45.9028,17.1719 46.3431,17.3227 Z" style="stroke:none;fill-rule:evenodd;fill:#583735;fill-opacity:1;"/>
        </g>
        <g id="Shape22">
            <desc shapeID="22" type="0" basicInfo-basicType="0" basicInfo-roundedRectRadius="12" basicInfo-polygonSides="6" basicInfo-starPoints="5" bounding="rect(-0.702513,-0.224237,1.40503,0.448474)" text="" font-familyName="" font-pixelSize="20" font-bold="0" font-underline="0" font-alignment="1" strokeStyle="0" markerStart="0" markerEnd="0" shadowEnabled="0" shadowOffsetX="0" shadowOffsetY="2" shadowBlur="4" shadowOpacity="160" blurEnabled="0" blurRadius="4" transform="matrix(0.964197,0,0,0.964197,35.9567,16.569)" pers-center="0,0" pers-size="0,0" pers-start="0,0" pers-end="0,0" locked="0" mesh="" flag=""/>
            <path id="shapePath22" d="M35.4459,16.4133 C35.1008,16.5689 35.2921,16.6945 36.0194,16.7605 C36.5474,16.8102 36.6364,16.7887 36.634,16.6594 C36.6323,16.57 36.5908,16.4813 36.5506,16.4521 C36.3594,16.3364 35.6729,16.3195 35.4459,16.4133 Z" style="stroke:none;fill-rule:evenodd;fill:#583735;fill-opacity:1;"/>
        </g>
        <g id="Shape23">
            <desc shapeID="23" type="0" basicInfo-basicType="0" basicInfo-roundedRectRadius="12" basicInfo-polygonSides="6" basicInfo-starPoints="5" bounding="rect(-0.747924,-0.317655,1.49585,0.635311)" text="" font-familyName="" font-pixelSize="20" font-bold="0" font-underline="0" font-alignment="1" strokeStyle="0" markerStart="0" markerEnd="0" shadowEnabled="0" shadowOffsetX="0" shadowOffsetY="2" shadowBlur="4" shadowOpacity="160" blurEnabled="0" blurRadius="4" transform="matrix(0.964197,0,0,0.964197,48.6183,16.5509)" pers-center="0,0" pers-size="0,0" pers-start="0,0" pers-end="0,0" locked="0" mesh="" flag=""/>
            <path id="shapePath23" d="M48.0337,16.2567 C47.7366,16.322 47.9375,16.4299 48.5082,16.6281 C49.1886,16.8539 49.2896,16.9293 49.3364,16.7793 C49.402,16.5692 48.4001,16.1703 48.0337,16.2567 Z" style="stroke:none;fill-rule:evenodd;fill:#583735;fill-opacity:1;"/>
        </g>
        <g id="Shape24">
            <desc shapeID="24" type="0" basicInfo-basicType="0" basicInfo-roundedRectRadius="12" basicInfo-polygonSides="6" basicInfo-starPoints="5" bounding="rect(-0.693419,-0.265081,1.38683,0.530163)" text="" font-familyName="" font-pixelSize="20" font-bold="0" font-underline="0" font-alignment="1" strokeStyle="0" markerStart="0" markerEnd="0" shadowEnabled="0" shadowOffsetX="0" shadowOffsetY="2" shadowBlur="4" shadowOpacity="160" blurEnabled="0" blurRadius="4" transform="matrix(0.964197,0,0,0.964197,56.5705,20.1469)" pers-center="0,0" pers-size="0,0" pers-start="0,0" pers-end="0,0" locked="0" mesh="" flag=""/>
            <path id="shapePath24" d="M55.9412,20.0169 C55.8445,20.1679 55.8947,20.1968 56.4536,20.2956 C57.2022,20.4408 57.2419,20.4401 57.2389,20.281 C57.2332,19.9728 56.1049,19.7353 55.9412,20.0169 Z" style="stroke:none;fill-rule:evenodd;fill:#583735;fill-opacity:1;"/>
        </g>
        <g id="Shape25">
            <desc shapeID="25" type="0" basicInfo-basicType="0" basicInfo-roundedRectRadius="12" basicInfo-polygonSides="6" basicInfo-starPoints="5" bounding="rect(-0.54918,-0.330231,1.09836,0.660462)" text="" font-familyName="" font-pixelSize="20" font-bold="0" font-underline="0" font-alignment="1" strokeStyle="0" markerStart="0" markerEnd="0" shadowEnabled="0" shadowOffsetX="0" shadowOffsetY="2" shadowBlur="4" shadowOpacity="160" blurEnabled="0" blurRadius="4" transform="matrix(0.964197,0,0,0.964197,56.4809,21.1204)" pers-center="0,0" pers-size="0,0" pers-start="0,0" pers-end="0,0" locked="0" mesh="" flag=""/>
            <path id="shapePath25" d="M55.9674,20.8916 C55.8997,20.9924 56.0413,21.109 56.4928,21.3292 C57.055,21.6071 57.2184,21.3057 56.6853,20.9875 C56.3335,20.7852 56.0541,20.7408 55.9674,20.8916 Z" style="stroke:none;fill-rule:evenodd;fill:#583735;fill-opacity:1;"/>
        </g>
        <g id="Shape26">
            <desc shapeID="26" type="0" basicInfo-basicType="0" basicInfo-roundedRectRadius="12" basicInfo-polygonSides="6" basicInfo-starPoints="5" bounding="rect(-0.658099,-0.449964,1.3162,0.899927)" text="" font-familyName="" font-pixelSize="20" font-bold="0" font-underline="0" font-alignment="1" strokeStyle="0" markerStart="0" markerEnd="0" shadowEnabled="0" shadowOffsetX="0" shadowOffsetY="2" shadowBlur="4" shadowOpacity="160" blurEnabled="0" blurRadius="4" transform="matrix(0.964197,0,0,0.964197,55.9652,22.2499)" pers-center="0,0" pers-size="0,0" pers-start="0,0" pers-end="0,0" locked="0" mesh="" flag=""/>
            <path id="shapePath26" d="M55.3308,21.9377 C55.3336,22.087 56.1802,22.6877 56.389,22.6837 C56.8165,22.6757 56.5608,22.3026 55.9186,21.9965 C55.4669,21.7761 55.3273,21.7589 55.3308,21.9377 Z" style="stroke:none;fill-rule:evenodd;fill:#583735;fill-opacity:1;"/>
        </g>
        <g id="Shape27">
            <desc shapeID="27" type="0" basicInfo-basicType="0" basicInfo-roundedRectRadius="12" basicInfo-polygonSides="6" basicInfo-starPoints="5" bounding="rect(-1.1347,-0.763517,2.26939,1.52703)" text="" font-familyName="" font-pixelSize="20" font-bold="0" font-underline="0" font-alignment="1" strokeStyle="0" markerStart="0" markerEnd="0" shadowEnabled="0" shadowOffsetX="0" shadowOffsetY="2" shadowBlur="4" shadowOpacity="160" blurEnabled="0" blurRadius="4" transform="matrix(0.964197,0,0,0.964197,42.6359,16.1405)" pers-center="0,0" pers-size="0,0" pers-start="0,0" pers-end="0,0" locked="0" mesh="" flag=""/>
            <path id="shapePath27" d="M41.7509,15.6119 C41.3137,15.9413 41.5827,16.4255 42.368,16.7166 C43.0143,16.9339 43.0754,16.9327 43.438,16.6966 C43.755,16.4765 43.7992,16.384 43.6414,16.127 C43.4828,15.8242 42.6338,15.3966 42.2211,15.4044 C42.114,15.4064 41.9017,15.5021 41.7509,15.6119 Z" style="stroke:none;fill-rule:evenodd;fill:#fc8e76;fill-opacity:0.67451;"/>
        </g>
        <g id="Shape28">
            <desc shapeID="28" type="0" basicInfo-basicType="0" basicInfo-roundedRectRadius="12" basicInfo-polygonSides="6" basicInfo-starPoints="5" bounding="rect(-1.08135,-0.715894,2.1627,1.43179)" text="" font-familyName="" font-pixelSize="20" font-bold="0" font-underline="0" font-alignment="1" strokeStyle="0" markerStart="0" markerEnd="0" shadowEnabled="0" shadowOffsetX="0" shadowOffsetY="2" shadowBlur="4" shadowOpacity="160" blurEnabled="0" blurRadius="4" transform="matrix(0.964197,0,0,0.964197,50.0972,18.2978)" pers-center="0,0" pers-size="0,0" pers-start="0,0" pers-end="0,0" locked="0" mesh="" flag=""/>
            <path id="shapePath28" d="M49.1592,17.742 C49.0951,17.7919 49.0508,18.02 49.0548,18.2311 C49.0687,18.9777 50.8772,19.301 51.1237,18.5982 C51.3247,18.0586 49.5893,17.2955 49.1592,17.742 Z" style="stroke:none;fill-rule:evenodd;fill:#fc8e76;fill-opacity:0.643137;"/>
        </g>
        <g id="Shape29">
            <desc shapeID="29" type="0" basicInfo-basicType="0" basicInfo-roundedRectRadius="12" basicInfo-polygonSides="6" basicInfo-starPoints="5" bounding="rect(-38.8323,-5.40088,77.6646,10.8017)" text="We create contents and contents pipeline with opensource.&#10;https://lazypic.org" font-familyName="Helvetica" font-pixelSize="3" font-bold="0" font-underline="0" font-alignment="1" strokeStyle="0" markerStart="0" markerEnd="0" shadowEnabled="0" shadowOffsetX="0" shadowOffsetY="2" shadowBlur="4" shadowOpacity="160" blurEnabled="0" blurRadius="4" transform="matrix(0.892034,0,0,0.892034,47.8971,40.9306)" pers-center="0,0" pers-size="0,0" pers-start="0,0" pers-end="0,0" locked="0" mesh="" flag=""/>
            <path id="shapePath29" d="M13.5397,36.1194 L13.9016,37.6809 L14.3354,36.1194 L14.6177,36.1194 L15.0514,37.6809 L15.4134,36.1194 L15.6983,36.1194 L15.194,38.0389 L14.9208,38.0389 L14.4778,36.4474 L14.0323,38.0389 L13.7592,38.0389 L13.2575,36.1194 L13.5397,36.1194 M16.4314,36.6081 C16.5307,36.6081 16.6269,36.6314 16.7202,36.678 C16.8133,36.7246 16.8844,36.785 16.9331,36.859 C16.9801,36.9295 17.0115,37.0119 17.0272,37.106 C17.0412,37.1704 17.0482,37.2733 17.0482,37.4144 L16.0224,37.4144 C16.0267,37.5563 16.0603,37.6702 16.123,37.756 C16.1857,37.8418 16.2828,37.8848 16.4143,37.8848 C16.5372,37.8848 16.6352,37.8442 16.7084,37.7632 C16.7502,37.7162 16.7798,37.6617 16.7972,37.5999 L17.0285,37.5999 C17.0224,37.6513 17.0022,37.7085 16.9677,37.7717 C16.9333,37.8348 16.8948,37.8864 16.8521,37.9266 C16.7806,37.9963 16.6923,38.0433 16.5869,38.0677 C16.5302,38.0816 16.4662,38.0886 16.3947,38.0886 C16.2206,38.0886 16.0729,38.0252 15.9518,37.8985 C15.8307,37.7717 15.7701,37.5943 15.7701,37.3659 C15.7701,37.1412 15.8312,36.9587 15.9531,36.8185 C16.075,36.6782 16.2345,36.6081 16.4314,36.6081 M16.8064,37.2275 C16.7968,37.1256 16.7746,37.0441 16.7398,36.9831 C16.6752,36.8699 16.5677,36.8132 16.417,36.8132 C16.3089,36.8132 16.2184,36.8522 16.1452,36.9302 C16.072,37.0082 16.0332,37.1073 16.0289,37.2275 L16.8064,37.2275 M18.6044,36.5989 C18.7621,36.5989 18.8903,36.6373 18.9892,36.7139 C19.0881,36.7906 19.1475,36.9226 19.1676,37.1098 L18.9389,37.1098 C18.9249,37.0236 18.8931,36.952 18.8435,36.8949 C18.7938,36.8379 18.7141,36.8094 18.6044,36.8094 C18.4545,36.8094 18.3474,36.8825 18.2829,37.0288 C18.2411,37.1238 18.2202,37.2409 18.2202,37.3804 C18.2202,37.5206 18.2499,37.6386 18.309,37.7345 C18.3683,37.8303 18.4615,37.8782 18.5887,37.8782 C18.6863,37.8782 18.7636,37.8484 18.8207,37.7887 C18.8777,37.7291 18.9171,37.6474 18.9389,37.5437 L19.1676,37.5437 C19.1414,37.7292 19.0761,37.8649 18.9716,37.9507 C18.867,38.0365 18.7333,38.0795 18.5704,38.0795 C18.3875,38.0795 18.2416,38.0126 18.1327,37.8788 C18.0238,37.7452 17.9694,37.5781 17.9694,37.3777 C17.9694,37.1321 18.029,36.9408 18.1483,36.8041 C18.2677,36.6673 18.4197,36.5989 18.6044,36.5989 M19.4093,36.6394 L19.6327,36.6394 L19.6327,36.8812 C19.6511,36.8341 19.6959,36.7769 19.7673,36.7094 C19.8388,36.6419 19.9211,36.6081 20.0143,36.6081 C20.0186,36.6081 20.0261,36.6085 20.0365,36.6094 C20.047,36.6103 20.0648,36.612 20.0901,36.6147 L20.0901,36.8629 C20.0762,36.8603 20.0633,36.8585 20.0515,36.8577 C20.0398,36.8568 20.0269,36.8564 20.013,36.8564 C19.8945,36.8564 19.8035,36.8945 19.7399,36.9707 C19.6763,37.0469 19.6445,37.1347 19.6445,37.234 L19.6445,38.0389 L19.4093,38.0389 L19.4093,36.6394 M20.8636,36.6081 C20.9629,36.6081 21.0592,36.6314 21.1524,36.678 C21.2457,36.7246 21.3166,36.785 21.3654,36.859 C21.4125,36.9295 21.4439,37.0119 21.4595,37.106 C21.4734,37.1704 21.4804,37.2733 21.4804,37.4144 L20.4546,37.4144 C20.459,37.5563 20.4925,37.6702 20.5552,37.756 C20.618,37.8418 20.7151,37.8848 20.8467,37.8848 C20.9695,37.8848 21.0675,37.8442 21.1406,37.7632 C21.1825,37.7162 21.2121,37.6617 21.2295,37.5999 L21.4608,37.5999 C21.4547,37.6513 21.4344,37.7085 21.4001,37.7717 C21.3657,37.8348 21.3271,37.8864 21.2844,37.9266 C21.213,37.9963 21.1245,38.0433 21.0191,38.0677 C20.9625,38.0816 20.8985,38.0886 20.8271,38.0886 C20.6528,38.0886 20.5052,38.0252 20.3841,37.8985 C20.263,37.7717 20.2025,37.5943 20.2025,37.3659 C20.2025,37.1412 20.2634,36.9587 20.3854,36.8185 C20.5074,36.6782 20.6668,36.6081 20.8636,36.6081 M21.2387,37.2275 C21.2291,37.1256 21.2069,37.0441 21.172,36.9831 C21.1076,36.8699 21,36.8132 20.8493,36.8132 C20.7413,36.8132 20.6507,36.8522 20.5775,36.9302 C20.5043,37.0082 20.4656,37.1073 20.4611,37.2275 L21.2387,37.2275 M21.9387,37.6665 C21.9387,37.7345 21.9634,37.788 22.0131,37.8272 C22.0628,37.8665 22.1216,37.8861 22.1895,37.8861 C22.2723,37.8861 22.3524,37.8669 22.43,37.8285 C22.5606,37.7649 22.626,37.6609 22.626,37.5163 L22.626,37.3268 C22.5972,37.3451 22.5601,37.3603 22.5148,37.3725 C22.4695,37.3847 22.4252,37.3934 22.3815,37.3986 L22.2391,37.417 C22.1538,37.4283 22.0897,37.4461 22.0471,37.4705 C21.9747,37.5115 21.9387,37.5768 21.9387,37.6665 M22.5083,37.1909 C22.5623,37.184 22.5985,37.1613 22.6167,37.1229 C22.6272,37.102 22.6325,37.072 22.6325,37.0328 C22.6325,36.9526 22.6039,36.8945 22.5469,36.8583 C22.4899,36.8222 22.4081,36.8041 22.3019,36.8041 C22.179,36.8041 22.0919,36.8372 22.0406,36.9035 C22.0117,36.94 21.9931,36.9944 21.9843,37.0668 L21.7649,37.0668 C21.7692,36.8943 21.8251,36.7743 21.9327,36.7068 C22.0403,36.6392 22.1651,36.6055 22.3071,36.6055 C22.4718,36.6055 22.6054,36.6369 22.7083,36.6996 C22.8102,36.7623 22.8612,36.8598 22.8612,36.9923 L22.8612,37.7985 C22.8612,37.8229 22.8662,37.8425 22.8762,37.8573 C22.8861,37.8721 22.9073,37.8795 22.9395,37.8795 C22.95,37.8795 22.9618,37.8788 22.9749,37.8776 C22.9879,37.8763 23.0018,37.8743 23.0166,37.8717 L23.0166,38.0454 C22.9801,38.0559 22.9522,38.0625 22.933,38.065 C22.9138,38.0677 22.8877,38.069 22.8546,38.069 C22.7736,38.069 22.7148,38.0403 22.6782,37.9827 C22.659,37.9523 22.6456,37.9091 22.6377,37.8534 C22.5898,37.9161 22.521,37.9706 22.4313,38.0167 C22.3415,38.0629 22.2426,38.086 22.1347,38.086 C22.0048,38.086 21.8988,38.0466 21.8165,37.9677 C21.7342,37.8889 21.693,37.7902 21.693,37.6718 C21.693,37.542 21.7335,37.4413 21.8145,37.3699 C21.8955,37.2985 22.0018,37.2545 22.1334,37.2379 L22.5083,37.1909 M23.2828,36.2488 L23.5206,36.2488 L23.5206,36.6394 L23.744,36.6394 L23.744,36.8316 L23.5206,36.8316 L23.5206,37.7449 C23.5206,37.7937 23.5371,37.8264 23.5703,37.8429 C23.5885,37.8525 23.6191,37.8573 23.6617,37.8573 C23.673,37.8573 23.6853,37.8571 23.6983,37.8567 C23.7114,37.8562 23.7266,37.8551 23.744,37.8534 L23.744,38.0389 C23.717,38.0468 23.6889,38.0524 23.6597,38.0559 C23.6305,38.0594 23.599,38.0612 23.565,38.0612 C23.4553,38.0612 23.3807,38.033 23.3416,37.9769 C23.3024,37.9206 23.2828,37.8477 23.2828,37.758 L23.2828,36.8316 L23.0933,36.8316 L23.0933,36.6394 L23.2828,36.6394 L23.2828,36.2488 M24.5572,36.6081 C24.6565,36.6081 24.7528,36.6314 24.846,36.678 C24.9392,36.7246 25.0102,36.785 25.059,36.859 C25.1061,36.9295 25.1374,37.0119 25.1531,37.106 C25.167,37.1704 25.174,37.2733 25.174,37.4144 L24.1482,37.4144 C24.1526,37.5563 24.1861,37.6702 24.2488,37.756 C24.3116,37.8418 24.4087,37.8848 24.5403,37.8848 C24.6631,37.8848 24.7611,37.8442 24.8342,37.7632 C24.8761,37.7162 24.9056,37.6617 24.9231,37.5999 L25.1544,37.5999 C25.1483,37.6513 25.128,37.7085 25.0936,37.7717 C25.0592,37.8348 25.0206,37.8864 24.978,37.9266 C24.9066,37.9963 24.8181,38.0433 24.7127,38.0677 C24.6561,38.0816 24.5921,38.0886 24.5207,38.0886 C24.3464,38.0886 24.1987,38.0252 24.0777,37.8985 C23.9565,37.7717 23.8961,37.5943 23.8961,37.3659 C23.8961,37.1412 23.957,36.9587 24.079,36.8185 C24.201,36.6782 24.3604,36.6081 24.5572,36.6081 M24.9322,37.2275 C24.9227,37.1256 24.9005,37.0441 24.8656,36.9831 C24.8012,36.8699 24.6935,36.8132 24.5428,36.8132 C24.4349,36.8132 24.3442,36.8522 24.2711,36.9302 C24.1979,37.0082 24.1592,37.1073 24.1547,37.2275 L24.9322,37.2275 M26.7303,36.5989 C26.8879,36.5989 27.0162,36.6373 27.115,36.7139 C27.2139,36.7906 27.2734,36.9226 27.2934,37.1098 L27.0647,37.1098 C27.0508,37.0236 27.019,36.952 26.9694,36.8949 C26.9198,36.8379 26.84,36.8094 26.7303,36.8094 C26.5804,36.8094 26.4733,36.8825 26.4088,37.0288 C26.3669,37.1238 26.346,37.2409 26.346,37.3804 C26.346,37.5206 26.3757,37.6386 26.435,37.7345 C26.4942,37.8303 26.5874,37.8782 26.7146,37.8782 C26.8121,37.8782 26.8894,37.8484 26.9465,37.7887 C27.0036,37.7291 27.043,37.6474 27.0647,37.5437 L27.2934,37.5437 C27.2673,37.7292 27.202,37.8649 27.0974,37.9507 C26.9929,38.0365 26.8592,38.0795 26.6962,38.0795 C26.5133,38.0795 26.3674,38.0126 26.2585,37.8788 C26.1496,37.7452 26.0952,37.5781 26.0952,37.3777 C26.0952,37.1321 26.1548,36.9408 26.2743,36.8041 C26.3936,36.6673 26.5455,36.5989 26.7303,36.5989 M28.084,37.8874 C28.2399,37.8874 28.3469,37.8283 28.4048,37.7103 C28.4627,37.5923 28.4917,37.461 28.4917,37.3163 C28.4917,37.1857 28.4707,37.0794 28.4289,36.9975 C28.3627,36.8686 28.2486,36.8041 28.0866,36.8041 C27.9429,36.8041 27.8383,36.859 27.773,36.9687 C27.7077,37.0786 27.675,37.2109 27.675,37.3659 C27.675,37.515 27.7077,37.6391 27.773,37.7384 C27.8383,37.8377 27.9419,37.8874 28.084,37.8874 M28.0931,36.5989 C28.2734,36.5989 28.4259,36.659 28.5504,36.7793 C28.6751,36.8995 28.7373,37.0763 28.7373,37.3098 C28.7373,37.5354 28.6824,37.7218 28.5727,37.869 C28.4629,38.0163 28.2926,38.0899 28.0618,38.0899 C27.8692,38.0899 27.7164,38.0248 27.6031,37.8946 C27.4899,37.7643 27.4332,37.5895 27.4332,37.3699 C27.4332,37.1347 27.4929,36.9474 27.6123,36.808 C27.7316,36.6686 27.8919,36.5989 28.0931,36.5989 M29.006,36.6394 L29.2295,36.6394 L29.2295,36.8381 C29.2957,36.7562 29.3659,36.6974 29.4399,36.6617 C29.5139,36.626 29.5963,36.6081 29.6869,36.6081 C29.8854,36.6081 30.0197,36.6774 30.0894,36.8158 C30.1276,36.8917 30.1468,37.0001 30.1468,37.1412 L30.1468,38.0389 L29.9077,38.0389 L29.9077,37.1569 C29.9077,37.0716 29.895,37.0027 29.8698,36.9505 C29.828,36.8633 29.7521,36.8198 29.6424,36.8198 C29.5867,36.8198 29.541,36.8255 29.5053,36.8368 C29.4407,36.856 29.3841,36.8943 29.3353,36.9518 C29.2962,36.9979 29.2706,37.0456 29.259,37.0948 C29.2472,37.144 29.2412,37.2144 29.2412,37.3058 L29.2412,38.0389 L29.006,38.0389 L29.006,36.6394 M30.5306,36.2488 L30.7684,36.2488 L30.7684,36.6394 L30.9918,36.6394 L30.9918,36.8316 L30.7684,36.8316 L30.7684,37.7449 C30.7684,37.7937 30.7849,37.8264 30.818,37.8429 C30.8363,37.8525 30.8668,37.8573 30.9095,37.8573 C30.9208,37.8573 30.933,37.8571 30.946,37.8567 C30.9591,37.8562 30.9744,37.8551 30.9918,37.8534 L30.9918,38.0389 C30.9648,38.0468 30.9367,38.0524 30.9075,38.0559 C30.8783,38.0594 30.8468,38.0612 30.8128,38.0612 C30.703,38.0612 30.6285,38.033 30.5893,37.9769 C30.5501,37.9206 30.5306,37.8477 30.5306,37.758 L30.5306,36.8316 L30.341,36.8316 L30.341,36.6394 L30.5306,36.6394 L30.5306,36.2488 M31.805,36.6081 C31.9043,36.6081 32.0005,36.6314 32.0938,36.678 C32.1869,36.7246 32.258,36.785 32.3068,36.859 C32.3539,36.9295 32.3851,37.0119 32.4009,37.106 C32.4148,37.1704 32.4218,37.2733 32.4218,37.4144 L31.396,37.4144 C31.4003,37.5563 31.4339,37.6702 31.4966,37.756 C31.5593,37.8418 31.6564,37.8848 31.788,37.8848 C31.9109,37.8848 32.0088,37.8442 32.082,37.7632 C32.1238,37.7162 32.1534,37.6617 32.1708,37.5999 L32.4022,37.5999 C32.396,37.6513 32.3758,37.7085 32.3414,37.7717 C32.3069,37.8348 32.2684,37.8864 32.2257,37.9266 C32.1544,37.9963 32.0659,38.0433 31.9605,38.0677 C31.9039,38.0816 31.8398,38.0886 31.7684,38.0886 C31.5942,38.0886 31.4465,38.0252 31.3255,37.8985 C31.2043,37.7717 31.1439,37.5943 31.1439,37.3659 C31.1439,37.1412 31.2048,36.9587 31.3268,36.8185 C31.4488,36.6782 31.6081,36.6081 31.805,36.6081 M32.18,37.2275 C32.1705,37.1256 32.1482,37.0441 32.1134,36.9831 C32.049,36.8699 31.9413,36.8132 31.7906,36.8132 C31.6826,36.8132 31.592,36.8522 31.5188,36.9302 C31.4456,37.0082 31.4069,37.1073 31.4025,37.2275 L32.18,37.2275 M32.6996,36.6394 L32.9231,36.6394 L32.9231,36.8381 C32.9893,36.7562 33.0595,36.6974 33.1335,36.6617 C33.2075,36.626 33.2899,36.6081 33.3805,36.6081 C33.579,36.6081 33.7132,36.6774 33.7829,36.8158 C33.8212,36.8917 33.8404,37.0001 33.8404,37.1412 L33.8404,38.0389 L33.6012,38.0389 L33.6012,37.1569 C33.6012,37.0716 33.5886,37.0027 33.5634,36.9505 C33.5216,36.8633 33.4457,36.8198 33.336,36.8198 C33.2802,36.8198 33.2346,36.8255 33.1988,36.8368 C33.1343,36.856 33.0777,36.8943 33.0289,36.9518 C32.9897,36.9979 32.9642,37.0456 32.9524,37.0948 C32.9408,37.144 32.9348,37.2144 32.9348,37.3058 L32.9348,38.0389 L32.6996,38.0389 L32.6996,36.6394 M34.2241,36.2488 L34.4619,36.2488 L34.4619,36.6394 L34.6854,36.6394 L34.6854,36.8316 L34.4619,36.8316 L34.4619,37.7449 C34.4619,37.7937 34.4785,37.8264 34.5116,37.8429 C34.5299,37.8525 34.5604,37.8573 34.6031,37.8573 C34.6144,37.8573 34.6265,37.8571 34.6396,37.8567 C34.6527,37.8562 34.668,37.8551 34.6854,37.8534 L34.6854,38.0389 C34.6584,38.0468 34.6303,38.0524 34.6011,38.0559 C34.5719,38.0594 34.5404,38.0612 34.5063,38.0612 C34.3966,38.0612 34.3221,38.033 34.2829,37.9769 C34.2437,37.9206 34.2241,37.8477 34.2241,37.758 L34.2241,36.8316 L34.0346,36.8316 L34.0346,36.6394 L34.2241,36.6394 L34.2241,36.2488 M35.0556,37.5999 C35.0626,37.6783 35.0822,37.7384 35.1144,37.7802 C35.1736,37.856 35.2765,37.8939 35.4228,37.8939 C35.5099,37.8939 35.5866,37.875 35.6528,37.8371 C35.719,37.7991 35.7521,37.7405 35.7521,37.6613 C35.7521,37.6012 35.7255,37.5555 35.6724,37.5241 C35.6384,37.505 35.5713,37.4827 35.4712,37.4575 L35.2843,37.4104 C35.1649,37.3808 35.077,37.3477 35.0204,37.3111 C34.9193,37.2475 34.8687,37.1596 34.8687,37.0472 C34.8687,36.9148 34.9165,36.8076 35.0118,36.7257 C35.1072,36.6439 35.2355,36.6029 35.3967,36.6029 C35.6075,36.6029 35.7595,36.6648 35.8526,36.7884 C35.911,36.8668 35.9394,36.9513 35.9376,37.0419 L35.7155,37.0419 C35.7112,36.9888 35.6924,36.9405 35.6593,36.8969 C35.6053,36.8351 35.5117,36.8041 35.3784,36.8041 C35.2895,36.8041 35.2222,36.8211 35.1764,36.855 C35.1308,36.889 35.1079,36.9339 35.1079,36.9896 C35.1079,37.0507 35.1379,37.0995 35.198,37.136 C35.2329,37.1578 35.2843,37.177 35.3522,37.1935 L35.5077,37.2314 C35.6767,37.2723 35.79,37.312 35.8475,37.3503 C35.9389,37.4104 35.9847,37.505 35.9847,37.6338 C35.9847,37.7584 35.9374,37.866 35.8429,37.9566 C35.7484,38.0472 35.6045,38.0925 35.4111,38.0925 C35.2028,38.0925 35.0554,38.0453 34.9687,37.9507 C34.882,37.8562 34.8357,37.7392 34.8295,37.5999 L35.0556,37.5999 M37.1729,37.6665 C37.1729,37.7345 37.1977,37.788 37.2474,37.8272 C37.297,37.8665 37.3558,37.8861 37.4238,37.8861 C37.5065,37.8861 37.5866,37.8669 37.6642,37.8285 C37.7949,37.7649 37.8602,37.6609 37.8602,37.5163 L37.8602,37.3268 C37.8315,37.3451 37.7944,37.3603 37.7491,37.3725 C37.7038,37.3847 37.6594,37.3934 37.6158,37.3986 L37.4734,37.417 C37.3881,37.4283 37.324,37.4461 37.2814,37.4705 C37.209,37.5115 37.1729,37.5768 37.1729,37.6665 M37.7426,37.1909 C37.7966,37.184 37.8328,37.1613 37.851,37.1229 C37.8615,37.102 37.8668,37.072 37.8668,37.0328 C37.8668,36.9526 37.8382,36.8945 37.7812,36.8583 C37.7241,36.8222 37.6424,36.8041 37.5362,36.8041 C37.4133,36.8041 37.3262,36.8372 37.2748,36.9035 C37.246,36.94 37.2273,36.9944 37.2186,37.0668 L36.9991,37.0668 C37.0034,36.8943 37.0595,36.7743 37.167,36.7068 C37.2746,36.6392 37.3994,36.6055 37.5413,36.6055 C37.706,36.6055 37.8397,36.6369 37.9425,36.6996 C38.0444,36.7623 38.0954,36.8598 38.0954,36.9923 L38.0954,37.7985 C38.0954,37.8229 38.1004,37.8425 38.1105,37.8573 C38.1204,37.8721 38.1415,37.8795 38.1738,37.8795 C38.1843,37.8795 38.196,37.8788 38.2091,37.8776 C38.2222,37.8763 38.2361,37.8743 38.2509,37.8717 L38.2509,38.0454 C38.2144,38.0559 38.1865,38.0625 38.1673,38.065 C38.1481,38.0677 38.1219,38.069 38.0889,38.069 C38.0079,38.069 37.949,38.0403 37.9125,37.9827 C37.8933,37.9523 37.8798,37.9091 37.872,37.8534 C37.824,37.9161 37.7553,37.9706 37.6655,38.0167 C37.5758,38.0629 37.4769,38.086 37.3689,38.086 C37.2391,38.086 37.133,38.0466 37.0507,37.9677 C36.9684,37.8889 36.9272,37.7902 36.9272,37.6718 C36.9272,37.542 36.9677,37.4413 37.0487,37.3699 C37.1297,37.2985 37.2361,37.2545 37.3676,37.2379 L37.7426,37.1909 M38.47,36.6394 L38.6934,36.6394 L38.6934,36.8381 C38.7596,36.7562 38.8298,36.6974 38.9038,36.6617 C38.9779,36.626 39.0602,36.6081 39.1508,36.6081 C39.3494,36.6081 39.4835,36.6774 39.5532,36.8158 C39.5915,36.8917 39.6108,37.0001 39.6108,37.1412 L39.6108,38.0389 L39.3716,38.0389 L39.3716,37.1569 C39.3716,37.0716 39.359,37.0027 39.3337,36.9505 C39.2919,36.8633 39.2161,36.8198 39.1064,36.8198 C39.0506,36.8198 39.0048,36.8255 38.9691,36.8368 C38.9047,36.856 38.8481,36.8943 38.7993,36.9518 C38.7601,36.9979 38.7346,37.0456 38.7228,37.0948 C38.711,37.144 38.7052,37.2144 38.7052,37.3058 L38.7052,38.0389 L38.47,38.0389 L38.47,36.6394 M40.0964,37.3556 C40.0964,37.5053 40.1282,37.6308 40.1917,37.7319 C40.2553,37.8329 40.3572,37.8834 40.4975,37.8834 C40.6064,37.8834 40.696,37.8366 40.766,37.743 C40.8362,37.6493 40.8713,37.515 40.8713,37.3398 C40.8713,37.1631 40.8351,37.0321 40.7628,36.9472 C40.6905,36.8623 40.6012,36.8198 40.4949,36.8198 C40.3765,36.8198 40.2804,36.8651 40.2068,36.9557 C40.1332,37.0462 40.0964,37.1795 40.0964,37.3556 M40.4505,36.6147 C40.5577,36.6147 40.6474,36.6373 40.7197,36.6826 C40.7615,36.7088 40.809,36.7544 40.8621,36.8198 L40.8621,36.1129 L41.0882,36.1129 L41.0882,38.0389 L40.8764,38.0389 L40.8764,37.8442 C40.8216,37.9304 40.7567,37.9928 40.6817,38.0311 C40.6068,38.0695 40.521,38.0886 40.4244,38.0886 C40.2684,38.0886 40.1334,38.023 40.0193,37.8919 C39.9052,37.7608 39.8481,37.5863 39.8481,37.3686 C39.8481,37.1647 39.9001,36.9881 40.0043,36.8387 C40.1084,36.6894 40.2571,36.6147 40.4505,36.6147 M42.7032,36.5989 C42.8609,36.5989 42.9892,36.6373 43.0881,36.7139 C43.1869,36.7906 43.2464,36.9226 43.2664,37.1098 L43.0378,37.1098 C43.0238,37.0236 42.992,36.952 42.9424,36.8949 C42.8927,36.8379 42.8129,36.8094 42.7032,36.8094 C42.5534,36.8094 42.4463,36.8825 42.3818,37.0288 C42.34,37.1238 42.3191,37.2409 42.3191,37.3804 C42.3191,37.5206 42.3487,37.6386 42.4079,37.7345 C42.4672,37.8303 42.5603,37.8782 42.6876,37.8782 C42.7852,37.8782 42.8624,37.8484 42.9195,37.7887 C42.9766,37.7291 43.0159,37.6474 43.0378,37.5437 L43.2664,37.5437 C43.2403,37.7292 43.1749,37.8649 43.0704,37.9507 C42.9659,38.0365 42.8322,38.0795 42.6693,38.0795 C42.4863,38.0795 42.3404,38.0126 42.2315,37.8788 C42.1226,37.7452 42.0682,37.5781 42.0682,37.3777 C42.0682,37.1321 42.1279,36.9408 42.2472,36.8041 C42.3666,36.6673 42.5186,36.5989 42.7032,36.5989 M44.057,37.8874 C44.2129,37.8874 44.3198,37.8283 44.3778,37.7103 C44.4357,37.5923 44.4646,37.461 44.4646,37.3163 C44.4646,37.1857 44.4437,37.0794 44.4019,36.9975 C44.3358,36.8686 44.2216,36.8041 44.0596,36.8041 C43.9159,36.8041 43.8113,36.859 43.7459,36.9687 C43.6807,37.0786 43.648,37.2109 43.648,37.3659 C43.648,37.515 43.6807,37.6391 43.7459,37.7384 C43.8113,37.8377 43.915,37.8874 44.057,37.8874 M44.0661,36.5989 C44.2465,36.5989 44.3989,36.659 44.5235,36.7793 C44.648,36.8995 44.7103,37.0763 44.7103,37.3098 C44.7103,37.5354 44.6555,37.7218 44.5456,37.869 C44.4359,38.0163 44.2656,38.0899 44.0347,38.0899 C43.8422,38.0899 43.6893,38.0248 43.5761,37.8946 C43.4629,37.7643 43.4063,37.5895 43.4063,37.3699 C43.4063,37.1347 43.4659,36.9474 43.5852,36.808 C43.7046,36.6686 43.8649,36.5989 44.0661,36.5989 M44.979,36.6394 L45.2025,36.6394 L45.2025,36.8381 C45.2687,36.7562 45.3388,36.6974 45.4129,36.6617 C45.4869,36.626 45.5692,36.6081 45.6598,36.6081 C45.8585,36.6081 45.9926,36.6774 46.0623,36.8158 C46.1007,36.8917 46.1198,37.0001 46.1198,37.1412 L46.1198,38.0389 L45.8806,38.0389 L45.8806,37.1569 C45.8806,37.0716 45.868,37.0027 45.8428,36.9505 C45.8009,36.8633 45.7252,36.8198 45.6154,36.8198 C45.5596,36.8198 45.5139,36.8255 45.4782,36.8368 C45.4137,36.856 45.3571,36.8943 45.3083,36.9518 C45.2691,36.9979 45.2437,37.0456 45.2319,37.0948 C45.2201,37.144 45.2142,37.2144 45.2142,37.3058 L45.2142,38.0389 L44.979,38.0389 L44.979,36.6394 M46.5035,36.2488 L46.7414,36.2488 L46.7414,36.6394 L46.9648,36.6394 L46.9648,36.8316 L46.7414,36.8316 L46.7414,37.7449 C46.7414,37.7937 46.7579,37.8264 46.791,37.8429 C46.8093,37.8525 46.8398,37.8573 46.8825,37.8573 C46.8938,37.8573 46.906,37.8571 46.919,37.8567 C46.9321,37.8562 46.9474,37.8551 46.9648,37.8534 L46.9648,38.0389 C46.9377,38.0468 46.9097,38.0524 46.8805,38.0559 C46.8513,38.0594 46.8197,38.0612 46.7857,38.0612 C46.676,38.0612 46.6015,38.033 46.5623,37.9769 C46.5231,37.9206 46.5035,37.8477 46.5035,37.758 L46.5035,36.8316 L46.314,36.8316 L46.314,36.6394 L46.5035,36.6394 L46.5035,36.2488 M47.778,36.6081 C47.8773,36.6081 47.9736,36.6314 48.0667,36.678 C48.16,36.7246 48.2309,36.785 48.2797,36.859 C48.3268,36.9295 48.3582,37.0119 48.3738,37.106 C48.3878,37.1704 48.3947,37.2733 48.3947,37.4144 L47.369,37.4144 C47.3733,37.5563 47.4068,37.6702 47.4696,37.756 C47.5323,37.8418 47.6294,37.8848 47.761,37.8848 C47.8838,37.8848 47.9818,37.8442 48.055,37.7632 C48.0968,37.7162 48.1265,37.6617 48.1439,37.5999 L48.3751,37.5999 C48.369,37.6513 48.3488,37.7085 48.3144,37.7717 C48.28,37.8348 48.2414,37.8864 48.1987,37.9266 C48.1273,37.9963 48.0389,38.0433 47.9335,38.0677 C47.8769,38.0816 47.8128,38.0886 47.7414,38.0886 C47.5671,38.0886 47.4195,38.0252 47.2984,37.8985 C47.1774,37.7717 47.1168,37.5943 47.1168,37.3659 C47.1168,37.1412 47.1778,36.9587 47.2997,36.8185 C47.4217,36.6782 47.5811,36.6081 47.778,36.6081 M48.153,37.2275 C48.1434,37.1256 48.1212,37.0441 48.0863,36.9831 C48.0219,36.8699 47.9143,36.8132 47.7636,36.8132 C47.6556,36.8132 47.565,36.8522 47.4918,36.9302 C47.4186,37.0082 47.3799,37.1073 47.3756,37.2275 L48.153,37.2275 M48.6726,36.6394 L48.8961,36.6394 L48.8961,36.8381 C48.9622,36.7562 49.0324,36.6974 49.1065,36.6617 C49.1805,36.626 49.2628,36.6081 49.3534,36.6081 C49.5521,36.6081 49.6862,36.6774 49.7559,36.8158 C49.7942,36.8917 49.8134,37.0001 49.8134,37.1412 L49.8134,38.0389 L49.5742,38.0389 L49.5742,37.1569 C49.5742,37.0716 49.5616,37.0027 49.5364,36.9505 C49.4945,36.8633 49.4188,36.8198 49.309,36.8198 C49.2532,36.8198 49.2075,36.8255 49.1718,36.8368 C49.1073,36.856 49.0507,36.8943 49.0019,36.9518 C48.9627,36.9979 48.9372,37.0456 48.9255,37.0948 C48.9137,37.144 48.9078,37.2144 48.9078,37.3058 L48.9078,38.0389 L48.6726,38.0389 L48.6726,36.6394 M50.1971,36.2488 L50.435,36.2488 L50.435,36.6394 L50.6584,36.6394 L50.6584,36.8316 L50.435,36.8316 L50.435,37.7449 C50.435,37.7937 50.4514,37.8264 50.4846,37.8429 C50.5029,37.8525 50.5334,37.8573 50.5761,37.8573 C50.5874,37.8573 50.5996,37.8571 50.6126,37.8567 C50.6257,37.8562 50.6409,37.8551 50.6584,37.8534 L50.6584,38.0389 C50.6313,38.0468 50.6033,38.0524 50.5741,38.0559 C50.5449,38.0594 50.5133,38.0612 50.4793,38.0612 C50.3696,38.0612 50.2951,38.033 50.2559,37.9769 C50.2167,37.9206 50.1971,37.8477 50.1971,37.758 L50.1971,36.8316 L50.0076,36.8316 L50.0076,36.6394 L50.1971,36.6394 L50.1971,36.2488 M51.0286,37.5999 C51.0355,37.6783 51.0551,37.7384 51.0874,37.7802 C51.1467,37.856 51.2494,37.8939 51.3958,37.8939 C51.4828,37.8939 51.5595,37.875 51.6257,37.8371 C51.692,37.7991 51.725,37.7405 51.725,37.6613 C51.725,37.6012 51.6985,37.5555 51.6453,37.5241 C51.6114,37.505 51.5443,37.4827 51.4441,37.4575 L51.2573,37.4104 C51.1379,37.3808 51.0499,37.3477 50.9933,37.3111 C50.8923,37.2475 50.8418,37.1596 50.8418,37.0472 C50.8418,36.9148 50.8894,36.8076 50.9848,36.7257 C51.0802,36.6439 51.2085,36.6029 51.3696,36.6029 C51.5804,36.6029 51.7325,36.6648 51.8257,36.7884 C51.884,36.8668 51.9124,36.9513 51.9106,37.0419 L51.6885,37.0419 C51.6841,36.9888 51.6654,36.9405 51.6322,36.8969 C51.5783,36.8351 51.4846,36.8041 51.3514,36.8041 C51.2625,36.8041 51.1952,36.8211 51.1495,36.855 C51.1037,36.889 51.0808,36.9339 51.0808,36.9896 C51.0808,37.0507 51.1109,37.0995 51.171,37.136 C51.2058,37.1578 51.2573,37.177 51.3252,37.1935 L51.4807,37.2314 C51.6497,37.2723 51.763,37.312 51.8204,37.3503 C51.9119,37.4104 51.9577,37.505 51.9577,37.6338 C51.9577,37.7584 51.9104,37.866 51.8159,37.9566 C51.7213,38.0472 51.5774,38.0925 51.384,38.0925 C51.1758,38.0925 51.0284,38.0453 50.9417,37.9507 C50.855,37.8562 50.8086,37.7392 50.8025,37.5999 L51.0286,37.5999 M53.5561,37.8808 C53.666,37.8808 53.7571,37.8348 53.8299,37.743 C53.9027,37.6511 53.939,37.5136 53.939,37.3307 C53.939,37.2192 53.9229,37.1234 53.8907,37.0432 C53.8297,36.889 53.7182,36.812 53.5561,36.812 C53.3933,36.812 53.2817,36.8934 53.2216,37.0563 C53.1894,37.1435 53.1733,37.254 53.1733,37.3882 C53.1733,37.4962 53.1894,37.5881 53.2216,37.6639 C53.2826,37.8086 53.3941,37.8808 53.5561,37.8808 M52.9473,36.646 L53.176,36.646 L53.176,36.8316 C53.223,36.768 53.2744,36.7187 53.3301,36.6839 C53.4094,36.6316 53.5026,36.6055 53.6097,36.6055 C53.7683,36.6055 53.9029,36.6663 54.0135,36.7878 C54.1241,36.9093 54.1795,37.0829 54.1795,37.3085 C54.1795,37.6134 54.0997,37.8312 53.9403,37.9618 C53.8393,38.0446 53.7217,38.086 53.5875,38.086 C53.4821,38.086 53.3937,38.0629 53.3223,38.0167 C53.2804,37.9906 53.2339,37.9457 53.1825,37.8821 L53.1825,38.5969 L52.9473,38.5969 L52.9473,36.646 M54.443,36.646 L54.6821,36.646 L54.6821,38.0389 L54.443,38.0389 L54.443,36.646 M54.443,36.1194 L54.6821,36.1194 L54.6821,36.386 L54.443,36.386 L54.443,36.1194 M55.619,37.8808 C55.7288,37.8808 55.82,37.8348 55.8928,37.743 C55.9655,37.6511 56.0018,37.5136 56.0018,37.3307 C56.0018,37.2192 55.9857,37.1234 55.9535,37.0432 C55.8925,36.889 55.7811,36.812 55.619,36.812 C55.4561,36.812 55.3446,36.8934 55.2845,37.0563 C55.2523,37.1435 55.2362,37.254 55.2362,37.3882 C55.2362,37.4962 55.2523,37.5881 55.2845,37.6639 C55.3454,37.8086 55.4569,37.8808 55.619,37.8808 M55.0101,36.646 L55.2388,36.646 L55.2388,36.8316 C55.2858,36.768 55.3372,36.7187 55.3929,36.6839 C55.4722,36.6316 55.5655,36.6055 55.6725,36.6055 C55.8311,36.6055 55.9657,36.6663 56.0764,36.7878 C56.1869,36.9093 56.2423,37.0829 56.2423,37.3085 C56.2423,37.6134 56.1625,37.8312 56.0032,37.9618 C55.9021,38.0446 55.7845,38.086 55.6503,38.086 C55.5449,38.086 55.4566,38.0629 55.3851,38.0167 C55.3433,37.9906 55.2967,37.9457 55.2453,37.8821 L55.2453,38.5969 L55.0101,38.5969 L55.0101,36.646 M57.0886,36.6081 C57.1879,36.6081 57.2842,36.6314 57.3773,36.678 C57.4706,36.7246 57.5415,36.785 57.5903,36.859 C57.6374,36.9295 57.6688,37.0119 57.6844,37.106 C57.6984,37.1704 57.7053,37.2733 57.7053,37.4144 L56.6796,37.4144 C56.6839,37.5563 56.7175,37.6702 56.7802,37.756 C56.8429,37.8418 56.94,37.8848 57.0716,37.8848 C57.1944,37.8848 57.2924,37.8442 57.3656,37.7632 C57.4074,37.7162 57.4371,37.6617 57.4545,37.5999 L57.6857,37.5999 C57.6796,37.6513 57.6594,37.7085 57.625,37.7717 C57.5906,37.8348 57.552,37.8864 57.5093,37.9266 C57.4379,37.9963 57.3495,38.0433 57.2441,38.0677 C57.1875,38.0816 57.1234,38.0886 57.052,38.0886 C56.8777,38.0886 56.7301,38.0252 56.609,37.8985 C56.488,37.7717 56.4274,37.5943 56.4274,37.3659 C56.4274,37.1412 56.4883,36.9587 56.6103,36.8185 C56.7323,36.6782 56.8917,36.6081 57.0886,36.6081 M57.4636,37.2275 C57.454,37.1256 57.4318,37.0441 57.3969,36.9831 C57.3325,36.8699 57.2249,36.8132 57.0742,36.8132 C56.9662,36.8132 56.8756,36.8522 56.8024,36.9302 C56.7292,37.0082 56.6905,37.1073 56.6862,37.2275 L57.4636,37.2275 M57.9898,36.1194 L58.225,36.1194 L58.225,38.0389 L57.9898,38.0389 L57.9898,36.1194 M58.5686,36.646 L58.8078,36.646 L58.8078,38.0389 L58.5686,38.0389 L58.5686,36.646 M58.5686,36.1194 L58.8078,36.1194 L58.8078,36.386 L58.5686,36.386 L58.5686,36.1194 M59.154,36.6394 L59.3774,36.6394 L59.3774,36.8381 C59.4437,36.7562 59.5138,36.6974 59.5879,36.6617 C59.6619,36.626 59.7442,36.6081 59.8348,36.6081 C60.0334,36.6081 60.1676,36.6774 60.2372,36.8158 C60.2756,36.8917 60.2948,37.0001 60.2948,37.1412 L60.2948,38.0389 L60.0556,38.0389 L60.0556,37.1569 C60.0556,37.0716 60.043,37.0027 60.0178,36.9505 C59.9759,36.8633 59.9001,36.8198 59.7904,36.8198 C59.7346,36.8198 59.6889,36.8255 59.6531,36.8368 C59.5887,36.856 59.5321,36.8943 59.4833,36.9518 C59.4441,36.9979 59.4186,37.0456 59.4068,37.0948 C59.3951,37.144 59.3892,37.2144 59.3892,37.3058 L59.3892,38.0389 L59.154,38.0389 L59.154,36.6394 M61.2142,36.6081 C61.3136,36.6081 61.4098,36.6314 61.503,36.678 C61.5963,36.7246 61.6672,36.785 61.716,36.859 C61.7631,36.9295 61.7944,37.0119 61.8101,37.106 C61.824,37.1704 61.831,37.2733 61.831,37.4144 L60.8052,37.4144 C60.8096,37.5563 60.8432,37.6702 60.9058,37.756 C60.9685,37.8418 61.0658,37.8848 61.1972,37.8848 C61.3201,37.8848 61.418,37.8442 61.4912,37.7632 C61.5331,37.7162 61.5627,37.6617 61.5801,37.5999 L61.8114,37.5999 C61.8053,37.6513 61.785,37.7085 61.7506,37.7717 C61.7163,37.8348 61.6776,37.8864 61.635,37.9266 C61.5636,37.9963 61.4751,38.0433 61.3697,38.0677 C61.3131,38.0816 61.2491,38.0886 61.1777,38.0886 C61.0034,38.0886 60.8558,38.0252 60.7347,37.8985 C60.6136,37.7717 60.5531,37.5943 60.5531,37.3659 C60.5531,37.1412 60.614,36.9587 60.736,36.8185 C60.858,36.6782 61.0173,36.6081 61.2142,36.6081 M61.5893,37.2275 C61.5797,37.1256 61.5574,37.0441 61.5226,36.9831 C61.4582,36.8699 61.3506,36.8132 61.1999,36.8132 C61.0919,36.8132 61.0012,36.8522 60.928,36.9302 C60.8549,37.0082 60.8161,37.1073 60.8118,37.2275 L61.5893,37.2275 M62.956,36.6394 L63.2252,37.7423 L63.4983,36.6394 L63.7623,36.6394 L64.0367,37.7357 L64.3229,36.6394 L64.5581,36.6394 L64.1517,38.0389 L63.9074,38.0389 L63.6224,36.9557 L63.3467,38.0389 L63.1024,38.0389 L62.6987,36.6394 L62.956,36.6394 M64.771,36.646 L65.0102,36.646 L65.0102,38.0389 L64.771,38.0389 L64.771,36.646 M64.771,36.1194 L65.0102,36.1194 L65.0102,36.386 L64.771,36.386 L64.771,36.1194 M65.4035,36.2488 L65.6413,36.2488 L65.6413,36.6394 L65.8648,36.6394 L65.8648,36.8316 L65.6413,36.8316 L65.6413,37.7449 C65.6413,37.7937 65.6578,37.8264 65.691,37.8429 C65.7093,37.8525 65.7397,37.8573 65.7825,37.8573 C65.7938,37.8573 65.8059,37.8571 65.819,37.8567 C65.8321,37.8562 65.8474,37.8551 65.8648,37.8534 L65.8648,38.0389 C65.8378,38.0468 65.8097,38.0524 65.7805,38.0559 C65.7513,38.0594 65.7197,38.0612 65.6857,38.0612 C65.576,38.0612 65.5015,38.033 65.4623,37.9769 C65.4231,37.9206 65.4035,37.8477 65.4035,37.758 L65.4035,36.8316 L65.214,36.8316 L65.214,36.6394 L65.4035,36.6394 L65.4035,36.2488 M66.0952,36.1129 L66.3304,36.1129 L66.3304,36.8289 C66.3861,36.7584 66.4362,36.7088 66.4806,36.6799 C66.5564,36.6303 66.6509,36.6055 66.7641,36.6055 C66.9671,36.6055 67.1048,36.6764 67.1771,36.8185 C67.2163,36.896 67.2359,37.0036 67.2359,37.1412 L67.2359,38.0389 L66.9942,38.0389 L66.9942,37.1569 C66.9942,37.0542 66.9811,36.9788 66.955,36.9309 C66.9123,36.8542 66.8322,36.8158 66.7145,36.8158 C66.6169,36.8158 66.5286,36.8494 66.4493,36.9164 C66.37,36.9835 66.3304,37.1103 66.3304,37.2967 L66.3304,38.0389 L66.0952,38.0389 L66.0952,36.1129 M68.8666,37.8874 C69.0226,37.8874 69.1295,37.8283 69.1874,37.7103 C69.2454,37.5923 69.2743,37.461 69.2743,37.3163 C69.2743,37.1857 69.2535,37.0794 69.2117,36.9975 C69.1454,36.8686 69.0313,36.8041 68.8693,36.8041 C68.7255,36.8041 68.621,36.859 68.5557,36.9687 C68.4903,37.0786 68.4576,37.2109 68.4576,37.3659 C68.4576,37.515 68.4903,37.6391 68.5557,37.7384 C68.621,37.8377 68.7247,37.8874 68.8666,37.8874 M68.8758,36.5989 C69.0561,36.5989 69.2085,36.659 69.3332,36.7793 C69.4577,36.8995 69.52,37.0763 69.52,37.3098 C69.52,37.5354 69.4651,37.7218 69.3554,37.869 C69.2456,38.0163 69.0753,38.0899 68.8444,38.0899 C68.652,38.0899 68.499,38.0248 68.3858,37.8946 C68.2726,37.7643 68.2159,37.5895 68.2159,37.3699 C68.2159,37.1347 68.2756,36.9474 68.3949,36.808 C68.5143,36.6686 68.6746,36.5989 68.8758,36.5989 M70.3794,37.8808 C70.4891,37.8808 70.5804,37.8348 70.6531,37.743 C70.7258,37.6511 70.7623,37.5136 70.7623,37.3307 C70.7623,37.2192 70.7462,37.1234 70.7138,37.0432 C70.6529,36.889 70.5414,36.812 70.3794,36.812 C70.2165,36.812 70.105,36.8934 70.0449,37.0563 C70.0126,37.1435 69.9965,37.254 69.9965,37.3882 C69.9965,37.4962 70.0126,37.5881 70.0449,37.6639 C70.1058,37.8086 70.2174,37.8808 70.3794,37.8808 M69.7704,36.646 L69.9991,36.646 L69.9991,36.8316 C70.0461,36.768 70.0975,36.7187 70.1533,36.6839 C70.2326,36.6316 70.3258,36.6055 70.433,36.6055 C70.5915,36.6055 70.7261,36.6663 70.8367,36.7878 C70.9473,36.9093 71.0026,37.0829 71.0026,37.3085 C71.0026,37.6134 70.923,37.8312 70.7635,37.9618 C70.6625,38.0446 70.5449,38.086 70.4107,38.086 C70.3053,38.086 70.2169,38.0629 70.1455,38.0167 C70.1037,37.9906 70.057,37.9457 70.0056,37.8821 L70.0056,38.5969 L69.7704,38.5969 L69.7704,36.646 M71.849,36.6081 C71.9482,36.6081 72.0445,36.6314 72.1378,36.678 C72.2309,36.7246 72.3019,36.785 72.3507,36.859 C72.3977,36.9295 72.4291,37.0119 72.4448,37.106 C72.4588,37.1704 72.4657,37.2733 72.4657,37.4144 L71.44,37.4144 C71.4443,37.5563 71.4778,37.6702 71.5406,37.756 C71.6033,37.8418 71.7004,37.8848 71.832,37.8848 C71.9548,37.8848 72.0528,37.8442 72.126,37.7632 C72.1678,37.7162 72.1974,37.6617 72.2148,37.5999 L72.4462,37.5999 C72.44,37.6513 72.4198,37.7085 72.3854,37.7717 C72.3509,37.8348 72.3124,37.8864 72.2697,37.9266 C72.1982,37.9963 72.1099,38.0433 72.0045,38.0677 C71.9479,38.0816 71.8838,38.0886 71.8123,38.0886 C71.6382,38.0886 71.4905,38.0252 71.3694,37.8985 C71.2483,37.7717 71.1877,37.5943 71.1877,37.3659 C71.1877,37.1412 71.2488,36.9587 71.3707,36.8185 C71.4926,36.6782 71.6521,36.6081 71.849,36.6081 M72.2239,37.2275 C72.2144,37.1256 72.1922,37.0441 72.1573,36.9831 C72.0928,36.8699 71.9853,36.8132 71.8346,36.8132 C71.7265,36.8132 71.636,36.8522 71.5628,36.9302 C71.4896,37.0082 71.4508,37.1073 71.4465,37.2275 L72.2239,37.2275 M72.7436,36.6394 L72.967,36.6394 L72.967,36.8381 C73.0333,36.7562 73.1033,36.6974 73.1775,36.6617 C73.2515,36.626 73.3338,36.6081 73.4243,36.6081 C73.623,36.6081 73.7571,36.6774 73.8268,36.8158 C73.8652,36.8917 73.8844,37.0001 73.8844,37.1412 L73.8844,38.0389 L73.6452,38.0389 L73.6452,37.1569 C73.6452,37.0716 73.6326,37.0027 73.6074,36.9505 C73.5655,36.8633 73.4897,36.8198 73.38,36.8198 C73.3242,36.8198 73.2784,36.8255 73.2427,36.8368 C73.1783,36.856 73.1217,36.8943 73.0729,36.9518 C73.0337,36.9979 73.0082,37.0456 72.9964,37.0948 C72.9846,37.144 72.9788,37.2144 72.9788,37.3058 L72.9788,38.0389 L72.7436,38.0389 L72.7436,36.6394 M74.3608,37.5999 C74.3678,37.6783 74.3874,37.7384 74.4197,37.7802 C74.4789,37.856 74.5817,37.8939 74.7281,37.8939 C74.8151,37.8939 74.8918,37.875 74.958,37.8371 C75.0242,37.7991 75.0573,37.7405 75.0573,37.6613 C75.0573,37.6012 75.0307,37.5555 74.9776,37.5241 C74.9437,37.505 74.8765,37.4827 74.7764,37.4575 L74.5895,37.4104 C74.4702,37.3808 74.3822,37.3477 74.3256,37.3111 C74.2245,37.2475 74.174,37.1596 74.174,37.0472 C74.174,36.9148 74.2217,36.8076 74.3171,36.7257 C74.4124,36.6439 74.5407,36.6029 74.7019,36.6029 C74.9127,36.6029 75.0647,36.6648 75.158,36.7884 C75.2163,36.8668 75.2446,36.9513 75.2428,37.0419 L75.0207,37.0419 C75.0164,36.9888 74.9976,36.9405 74.9645,36.8969 C74.9105,36.8351 74.8169,36.8041 74.6836,36.8041 C74.5948,36.8041 74.5274,36.8211 74.4818,36.855 C74.436,36.889 74.4131,36.9339 74.4131,36.9896 C74.4131,37.0507 74.4431,37.0995 74.5033,37.136 C74.5381,37.1578 74.5895,37.177 74.6574,37.1935 L74.8129,37.2314 C74.9819,37.2723 75.0952,37.312 75.1527,37.3503 C75.2441,37.4104 75.2899,37.505 75.2899,37.6338 C75.2899,37.7584 75.2426,37.866 75.1482,37.9566 C75.0536,38.0472 74.9097,38.0925 74.7163,38.0925 C74.508,38.0925 74.3606,38.0453 74.274,37.9507 C74.1873,37.8562 74.1409,37.7392 74.1347,37.5999 L74.3608,37.5999 M76.1144,37.8874 C76.2704,37.8874 76.3773,37.8283 76.4352,37.7103 C76.4932,37.5923 76.5221,37.461 76.5221,37.3163 C76.5221,37.1857 76.5013,37.0794 76.4594,36.9975 C76.3932,36.8686 76.279,36.8041 76.117,36.8041 C75.9733,36.8041 75.8687,36.859 75.8035,36.9687 C75.7381,37.0786 75.7054,37.2109 75.7054,37.3659 C75.7054,37.515 75.7381,37.6391 75.8035,37.7384 C75.8687,37.8377 75.9725,37.8874 76.1144,37.8874 M76.1235,36.5989 C76.3039,36.5989 76.4563,36.659 76.5809,36.7793 C76.7055,36.8995 76.7678,37.0763 76.7678,37.3098 C76.7678,37.5354 76.7129,37.7218 76.6032,37.869 C76.4933,38.0163 76.323,38.0899 76.0922,38.0899 C75.8997,38.0899 75.7469,38.0248 75.6335,37.8946 C75.5203,37.7643 75.4637,37.5895 75.4637,37.3699 C75.4637,37.1347 75.5233,36.9474 75.6427,36.808 C75.762,36.6686 75.9223,36.5989 76.1235,36.5989 M77.2718,36.6394 L77.2718,37.5686 C77.2718,37.6399 77.2831,37.6983 77.3057,37.7437 C77.3475,37.8272 77.4255,37.869 77.5396,37.869 C77.7033,37.869 77.8149,37.7959 77.8741,37.6496 C77.9063,37.5711 77.9224,37.4635 77.9224,37.3268 L77.9224,36.6394 L78.1576,36.6394 L78.1576,38.0389 L77.9355,38.0389 L77.9382,37.8325 C77.9076,37.8856 77.8698,37.9304 77.8245,37.9671 C77.7347,38.0403 77.6258,38.0768 77.4978,38.0768 C77.2983,38.0768 77.1624,38.0102 77.09,37.8769 C77.0509,37.8054 77.0313,37.7101 77.0313,37.5908 L77.0313,36.6394 L77.2718,36.6394 M78.5205,36.6394 L78.7439,36.6394 L78.7439,36.8812 C78.7623,36.8341 78.8071,36.7769 78.8785,36.7094 C78.95,36.6419 79.0323,36.6081 79.1255,36.6081 C79.1298,36.6081 79.1372,36.6085 79.1477,36.6094 C79.1582,36.6103 79.176,36.612 79.2013,36.6147 L79.2013,36.8629 C79.1874,36.8603 79.1744,36.8585 79.1627,36.8577 C79.151,36.8568 79.1381,36.8564 79.1241,36.8564 C79.0057,36.8564 78.9147,36.8945 78.8511,36.9707 C78.7875,37.0469 78.7557,37.1347 78.7557,37.234 L78.7557,38.0389 L78.5205,38.0389 L78.5205,36.6394 M79.9317,36.5989 C80.0893,36.5989 80.2176,36.6373 80.3165,36.7139 C80.4154,36.7906 80.4749,36.9226 80.4949,37.1098 L80.2662,37.1098 C80.2523,37.0236 80.2205,36.952 80.1708,36.8949 C80.1212,36.8379 80.0415,36.8094 79.9317,36.8094 C79.7819,36.8094 79.6747,36.8825 79.6103,37.0288 C79.5685,37.1238 79.5475,37.2409 79.5475,37.3804 C79.5475,37.5206 79.5771,37.6386 79.6364,37.7345 C79.6956,37.8303 79.7889,37.8782 79.916,37.8782 C80.0136,37.8782 80.0909,37.8484 80.1479,37.7887 C80.205,37.7291 80.2445,37.6474 80.2662,37.5437 L80.4949,37.5437 C80.4688,37.7292 80.4034,37.8649 80.2989,37.9507 C80.1944,38.0365 80.0606,38.0795 79.8978,38.0795 C79.7148,38.0795 79.5688,38.0126 79.4599,37.8788 C79.3511,37.7452 79.2966,37.5781 79.2966,37.3777 C79.2966,37.1321 79.3563,36.9408 79.4757,36.8041 C79.595,36.6673 79.747,36.5989 79.9317,36.5989 M81.3129,36.6081 C81.4122,36.6081 81.5085,36.6314 81.6016,36.678 C81.6949,36.7246 81.7659,36.785 81.8147,36.859 C81.8617,36.9295 81.893,37.0119 81.9087,37.106 C81.9226,37.1704 81.9296,37.2733 81.9296,37.4144 L80.9039,37.4144 C80.9083,37.5563 80.9418,37.6702 81.0045,37.756 C81.0673,37.8418 81.1644,37.8848 81.2959,37.8848 C81.4187,37.8848 81.5167,37.8442 81.5899,37.7632 C81.6317,37.7162 81.6613,37.6617 81.6788,37.5999 L81.91,37.5999 C81.904,37.6513 81.8837,37.7085 81.8493,37.7717 C81.8149,37.8348 81.7763,37.8864 81.7337,37.9266 C81.6622,37.9963 81.5738,38.0433 81.4683,38.0677 C81.4117,38.0816 81.3478,38.0886 81.2763,38.0886 C81.1021,38.0886 80.9544,38.0252 80.8333,37.8985 C80.7122,37.7717 80.6517,37.5943 80.6517,37.3659 C80.6517,37.1412 80.7127,36.9587 80.8346,36.8185 C80.9566,36.6782 81.116,36.6081 81.3129,36.6081 M81.6879,37.2275 C81.6783,37.1256 81.6561,37.0441 81.6213,36.9831 C81.5568,36.8699 81.4492,36.8132 81.2985,36.8132 C81.1905,36.8132 81.0998,36.8522 81.0267,36.9302 C80.9536,37.0082 80.9148,37.1073 80.9104,37.2275 L81.6879,37.2275 M82.2637,37.7541 L82.5369,37.7541 L82.5369,38.0389 L82.2637,38.0389 L82.2637,37.7541 M37.8149,43.2304 L38.0501,43.2304 L38.0501,43.9465 C38.1058,43.8759 38.1559,43.8263 38.2004,43.7976 C38.2761,43.7478 38.3707,43.7231 38.4839,43.7231 C38.6869,43.7231 38.8245,43.7941 38.8969,43.936 C38.9361,44.0135 38.9557,44.1211 38.9557,44.2588 L38.9557,45.1565 L38.714,45.1565 L38.714,44.2745 C38.714,44.1717 38.7009,44.0963 38.6747,44.0484 C38.632,43.9717 38.5518,43.9334 38.4343,43.9334 C38.3367,43.9334 38.2483,43.9669 38.169,44.034 C38.0897,44.1011 38.0501,44.2278 38.0501,44.4142 L38.0501,45.1565 L37.8149,45.1565 L37.8149,43.2304 M39.3394,43.3663 L39.5772,43.3663 L39.5772,43.7571 L39.8007,43.7571 L39.8007,43.9491 L39.5772,43.9491 L39.5772,44.8625 C39.5772,44.9113 39.5937,44.9439 39.6269,44.9605 C39.6451,44.9701 39.6757,44.9749 39.7183,44.9749 C39.7296,44.9749 39.7419,44.9746 39.7549,44.9742 C39.768,44.9738 39.7832,44.9727 39.8007,44.9709 L39.8007,45.1565 C39.7736,45.1643 39.7456,45.17 39.7164,45.1734 C39.6872,45.1769 39.6556,45.1787 39.6216,45.1787 C39.5119,45.1787 39.4374,45.1507 39.3982,45.0944 C39.359,45.0382 39.3394,44.9653 39.3394,44.8755 L39.3394,43.9491 L39.1499,43.9491 L39.1499,43.7571 L39.3394,43.7571 L39.3394,43.3663 M40.078,43.3663 L40.3159,43.3663 L40.3159,43.7571 L40.5393,43.7571 L40.5393,43.9491 L40.3159,43.9491 L40.3159,44.8625 C40.3159,44.9113 40.3325,44.9439 40.3655,44.9605 C40.3839,44.9701 40.4143,44.9749 40.457,44.9749 C40.4684,44.9749 40.4805,44.9746 40.4936,44.9742 C40.5067,44.9738 40.5219,44.9727 40.5393,44.9709 L40.5393,45.1565 C40.5124,45.1643 40.4842,45.17 40.4551,45.1734 C40.4259,45.1769 40.3944,45.1787 40.3603,45.1787 C40.2506,45.1787 40.1761,45.1507 40.1369,45.0944 C40.0976,45.0382 40.078,44.9653 40.078,44.8755 L40.078,43.9491 L39.8886,43.9491 L39.8886,43.7571 L40.078,43.7571 L40.078,43.3663 M41.3604,44.9983 C41.4701,44.9983 41.5614,44.9525 41.6341,44.8605 C41.7068,44.7686 41.7433,44.6312 41.7433,44.4482 C41.7433,44.3367 41.7271,44.2409 41.6949,44.1608 C41.6339,44.0066 41.5224,43.9295 41.3604,43.9295 C41.1974,43.9295 41.086,44.0109 41.0259,44.1739 C40.9936,44.261 40.9775,44.3716 40.9775,44.5057 C40.9775,44.6137 40.9936,44.7057 41.0259,44.7815 C41.0869,44.9261 41.1984,44.9983 41.3604,44.9983 M40.7514,43.7636 L40.9801,43.7636 L40.9801,43.9491 C41.0271,43.8855 41.0786,43.8363 41.1343,43.8014 C41.2136,43.7491 41.3068,43.7231 41.414,43.7231 C41.5725,43.7231 41.7071,43.7838 41.8177,43.9053 C41.9284,44.0268 41.9837,44.2004 41.9837,44.426 C41.9837,44.7309 41.904,44.9487 41.7445,45.0793 C41.6435,45.1621 41.5259,45.2035 41.3918,45.2035 C41.2864,45.2035 41.1979,45.1804 41.1265,45.1343 C41.0847,45.1082 41.0381,45.0632 40.9866,44.9997 L40.9866,45.7144 L40.7514,45.7144 L40.7514,43.7636 M42.387,44.7174 C42.394,44.7958 42.4136,44.8559 42.4458,44.8977 C42.505,44.9736 42.6079,45.0114 42.7542,45.0114 C42.8413,45.0114 42.918,44.9925 42.9842,44.9546 C43.0504,44.9167 43.0835,44.8581 43.0835,44.7789 C43.0835,44.7188 43.0569,44.673 43.0038,44.6416 C42.9698,44.6225 42.9027,44.6003 42.8026,44.575 L42.6157,44.5279 C42.4964,44.4984 42.4084,44.4652 42.3518,44.4287 C42.2507,44.3651 42.2001,44.2771 42.2001,44.1647 C42.2001,44.0323 42.2479,43.9251 42.3432,43.8432 C42.4386,43.7614 42.5669,43.7204 42.7281,43.7204 C42.9389,43.7204 43.0909,43.7823 43.1841,43.906 C43.2425,43.9843 43.2707,44.0688 43.269,44.1595 L43.0469,44.1595 C43.0425,44.1063 43.0238,44.058 42.9907,44.0144 C42.9367,43.9526 42.8431,43.9216 42.7098,43.9216 C42.6209,43.9216 42.5536,43.9387 42.5079,43.9726 C42.4622,44.0066 42.4393,44.0514 42.4393,44.1072 C42.4393,44.1682 42.4693,44.217 42.5294,44.2536 C42.5643,44.2753 42.6157,44.2945 42.6836,44.311 L42.8391,44.349 C43.0081,44.3898 43.1213,44.4295 43.1789,44.4678 C43.2703,44.5279 43.316,44.6225 43.316,44.7514 C43.316,44.876 43.2688,44.9836 43.1743,45.0742 C43.0798,45.1648 42.9358,45.2101 42.7424,45.2101 C42.5342,45.2101 42.3868,45.1628 42.3002,45.0683 C42.2134,44.9738 42.1671,44.8569 42.1609,44.7174 L42.387,44.7174 M43.7094,43.7753 L43.9824,43.7753 L43.9824,44.0602 L43.7094,44.0602 L43.7094,43.7753 M43.7094,44.8716 L43.9824,44.8716 L43.9824,45.1565 L43.7094,45.1565 L43.7094,44.8716 M44.7604,43.2369 L44.959,43.2369 L44.3501,45.1565 L44.1515,45.1565 L44.7604,43.2369 M45.4991,43.2369 L45.6977,43.2369 L45.0888,45.1565 L44.8902,45.1565 L45.4991,43.2369 M45.8079,43.2369 L46.0431,43.2369 L46.0431,45.1565 L45.8079,45.1565 L45.8079,43.2369 M46.5671,44.784 C46.5671,44.8521 46.592,44.9056 46.6416,44.9448 C46.6912,44.984 46.75,45.0036 46.818,45.0036 C46.9007,45.0036 46.9809,44.9844 47.0584,44.9461 C47.1891,44.8825 47.2544,44.7784 47.2544,44.6338 L47.2544,44.4443 C47.2257,44.4627 47.1887,44.4778 47.1434,44.4901 C47.0981,44.5022 47.0536,44.511 47.0101,44.5162 L46.8677,44.5345 C46.7822,44.5458 46.7183,44.5636 46.6756,44.588 C46.6033,44.629 46.5671,44.6944 46.5671,44.784 M47.1369,44.3085 C47.1908,44.3015 47.227,44.2788 47.2453,44.2405 C47.2557,44.2195 47.2609,44.1895 47.2609,44.1503 C47.2609,44.0702 47.2325,44.012 47.1754,43.9759 C47.1183,43.9397 47.0367,43.9216 46.9304,43.9216 C46.8076,43.9216 46.7204,43.9548 46.669,44.021 C46.6403,44.0575 46.6215,44.112 46.6129,44.1843 L46.3933,44.1843 C46.3976,44.0119 46.4537,43.8918 46.5613,43.8243 C46.6688,43.7568 46.7936,43.7231 46.9356,43.7231 C47.1002,43.7231 47.234,43.7544 47.3368,43.8172 C47.4387,43.8799 47.4896,43.9774 47.4896,44.1098 L47.4896,44.916 C47.4896,44.9404 47.4946,44.96 47.5047,44.9749 C47.5147,44.9897 47.5358,44.997 47.568,44.997 C47.5784,44.997 47.5902,44.9965 47.6033,44.9951 C47.6164,44.9938 47.6304,44.9918 47.6451,44.9892 L47.6451,45.163 C47.6085,45.1734 47.5807,45.18 47.5615,45.1826 C47.5424,45.1852 47.5162,45.1865 47.4831,45.1865 C47.4021,45.1865 47.3433,45.1578 47.3067,45.1003 C47.2875,45.0698 47.274,45.0267 47.2662,44.9709 C47.2183,45.0337 47.1495,45.0881 47.0597,45.1343 C46.97,45.1804 46.8712,45.2035 46.7631,45.2035 C46.6333,45.2035 46.5273,45.1641 46.4449,45.0853 C46.3626,45.0064 46.3214,44.9078 46.3214,44.7893 C46.3214,44.6595 46.3619,44.5589 46.443,44.4874 C46.524,44.416 46.6303,44.372 46.7618,44.3555 L47.1369,44.3085 M47.7597,44.9709 L48.5894,43.9674 L47.8211,43.9674 L47.8211,43.7571 L48.9056,43.7571 L48.9056,43.9491 L48.0812,44.9461 L48.9305,44.9461 L48.9305,45.1565 L47.7597,45.1565 L47.7597,44.9709 M50.0765,43.7571 L50.3365,43.7571 C50.3034,43.8467 50.2298,44.0514 50.1156,44.3712 C50.0303,44.6116 49.9588,44.8076 49.9013,44.9592 C49.7654,45.3163 49.6696,45.5341 49.6139,45.6125 C49.5581,45.691 49.4623,45.7301 49.3264,45.7301 C49.2933,45.7301 49.2678,45.7288 49.25,45.7262 C49.2321,45.7236 49.2102,45.7188 49.184,45.7119 L49.184,45.4976 C49.2249,45.5089 49.2545,45.5158 49.2728,45.5185 C49.2912,45.521 49.3073,45.5223 49.3212,45.5223 C49.3647,45.5223 49.3968,45.5152 49.4172,45.5008 C49.4377,45.4865 49.4549,45.4687 49.4688,45.4478 C49.4732,45.441 49.4889,45.4052 49.5159,45.3407 C49.5428,45.2763 49.5624,45.2284 49.5747,45.197 L49.0572,43.7571 L49.3238,43.7571 L49.6988,44.8964 L50.0765,43.7571 M51.1309,44.9983 C51.2407,44.9983 51.3319,44.9525 51.4047,44.8605 C51.4775,44.7686 51.5138,44.6312 51.5138,44.4482 C51.5138,44.3367 51.4977,44.2409 51.4654,44.1608 C51.4045,44.0066 51.293,43.9295 51.1309,43.9295 C50.9681,43.9295 50.8566,44.0109 50.7965,44.1739 C50.7642,44.261 50.748,44.3716 50.748,44.5057 C50.748,44.6137 50.7642,44.7057 50.7965,44.7815 C50.8574,44.9261 50.9689,44.9983 51.1309,44.9983 M50.5221,43.7636 L50.7507,43.7636 L50.7507,43.9491 C50.7978,43.8855 50.8491,43.8363 50.9049,43.8014 C50.9842,43.7491 51.0773,43.7231 51.1845,43.7231 C51.3431,43.7231 51.4777,43.7838 51.5882,43.9053 C51.6989,44.0268 51.7542,44.2004 51.7542,44.426 C51.7542,44.7309 51.6745,44.9487 51.5152,45.0793 C51.4141,45.1621 51.2964,45.2035 51.1623,45.2035 C51.0569,45.2035 50.9685,45.1804 50.8971,45.1343 C50.8552,45.1082 50.8086,45.0632 50.7573,44.9997 L50.7573,45.7144 L50.5221,45.7144 L50.5221,43.7636 M52.0178,43.7636 L52.2569,43.7636 L52.2569,45.1565 L52.0178,45.1565 L52.0178,43.7636 M52.0178,43.2369 L52.2569,43.2369 L52.2569,43.5035 L52.0178,43.5035 L52.0178,43.2369 M53.1428,43.7165 C53.3005,43.7165 53.4288,43.7548 53.5277,43.8315 C53.6265,43.9081 53.6859,44.0401 53.706,44.2275 L53.4773,44.2275 C53.4633,44.1412 53.4316,44.0695 53.382,44.0125 C53.3323,43.9554 53.2525,43.9269 53.1428,43.9269 C52.9929,43.9269 52.8858,44.0001 52.8213,44.1465 C52.7796,44.2414 52.7587,44.3585 52.7587,44.4979 C52.7587,44.6381 52.7883,44.7562 52.8475,44.8521 C52.9068,44.9478 52.9999,44.9958 53.1272,44.9958 C53.2247,44.9958 53.302,44.9659 53.3591,44.9062 C53.4162,44.8466 53.4555,44.7649 53.4773,44.6612 L53.706,44.6612 C53.6799,44.8468 53.6145,44.9825 53.51,45.0683 C53.4054,45.154 53.2718,45.197 53.1088,45.197 C52.9259,45.197 52.78,45.1301 52.6711,44.9965 C52.5622,44.8627 52.5078,44.6957 52.5078,44.4952 C52.5078,44.2496 52.5675,44.0584 52.6868,43.9216 C52.8062,43.7848 52.9581,43.7165 53.1428,43.7165 M53.9974,44.8716 L54.2705,44.8716 L54.2705,45.1565 L53.9974,45.1565 L53.9974,44.8716 M55.2353,45.0049 C55.3912,45.0049 55.4981,44.9459 55.556,44.8278 C55.614,44.7098 55.643,44.5785 55.643,44.4338 C55.643,44.3032 55.6221,44.1969 55.5802,44.1151 C55.514,43.9861 55.3999,43.9216 55.2379,43.9216 C55.0941,43.9216 54.9897,43.9765 54.9243,44.0863 C54.8589,44.1961 54.8262,44.3284 54.8262,44.4836 C54.8262,44.6325 54.8589,44.7566 54.9243,44.8559 C54.9897,44.9553 55.0933,45.0049 55.2353,45.0049 M55.2444,43.7165 C55.4247,43.7165 55.5771,43.7767 55.7017,43.8968 C55.8264,44.017 55.8886,44.1939 55.8886,44.4273 C55.8886,44.6529 55.8337,44.8394 55.724,44.9867 C55.6142,45.1338 55.4439,45.2074 55.2131,45.2074 C55.0205,45.2074 54.8677,45.1424 54.7544,45.0121 C54.6411,44.8818 54.5845,44.707 54.5845,44.4874 C54.5845,44.2522 54.6442,44.065 54.7636,43.9256 C54.8829,43.7862 55.0432,43.7165 55.2444,43.7165 M56.1639,43.7571 L56.3873,43.7571 L56.3873,43.9988 C56.4057,43.9518 56.4505,43.8944 56.5219,43.827 C56.5934,43.7594 56.6757,43.7257 56.7689,43.7257 C56.7732,43.7257 56.7806,43.7261 56.7911,43.7269 C56.8015,43.7279 56.8194,43.7296 56.8447,43.7322 L56.8447,43.9805 C56.8307,43.9778 56.8178,43.9761 56.8062,43.9752 C56.7944,43.9744 56.7815,43.9739 56.7675,43.9739 C56.6491,43.9739 56.5581,44.012 56.4945,44.0882 C56.4309,44.1644 56.3991,44.2522 56.3991,44.3515 L56.3991,45.1565 L56.1639,45.1565 L56.1639,43.7571 M57.5294,43.7322 C57.6391,43.7322 57.735,43.7592 57.8168,43.8132 C57.8613,43.8437 57.9065,43.8881 57.9528,43.9465 L57.9528,43.7701 L58.1696,43.7701 L58.1696,45.0428 C58.1696,45.2205 58.1435,45.3608 58.0912,45.4636 C57.9937,45.6535 57.8094,45.7484 57.5385,45.7484 C57.3878,45.7484 57.261,45.7147 57.1583,45.6471 C57.0555,45.5796 56.9979,45.474 56.9858,45.3303 L57.2249,45.3303 C57.2362,45.393 57.2589,45.4413 57.2929,45.4753 C57.346,45.5276 57.4296,45.5537 57.5438,45.5537 C57.7241,45.5537 57.8421,45.4901 57.8979,45.363 C57.9309,45.288 57.9462,45.1543 57.9436,44.9618 C57.8965,45.0332 57.8399,45.0863 57.7737,45.1212 C57.7075,45.156 57.62,45.1734 57.5111,45.1734 C57.3595,45.1734 57.2269,45.1197 57.1132,45.0121 C56.9995,44.9045 56.9426,44.7266 56.9426,44.4783 C56.9426,44.2439 56.9999,44.061 57.1145,43.9295 C57.2291,43.7979 57.3674,43.7322 57.5294,43.7322 M57.9528,44.4509 C57.9528,44.2775 57.917,44.149 57.8456,44.0653 C57.7742,43.9818 57.6831,43.94 57.5725,43.94 C57.407,43.94 57.2937,44.0175 57.2328,44.1725 C57.2005,44.2553 57.1844,44.3638 57.1844,44.4979 C57.1844,44.6556 57.2165,44.7756 57.2804,44.8579 C57.3445,44.9402 57.4305,44.9814 57.5385,44.9814 C57.7075,44.9814 57.8265,44.9052 57.8952,44.7527 C57.9336,44.6665 57.9528,44.5659 57.9528,44.4509 Z" style="stroke:none;fill-rule:evenodd;fill:#000000;fill-opacity:1;"/>
        </g>
    </g>
</svg>
