<?xml version="1.0"?>
<svg version="1.1" xmlns="http://www.w3.org/2000/svg" xmlns:xlink="http://www.w3.org/1999/xlink" width="1110" height="626">
    <desc iVinci="yes" version="4.6" gridStep="20" showGrid="no" snapToGrid="no" codePlatform="0"/>
    <g id="Layer1" name="front" opacity="1">
        <g id="Shape1">
            <desc shapeID="1" type="0" basicInfo-basicType="0" basicInfo-roundedRectRadius="12" basicInfo-polygonSides="6" basicInfo-starPoints="5" bounding="rect(-0.0164664,0,0.0329336,0)" text="" font-familyName="Helvetica" font-pixelSize="20" font-bold="0" font-underline="0" font-alignment="1" strokeStyle="0" markerStart="0" markerEnd="0" shadowEnabled="0" shadowOffsetX="0" shadowOffsetY="2" shadowBlur="4" shadowOpacity="160" blurEnabled="0" blurRadius="4" transform="matrix(2.47862,0,0,2.47862,409.329,333.287)" pers-center="0,0" pers-size="0,0" pers-start="0,0" pers-end="0,0" locked="0" mesh="" flag=""/>
            <path id="shapePath1" d="M409.288,333.287 C409.472,333.287 409.288,333.287 409.288,333.287 Z" style="stroke:none;fill-rule:evenodd;fill:#000000;fill-opacity:1;"/>
        </g>
        <g id="Shape2">
            <desc shapeID="2" type="0" basicInfo-basicType="0" basicInfo-roundedRectRadius="12" basicInfo-polygonSides="6" basicInfo-starPoints="5" bounding="rect(-22.1306,-19.8753,44.2613,39.7506)" text="" font-familyName="Helvetica" font-pixelSize="20" font-bold="0" font-underline="0" font-alignment="1" strokeStyle="0" markerStart="0" markerEnd="0" shadowEnabled="0" shadowOffsetX="0" shadowOffsetY="2" shadowBlur="4" shadowOpacity="160" blurEnabled="0" blurRadius="4" transform="matrix(2.47862,0,0,2.47862,457.74,382.551)" pers-center="0,0" pers-size="0,0" pers-start="0,0" pers-end="0,0" locked="0" mesh="" flag=""/>
            <path id="shapePath2" d="M407.45,333.287 C407.45,333.287 443.662,359.389 443.662,359.389 C443.662,359.389 512.594,384.941 512.594,384.941 C512.594,384.941 502.667,415.086 502.667,415.086 C502.667,415.086 493.109,431.814 493.109,431.814 C493.109,431.814 428.957,395.051 428.957,395.051 C428.957,395.051 405.612,365.823 405.612,365.823 C405.612,365.823 402.452,355.205 402.938,346.609 C403.368,338.995 407.45,333.287 407.45,333.287 Z" style="stroke:none;fill-rule:evenodd;fill:#fbbbb8;fill-opacity:1;"/>
        </g>
        <g id="Shape3">
            <desc shapeID="3" type="0" basicInfo-basicType="0" basicInfo-roundedRectRadius="12" basicInfo-polygonSides="6" basicInfo-starPoints="5" bounding="rect(-21.4964,-10.7635,42.9929,21.527)" text="" font-familyName="Helvetica" font-pixelSize="20" font-bold="0" font-underline="0" font-alignment="1" strokeStyle="0" markerStart="0" markerEnd="0" shadowEnabled="0" shadowOffsetX="0" shadowOffsetY="2" shadowBlur="4" shadowOpacity="160" blurEnabled="0" blurRadius="4" transform="matrix(2.47862,0,0,2.47862,665.129,405.616)" pers-center="0,0" pers-size="0,0" pers-start="0,0" pers-end="0,0" locked="0" mesh="" flag=""/>
            <path id="shapePath3" d="M714.243,432.294 C714.243,432.294 646.418,416.92 646.418,416.92 C646.418,416.92 622.363,407.154 613.5,400.1 C604.639,393.046 634.3,393.769 634.3,393.769 C634.3,393.769 667.4,378.937 667.4,378.937 C667.4,378.937 718.224,391.96 718.405,391.96 C718.586,391.96 714.243,432.294 714.243,432.294 Z" style="stroke:none;fill-rule:evenodd;fill:#fbbbb8;fill-opacity:1;"/>
        </g>
        <g id="Shape4">
            <desc shapeID="4" type="0" basicInfo-basicType="0" basicInfo-roundedRectRadius="12" basicInfo-polygonSides="6" basicInfo-starPoints="5" bounding="rect(-66.4877,-52.38,132.976,104.76)" text="" font-familyName="Helvetica" font-pixelSize="20" font-bold="0" font-underline="0" font-alignment="1" strokeStyle="0" markerStart="0" markerEnd="0" shadowEnabled="0" shadowOffsetX="0" shadowOffsetY="2" shadowBlur="4" shadowOpacity="160" blurEnabled="0" blurRadius="4" transform="matrix(2.47862,0,0,2.47862,540.51,268.902)" pers-center="0,0" pers-size="0,0" pers-start="0,0" pers-end="0,0" locked="0" mesh="" flag=""/>
            <path id="shapePath4" d="M394.754,319.513 C394.754,319.513 429.124,354.758 429.124,354.758 C429.124,354.758 446.91,364.286 466.889,371.504 C490.718,380.112 517.422,386.658 517.422,386.658 C517.422,386.658 578.66,398.732 578.66,398.732 C578.66,398.732 635.146,394.555 635.146,394.555 C635.146,394.555 675.145,372.136 675.145,372.136 C675.145,372.136 701.577,335.056 701.577,335.056 C701.577,335.056 705.308,285.469 705.308,285.469 C705.308,285.469 687.898,237.281 687.898,237.281 C687.898,237.281 675.773,216.918 675.773,216.918 C675.773,216.918 677.949,195.467 678.105,195.467 C678.261,195.467 643.702,202.521 643.702,202.521 C643.702,202.521 591.217,174.921 591.217,174.921 C591.217,174.921 529.765,163.18 529.567,163.18 C529.37,163.18 493.406,163.576 493.406,163.576 C493.406,163.576 468.508,139.072 468.508,139.072 C468.508,139.072 460.208,167.527 460.208,167.527 C460.208,167.527 450.291,171.917 450.291,171.917 C450.291,171.917 428.556,178.961 428.556,178.961 C428.556,178.961 396.814,207.586 396.814,207.586 C396.814,207.586 381.741,236.803 381.741,236.803 C381.741,236.803 375.712,266.253 375.712,266.253 C375.712,266.253 381.973,295.935 381.973,295.935 C381.973,295.935 394.754,319.513 394.754,319.513 Z" style="stroke:none;fill-rule:evenodd;fill:#fff9ee;fill-opacity:1;"/>
        </g>
        <g id="Shape5">
            <desc shapeID="5" type="0" basicInfo-basicType="0" basicInfo-roundedRectRadius="12" basicInfo-polygonSides="6" basicInfo-starPoints="5" bounding="rect(0,0,0,0)" text="" font-familyName="Helvetica" font-pixelSize="20" font-bold="0" font-underline="0" font-alignment="1" strokeStyle="0" markerStart="0" markerEnd="0" shadowEnabled="0" shadowOffsetX="0" shadowOffsetY="2" shadowBlur="4" shadowOpacity="160" blurEnabled="0" blurRadius="4" transform="matrix(2.47862,0,0,2.47862,492.068,430.728)" pers-center="0,0" pers-size="0,0" pers-start="0,0" pers-end="0,0" locked="0" mesh="" flag=""/>
            <path id="shapePath5" d="M492.068,430.728 Z" style="stroke:none;fill-rule:evenodd;fill:#000000;fill-opacity:1;"/>
        </g>
        <g id="Shape6">
            <desc shapeID="6" type="0" basicInfo-basicType="0" basicInfo-roundedRectRadius="12" basicInfo-polygonSides="6" basicInfo-starPoints="5" bounding="rect(-6.95312,-10.3777,13.9062,20.7553)" text="" font-familyName="Helvetica" font-pixelSize="20" font-bold="0" font-underline="0" font-alignment="1" strokeStyle="0" markerStart="0" markerEnd="0" shadowEnabled="0" shadowOffsetX="0" shadowOffsetY="2" shadowBlur="4" shadowOpacity="160" blurEnabled="0" blurRadius="4" transform="matrix(2.47862,0,0,2.47862,509.999,409.976)" pers-center="0,0" pers-size="0,0" pers-start="0,0" pers-end="0,0" locked="0" mesh="" flag=""/>
            <path id="shapePath6" d="M492.765,431.194 C492.765,431.194 505.932,407.258 505.932,407.258 C505.932,407.258 511.819,384.254 511.896,384.254 C511.974,384.254 518.403,392.619 518.403,392.619 C518.403,392.619 527.233,402.38 527.233,402.38 C527.233,402.38 520.417,408.73 520.494,408.73 C520.572,408.73 521.889,416.166 521.889,416.166 C521.889,416.166 516.389,422.286 516.389,422.286 C516.389,422.286 515.537,430.651 515.537,430.651 C515.537,430.651 510.074,435.571 504.808,435.695 C498.744,435.839 492.765,431.194 492.765,431.194 Z" style="stroke:none;fill-rule:evenodd;fill:#fff9ee;fill-opacity:1;"/>
        </g>
        <g id="Shape7">
            <desc shapeID="7" type="0" basicInfo-basicType="0" basicInfo-roundedRectRadius="12" basicInfo-polygonSides="6" basicInfo-starPoints="5" bounding="rect(-4.33381,-8.33136,8.66763,16.6627)" text="" font-familyName="Helvetica" font-pixelSize="20" font-bold="0" font-underline="0" font-alignment="1" strokeStyle="0" markerStart="0" markerEnd="0" shadowEnabled="0" shadowOffsetX="0" shadowOffsetY="2" shadowBlur="4" shadowOpacity="160" blurEnabled="0" blurRadius="4" transform="matrix(2.47862,0,0,2.47862,723.639,413.176)" pers-center="0,0" pers-size="0,0" pers-start="0,0" pers-end="0,0" locked="0" mesh="" flag=""/>
            <path id="shapePath7" d="M719.017,392.542 C719.017,392.542 712.897,432.897 712.897,432.897 C712.897,432.897 723.045,433.826 723.045,433.826 C723.045,433.826 734.275,427.166 734.275,427.166 C734.275,427.166 734.042,416.476 734.042,416.476 C734.042,416.476 734.042,411.638 732.206,406.219 C732.248,402.903 735.398,400.95 734.042,398.481 C730.431,391.908 719.017,392.542 719.017,392.542 Z" style="stroke:none;fill-rule:evenodd;fill:#fff9ee;fill-opacity:1;"/>
        </g>
        <g id="Shape8">
            <desc shapeID="8" type="0" basicInfo-basicType="0" basicInfo-roundedRectRadius="12" basicInfo-polygonSides="6" basicInfo-starPoints="5" bounding="rect(0,0,0,0)" text="" font-familyName="Helvetica" font-pixelSize="20" font-bold="0" font-underline="0" font-alignment="1" strokeStyle="0" markerStart="0" markerEnd="0" shadowEnabled="0" shadowOffsetX="0" shadowOffsetY="2" shadowBlur="4" shadowOpacity="160" blurEnabled="0" blurRadius="4" transform="matrix(2.47862,0,0,2.47862,514.605,297.986)" pers-center="0,0" pers-size="0,0" pers-start="0,0" pers-end="0,0" locked="0" mesh="" flag=""/>
            <path id="shapePath8" d="M514.605,297.986 Z" style="stroke:none;fill-rule:evenodd;fill:#fff5ea;fill-opacity:1;"/>
        </g>
        <g id="Shape9">
            <desc shapeID="9" type="0" basicInfo-basicType="0" basicInfo-roundedRectRadius="12" basicInfo-polygonSides="6" basicInfo-starPoints="5" bounding="rect(-12.2086,-11.2344,24.4173,22.4688)" text="" font-familyName="Helvetica" font-pixelSize="20" font-bold="0" font-underline="0" font-alignment="1" strokeStyle="0" markerStart="0" markerEnd="0" shadowEnabled="0" shadowOffsetX="0" shadowOffsetY="2" shadowBlur="4" shadowOpacity="160" blurEnabled="0" blurRadius="4" transform="matrix(2.47862,0,0,2.47862,542.285,293.746)" pers-center="0,0" pers-size="0,0" pers-start="0,0" pers-end="0,0" locked="0" mesh="" flag=""/>
            <path id="shapePath9" d="M526.205,306.709 C526.205,306.709 548.253,306.134 548.253,306.134 C548.253,306.134 556.696,309.685 556.696,309.685 C556.696,309.685 562.941,319.345 562.941,319.345 C562.941,319.345 568.673,321.592 568.673,321.592 C568.673,321.592 572.545,320.12 572.545,320.12 C572.545,320.12 571.306,314.543 571.306,314.543 C571.306,314.543 566.116,304.629 566.116,304.629 C566.116,304.629 562.321,297.425 562.398,297.425 C562.476,297.425 560.849,291.771 560.849,291.771 C560.849,291.771 559.068,277.364 559.068,277.364 C559.068,277.364 555.505,273.569 555.505,273.569 C555.505,273.569 530.641,265.9 530.641,265.9 C530.641,265.9 523.67,266.365 523.67,266.365 C523.67,266.365 517.362,273.055 517.362,273.055 C517.362,273.055 512.024,284.313 512.024,284.313 C512.024,284.313 512.108,292.042 515.517,297.425 C519.189,303.224 526.205,306.709 526.205,306.709 Z" style="stroke:none;fill-rule:evenodd;fill:#ffffff;fill-opacity:1;"/>
        </g>
        <g id="Shape10">
            <desc shapeID="10" type="0" basicInfo-basicType="0" basicInfo-roundedRectRadius="12" basicInfo-polygonSides="6" basicInfo-starPoints="5" bounding="rect(-11.5247,-13.7458,23.0493,27.4917)" text="" font-familyName="" font-pixelSize="20" font-bold="0" font-underline="0" font-alignment="1" strokeStyle="0" markerStart="0" markerEnd="0" shadowEnabled="0" shadowOffsetX="0" shadowOffsetY="2" shadowBlur="4" shadowOpacity="160" blurEnabled="0" blurRadius="4" transform="matrix(1.32109,0,0,1.32109,491.73,466.616)" pers-center="0,0" pers-size="0,0" pers-start="0,0" pers-end="0,0" locked="0" mesh="" flag=""/>
            <path id="shapePath10" d="M486.34,453.13 C481.452,459.207 474.979,479.683 476.828,483.119 C478.678,486.685 480.924,484.44 483.17,476.91 C484.491,472.418 485.416,471.097 487.133,471.494 C488.322,471.757 491.096,472.418 493.474,472.946 C496.38,473.474 498.494,475.192 500.344,478.362 C502.193,481.401 503.647,482.591 505.099,482.063 C508.006,480.873 507.61,477.703 503.118,465.548 C496.38,447.052 493.078,444.675 486.34,453.13 M495.059,465.944 C495.191,466.606 493.078,467.003 490.568,467.003 L485.944,467.003 L488.718,461.322 L491.625,455.772 L493.342,460.397 C494.267,462.905 495.059,465.416 495.059,465.944 Z" style="stroke:none;fill-rule:evenodd;fill:#583735;fill-opacity:1;"/>
        </g>
        <g id="Shape11">
            <desc shapeID="11" type="0" basicInfo-basicType="0" basicInfo-roundedRectRadius="12" basicInfo-polygonSides="6" basicInfo-starPoints="5" bounding="rect(-11.8634,-12.9689,23.7268,25.9378)" text="" font-familyName="" font-pixelSize="20" font-bold="0" font-underline="0" font-alignment="1" strokeStyle="0" markerStart="0" markerEnd="0" shadowEnabled="0" shadowOffsetX="0" shadowOffsetY="2" shadowBlur="4" shadowOpacity="160" blurEnabled="0" blurRadius="4" transform="matrix(1.32109,0,0,1.32109,452.793,468.282)" pers-center="0,0" pers-size="0,0" pers-start="0,0" pers-end="0,0" locked="0" mesh="" flag=""/>
            <path id="shapePath11" d="M437.989,452.074 C436.667,453.395 436.932,482.59 438.253,483.384 C438.913,483.78 445.255,484.571 452.388,484.967 C463.882,485.761 465.731,485.629 467.449,483.515 C470.751,479.552 465.996,477.571 453.313,477.571 L442.348,477.571 L442.348,464.36 C442.348,454.188 441.952,451.149 440.631,451.149 C439.574,451.149 438.385,451.546 437.989,452.074 Z" style="stroke:none;fill-rule:evenodd;fill:#583735;fill-opacity:1;"/>
        </g>
        <g id="Shape12">
            <desc shapeID="12" type="0" basicInfo-basicType="0" basicInfo-roundedRectRadius="12" basicInfo-polygonSides="6" basicInfo-starPoints="5" bounding="rect(-10.3736,-11.4348,20.7473,22.8696)" text="" font-familyName="" font-pixelSize="20" font-bold="0" font-underline="0" font-alignment="1" strokeStyle="0" markerStart="0" markerEnd="0" shadowEnabled="0" shadowOffsetX="0" shadowOffsetY="2" shadowBlur="4" shadowOpacity="160" blurEnabled="0" blurRadius="4" transform="matrix(1.32109,0,0,1.32109,532.635,468.823)" pers-center="0,0" pers-size="0,0" pers-start="0,0" pers-end="0,0" locked="0" mesh="" flag=""/>
            <path id="shapePath12" d="M519.896,454.716 C517.782,456.697 519.235,458.942 523.331,459.735 C532.578,461.584 532.446,461.322 528.351,467.003 C522.934,474.533 520.821,479.948 522.802,481.929 C524.652,483.78 542.751,484.705 545.26,483.119 C546.582,482.194 546.714,481.27 545.525,479.024 C544.204,476.778 542.751,476.25 536.674,476.25 C529.54,476.25 529.54,476.25 530.993,473.212 C531.918,471.625 534.296,468.324 536.277,466.076 C538.391,463.699 539.712,460.925 539.316,459.867 C537.73,455.772 522.802,451.809 519.896,454.716 Z" style="stroke:none;fill-rule:evenodd;fill:#583735;fill-opacity:1;"/>
        </g>
        <g id="Shape13">
            <desc shapeID="13" type="0" basicInfo-basicType="0" basicInfo-roundedRectRadius="12" basicInfo-polygonSides="6" basicInfo-starPoints="5" bounding="rect(-11.124,-12.6233,22.248,25.2466)" text="" font-familyName="" font-pixelSize="20" font-bold="0" font-underline="0" font-alignment="1" strokeStyle="0" markerStart="0" markerEnd="0" shadowEnabled="0" shadowOffsetX="0" shadowOffsetY="2" shadowBlur="4" shadowOpacity="160" blurEnabled="0" blurRadius="4" transform="matrix(1.32109,0,0,1.32109,569.863,472.782)" pers-center="0,0" pers-size="0,0" pers-start="0,0" pers-end="0,0" locked="0" mesh="" flag=""/>
            <path id="shapePath13" d="M579.213,458.942 C577.231,460.925 574.192,463.433 572.343,464.36 C569.304,466.076 568.776,465.813 563.888,461.056 C560.585,457.755 558.075,456.3 556.622,456.962 C554.64,457.621 554.64,458.151 556.886,461.849 C558.207,464.095 560.585,467.397 562.302,469.248 C564.284,471.36 565.209,474.136 565.209,477.571 C565.209,483.912 567.587,489.459 570.229,489.459 C571.814,489.459 572.079,488.006 571.418,481.004 L570.625,472.55 L575.778,469.114 C581.327,465.416 586.081,458.283 584.101,456.3 C583.439,455.641 581.327,456.696 579.213,458.942 Z" style="stroke:none;fill-rule:evenodd;fill:#583735;fill-opacity:1;"/>
        </g>
        <g id="Shape14">
            <desc shapeID="14" type="0" basicInfo-basicType="0" basicInfo-roundedRectRadius="12" basicInfo-polygonSides="6" basicInfo-starPoints="5" bounding="rect(-8.00444,-12.2878,16.0089,24.5755)" text="" font-familyName="" font-pixelSize="20" font-bold="0" font-underline="0" font-alignment="1" strokeStyle="0" markerStart="0" markerEnd="0" shadowEnabled="0" shadowOffsetX="0" shadowOffsetY="2" shadowBlur="4" shadowOpacity="160" blurEnabled="0" blurRadius="4" transform="matrix(1.32109,0,0,1.32109,611.442,471.608)" pers-center="0,0" pers-size="0,0" pers-start="0,0" pers-end="0,0" locked="0" mesh="" flag=""/>
            <path id="shapePath14" d="M605.898,456.83 C603.652,457.755 602.2,459.473 601.672,462.112 C600.351,468.586 600.747,486.554 602.2,487.478 C604.842,489.065 607.484,485.233 607.484,480.08 C607.484,475.457 607.881,474.929 610.919,474.929 C614.618,474.929 622.016,468.455 622.016,465.285 C622.016,461.453 620.299,458.942 616.598,457.093 C612.372,454.847 610.919,454.847 605.898,456.83 M615.542,462.509 C616.995,464.36 616.863,465.02 614.221,467.134 C609.068,471.36 606.163,469.776 606.163,462.905 C606.163,459.735 612.9,459.339 615.542,462.509 Z" style="stroke:none;fill-rule:evenodd;fill:#583735;fill-opacity:1;"/>
        </g>
        <g id="Shape15">
            <desc shapeID="15" type="0" basicInfo-basicType="0" basicInfo-roundedRectRadius="12" basicInfo-polygonSides="6" basicInfo-starPoints="5" bounding="rect(-10.4608,-11.2901,20.9215,22.5803)" text="" font-familyName="" font-pixelSize="20" font-bold="0" font-underline="0" font-alignment="1" strokeStyle="0" markerStart="0" markerEnd="0" shadowEnabled="0" shadowOffsetX="0" shadowOffsetY="2" shadowBlur="4" shadowOpacity="160" blurEnabled="0" blurRadius="4" transform="matrix(1.32109,0,0,1.32109,666.123,471.01)" pers-center="0,0" pers-size="0,0" pers-start="0,0" pers-end="0,0" locked="0" mesh="" flag=""/>
            <path id="shapePath15" d="M660.326,458.151 C652.136,463.302 649.626,475.854 655.572,481.401 C662.837,488.138 675.52,487.213 679.086,479.552 C681.463,474.399 678.558,472.153 674.461,475.985 C671.028,479.155 663.233,479.948 660.591,477.306 C658.214,474.929 658.742,470.436 661.912,466.341 C664.289,463.302 665.479,462.905 669.707,463.433 C673.405,463.964 674.858,463.567 675.52,462.112 C677.5,456.697 666.931,453.923 660.326,458.151 Z" style="stroke:none;fill-rule:evenodd;fill:#583735;fill-opacity:1;"/>
        </g>
        <g id="Shape16">
            <desc shapeID="16" type="0" basicInfo-basicType="0" basicInfo-roundedRectRadius="12" basicInfo-polygonSides="6" basicInfo-starPoints="5" bounding="rect(-2.39476,-10.9446,4.7895,21.8892)" text="" font-familyName="" font-pixelSize="20" font-bold="0" font-underline="0" font-alignment="1" strokeStyle="0" markerStart="0" markerEnd="0" shadowEnabled="0" shadowOffsetX="0" shadowOffsetY="2" shadowBlur="4" shadowOpacity="160" blurEnabled="0" blurRadius="4" transform="matrix(1.32109,0,0,1.32109,636.768,473.569)" pers-center="0,0" pers-size="0,0" pers-start="0,0" pers-end="0,0" locked="0" mesh="" flag=""/>
            <path id="shapePath16" d="M634.565,460.397 C633.376,462.377 633.244,481.535 634.434,485.101 C635.755,489.196 638.794,488.931 639.587,484.705 C640.378,480.476 639.719,465.416 638.529,461.718 C637.604,458.811 635.887,458.283 634.565,460.397 Z" style="stroke:none;fill-rule:evenodd;fill:#583735;fill-opacity:1;"/>
        </g>
        <g id="Shape17">
            <desc shapeID="17" type="0" basicInfo-basicType="0" basicInfo-roundedRectRadius="12" basicInfo-polygonSides="6" basicInfo-starPoints="5" bounding="rect(-134.764,-113.435,269.528,226.871)" text="" font-familyName="" font-pixelSize="20" font-bold="0" font-underline="0" font-alignment="1" strokeStyle="0" markerStart="0" markerEnd="0" shadowEnabled="0" shadowOffsetX="0" shadowOffsetY="2" shadowBlur="4" shadowOpacity="160" blurEnabled="0" blurRadius="4" transform="matrix(1.3423,-0.0251773,0.0251773,1.3423,554.063,287.249)" pers-center="0,0" pers-size="0,0" pers-start="0,0" pers-end="0,0" locked="0" mesh="" flag=""/>
            <path id="shapePath17" d="M465.71,137.838 C463.415,146.113 462.102,152.355 459.323,161.621 C457.62,167.298 457.868,169.974 458.962,171.027 C461.284,173.132 463.625,169.06 466.771,157.856 C468.147,152.459 469.66,147.194 470.042,146.113 C470.551,144.626 471.635,145.143 474.38,148.314 C476.437,150.558 481.238,155.973 484.945,160.335 C484.945,160.335 489.179,166.16 492.492,167.163 C497.507,168.681 507.497,167.163 507.497,167.163 C521.179,166.369 533.143,167.085 547.693,169.632 C551.195,170.237 551.198,170.372 550.1,176.3 C549.492,179.669 549.292,183.298 549.717,184.498 C551.264,188.229 554.4,183.605 554.679,177.02 C554.981,171.643 555.245,171.37 558.21,171.986 C559.963,172.355 563.065,173.103 565.22,173.465 C569.665,174.188 569.807,174.588 567.208,179.202 C564.741,183.68 564.75,191.333 567.3,191.285 C569.582,191.243 570.221,189.485 571.275,181.274 C571.749,177.908 572.368,175.077 572.77,175.07 C573.039,175.064 576.004,175.68 579.374,176.423 C585.848,177.913 585.99,178.313 584.163,188.283 C583.565,192.189 583.615,194.873 584.435,195.664 C586.76,197.903 589.608,192.21 589.489,185.901 C589.43,182.679 589.918,180.119 590.59,180.106 C591.797,180.084 599.243,183.301 622.804,193.87 C626.731,195.542 631.76,198.804 634.085,201.043 C637.778,204.6 638.99,204.845 644.621,204.337 C648.104,203.869 656.132,202.375 662.549,200.912 C668.964,199.315 674.451,198.406 674.863,198.801 C675.274,199.196 674.964,204.17 673.995,209.828 C673.165,215.618 673.304,217.47 674.303,221.214 C675.411,225.361 679.537,228.171 682.757,231.457 C693.787,246.692 703.778,278.195 703.687,294.847 C703.692,302.232 701.258,322.019 699.26,330.113 C694.27,350.483 671.973,374.929 647.073,386.14 C632.027,393.001 622.616,395.965 605.568,396.285 C596.71,396.451 587.204,396.112 585.32,395.879 C583.434,395.512 574.695,395.1 566.224,394.453 C550.757,393.132 539.946,390.242 516.849,383.022 C510.229,380.863 495.876,377.227 486.163,374.857 C476.583,372.352 466.735,369.469 464.16,368.173 C461.584,366.879 451.539,361.379 442.595,356.982 C425.113,348.445 418.9,342.785 398.595,319.802 C387.621,307.385 379.745,287.307 378.713,275.241 C377.066,259.025 382.318,236.357 392.98,217.761 C401.689,202.425 411.055,193.718 435.466,177.953 C437.454,176.573 443.335,174.811 446.681,174.211 C453.777,173.138 455.474,171.227 449.677,169.993 C444.017,168.891 436.811,171.308 426.194,177.953 C401.109,193.597 386.547,211.863 376.872,240.108 C373.051,251.191 371.925,253.244 372.991,269.454 C373.724,280.592 375.761,287.202 377.56,292.486 C384.201,311.987 390.311,319.482 396.751,326.344 L404.013,334.13 L402.25,340.34 C397.469,357.482 403.414,373.752 421.343,391.814 C439.001,409.744 445.248,413.519 494.278,435.965 C501.726,439.316 503.207,439.557 507.883,438.26 C516.431,435.817 519.706,431.459 518.76,423.959 C518.6,422.618 519.765,420.313 521.348,418.806 C523.195,417.026 523.96,414.862 523.519,412.857 C523.079,410.852 523.981,408.819 525.962,407.037 C527.676,405.394 529.118,403.488 529.103,402.682 C529.045,399.594 524.231,393.509 520.579,392.099 C514.899,389.922 514.397,391.814 519.315,396.285 C521.771,398.389 523.693,400.635 523.703,401.173 C523.741,403.186 520.699,405.659 518.283,405.704 C514.39,405.778 513.909,408.74 517.312,411.229 C520.85,413.712 520.852,413.849 515.661,416.228 C511.932,417.909 510.782,421.019 513.363,422.581 C515.672,424.016 514.947,428.326 511.9,430.532 C508.856,432.872 500.678,433.561 497.826,431.871 C496.606,431.221 497.239,429.196 499.843,424.849 C501.794,421.455 504.124,416.848 504.889,414.684 C505.652,412.386 507.689,406.44 509.604,401.168 C511.46,396.057 512.503,391.043 512.216,390.108 C511.236,387.979 515.95,388.696 525.148,392.282 C528.663,393.559 532.31,394.699 533.384,394.679 C534.457,394.659 538.91,395.784 543.365,397.044 C552.411,399.693 575.277,401.815 602.948,402.37 C619.069,402.739 622.153,402.415 631.095,399.559 C643.776,395.564 658.291,389.114 662.656,385.54 C666.755,382.241 671.316,382.021 679.287,384.559 C682.532,385.706 687.928,387.082 691.299,387.823 C694.667,388.433 701.414,390.185 706.542,391.566 L715.589,394.215 L715.698,399.988 C715.817,406.43 714.022,418.146 711.98,423.691 L710.701,427.206 L703.687,425.458 C699.773,424.457 690.072,422.625 681.857,421.436 C673.777,420.109 664.349,418.541 660.978,417.799 C649.383,415.331 644.812,415.013 644.842,416.625 C644.884,418.907 652.449,421.317 669.972,424.881 C702.051,431.261 705.962,432.262 708.153,434.505 C709.933,436.352 712.357,436.709 718.529,436.458 C725.236,436.064 727.506,435.351 731.606,432.049 C736.104,428.475 736.625,427.659 735.876,423.51 C735.289,420.836 735.634,417.742 736.546,416.248 C737.849,414.074 737.691,412.87 735.752,409.682 C733.809,406.363 733.794,405.558 735.381,404.184 C740.006,400.204 734.084,392.391 726.021,392.007 C723.335,391.923 720.229,391.04 719.136,389.987 C716.821,388.284 716.01,388.031 696.593,383.696 C690.253,382.204 682.566,380.467 679.329,379.589 L673.529,378.221 L682.757,369.184 C701.476,350.572 708.517,332.178 709.38,299.399 C709.667,286.1 709.177,281.409 706.862,272.59 C700.948,250.814 694.243,236.975 680.752,219.235 C679.927,218.177 679.974,213.61 680.916,206.476 C682.661,192.21 681.969,191.149 670.855,192.7 C666.433,193.185 658.677,194.942 653.604,196.515 L644.529,199.504 L640.829,195.546 C636.992,191.455 626.805,185.201 618.963,182.26 C616.395,181.368 610.166,178.665 605.154,176.342 C590.121,169.507 579.325,166.621 550.771,161.92 C534.742,159.267 510.431,158.917 499.057,161.01 C494.508,161.901 493.83,161.511 490.12,157.015 C483.936,149.478 477.267,142.969 470.042,137.063 C468.918,136.144 466.311,136.461 465.71,137.838 M437.965,361.691 C445.682,365.037 454.224,369.444 457.075,371.135 C461.829,374 486.007,381.604 503.543,385.84 L509.747,387.335 L508.242,393.003 C506.35,399.482 500.584,414.228 497.478,420.461 C494.765,426.152 493.957,426.033 466.454,412.988 C447.757,404.073 442.188,400.687 431.139,391.494 C410.409,374.429 402.901,360.737 405.005,344.048 L405.832,337.99 L414.991,346.681 C422.236,353.526 427.129,356.657 437.965,361.691 M731.368,397.948 C732.867,399.128 732.748,399.936 730.381,402.531 C727.62,405.672 727.645,407.015 730.949,411.385 C732.327,413.239 729.392,414.538 729.298,416.248 C729.196,418.114 729.625,420.038 730.381,421.748 C730.887,422.896 731.883,423.902 731.606,425.126 C731.219,426.829 728.978,427.937 728.978,427.937 C724.879,431.37 721.002,432.25 717.879,430.428 C716.518,429.513 716.63,428.304 718.169,424.38 C719.193,421.676 720.388,413.863 720.799,407.144 L721.377,394.912 L725.417,395.643 C727.707,396.002 730.277,397.029 731.368,397.948 Z" style="stroke:none;fill-rule:evenodd;fill:#583735;fill-opacity:1;"/>
        </g>
        <g id="Shape18">
            <desc shapeID="18" type="0" basicInfo-basicType="0" basicInfo-roundedRectRadius="12" basicInfo-polygonSides="6" basicInfo-starPoints="5" bounding="rect(-5.95638,-1.66109,11.9127,3.32217)" text="" font-familyName="" font-pixelSize="20" font-bold="0" font-underline="0" font-alignment="1" strokeStyle="0" markerStart="0" markerEnd="0" shadowEnabled="0" shadowOffsetX="0" shadowOffsetY="2" shadowBlur="4" shadowOpacity="160" blurEnabled="0" blurRadius="4" transform="matrix(1.3423,-0.0251773,0.0251773,1.3423,411.804,230.912)" pers-center="0,0" pers-size="0,0" pers-start="0,0" pers-end="0,0" locked="0" mesh="" flag=""/>
            <path id="shapePath18" d="M410.504,229.138 C400.994,230.391 401.854,233.329 411.653,233.145 C417.693,233.032 419.831,232.455 419.806,231.112 C419.758,228.562 417.466,228.068 410.504,229.138 Z" style="stroke:none;fill-rule:evenodd;fill:#583735;fill-opacity:1;"/>
        </g>
        <g id="Shape19">
            <desc shapeID="19" type="0" basicInfo-basicType="0" basicInfo-roundedRectRadius="12" basicInfo-polygonSides="6" basicInfo-starPoints="5" bounding="rect(-6.35454,-2.82267,12.7091,5.64534)" text="" font-familyName="" font-pixelSize="20" font-bold="0" font-underline="0" font-alignment="1" strokeStyle="0" markerStart="0" markerEnd="0" shadowEnabled="0" shadowOffsetX="0" shadowOffsetY="2" shadowBlur="4" shadowOpacity="160" blurEnabled="0" blurRadius="4" transform="matrix(1.3423,-0.0251773,0.0251773,1.3423,523.895,243.718)" pers-center="0,0" pers-size="0,0" pers-start="0,0" pers-end="0,0" locked="0" mesh="" flag=""/>
            <path id="shapePath19" d="M516.121,240.316 C514.011,242.37 516.062,243.499 522.68,245.523 C529.705,247.808 533.858,248.175 532.063,245.523 C530.678,243.266 517.438,238.949 516.121,240.316 Z" style="stroke:none;fill-rule:evenodd;fill:#583735;fill-opacity:1;"/>
        </g>
        <g id="Shape20">
            <desc shapeID="20" type="0" basicInfo-basicType="0" basicInfo-roundedRectRadius="12" basicInfo-polygonSides="6" basicInfo-starPoints="5" bounding="rect(-7.08133,-2.24172,14.1627,4.48345)" text="" font-familyName="" font-pixelSize="20" font-bold="0" font-underline="0" font-alignment="1" strokeStyle="0" markerStart="0" markerEnd="0" shadowEnabled="0" shadowOffsetX="0" shadowOffsetY="2" shadowBlur="4" shadowOpacity="160" blurEnabled="0" blurRadius="4" transform="matrix(1.3423,-0.0251773,0.0251773,1.3423,408.089,246.905)" pers-center="0,0" pers-size="0,0" pers-start="0,0" pers-end="0,0" locked="0" mesh="" flag=""/>
            <path id="shapePath20" d="M399.006,246.138 C397.985,248.977 398.122,249.109 408.473,249.721 C417.613,250.221 419.606,249.109 415.777,245.421 C413.316,243.05 400.032,243.568 399.006,246.138 Z" style="stroke:none;fill-rule:evenodd;fill:#583735;fill-opacity:1;"/>
        </g>
        <g id="Shape21">
            <desc shapeID="21" type="0" basicInfo-basicType="0" basicInfo-roundedRectRadius="12" basicInfo-polygonSides="6" basicInfo-starPoints="5" bounding="rect(-23.4062,-26.4636,46.8124,52.9273)" text="" font-familyName="" font-pixelSize="20" font-bold="0" font-underline="0" font-alignment="1" strokeStyle="0" markerStart="0" markerEnd="0" shadowEnabled="0" shadowOffsetX="0" shadowOffsetY="2" shadowBlur="4" shadowOpacity="160" blurEnabled="0" blurRadius="4" transform="matrix(1.3423,-0.0251773,0.0251773,1.3423,542.264,287.812)" pers-center="0,0" pers-size="0,0" pers-start="0,0" pers-end="0,0" locked="0" mesh="" flag=""/>
            <path id="shapePath21" d="M542.431,254.19 C542.451,255.264 543.005,256.194 543.676,256.181 C544.884,256.158 544.384,265.299 543.204,266.798 C542.941,267.071 541.054,266.704 539.025,265.936 C536.997,265.169 532.952,264.305 530.258,263.818 C525.815,263.23 524.615,263.656 519.866,268.176 C512.477,275.162 510.676,279.359 510.862,289.292 C511.016,297.48 511.297,298.146 516.215,302.619 C523.187,309.202 526.968,310.34 539.299,309.168 C552.433,307.848 556.172,311.937 561.416,319.492 C563.488,322.542 568.962,322.845 570.573,322.815 C575.808,322.717 575.735,318.566 568.922,306.072 C563.219,295.571 561.901,293.091 561.626,285.577 C561.49,278.328 560.84,276.404 558.105,273.769 C556.328,272.057 553.073,270.373 550.647,269.881 C547.279,269.273 546.595,268.614 547.223,266.32 C547.596,264.702 547.951,262.144 547.923,260.667 C547.88,258.385 548.544,257.97 551.239,258.456 C555.818,259.176 555.74,255.015 551.009,253.358 C546.007,251.572 542.388,251.909 542.431,254.19 M546.131,272.517 C552.078,274.554 557.079,276.34 557.219,276.606 C557.492,276.869 558.105,280.886 558.595,285.577 C559.425,294.02 561.139,300.255 563.752,303.563 C564.575,304.488 566.349,308.707 568.492,312.112 C573.138,319.492 567.974,323.67 563.277,316.641 C561.755,314.253 559.426,308.388 555.632,306.579 C549.803,303.6 547.108,303.114 537.846,303.287 C528.987,303.454 526.024,302.972 522.223,300.761 C512.582,295.033 512.19,281.344 521.127,270.972 C524.151,267.558 525.086,267.272 529.933,267.987 C532.894,268.334 540.185,270.48 546.131,272.517 Z" style="stroke:none;fill-rule:evenodd;fill:#583735;fill-opacity:1;"/>
        </g>
        <g id="Shape22">
            <desc shapeID="22" type="0" basicInfo-basicType="0" basicInfo-roundedRectRadius="12" basicInfo-polygonSides="6" basicInfo-starPoints="5" bounding="rect(-6.80071,-2.22321,13.6014,4.44642)" text="" font-familyName="" font-pixelSize="20" font-bold="0" font-underline="0" font-alignment="1" strokeStyle="0" markerStart="0" markerEnd="0" shadowEnabled="0" shadowOffsetX="0" shadowOffsetY="2" shadowBlur="4" shadowOpacity="160" blurEnabled="0" blurRadius="4" transform="matrix(1.3423,-0.0251773,0.0251773,1.3423,405.89,262.391)" pers-center="0,0" pers-size="0,0" pers-start="0,0" pers-end="0,0" locked="0" mesh="" flag=""/>
            <path id="shapePath22" d="M399.002,260.238 C394.342,262.339 396.925,264.036 406.744,264.926 C413.873,265.598 415.076,265.307 415.043,263.562 C415.021,262.354 414.461,261.156 413.917,260.764 C411.336,259.201 402.067,258.972 399.002,260.238 Z" style="stroke:none;fill-rule:evenodd;fill:#583735;fill-opacity:1;"/>
        </g>
        <g id="Shape23">
            <desc shapeID="23" type="0" basicInfo-basicType="0" basicInfo-roundedRectRadius="12" basicInfo-polygonSides="6" basicInfo-starPoints="5" bounding="rect(-7.21095,-3.18319,14.4219,6.36638)" text="" font-familyName="" font-pixelSize="20" font-bold="0" font-underline="0" font-alignment="1" strokeStyle="0" markerStart="0" markerEnd="0" shadowEnabled="0" shadowOffsetX="0" shadowOffsetY="2" shadowBlur="4" shadowOpacity="160" blurEnabled="0" blurRadius="4" transform="matrix(1.3423,-0.0251773,0.0251773,1.3423,576.852,262.116)" pers-center="0,0" pers-size="0,0" pers-start="0,0" pers-end="0,0" locked="0" mesh="" flag=""/>
            <path id="shapePath23" d="M568.957,258.124 C564.945,259.005 567.659,260.462 575.363,263.138 C584.55,266.188 585.913,267.206 586.545,265.179 C587.432,262.343 573.903,256.957 568.957,258.124 Z" style="stroke:none;fill-rule:evenodd;fill:#583735;fill-opacity:1;"/>
        </g>
        <g id="Shape24">
            <desc shapeID="24" type="0" basicInfo-basicType="0" basicInfo-roundedRectRadius="12" basicInfo-polygonSides="6" basicInfo-starPoints="5" bounding="rect(-6.70611,-2.64716,13.4123,5.29431)" text="" font-familyName="" font-pixelSize="20" font-bold="0" font-underline="0" font-alignment="1" strokeStyle="0" markerStart="0" markerEnd="0" shadowEnabled="0" shadowOffsetX="0" shadowOffsetY="2" shadowBlur="4" shadowOpacity="160" blurEnabled="0" blurRadius="4" transform="matrix(1.3423,-0.0251773,0.0251773,1.3423,684.204,310.684)" pers-center="0,0" pers-size="0,0" pers-start="0,0" pers-end="0,0" locked="0" mesh="" flag=""/>
            <path id="shapePath24" d="M675.72,308.892 C674.414,310.931 675.093,311.321 682.638,312.657 C692.746,314.615 693.281,314.606 693.242,312.458 C693.165,308.297 677.931,305.091 675.72,308.892 Z" style="stroke:none;fill-rule:evenodd;fill:#583735;fill-opacity:1;"/>
        </g>
        <g id="Shape25">
            <desc shapeID="25" type="0" basicInfo-basicType="0" basicInfo-roundedRectRadius="12" basicInfo-polygonSides="6" basicInfo-starPoints="5" bounding="rect(-5.28698,-3.26878,10.5739,6.53759)" text="" font-familyName="" font-pixelSize="20" font-bold="0" font-underline="0" font-alignment="1" strokeStyle="0" markerStart="0" markerEnd="0" shadowEnabled="0" shadowOffsetX="0" shadowOffsetY="2" shadowBlur="4" shadowOpacity="160" blurEnabled="0" blurRadius="4" transform="matrix(1.3423,-0.0251773,0.0251773,1.3423,683.003,323.798)" pers-center="0,0" pers-size="0,0" pers-start="0,0" pers-end="0,0" locked="0" mesh="" flag=""/>
            <path id="shapePath25" d="M676.075,320.702 C675.16,322.062 677.071,323.638 683.169,326.612 C690.758,330.363 692.964,326.294 685.766,321.997 C681.017,319.267 677.245,318.666 676.075,320.702 Z" style="stroke:none;fill-rule:evenodd;fill:#583735;fill-opacity:1;"/>
        </g>
        <g id="Shape26">
            <desc shapeID="26" type="0" basicInfo-basicType="0" basicInfo-roundedRectRadius="12" basicInfo-polygonSides="6" basicInfo-starPoints="5" bounding="rect(-6.32055,-4.45303,12.641,8.90606)" text="" font-familyName="" font-pixelSize="20" font-bold="0" font-underline="0" font-alignment="1" strokeStyle="0" markerStart="0" markerEnd="0" shadowEnabled="0" shadowOffsetX="0" shadowOffsetY="2" shadowBlur="4" shadowOpacity="160" blurEnabled="0" blurRadius="4" transform="matrix(1.3423,-0.0251773,0.0251773,1.3423,676.045,339.027)" pers-center="0,0" pers-size="0,0" pers-start="0,0" pers-end="0,0" locked="0" mesh="" flag=""/>
            <path id="shapePath26" d="M667.479,334.828 C667.516,336.841 678.948,344.952 681.766,344.899 C687.539,344.791 684.086,339.753 675.416,335.619 C669.316,332.645 667.432,332.412 667.479,334.828 Z" style="stroke:none;fill-rule:evenodd;fill:#583735;fill-opacity:1;"/>
        </g>
        <g id="Shape27">
            <desc shapeID="27" type="0" basicInfo-basicType="0" basicInfo-roundedRectRadius="12" basicInfo-polygonSides="6" basicInfo-starPoints="5" bounding="rect(-7.13133,-4.86247,14.2626,9.72495)" text="" font-familyName="" font-pixelSize="20" font-bold="0" font-underline="0" font-alignment="1" strokeStyle="0" markerStart="0" markerEnd="0" shadowEnabled="0" shadowOffsetX="0" shadowOffsetY="2" shadowBlur="4" shadowOpacity="160" blurEnabled="0" blurRadius="4" transform="matrix(2.06382,-0.0387108,0.0387108,2.06382,496.072,256.55)" pers-center="0,0" pers-size="0,0" pers-start="0,0" pers-end="0,0" locked="0" mesh="" flag=""/>
            <path id="shapePath27" d="M484.129,249.419 C478.226,253.866 481.858,260.404 492.461,264.334 C501.187,267.267 502.013,267.252 506.908,264.063 C511.187,261.092 511.784,259.842 509.654,256.373 C507.513,252.284 496.049,246.512 490.477,246.616 C489.032,246.643 486.166,247.936 484.129,249.419 Z" style="stroke:none;fill-rule:evenodd;fill:#fc8e76;fill-opacity:0.67451;"/>
        </g>
        <g id="Shape28">
            <desc shapeID="28" type="0" basicInfo-basicType="0" basicInfo-roundedRectRadius="12" basicInfo-polygonSides="6" basicInfo-starPoints="5" bounding="rect(-6.40503,-4.29662,12.8101,8.59324)" text="" font-familyName="" font-pixelSize="20" font-bold="0" font-underline="0" font-alignment="1" strokeStyle="0" markerStart="0" markerEnd="0" shadowEnabled="0" shadowOffsetX="0" shadowOffsetY="2" shadowBlur="4" shadowOpacity="160" blurEnabled="0" blurRadius="4" transform="matrix(2.19143,-0.0411041,0.0411044,2.19143,596.8,285.646)" pers-center="0,0" pers-size="0,0" pers-start="0,0" pers-end="0,0" locked="0" mesh="" flag=""/>
            <path id="shapePath28" d="M584.153,278.178 C583.288,278.852 582.688,281.932 582.742,284.781 C582.931,294.862 607.348,299.227 610.677,289.738 C613.391,282.452 589.96,272.15 584.153,278.178 Z" style="stroke:none;fill-rule:evenodd;fill:#fc8e76;fill-opacity:0.643137;"/>
        </g>
    </g>
</svg>
