<?xml version="1.0"?>
<svg version="1.1" xmlns="http://www.w3.org/2000/svg" xmlns:xlink="http://www.w3.org/1999/xlink" width="242" height="136">
    <desc iVinci="yes" version="4.6" gridStep="20" showGrid="no" snapToGrid="no" codePlatform="0"/>
    <g id="Layer1" name="Layer 1" opacity="1">
        <g id="Shape1">
            <desc shapeID="1" type="0" basicInfo-basicType="0" basicInfo-roundedRectRadius="12" basicInfo-polygonSides="6" basicInfo-starPoints="5" bounding="rect(-0.003159,0,0.00631714,0)" text="" font-familyName="" font-pixelSize="20" font-bold="0" font-underline="0" font-alignment="1" strokeStyle="0" markerStart="0" markerEnd="0" shadowEnabled="0" shadowOffsetX="0" shadowOffsetY="2" shadowBlur="4" shadowOpacity="160" blurEnabled="0" blurRadius="4" transform="matrix(2.54675,0,0,2.54675,91.7626,56.126)" pers-center="0,0" pers-size="0,0" pers-start="0,0" pers-end="0,0" locked="0" mesh="" flag=""/>
            <path id="shapePath1" d="M91.7545,56.126 C91.7907,56.126 91.7545,56.126 91.7545,56.126 Z" style="stroke:none;fill-rule:evenodd;fill:#000000;fill-opacity:1;"/>
        </g>
        <g id="Shape2">
            <desc shapeID="2" type="0" basicInfo-basicType="0" basicInfo-roundedRectRadius="12" basicInfo-polygonSides="6" basicInfo-starPoints="5" bounding="rect(-4.21356,-3.78414,8.42713,7.56827)" text="" font-familyName="" font-pixelSize="20" font-bold="0" font-underline="0" font-alignment="1" strokeStyle="0" markerStart="0" markerEnd="0" shadowEnabled="0" shadowOffsetX="0" shadowOffsetY="2" shadowBlur="4" shadowOpacity="160" blurEnabled="0" blurRadius="4" transform="matrix(2.54675,0,0,2.54675,99.6031,65.286)" pers-center="0,0" pers-size="0,0" pers-start="0,0" pers-end="0,0" locked="0" mesh="" flag=""/>
            <path id="shapePath2" d="M89.7648,55.6487 C89.7648,55.6487 96.8488,60.7546 96.8488,60.7546 C96.8488,60.7546 110.334,65.7533 110.334,65.7533 C110.334,65.7533 108.392,71.6506 108.392,71.6506 C108.392,71.6506 106.522,74.9232 106.522,74.9232 C106.522,74.9232 93.9724,67.7314 93.9724,67.7314 C93.9724,67.7314 89.4053,62.0135 89.4053,62.0135 C89.4053,62.0135 88.7873,59.9361 88.8821,58.2543 C88.9661,56.7652 89.7648,55.6487 89.7648,55.6487 Z" style="stroke:none;fill-rule:evenodd;fill:#fbbbb8;fill-opacity:1;"/>
        </g>
        <g id="Shape3">
            <desc shapeID="3" type="0" basicInfo-basicType="0" basicInfo-roundedRectRadius="12" basicInfo-polygonSides="6" basicInfo-starPoints="5" bounding="rect(-4.09289,-2.04932,8.18579,4.09863)" text="" font-familyName="" font-pixelSize="20" font-bold="0" font-underline="0" font-alignment="1" strokeStyle="0" markerStart="0" markerEnd="0" shadowEnabled="0" shadowOffsetX="0" shadowOffsetY="2" shadowBlur="4" shadowOpacity="160" blurEnabled="0" blurRadius="4" transform="matrix(2.54675,0,0,2.54675,140.174,69.7981)" pers-center="0,0" pers-size="0,0" pers-start="0,0" pers-end="0,0" locked="0" mesh="" flag=""/>
            <path id="shapePath3" d="M149.783,75.0172 C149.783,75.0172 136.515,72.0095 136.515,72.0095 C136.515,72.0095 131.809,70.0988 130.074,68.719 C128.341,67.3389 134.144,67.4805 134.144,67.4805 C134.144,67.4805 140.619,64.579 140.619,64.579 C140.619,64.579 150.562,67.1265 150.597,67.1265 C150.632,67.1265 149.783,75.0172 149.783,75.0172 Z" style="stroke:none;fill-rule:evenodd;fill:#fbbbb8;fill-opacity:1;"/>
        </g>
        <g id="Shape4">
            <desc shapeID="4" type="0" basicInfo-basicType="0" basicInfo-roundedRectRadius="12" basicInfo-polygonSides="6" basicInfo-starPoints="5" bounding="rect(-12.6591,-9.97293,25.3182,19.946)" text="" font-familyName="" font-pixelSize="20" font-bold="0" font-underline="0" font-alignment="1" strokeStyle="0" markerStart="0" markerEnd="0" shadowEnabled="0" shadowOffsetX="0" shadowOffsetY="2" shadowBlur="4" shadowOpacity="160" blurEnabled="0" blurRadius="4" transform="matrix(2.54675,0,0,2.54675,115.795,43.0526)" pers-center="0,0" pers-size="0,0" pers-start="0,0" pers-end="0,0" locked="0" mesh="" flag=""/>
            <path id="shapePath4" d="M87.2812,52.9537 C87.2812,52.9537 94.0049,59.8489 94.0049,59.8489 C94.0049,59.8489 97.4846,61.7126 101.393,63.1249 C106.055,64.8088 111.279,66.0895 111.279,66.0895 C111.279,66.0895 123.259,68.4514 123.259,68.4514 C123.259,68.4514 134.309,67.6342 134.309,67.6342 C134.309,67.6342 142.134,63.2483 142.134,63.2483 C142.134,63.2483 147.305,55.9944 147.305,55.9944 C147.305,55.9944 148.035,46.2939 148.035,46.2939 C148.035,46.2939 144.629,36.8668 144.629,36.8668 C144.629,36.8668 142.257,32.8829 142.257,32.8829 C142.257,32.8829 142.683,28.6863 142.714,28.6863 C142.744,28.6863 135.983,30.0664 135.983,30.0664 C135.983,30.0664 125.715,24.667 125.715,24.667 C125.715,24.667 113.693,22.3702 113.655,22.3702 C113.616,22.3702 106.581,22.4476 106.581,22.4476 C106.581,22.4476 101.71,17.654 101.71,17.654 C101.71,17.654 100.086,23.2205 100.086,23.2205 C100.086,23.2205 98.146,24.0793 98.146,24.0793 C98.146,24.0793 93.894,25.4573 93.894,25.4573 C93.894,25.4573 87.6842,31.0572 87.6842,31.0572 C87.6842,31.0572 84.7355,36.773 84.7355,36.773 C84.7355,36.773 83.5559,42.5345 83.5559,42.5345 C83.5559,42.5345 84.7806,48.3412 84.7806,48.3412 C84.7806,48.3412 87.2812,52.9537 87.2812,52.9537 Z" style="stroke:none;fill-rule:evenodd;fill:#fff9ee;fill-opacity:1;"/>
        </g>
        <g id="Shape5">
            <desc shapeID="5" type="0" basicInfo-basicType="0" basicInfo-roundedRectRadius="12" basicInfo-polygonSides="6" basicInfo-starPoints="5" bounding="rect(0,0,0,0)" text="" font-familyName="" font-pixelSize="20" font-bold="0" font-underline="0" font-alignment="1" strokeStyle="0" markerStart="0" markerEnd="0" shadowEnabled="0" shadowOffsetX="0" shadowOffsetY="2" shadowBlur="4" shadowOpacity="160" blurEnabled="0" blurRadius="4" transform="matrix(2.54675,0,0,2.54675,106.318,74.7108)" pers-center="0,0" pers-size="0,0" pers-start="0,0" pers-end="0,0" locked="0" mesh="" flag=""/>
            <path id="shapePath5" d="M106.318,74.7108 Z" style="stroke:none;fill-rule:evenodd;fill:#000000;fill-opacity:1;"/>
        </g>
        <g id="Shape6">
            <desc shapeID="6" type="0" basicInfo-basicType="0" basicInfo-roundedRectRadius="12" basicInfo-polygonSides="6" basicInfo-starPoints="5" bounding="rect(-1.32383,-1.97586,2.64769,3.95172)" text="" font-familyName="" font-pixelSize="20" font-bold="0" font-underline="0" font-alignment="1" strokeStyle="0" markerStart="0" markerEnd="0" shadowEnabled="0" shadowOffsetX="0" shadowOffsetY="2" shadowBlur="4" shadowOpacity="160" blurEnabled="0" blurRadius="4" transform="matrix(2.54675,0,0,2.54675,109.826,70.6509)" pers-center="0,0" pers-size="0,0" pers-start="0,0" pers-end="0,0" locked="0" mesh="" flag=""/>
            <path id="shapePath6" d="M106.455,74.8019 C106.455,74.8019 109.031,70.1191 109.031,70.1191 C109.031,70.1191 110.183,65.6189 110.198,65.6189 C110.213,65.6189 111.471,67.2554 111.471,67.2554 C111.471,67.2554 113.198,69.1654 113.198,69.1654 C113.198,69.1654 111.864,70.4073 111.88,70.4073 C111.895,70.4073 112.153,71.8619 112.153,71.8619 C112.153,71.8619 111.077,73.0592 111.077,73.0592 C111.077,73.0592 110.91,74.6958 110.91,74.6958 C110.91,74.6958 109.841,75.6585 108.811,75.6823 C107.625,75.7106 106.455,74.8019 106.455,74.8019 Z" style="stroke:none;fill-rule:evenodd;fill:#fff9ee;fill-opacity:1;"/>
        </g>
        <g id="Shape7">
            <desc shapeID="7" type="0" basicInfo-basicType="0" basicInfo-roundedRectRadius="12" basicInfo-polygonSides="6" basicInfo-starPoints="5" bounding="rect(-0.825074,-1.5863,1.65015,3.17261)" text="" font-familyName="" font-pixelSize="20" font-bold="0" font-underline="0" font-alignment="1" strokeStyle="0" markerStart="0" markerEnd="0" shadowEnabled="0" shadowOffsetX="0" shadowOffsetY="2" shadowBlur="4" shadowOpacity="160" blurEnabled="0" blurRadius="4" transform="matrix(2.54675,0,0,2.54675,151.621,71.2771)" pers-center="0,0" pers-size="0,0" pers-start="0,0" pers-end="0,0" locked="0" mesh="" flag=""/>
            <path id="shapePath7" d="M150.717,67.2404 C150.717,67.2404 149.52,75.135 149.52,75.135 C149.52,75.135 151.505,75.317 151.505,75.317 C151.505,75.317 153.702,74.014 153.702,74.014 C153.702,74.014 153.656,71.9226 153.656,71.9226 C153.656,71.9226 153.656,70.9763 153.297,69.9163 C153.305,69.2673 153.922,68.8854 153.656,68.4023 C152.95,67.1165 150.717,67.2404 150.717,67.2404 Z" style="stroke:none;fill-rule:evenodd;fill:#fff9ee;fill-opacity:1;"/>
        </g>
        <g id="Shape8">
            <desc shapeID="8" type="0" basicInfo-basicType="0" basicInfo-roundedRectRadius="12" basicInfo-polygonSides="6" basicInfo-starPoints="5" bounding="rect(0,0,0,0)" text="" font-familyName="" font-pixelSize="20" font-bold="0" font-underline="0" font-alignment="1" strokeStyle="0" markerStart="0" markerEnd="0" shadowEnabled="0" shadowOffsetX="0" shadowOffsetY="2" shadowBlur="4" shadowOpacity="160" blurEnabled="0" blurRadius="4" transform="matrix(2.54675,0,0,2.54675,110.728,48.7424)" pers-center="0,0" pers-size="0,0" pers-start="0,0" pers-end="0,0" locked="0" mesh="" flag=""/>
            <path id="shapePath8" d="M110.728,48.7424 Z" style="stroke:none;fill-rule:evenodd;fill:#fff5ea;fill-opacity:1;"/>
        </g>
        <g id="Shape9">
            <desc shapeID="9" type="0" basicInfo-basicType="0" basicInfo-roundedRectRadius="12" basicInfo-polygonSides="6" basicInfo-starPoints="5" bounding="rect(-2.32453,-2.13898,4.64907,4.27796)" text="" font-familyName="" font-pixelSize="20" font-bold="0" font-underline="0" font-alignment="1" strokeStyle="0" markerStart="0" markerEnd="0" shadowEnabled="0" shadowOffsetX="0" shadowOffsetY="2" shadowBlur="4" shadowOpacity="160" blurEnabled="0" blurRadius="4" transform="matrix(2.54675,0,0,2.54675,116.143,47.9128)" pers-center="0,0" pers-size="0,0" pers-start="0,0" pers-end="0,0" locked="0" mesh="" flag=""/>
            <path id="shapePath9" d="M112.997,50.449 C112.997,50.449 117.31,50.3364 117.31,50.3364 C117.31,50.3364 118.962,51.0311 118.962,51.0311 C118.962,51.0311 120.184,52.921 120.184,52.921 C120.184,52.921 121.305,53.3602 121.305,53.3602 C121.305,53.3602 122.063,53.0723 122.063,53.0723 C122.063,53.0723 121.82,51.9812 121.82,51.9812 C121.82,51.9812 120.805,50.0419 120.805,50.0419 C120.805,50.0419 120.063,48.6325 120.078,48.6325 C120.093,48.6325 119.774,47.5266 119.774,47.5266 C119.774,47.5266 119.426,44.7081 119.426,44.7081 C119.426,44.7081 118.729,43.9653 118.729,43.9653 C118.729,43.9653 113.865,42.4653 113.865,42.4653 C113.865,42.4653 112.501,42.5562 112.501,42.5562 C112.501,42.5562 111.267,43.8649 111.267,43.8649 C111.267,43.8649 110.223,46.0678 110.223,46.0678 C110.223,46.0678 110.239,47.5794 110.906,48.6325 C111.624,49.7672 112.997,50.449 112.997,50.449 Z" style="stroke:none;fill-rule:evenodd;fill:#ffffff;fill-opacity:1;"/>
        </g>
        <g id="Shape10">
            <desc shapeID="10" type="0" basicInfo-basicType="0" basicInfo-roundedRectRadius="12" basicInfo-polygonSides="6" basicInfo-starPoints="5" bounding="rect(-1.16954,-1.39496,2.33907,2.78992)" text="" font-familyName="" font-pixelSize="20" font-bold="0" font-underline="0" font-alignment="1" strokeStyle="0" markerStart="0" markerEnd="0" shadowEnabled="0" shadowOffsetX="0" shadowOffsetY="2" shadowBlur="4" shadowOpacity="160" blurEnabled="0" blurRadius="4" transform="matrix(2.54675,0,0,2.54675,106.509,81.7316)" pers-center="0,0" pers-size="0,0" pers-start="0,0" pers-end="0,0" locked="0" mesh="" flag=""/>
            <path id="shapePath10" d="M105.455,79.0933 C104.499,80.2824 103.232,84.2882 103.594,84.9599 C103.956,85.6578 104.395,85.2185 104.834,83.7452 C105.093,82.8664 105.274,82.6084 105.61,82.686 C105.843,82.7373 106.385,82.8664 106.85,82.97 C107.419,83.073 107.832,83.4092 108.194,84.0297 C108.556,84.624 108.84,84.8567 109.125,84.7534 C109.693,84.5207 109.616,83.9005 108.737,81.5225 C107.419,77.9042 106.773,77.439 105.455,79.0933 M107.161,81.5999 C107.186,81.7293 106.773,81.8073 106.282,81.8073 L105.377,81.8073 L105.92,80.6961 L106.488,79.6102 L106.825,80.5149 C107.005,81.0056 107.161,81.4969 107.161,81.5999 Z" style="stroke:none;fill-rule:evenodd;fill:#583735;fill-opacity:1;"/>
        </g>
        <g id="Shape11">
            <desc shapeID="11" type="0" basicInfo-basicType="0" basicInfo-roundedRectRadius="12" basicInfo-polygonSides="6" basicInfo-starPoints="5" bounding="rect(-1.20388,-1.31609,2.40777,2.6322)" text="" font-familyName="" font-pixelSize="20" font-bold="0" font-underline="0" font-alignment="1" strokeStyle="0" markerStart="0" markerEnd="0" shadowEnabled="0" shadowOffsetX="0" shadowOffsetY="2" shadowBlur="4" shadowOpacity="160" blurEnabled="0" blurRadius="4" transform="matrix(2.54675,0,0,2.54675,98.8918,82.0574)" pers-center="0,0" pers-size="0,0" pers-start="0,0" pers-end="0,0" locked="0" mesh="" flag=""/>
            <path id="shapePath11" d="M95.9954,78.8868 C95.7374,79.1453 95.7891,84.8567 96.0472,85.0117 C96.1766,85.0896 97.4172,85.2441 98.8126,85.3215 C101.061,85.4766 101.423,85.4512 101.759,85.0376 C102.405,84.2621 101.475,83.8749 98.9936,83.8749 L96.8486,83.8749 L96.8486,81.2904 C96.8486,79.3004 96.7709,78.7056 96.5126,78.7056 C96.3058,78.7056 96.0733,78.7832 95.9954,78.8868 Z" style="stroke:none;fill-rule:evenodd;fill:#583735;fill-opacity:1;"/>
        </g>
        <g id="Shape12">
            <desc shapeID="12" type="0" basicInfo-basicType="0" basicInfo-roundedRectRadius="12" basicInfo-polygonSides="6" basicInfo-starPoints="5" bounding="rect(-1.05275,-1.16041,2.10549,2.32081)" text="" font-familyName="" font-pixelSize="20" font-bold="0" font-underline="0" font-alignment="1" strokeStyle="0" markerStart="0" markerEnd="0" shadowEnabled="0" shadowOffsetX="0" shadowOffsetY="2" shadowBlur="4" shadowOpacity="160" blurEnabled="0" blurRadius="4" transform="matrix(2.54675,0,0,2.54675,114.512,82.1634)" pers-center="0,0" pers-size="0,0" pers-start="0,0" pers-end="0,0" locked="0" mesh="" flag=""/>
            <path id="shapePath12" d="M112.019,79.4037 C111.606,79.7909 111.89,80.2304 112.691,80.3854 C114.501,80.7473 114.475,80.6961 113.673,81.8073 C112.614,83.2803 112.2,84.3398 112.588,84.7272 C112.95,85.0896 116.49,85.2703 116.981,84.9599 C117.24,84.7793 117.266,84.5981 117.033,84.1591 C116.774,83.7196 116.49,83.6163 115.301,83.6163 C113.906,83.6163 113.906,83.6163 114.19,83.022 C114.371,82.7114 114.836,82.0656 115.224,81.6261 C115.637,81.1609 115.896,80.6184 115.819,80.4113 C115.508,79.6102 112.588,78.8347 112.019,79.4037 Z" style="stroke:none;fill-rule:evenodd;fill:#583735;fill-opacity:1;"/>
        </g>
        <g id="Shape13">
            <desc shapeID="13" type="0" basicInfo-basicType="0" basicInfo-roundedRectRadius="12" basicInfo-polygonSides="6" basicInfo-starPoints="5" bounding="rect(-1.12893,-1.28102,2.25786,2.56205)" text="" font-familyName="" font-pixelSize="20" font-bold="0" font-underline="0" font-alignment="1" strokeStyle="0" markerStart="0" markerEnd="0" shadowEnabled="0" shadowOffsetX="0" shadowOffsetY="2" shadowBlur="4" shadowOpacity="160" blurEnabled="0" blurRadius="4" transform="matrix(2.54675,0,0,2.54675,121.794,82.553)" pers-center="0,0" pers-size="0,0" pers-start="0,0" pers-end="0,0" locked="0" mesh="" flag=""/>
            <path id="shapePath13" d="M123.623,79.8456 C123.236,80.2336 122.642,80.7243 122.279,80.9055 C121.685,81.2412 121.582,81.1895 120.625,80.2592 C119.979,79.6134 119.488,79.3286 119.204,79.4581 C118.816,79.5872 118.816,79.691 119.256,80.4142 C119.514,80.8535 119.979,81.4998 120.315,81.8617 C120.703,82.2748 120.884,82.8178 120.884,83.49 C120.884,84.7301 121.349,85.8155 121.866,85.8155 C122.176,85.8155 122.228,85.5315 122.099,84.1615 L121.943,82.5077 L122.952,81.8355 C124.037,81.1121 124.967,79.7164 124.58,79.3286 C124.45,79.1995 124.037,79.406 123.623,79.8456 Z" style="stroke:none;fill-rule:evenodd;fill:#583735;fill-opacity:1;"/>
        </g>
        <g id="Shape14">
            <desc shapeID="14" type="0" basicInfo-basicType="0" basicInfo-roundedRectRadius="12" basicInfo-polygonSides="6" basicInfo-starPoints="5" bounding="rect(-0.812266,-1.24697,1.62454,2.49394)" text="" font-familyName="" font-pixelSize="20" font-bold="0" font-underline="0" font-alignment="1" strokeStyle="0" markerStart="0" markerEnd="0" shadowEnabled="0" shadowOffsetX="0" shadowOffsetY="2" shadowBlur="4" shadowOpacity="160" blurEnabled="0" blurRadius="4" transform="matrix(2.54675,0,0,2.54675,129.759,82.3233)" pers-center="0,0" pers-size="0,0" pers-start="0,0" pers-end="0,0" locked="0" mesh="" flag=""/>
            <path id="shapePath14" d="M128.675,79.4324 C128.235,79.6134 127.951,79.9496 127.848,80.4657 C127.59,81.7322 127.667,85.2473 127.951,85.428 C128.468,85.7386 128.985,84.9887 128.985,83.9808 C128.985,83.0764 129.063,82.9731 129.657,82.9731 C130.38,82.9731 131.828,81.7066 131.828,81.0864 C131.828,80.3366 131.492,79.8456 130.768,79.484 C129.941,79.0444 129.657,79.0444 128.675,79.4324 M130.562,80.5431 C130.846,80.9055 130.82,81.0347 130.303,81.448 C129.295,82.2748 128.727,81.9649 128.727,80.6208 C128.727,80.0006 130.044,79.9229 130.562,80.5431 Z" style="stroke:none;fill-rule:evenodd;fill:#583735;fill-opacity:1;"/>
        </g>
        <g id="Shape15">
            <desc shapeID="15" type="0" basicInfo-basicType="0" basicInfo-roundedRectRadius="12" basicInfo-polygonSides="6" basicInfo-starPoints="5" bounding="rect(-1.06168,-1.14575,2.12335,2.29149)" text="" font-familyName="" font-pixelSize="20" font-bold="0" font-underline="0" font-alignment="1" strokeStyle="0" markerStart="0" markerEnd="0" shadowEnabled="0" shadowOffsetX="0" shadowOffsetY="2" shadowBlur="4" shadowOpacity="160" blurEnabled="0" blurRadius="4" transform="matrix(2.54675,0,0,2.54675,140.711,82.2065)" pers-center="0,0" pers-size="0,0" pers-start="0,0" pers-end="0,0" locked="0" mesh="" flag=""/>
            <path id="shapePath15" d="M139.576,79.691 C137.974,80.6984 137.483,83.1541 138.646,84.2394 C140.067,85.5569 142.549,85.3765 143.247,83.8773 C143.712,82.8693 143.143,82.4301 142.342,83.1797 C141.67,83.7999 140.145,83.9552 139.628,83.4383 C139.163,82.9731 139.267,82.0941 139.887,81.293 C140.352,80.6984 140.584,80.6208 141.412,80.7243 C142.135,80.8279 142.419,80.7505 142.549,80.4657 C142.936,79.406 140.869,78.8635 139.576,79.691 Z" style="stroke:none;fill-rule:evenodd;fill:#583735;fill-opacity:1;"/>
        </g>
        <g id="Shape16">
            <desc shapeID="16" type="0" basicInfo-basicType="0" basicInfo-roundedRectRadius="12" basicInfo-polygonSides="6" basicInfo-starPoints="5" bounding="rect(-0.243075,-1.11064,0.486145,2.22129)" text="" font-familyName="" font-pixelSize="20" font-bold="0" font-underline="0" font-alignment="1" strokeStyle="0" markerStart="0" markerEnd="0" shadowEnabled="0" shadowOffsetX="0" shadowOffsetY="2" shadowBlur="4" shadowOpacity="160" blurEnabled="0" blurRadius="4" transform="matrix(2.54675,0,0,2.54675,134.799,82.7069)" pers-center="0,0" pers-size="0,0" pers-start="0,0" pers-end="0,0" locked="0" mesh="" flag=""/>
            <path id="shapePath16" d="M134.367,80.13 C134.135,80.5178 134.109,84.2653 134.342,84.9631 C134.6,85.7639 135.195,85.7119 135.35,84.8855 C135.505,84.0585 135.376,81.1121 135.143,80.3886 C134.962,79.8197 134.626,79.7164 134.367,80.13 Z" style="stroke:none;fill-rule:evenodd;fill:#583735;fill-opacity:1;"/>
        </g>
        <g id="Shape17">
            <desc shapeID="17" type="0" basicInfo-basicType="0" basicInfo-roundedRectRadius="12" basicInfo-polygonSides="6" basicInfo-starPoints="5" bounding="rect(-14.0105,-11.6164,28.021,23.2329)" text="" font-familyName="" font-pixelSize="20" font-bold="0" font-underline="0" font-alignment="1" strokeStyle="0" markerStart="0" markerEnd="0" shadowEnabled="0" shadowOffsetX="0" shadowOffsetY="2" shadowBlur="4" shadowOpacity="160" blurEnabled="0" blurRadius="4" transform="matrix(2.54675,0,0,2.54675,118.63,46.7429)" pers-center="0,0" pers-size="0,0" pers-start="0,0" pers-end="0,0" locked="0" mesh="" flag=""/>
            <path id="shapePath17" d="M101.162,17.4124 C100.713,19.0313 100.457,20.2526 99.9128,22.0653 C99.5794,23.1757 99.6283,23.6993 99.842,23.9054 C100.297,24.3172 100.754,23.5205 101.37,21.3287 C101.639,20.2728 101.935,19.2428 102.01,19.0313 C102.11,18.7404 102.322,18.8414 102.858,19.4618 C103.261,19.901 104.2,20.9603 104.925,21.8135 C104.925,21.8135 105.754,22.9531 106.401,23.1492 C107.383,23.4464 109.337,23.1492 109.337,23.1492 C112.014,22.9941 114.354,23.1342 117.201,23.6323 C117.886,23.7508 117.886,23.777 117.672,24.937 C117.553,25.5957 117.513,26.306 117.597,26.5405 C117.899,27.2703 118.513,26.3659 118.567,25.0778 C118.627,24.0258 118.678,23.9723 119.258,24.0928 C119.601,24.1651 120.208,24.3113 120.629,24.3821 C121.499,24.5236 121.527,24.6018 121.018,25.5046 C120.536,26.3805 120.538,27.8778 121.036,27.8683 C121.483,27.8601 121.608,27.5165 121.814,25.91 C121.907,25.2516 122.028,24.6977 122.106,24.6961 C122.159,24.695 122.739,24.8155 123.399,24.9607 C124.665,25.2523 124.693,25.3305 124.335,27.2811 C124.219,28.045 124.228,28.5704 124.389,28.7249 C124.843,29.1628 125.4,28.0495 125.377,26.8152 C125.366,26.1847 125.461,25.6839 125.592,25.6816 C125.829,25.6768 127.285,26.3065 131.895,28.3741 C132.663,28.7011 133.647,29.3393 134.102,29.7775 C134.824,30.4732 135.061,30.521 136.163,30.4217 C136.844,30.3303 138.415,30.0382 139.67,29.7518 C140.925,29.4391 141.999,29.2616 142.079,29.3387 C142.159,29.4161 142.099,30.3892 141.909,31.4959 C141.747,32.6285 141.774,32.9909 141.969,33.7233 C142.186,34.5347 142.994,35.0847 143.624,35.727 C145.781,38.7075 147.736,44.8705 147.718,48.1283 C147.719,49.5731 147.243,53.4442 146.852,55.0274 C145.876,59.0124 141.514,63.795 136.642,65.9879 C133.699,67.3302 131.858,67.9102 128.523,67.9725 C126.79,68.0053 124.93,67.9387 124.562,67.893 C124.193,67.8215 122.483,67.7409 120.826,67.6144 C117.8,67.3561 115.685,66.7906 111.167,65.3782 C109.871,64.9556 107.064,64.2443 105.164,63.7808 C103.289,63.2903 101.363,62.7266 100.859,62.4728 C100.355,62.22 98.3901,61.1437 96.6404,60.2837 C93.2202,58.6138 92.0047,57.5066 88.0329,53.0103 C85.8858,50.5813 84.3448,46.6531 84.143,44.2928 C83.8208,41.1203 84.8483,36.6861 86.9341,33.0479 C88.6378,30.0477 90.47,28.3443 95.2458,25.2603 C95.6346,24.9903 96.7852,24.6454 97.4394,24.5284 C98.828,24.3185 99.1597,23.9443 98.0258,23.7029 C96.9183,23.4874 95.5089,23.9604 93.4318,25.2603 C88.5247,28.3208 85.6755,31.8942 83.7828,37.4196 C83.0353,39.5879 82.815,39.9893 83.0236,43.1605 C83.1671,45.3396 83.5656,46.6328 83.9175,47.6666 C85.2167,51.4815 86.4119,52.9477 87.6716,54.2902 L89.0926,55.8135 L88.7474,57.0282 C87.8124,60.3816 88.9751,63.5644 92.4827,67.098 C95.9371,70.6057 97.1595,71.3442 106.751,75.7354 C108.208,76.391 108.498,76.438 109.413,76.1844 C111.085,75.7063 111.726,74.854 111.541,73.3865 C111.509,73.1242 111.737,72.673 112.047,72.3785 C112.408,72.0304 112.558,71.607 112.472,71.2145 C112.385,70.8225 112.562,70.4247 112.949,70.0761 C113.285,69.7546 113.567,69.382 113.564,69.2243 C113.553,68.6199 112.611,67.4297 111.896,67.1537 C110.785,66.728 110.687,67.098 111.649,67.9725 C112.13,68.3841 112.506,68.8238 112.508,68.929 C112.515,69.3225 111.92,69.8064 111.447,69.8151 C110.686,69.8297 110.591,70.4094 111.257,70.896 C111.949,71.382 111.95,71.4086 110.934,71.8743 C110.205,72.2031 109.98,72.8114 110.485,73.117 C110.937,73.3978 110.795,74.2409 110.199,74.6723 C109.603,75.13 108.003,75.265 107.445,74.9345 C107.207,74.8072 107.33,74.411 107.84,73.5608 C108.221,72.8968 108.677,71.9955 108.827,71.5719 C108.976,71.1226 109.375,69.9594 109.75,68.9279 C110.113,67.9279 110.316,66.9472 110.261,66.7644 C110.069,66.3479 110.991,66.4881 112.79,67.1897 C113.478,67.4393 114.191,67.6622 114.401,67.6585 C114.611,67.6548 115.483,67.8748 116.354,68.121 C118.124,68.6395 122.597,69.0544 128.01,69.1633 C131.164,69.2354 131.767,69.172 133.517,68.6131 C135.998,67.8318 138.837,66.5697 139.691,65.8708 C140.493,65.225 141.385,65.1823 142.944,65.6788 C143.579,65.9031 144.635,66.1722 145.295,66.3172 C145.953,66.4366 147.273,66.7795 148.276,67.0494 L150.046,67.5676 L150.068,68.6971 C150.091,69.9572 149.74,72.2496 149.34,73.3342 L149.09,74.0217 L147.718,73.6799 C146.952,73.4839 145.054,73.1258 143.447,72.8931 C141.867,72.6334 140.022,72.3265 139.363,72.1818 C137.094,71.6987 136.2,71.6366 136.206,71.9517 C136.214,72.3983 137.694,72.8698 141.122,73.5669 C147.398,74.8149 148.163,75.0109 148.592,75.4499 C148.94,75.8109 149.414,75.8807 150.622,75.8318 C151.934,75.7547 152.378,75.6152 153.18,74.9691 C154.06,74.27 154.162,74.1104 154.015,73.2988 C153.9,72.7755 153.967,72.1704 154.146,71.878 C154.401,71.4527 154.37,71.2171 153.991,70.5935 C153.611,69.9443 153.608,69.7869 153.918,69.5182 C154.823,68.7393 153.665,67.2108 152.087,67.1358 C151.562,67.1191 150.954,66.9464 150.74,66.7406 C150.288,66.4073 150.129,66.3579 146.33,65.5098 C145.09,65.2179 143.586,64.878 142.953,64.7063 L141.818,64.439 L143.624,62.6709 C147.285,59.0296 148.663,55.4313 148.832,49.0187 C148.888,46.4173 148.792,45.4997 148.339,43.7741 C147.182,39.5139 145.871,36.8068 143.231,33.3364 C143.07,33.1293 143.079,32.2357 143.263,30.8401 C143.604,28.0495 143.469,27.8416 141.295,28.1451 C140.43,28.2399 138.913,28.5841 137.92,28.8913 L136.145,29.4763 L135.421,28.7019 C134.67,27.9019 132.677,26.6781 131.143,26.1026 C130.641,25.9283 129.422,25.3992 128.442,24.9449 C125.501,23.6079 123.389,23.0433 117.803,22.1237 C114.667,21.6045 109.911,21.5361 107.686,21.9458 C106.796,22.12 106.663,22.0438 105.938,21.1641 C104.728,19.6896 103.423,18.4161 102.01,17.2608 C101.79,17.0812 101.28,17.1431 101.162,17.4124 M95.7347,61.2052 C97.2445,61.8597 98.9154,62.7219 99.473,63.0526 C100.403,63.613 105.133,65.1006 108.563,65.9292 L109.778,66.2216 L109.483,67.3304 C109.113,68.5983 107.985,71.4829 107.377,72.7024 C106.846,73.8159 106.688,73.7924 101.308,71.2404 C97.6502,69.4961 96.5607,68.8339 94.3993,67.0354 C90.3438,63.6968 88.875,61.0182 89.2865,57.7535 L89.4484,56.5681 L91.2403,58.2683 C92.6573,59.6077 93.6148,60.2203 95.7347,61.2052 M153.133,68.298 C153.426,68.5288 153.403,68.687 152.94,69.1947 C152.4,69.8091 152.405,70.0719 153.051,70.9266 C153.321,71.2895 152.747,71.5436 152.728,71.878 C152.708,72.2433 152.792,72.6194 152.94,72.9541 C153.039,73.1783 153.234,73.3754 153.18,73.6149 C153.104,73.948 152.665,74.1649 152.665,74.1649 C151.864,74.8363 151.106,75.0085 150.495,74.6519 C150.228,74.4731 150.25,74.2367 150.551,73.4691 C150.751,72.9401 150.985,71.4115 151.066,70.097 L151.178,67.7039 L151.969,67.8471 C152.417,67.9176 152.92,68.1183 153.133,68.298 Z" style="stroke:none;fill-rule:evenodd;fill:#583735;fill-opacity:1;"/>
        </g>
        <g id="Shape18">
            <desc shapeID="18" type="0" basicInfo-basicType="0" basicInfo-roundedRectRadius="12" basicInfo-polygonSides="6" basicInfo-starPoints="5" bounding="rect(-0.614016,-0.174602,1.22804,0.349206)" text="" font-familyName="" font-pixelSize="20" font-bold="0" font-underline="0" font-alignment="1" strokeStyle="0" markerStart="0" markerEnd="0" shadowEnabled="0" shadowOffsetX="0" shadowOffsetY="2" shadowBlur="4" shadowOpacity="160" blurEnabled="0" blurRadius="4" transform="matrix(2.54675,0,0,2.54675,90.6182,35.6144)" pers-center="0,0" pers-size="0,0" pers-start="0,0" pers-end="0,0" locked="0" mesh="" flag=""/>
            <path id="shapePath18" d="M90.3623,35.2735 C88.502,35.5189 88.6702,36.0934 90.5873,36.0575 C91.7685,36.0355 92.1872,35.9225 92.1819,35.6599 C92.1729,35.161 91.7244,35.0643 90.3623,35.2735 Z" style="stroke:none;fill-rule:evenodd;fill:#583735;fill-opacity:1;"/>
        </g>
        <g id="Shape19">
            <desc shapeID="19" type="0" basicInfo-basicType="0" basicInfo-roundedRectRadius="12" basicInfo-polygonSides="6" basicInfo-starPoints="5" bounding="rect(-0.658954,-0.281285,1.31791,0.562572)" text="" font-familyName="" font-pixelSize="20" font-bold="0" font-underline="0" font-alignment="1" strokeStyle="0" markerStart="0" markerEnd="0" shadowEnabled="0" shadowOffsetX="0" shadowOffsetY="2" shadowBlur="4" shadowOpacity="160" blurEnabled="0" blurRadius="4" transform="matrix(2.54675,0,0,2.54675,112.546,38.1255)" pers-center="0,0" pers-size="0,0" pers-start="0,0" pers-end="0,0" locked="0" mesh="" flag=""/>
            <path id="shapePath19" d="M111.024,37.4603 C110.611,37.862 111.013,38.0828 112.307,38.4793 C113.682,38.9262 114.494,38.9978 114.143,38.4793 C113.872,38.0377 111.282,37.193 111.024,37.4603 Z" style="stroke:none;fill-rule:evenodd;fill:#583735;fill-opacity:1;"/>
        </g>
        <g id="Shape20">
            <desc shapeID="20" type="0" basicInfo-basicType="0" basicInfo-roundedRectRadius="12" basicInfo-polygonSides="6" basicInfo-starPoints="5" bounding="rect(-0.730767,-0.227954,1.46154,0.455907)" text="" font-familyName="" font-pixelSize="20" font-bold="0" font-underline="0" font-alignment="1" strokeStyle="0" markerStart="0" markerEnd="0" shadowEnabled="0" shadowOffsetX="0" shadowOffsetY="2" shadowBlur="4" shadowOpacity="160" blurEnabled="0" blurRadius="4" transform="matrix(2.54675,0,0,2.54675,89.8937,38.7417)" pers-center="0,0" pers-size="0,0" pers-start="0,0" pers-end="0,0" locked="0" mesh="" flag=""/>
            <path id="shapePath20" d="M88.1129,38.5995 C87.9132,39.1549 87.9399,39.1806 89.965,39.3002 C91.7532,39.3979 92.1431,39.1806 91.394,38.459 C90.9125,37.9954 88.3137,38.0966 88.1129,38.5995 Z" style="stroke:none;fill-rule:evenodd;fill:#583735;fill-opacity:1;"/>
        </g>
        <g id="Shape21">
            <desc shapeID="21" type="0" basicInfo-basicType="0" basicInfo-roundedRectRadius="12" basicInfo-polygonSides="6" basicInfo-starPoints="5" bounding="rect(-2.4367,-2.71161,4.8734,5.42323)" text="" font-familyName="" font-pixelSize="20" font-bold="0" font-underline="0" font-alignment="1" strokeStyle="0" markerStart="0" markerEnd="0" shadowEnabled="0" shadowOffsetX="0" shadowOffsetY="2" shadowBlur="4" shadowOpacity="160" blurEnabled="0" blurRadius="4" transform="matrix(2.54675,0,0,2.54675,116.198,46.6943)" pers-center="0,0" pers-size="0,0" pers-start="0,0" pers-end="0,0" locked="0" mesh="" flag=""/>
            <path id="shapePath21" d="M116.171,40.1745 C116.175,40.3847 116.284,40.5667 116.415,40.5638 C116.651,40.5596 116.553,42.3478 116.323,42.641 C116.271,42.6946 115.902,42.6227 115.505,42.4724 C115.108,42.3222 114.317,42.1534 113.79,42.058 C112.921,41.9431 112.686,42.0263 111.757,42.9106 C110.312,44.2773 109.959,45.0982 109.995,47.0414 C110.026,48.6434 110.081,48.7736 111.043,49.6487 C112.406,50.9366 113.146,51.159 115.559,50.93 C118.128,50.6714 118.859,51.4717 119.886,52.9495 C120.291,53.5459 121.362,53.6056 121.677,53.5998 C122.701,53.5805 122.687,52.7686 121.354,50.3243 C120.238,48.2699 119.98,47.7847 119.927,46.3148 C119.9,44.8966 119.773,44.5203 119.238,44.0049 C118.89,43.67 118.253,43.3404 117.779,43.2442 C117.12,43.1251 116.986,42.9962 117.109,42.5477 C117.182,42.2308 117.251,41.7302 117.246,41.4415 C117.237,40.9951 117.367,40.9138 117.894,41.0091 C118.79,41.1499 118.775,40.3359 117.849,40.0118 C116.871,39.6623 116.163,39.7281 116.171,40.1745 M116.895,43.7598 C118.059,44.1584 119.037,44.5076 119.064,44.5599 C119.118,44.6111 119.237,45.3972 119.333,46.3148 C119.496,47.9667 119.831,49.1862 120.342,49.8333 C120.503,50.0145 120.851,50.8399 121.27,51.5058 C122.178,52.9495 121.168,53.767 120.25,52.3919 C119.952,51.9247 119.496,50.7775 118.754,50.4234 C117.613,49.8407 117.086,49.7456 115.274,49.7797 C113.541,49.8121 112.961,49.7178 112.218,49.2849 C110.332,48.1648 110.255,45.4867 112.004,43.4577 C112.595,42.7899 112.778,42.7337 113.726,42.8737 C114.306,42.9415 115.732,43.3615 116.895,43.7598 Z" style="stroke:none;fill-rule:evenodd;fill:#583735;fill-opacity:1;"/>
        </g>
        <g id="Shape22">
            <desc shapeID="22" type="0" basicInfo-basicType="0" basicInfo-roundedRectRadius="12" basicInfo-polygonSides="6" basicInfo-starPoints="5" bounding="rect(-0.702495,-0.224225,1.40499,0.44845)" text="" font-familyName="" font-pixelSize="20" font-bold="0" font-underline="0" font-alignment="1" strokeStyle="0" markerStart="0" markerEnd="0" shadowEnabled="0" shadowOffsetX="0" shadowOffsetY="2" shadowBlur="4" shadowOpacity="160" blurEnabled="0" blurRadius="4" transform="matrix(2.54675,0,0,2.54675,89.4613,41.7689)" pers-center="0,0" pers-size="0,0" pers-start="0,0" pers-end="0,0" locked="0" mesh="" flag=""/>
            <path id="shapePath22" d="M88.1121,41.3578 C87.2006,41.7688 87.7059,42.1005 89.6269,42.2749 C91.0215,42.4061 91.2566,42.3494 91.2503,42.0078 C91.2458,41.7717 91.1362,41.5374 91.03,41.4603 C90.525,41.1547 88.7117,41.11 88.1121,41.3578 Z" style="stroke:none;fill-rule:evenodd;fill:#583735;fill-opacity:1;"/>
        </g>
        <g id="Shape23">
            <desc shapeID="23" type="0" basicInfo-basicType="0" basicInfo-roundedRectRadius="12" basicInfo-polygonSides="6" basicInfo-starPoints="5" bounding="rect(-0.747848,-0.317641,1.4957,0.635283)" text="" font-familyName="" font-pixelSize="20" font-bold="0" font-underline="0" font-alignment="1" strokeStyle="0" markerStart="0" markerEnd="0" shadowEnabled="0" shadowOffsetX="0" shadowOffsetY="2" shadowBlur="4" shadowOpacity="160" blurEnabled="0" blurRadius="4" transform="matrix(2.54675,0,0,2.54675,122.905,41.7213)" pers-center="0,0" pers-size="0,0" pers-start="0,0" pers-end="0,0" locked="0" mesh="" flag=""/>
            <path id="shapePath23" d="M121.361,40.9442 C120.576,41.1167 121.106,41.4016 122.614,41.9252 C124.411,42.5216 124.678,42.7207 124.801,42.3245 C124.975,41.7696 122.328,40.716 121.361,40.9442 Z" style="stroke:none;fill-rule:evenodd;fill:#583735;fill-opacity:1;"/>
        </g>
        <g id="Shape24">
            <desc shapeID="24" type="0" basicInfo-basicType="0" basicInfo-roundedRectRadius="12" basicInfo-polygonSides="6" basicInfo-starPoints="5" bounding="rect(-0.693344,-0.26508,1.38668,0.530162)" text="" font-familyName="" font-pixelSize="20" font-bold="0" font-underline="0" font-alignment="1" strokeStyle="0" markerStart="0" markerEnd="0" shadowEnabled="0" shadowOffsetX="0" shadowOffsetY="2" shadowBlur="4" shadowOpacity="160" blurEnabled="0" blurRadius="4" transform="matrix(2.54675,0,0,2.54675,143.909,51.2194)" pers-center="0,0" pers-size="0,0" pers-start="0,0" pers-end="0,0" locked="0" mesh="" flag=""/>
            <path id="shapePath24" d="M142.247,50.8761 C141.991,51.2749 142.124,51.3512 143.6,51.6122 C145.577,51.9957 145.682,51.9939 145.674,51.5736 C145.659,50.7596 142.679,50.1323 142.247,50.8761 Z" style="stroke:none;fill-rule:evenodd;fill:#583735;fill-opacity:1;"/>
        </g>
        <g id="Shape25">
            <desc shapeID="25" type="0" basicInfo-basicType="0" basicInfo-roundedRectRadius="12" basicInfo-polygonSides="6" basicInfo-starPoints="5" bounding="rect(-0.549217,-0.330227,1.09843,0.660453)" text="" font-familyName="" font-pixelSize="20" font-bold="0" font-underline="0" font-alignment="1" strokeStyle="0" markerStart="0" markerEnd="0" shadowEnabled="0" shadowOffsetX="0" shadowOffsetY="2" shadowBlur="4" shadowOpacity="160" blurEnabled="0" blurRadius="4" transform="matrix(2.54675,0,0,2.54675,143.672,53.7906)" pers-center="0,0" pers-size="0,0" pers-start="0,0" pers-end="0,0" locked="0" mesh="" flag=""/>
            <path id="shapePath25" d="M142.316,53.1864 C142.137,53.4527 142.511,53.7607 143.704,54.3423 C145.189,55.0763 145.62,54.2802 144.212,53.4397 C143.283,52.9054 142.545,52.7881 142.316,53.1864 Z" style="stroke:none;fill-rule:evenodd;fill:#583735;fill-opacity:1;"/>
        </g>
        <g id="Shape26">
            <desc shapeID="26" type="0" basicInfo-basicType="0" basicInfo-roundedRectRadius="12" basicInfo-polygonSides="6" basicInfo-starPoints="5" bounding="rect(-0.658029,-0.449945,1.31606,0.899888)" text="" font-familyName="" font-pixelSize="20" font-bold="0" font-underline="0" font-alignment="1" strokeStyle="0" markerStart="0" markerEnd="0" shadowEnabled="0" shadowOffsetX="0" shadowOffsetY="2" shadowBlur="4" shadowOpacity="160" blurEnabled="0" blurRadius="4" transform="matrix(2.54675,0,0,2.54675,142.311,56.7741)" pers-center="0,0" pers-size="0,0" pers-start="0,0" pers-end="0,0" locked="0" mesh="" flag=""/>
            <path id="shapePath26" d="M140.635,55.9495 C140.642,56.3439 142.878,57.9305 143.43,57.9199 C144.559,57.8988 143.883,56.9133 142.187,56.1048 C140.994,55.5227 140.625,55.4772 140.635,55.9495 Z" style="stroke:none;fill-rule:evenodd;fill:#583735;fill-opacity:1;"/>
        </g>
        <g id="Shape27">
            <desc shapeID="27" type="0" basicInfo-basicType="0" basicInfo-roundedRectRadius="12" basicInfo-polygonSides="6" basicInfo-starPoints="5" bounding="rect(-1.13469,-0.763547,2.26936,1.52709)" text="" font-familyName="" font-pixelSize="20" font-bold="0" font-underline="0" font-alignment="1" strokeStyle="0" markerStart="0" markerEnd="0" shadowEnabled="0" shadowOffsetX="0" shadowOffsetY="2" shadowBlur="4" shadowOpacity="160" blurEnabled="0" blurRadius="4" transform="matrix(2.54675,0,0,2.54675,107.103,40.6373)" pers-center="0,0" pers-size="0,0" pers-start="0,0" pers-end="0,0" locked="0" mesh="" flag=""/>
            <path id="shapePath27" d="M104.766,39.241 C103.611,40.1111 104.321,41.39 106.396,42.1589 C108.103,42.7329 108.264,42.7297 109.222,42.1061 C110.059,41.5247 110.176,41.2804 109.759,40.6016 C109.34,39.8018 107.098,38.6724 106.008,38.693 C105.725,38.6983 105.164,38.951 104.766,39.241 Z" style="stroke:none;fill-rule:evenodd;fill:#fc8e76;fill-opacity:0.67451;"/>
        </g>
        <g id="Shape28">
            <desc shapeID="28" type="0" basicInfo-basicType="0" basicInfo-roundedRectRadius="12" basicInfo-polygonSides="6" basicInfo-starPoints="5" bounding="rect(-1.08125,-0.715933,2.1625,1.43187)" text="" font-familyName="" font-pixelSize="20" font-bold="0" font-underline="0" font-alignment="1" strokeStyle="0" markerStart="0" markerEnd="0" shadowEnabled="0" shadowOffsetX="0" shadowOffsetY="2" shadowBlur="4" shadowOpacity="160" blurEnabled="0" blurRadius="4" transform="matrix(2.54675,0,0,2.54675,126.811,46.3353)" pers-center="0,0" pers-size="0,0" pers-start="0,0" pers-end="0,0" locked="0" mesh="" flag=""/>
            <path id="shapePath28" d="M124.333,44.8673 C124.164,44.9991 124.047,45.6016 124.058,46.1592 C124.094,48.1312 128.871,48.9852 129.522,47.1288 C130.053,45.7036 125.469,43.688 124.333,44.8673 Z" style="stroke:none;fill-rule:evenodd;fill:#fc8e76;fill-opacity:0.643137;"/>
        </g>
        <g id="Shape29">
            <desc shapeID="29" type="0" basicInfo-basicType="0" basicInfo-roundedRectRadius="12" basicInfo-polygonSides="6" basicInfo-starPoints="5" bounding="rect(-38.8324,-5.40084,77.6647,10.8016)" text="We create contents and contents pipeline with opensource.&#10;https://lazypic.org" font-familyName="Helvetica" font-pixelSize="3" font-bold="0" font-underline="0" font-alignment="1" strokeStyle="0" markerStart="0" markerEnd="0" shadowEnabled="0" shadowOffsetX="0" shadowOffsetY="2" shadowBlur="4" shadowOpacity="160" blurEnabled="0" blurRadius="4" transform="matrix(2.35615,0,0,2.35615,121,106.116)" pers-center="0,0" pers-size="0,0" pers-start="0,0" pers-end="0,0" locked="0" mesh="" flag=""/>
            <path id="shapePath29" d="M30.2508,93.4079 L31.2067,97.5324 L32.3525,93.4079 L33.0982,93.4079 L34.2437,97.5324 L35.1999,93.4079 L35.9524,93.4079 L34.6203,98.4779 L33.8987,98.4779 L32.7286,94.2743 L31.5519,98.4779 L30.8306,98.4779 L29.5054,93.4079 L30.2508,93.4079 M37.8887,94.6987 C38.151,94.6987 38.4051,94.7603 38.6515,94.8834 C38.8974,95.0065 39.0852,95.166 39.2139,95.3615 C39.338,95.5477 39.4209,95.7653 39.4624,96.0139 C39.4994,96.184 39.5179,96.4557 39.5179,96.8284 L36.8084,96.8284 C36.8198,97.2033 36.9085,97.5041 37.0741,97.7307 C37.2397,97.9573 37.4962,98.0709 37.8435,98.0709 C38.1682,98.0709 38.427,97.9637 38.6204,97.7497 C38.7308,97.6256 38.8089,97.4816 38.8549,97.3184 L39.4658,97.3184 C39.4497,97.4542 39.3964,97.6053 39.3052,97.7722 C39.2144,97.9389 39.1127,98.0751 38.9999,98.1813 C38.8111,98.3654 38.5778,98.4896 38.2994,98.554 C38.1497,98.5907 37.9806,98.6092 37.7918,98.6092 C37.3319,98.6092 36.9418,98.4418 36.6219,98.1071 C36.3021,97.7722 36.142,97.3036 36.142,96.7003 C36.142,96.1068 36.3034,95.6248 36.6254,95.2545 C36.9473,94.8839 37.3686,94.6987 37.8887,94.6987 M38.8792,96.3348 C38.8539,96.0656 38.7952,95.8504 38.7033,95.6892 C38.5327,95.3902 38.2487,95.2405 37.8507,95.2405 C37.5651,95.2405 37.3261,95.3435 37.1328,95.5495 C36.9394,95.7555 36.8369,96.0173 36.8256,96.3348 L38.8792,96.3348 M43.6283,94.6744 C44.0448,94.6744 44.3835,94.7759 44.6447,94.9782 C44.9059,95.1808 45.0628,95.5294 45.1159,96.0239 L44.5118,96.0239 C44.4749,95.7962 44.3908,95.6071 44.2598,95.4563 C44.1286,95.3057 43.9181,95.2304 43.6283,95.2304 C43.2324,95.2304 42.9495,95.4235 42.7791,95.81 C42.6687,96.0609 42.6135,96.3702 42.6135,96.7386 C42.6135,97.1089 42.692,97.4206 42.8481,97.6739 C43.0047,97.927 43.2509,98.0535 43.5868,98.0535 C43.8446,98.0535 44.0488,97.9748 44.1996,97.8171 C44.3502,97.6597 44.4542,97.4439 44.5118,97.17 L45.1159,97.17 C45.0467,97.6599 44.8742,98.0184 44.5982,98.245 C44.3219,98.4716 43.9688,98.5852 43.5385,98.5852 C43.0554,98.5852 42.67,98.4085 42.3824,98.0551 C42.0948,97.7022 41.9511,97.2608 41.9511,96.7315 C41.9511,96.0828 42.1085,95.5775 42.4236,95.2164 C42.739,94.8551 43.1405,94.6744 43.6283,94.6744 M45.7543,94.7814 L46.3444,94.7814 L46.3444,95.4201 C46.393,95.2957 46.5113,95.1446 46.6999,94.9663 C46.8888,94.788 47.1061,94.6987 47.3523,94.6987 C47.3637,94.6987 47.3835,94.6998 47.4109,94.7022 C47.4387,94.7046 47.4857,94.709 47.5525,94.7162 L47.5525,95.3717 C47.5158,95.3649 47.4817,95.3601 47.4506,95.358 C47.4197,95.3556 47.3856,95.3546 47.3489,95.3546 C47.0359,95.3546 46.7955,95.4552 46.6275,95.6565 C46.4595,95.8578 46.3755,96.0897 46.3755,96.352 L46.3755,98.4779 L45.7543,98.4779 L45.7543,94.7814 M49.5956,94.6987 C49.8579,94.6987 50.1122,94.7603 50.3584,94.8834 C50.6048,95.0065 50.7921,95.166 50.921,95.3615 C51.0454,95.5477 51.1283,95.7653 51.1695,96.0139 C51.2063,96.184 51.2247,96.4557 51.2247,96.8284 L48.5153,96.8284 C48.5269,97.2033 48.6154,97.5041 48.781,97.7307 C48.9469,97.9573 49.2033,98.0709 49.5509,98.0709 C49.8753,98.0709 50.1341,97.9637 50.3272,97.7497 C50.4379,97.6256 50.5161,97.4816 50.562,97.3184 L51.173,97.3184 C51.1569,97.4542 51.1032,97.6053 51.0126,97.7722 C50.9218,97.9389 50.8198,98.0751 50.707,98.1813 C50.5185,98.3654 50.2847,98.4896 50.0063,98.554 C49.8568,98.5907 49.6878,98.6092 49.4992,98.6092 C49.0388,98.6092 48.6489,98.4418 48.3291,98.1071 C48.0092,97.7722 47.8494,97.3036 47.8494,96.7003 C47.8494,96.1068 48.0103,95.6248 48.3325,95.2545 C48.6547,94.8839 49.0758,94.6987 49.5956,94.6987 M50.5863,96.3348 C50.561,96.0656 50.5023,95.8504 50.4102,95.6892 C50.2401,95.3902 49.9559,95.2405 49.5578,95.2405 C49.2725,95.2405 49.0332,95.3435 48.8399,95.5495 C48.6466,95.7555 48.5443,96.0173 48.5324,96.3348 L50.5863,96.3348 M52.4353,97.4943 C52.4353,97.6739 52.5005,97.8152 52.6318,97.9188 C52.7631,98.0226 52.9184,98.0743 53.0977,98.0743 C53.3164,98.0743 53.528,98.0236 53.7329,97.9222 C54.0779,97.7542 54.2506,97.4795 54.2506,97.0976 L54.2506,96.5971 C54.1746,96.6454 54.0766,96.6855 53.9569,96.7178 C53.8373,96.75 53.7203,96.773 53.6048,96.7867 L53.2287,96.8353 C53.0034,96.8652 52.8341,96.9122 52.7216,96.9766 C52.5303,97.0849 52.4353,97.2574 52.4353,97.4943 M53.9398,96.2381 C54.0824,96.2199 54.178,96.1599 54.2261,96.0585 C54.2538,96.0033 54.2678,95.924 54.2678,95.8205 C54.2678,95.6087 54.1923,95.4552 54.0417,95.3596 C53.8912,95.2643 53.6751,95.2164 53.3946,95.2164 C53.07,95.2164 52.8399,95.3039 52.7044,95.479 C52.6281,95.5754 52.5789,95.7191 52.5557,95.9103 L51.9762,95.9103 C51.9876,95.4547 52.1352,95.1377 52.4194,94.9594 C52.7036,94.7809 53.0333,94.6919 53.4083,94.6919 C53.8433,94.6919 54.1962,94.7748 54.468,94.9404 C54.7372,95.106 54.8719,95.3636 54.8719,95.7135 L54.8719,97.843 C54.8719,97.9074 54.8851,97.9592 54.9115,97.9983 C54.9377,98.0374 54.9937,98.0569 55.0787,98.0569 C55.1064,98.0569 55.1376,98.0551 55.1722,98.0519 C55.2065,98.0485 55.2432,98.0432 55.2823,98.0363 L55.2823,98.4951 C55.1859,98.5229 55.1122,98.5403 55.0615,98.5469 C55.0108,98.554 54.9419,98.5575 54.8545,98.5575 C54.6405,98.5575 54.4852,98.4816 54.3885,98.3295 C54.3378,98.2492 54.3024,98.1351 54.2815,97.988 C54.155,98.1536 53.9733,98.2975 53.7364,98.4193 C53.4992,98.5413 53.238,98.6023 52.953,98.6023 C52.6099,98.6023 52.3299,98.4983 52.1125,98.2899 C51.8951,98.0817 51.7863,97.8211 51.7863,97.5083 C51.7863,97.1655 51.8933,96.8995 52.1072,96.7109 C52.3212,96.5223 52.6019,96.4061 52.9495,96.3622 L53.9398,96.2381 M55.9855,93.7497 L56.6136,93.7497 L56.6136,94.7814 L57.2036,94.7814 L57.2036,95.2891 L56.6136,95.2891 L56.6136,97.7014 C56.6136,97.8303 56.6572,97.9167 56.7448,97.9603 C56.7929,97.9856 56.8737,97.9983 56.9863,97.9983 C57.0161,97.9983 57.0486,97.9978 57.0829,97.9967 C57.1175,97.9954 57.1577,97.9925 57.2036,97.988 L57.2036,98.4779 C57.1323,98.4988 57.0581,98.5136 56.981,98.5229 C56.9038,98.5321 56.8207,98.5368 56.7308,98.5368 C56.4411,98.5368 56.244,98.4624 56.1408,98.3142 C56.0372,98.1655 55.9855,97.9729 55.9855,97.736 L55.9855,95.2891 L55.4849,95.2891 L55.4849,94.7814 L55.9855,94.7814 L55.9855,93.7497 M59.3516,94.6987 C59.6138,94.6987 59.8682,94.7603 60.1144,94.8834 C60.3605,95.0065 60.5481,95.166 60.677,95.3615 C60.8014,95.5477 60.8841,95.7653 60.9255,96.0139 C60.9622,96.184 60.9807,96.4557 60.9807,96.8284 L58.2713,96.8284 C58.2829,97.2033 58.3714,97.5041 58.537,97.7307 C58.7029,97.9573 58.9593,98.0709 59.3069,98.0709 C59.6313,98.0709 59.8901,97.9637 60.0832,97.7497 C60.1939,97.6256 60.2718,97.4816 60.318,97.3184 L60.929,97.3184 C60.9128,97.4542 60.8592,97.6053 60.7684,97.7722 C60.6775,97.9389 60.5755,98.0751 60.463,98.1813 C60.2744,98.3654 60.0407,98.4896 59.7623,98.554 C59.6128,98.5907 59.4437,98.6092 59.2552,98.6092 C58.7948,98.6092 58.4046,98.4418 58.085,98.1071 C57.7649,97.7722 57.6054,97.3036 57.6054,96.7003 C57.6054,96.1068 57.7662,95.6248 58.0885,95.2545 C58.4107,94.8839 58.8317,94.6987 59.3516,94.6987 M60.3421,96.3348 C60.317,96.0656 60.2583,95.8504 60.1661,95.6892 C59.996,95.3902 59.7116,95.2405 59.3135,95.2405 C59.0285,95.2405 58.789,95.3435 58.5959,95.5495 C58.4025,95.7555 58.3003,96.0173 58.2884,96.3348 L60.3421,96.3348 M65.0914,94.6744 C65.5077,94.6744 65.8466,94.7759 66.1075,94.9782 C66.3688,95.1808 66.5259,95.5294 66.5788,96.0239 L65.9747,96.0239 C65.938,95.7962 65.854,95.6071 65.723,95.4563 C65.5919,95.3057 65.3812,95.2304 65.0914,95.2304 C64.6955,95.2304 64.4126,95.4235 64.2422,95.81 C64.1316,96.0609 64.0764,96.3702 64.0764,96.7386 C64.0764,97.1089 64.1548,97.4206 64.3114,97.6739 C64.4678,97.927 64.714,98.0535 65.0499,98.0535 C65.3075,98.0535 65.5117,97.9748 65.6625,97.8171 C65.8133,97.6597 65.9174,97.4439 65.9747,97.17 L66.5788,97.17 C66.5098,97.6599 66.3373,98.0184 66.0611,98.245 C65.785,98.4716 65.4319,98.5852 65.0013,98.5852 C64.5182,98.5852 64.1329,98.4085 63.8452,98.0551 C63.5576,97.7022 63.4139,97.2608 63.4139,96.7315 C63.4139,96.0828 63.5713,95.5775 63.887,95.2164 C64.2021,94.8551 64.6033,94.6744 65.0914,94.6744 M68.667,98.0778 C69.0788,98.0778 69.3614,97.9217 69.5143,97.61 C69.6672,97.2983 69.7438,96.9515 69.7438,96.5693 C69.7438,96.2244 69.6884,95.9436 69.578,95.7273 C69.4031,95.3868 69.1017,95.2164 68.6738,95.2164 C68.2943,95.2164 68.018,95.3615 67.8455,95.6512 C67.673,95.9415 67.5867,96.2909 67.5867,96.7003 C67.5867,97.0942 67.673,97.422 67.8455,97.6842 C68.018,97.9465 68.2916,98.0778 68.667,98.0778 M68.691,94.6744 C69.1672,94.6744 69.57,94.8332 69.8989,95.1509 C70.2283,95.4684 70.3925,95.9354 70.3925,96.5522 C70.3925,97.148 70.2475,97.6404 69.9578,98.0292 C69.6678,98.4183 69.218,98.6127 68.6083,98.6127 C68.0996,98.6127 67.696,98.4407 67.3968,98.0968 C67.0978,97.7526 66.948,97.2909 66.948,96.7109 C66.948,96.0897 67.1057,95.5949 67.4211,95.2267 C67.7362,94.8585 68.1596,94.6744 68.691,94.6744 M71.1023,94.7814 L71.6926,94.7814 L71.6926,95.3062 C71.8675,95.0899 72.0529,94.9346 72.2483,94.8403 C72.4438,94.746 72.6614,94.6987 72.9007,94.6987 C73.425,94.6987 73.7798,94.8818 73.9639,95.2473 C74.0648,95.4478 74.1155,95.7341 74.1155,96.1068 L74.1155,98.4779 L73.4839,98.4779 L73.4839,96.1483 C73.4839,95.923 73.4504,95.741 73.3839,95.6031 C73.2734,95.3728 73.073,95.2579 72.7832,95.2579 C72.6361,95.2579 72.5154,95.273 72.4211,95.3028 C72.2505,95.3535 72.101,95.4547 71.9721,95.6066 C71.8688,95.7283 71.8012,95.8543 71.7705,95.9843 C71.7394,96.1142 71.7235,96.3002 71.7235,96.5416 L71.7235,98.4779 L71.1023,98.4779 L71.1023,94.7814 M75.1292,93.7497 L75.7573,93.7497 L75.7573,94.7814 L76.3474,94.7814 L76.3474,95.2891 L75.7573,95.2891 L75.7573,97.7014 C75.7573,97.8303 75.8009,97.9167 75.8883,97.9603 C75.9367,97.9856 76.0172,97.9983 76.13,97.9983 C76.1599,97.9983 76.1921,97.9978 76.2264,97.9967 C76.261,97.9954 76.3015,97.9925 76.3474,97.988 L76.3474,98.4779 C76.2761,98.4988 76.2019,98.5136 76.1247,98.5229 C76.0476,98.5321 75.9644,98.5368 75.8746,98.5368 C75.5846,98.5368 75.3878,98.4624 75.2843,98.3142 C75.1807,98.1655 75.1292,97.9729 75.1292,97.736 L75.1292,95.2891 L74.6284,95.2891 L74.6284,94.7814 L75.1292,94.7814 L75.1292,93.7497 M78.4953,94.6987 C78.7576,94.6987 79.0117,94.7603 79.2581,94.8834 C79.5041,95.0065 79.6918,95.166 79.8207,95.3615 C79.9452,95.5477 80.0276,95.7653 80.0693,96.0139 C80.106,96.184 80.1245,96.4557 80.1245,96.8284 L77.415,96.8284 C77.4264,97.2033 77.5151,97.5041 77.6807,97.7307 C77.8464,97.9573 78.1028,98.0709 78.4504,98.0709 C78.775,98.0709 79.0336,97.9637 79.227,97.7497 C79.3374,97.6256 79.4156,97.4816 79.4615,97.3184 L80.0727,97.3184 C80.0564,97.4542 80.003,97.6053 79.9121,97.7722 C79.821,97.9389 79.7193,98.0751 79.6065,98.1813 C79.4182,98.3654 79.1844,98.4896 78.9061,98.554 C78.7566,98.5907 78.5872,98.6092 78.3987,98.6092 C77.9385,98.6092 77.5484,98.4418 77.2288,98.1071 C76.9087,97.7722 76.7492,97.3036 76.7492,96.7003 C76.7492,96.1068 76.91,95.6248 77.2322,95.2545 C77.5545,94.8839 77.9753,94.6987 78.4953,94.6987 M79.4858,96.3348 C79.4607,96.0656 79.4018,95.8504 79.3099,95.6892 C79.1398,95.3902 78.8553,95.2405 78.4573,95.2405 C78.172,95.2405 77.9327,95.3435 77.7394,95.5495 C77.546,95.7555 77.4438,96.0173 77.4322,96.3348 L79.4858,96.3348 M80.8583,94.7814 L81.4486,94.7814 L81.4486,95.3062 C81.6234,95.0899 81.8089,94.9346 82.0043,94.8403 C82.1998,94.746 82.4174,94.6987 82.6567,94.6987 C83.181,94.6987 83.5355,94.8818 83.7196,95.2473 C83.8208,95.4478 83.8715,95.7341 83.8715,96.1068 L83.8715,98.4779 L83.2397,98.4779 L83.2397,96.1483 C83.2397,95.923 83.2064,95.741 83.1398,95.6031 C83.0294,95.3728 82.8289,95.2579 82.5392,95.2579 C82.3918,95.2579 82.2714,95.273 82.1768,95.3028 C82.0064,95.3535 81.8569,95.4547 81.728,95.6066 C81.6245,95.7283 81.5571,95.8543 81.526,95.9843 C81.4953,96.1142 81.4795,96.3002 81.4795,96.5416 L81.4795,98.4779 L80.8583,98.4779 L80.8583,94.7814 M84.8849,93.7497 L85.5131,93.7497 L85.5131,94.7814 L86.1034,94.7814 L86.1034,95.2891 L85.5131,95.2891 L85.5131,97.7014 C85.5131,97.8303 85.5569,97.9167 85.6443,97.9603 C85.6927,97.9856 85.7732,97.9983 85.886,97.9983 C85.9158,97.9983 85.9478,97.9978 85.9824,97.9967 C86.017,97.9954 86.0574,97.9925 86.1034,97.988 L86.1034,98.4779 C86.0321,98.4988 85.9579,98.5136 85.8807,98.5229 C85.8036,98.5321 85.7204,98.5368 85.6303,98.5368 C85.3406,98.5368 85.1438,98.4624 85.0403,98.3142 C84.9367,98.1655 84.8849,97.9729 84.8849,97.736 L84.8849,95.2891 L84.3844,95.2891 L84.3844,94.7814 L84.8849,94.7814 L84.8849,93.7497 M87.0812,97.3184 C87.0997,97.5255 87.1515,97.6842 87.2365,97.7946 C87.3929,97.9948 87.6647,98.095 88.0511,98.095 C88.2812,98.095 88.4837,98.045 88.6586,97.9449 C88.8335,97.8446 88.9209,97.6898 88.9209,97.4806 C88.9209,97.3218 88.8506,97.2011 88.7104,97.1182 C88.6206,97.0677 88.4433,97.0088 88.1789,96.9423 L87.6853,96.8179 C87.3699,96.7397 87.1377,96.6523 86.9882,96.5556 C86.7212,96.3876 86.5875,96.1554 86.5875,95.8586 C86.5875,95.5088 86.7138,95.2257 86.9655,95.0094 C87.2175,94.7933 87.5564,94.685 87.9822,94.685 C88.5389,94.685 88.9404,94.8485 89.1863,95.175 C89.3406,95.382 89.4156,95.6052 89.4109,95.8446 L88.8242,95.8446 C88.8129,95.7043 88.7632,95.5767 88.6758,95.4616 C88.5331,95.2983 88.2859,95.2164 87.9338,95.2164 C87.699,95.2164 87.5213,95.2613 87.4003,95.3509 C87.2798,95.4407 87.2193,95.5593 87.2193,95.7064 C87.2193,95.8678 87.2986,95.9967 87.4573,96.0931 C87.5495,96.1507 87.6853,96.2014 87.8646,96.245 L88.2754,96.3451 C88.7217,96.4531 89.021,96.558 89.1729,96.6591 C89.4143,96.8179 89.5353,97.0677 89.5353,97.4079 C89.5353,97.7371 89.4103,98.0213 89.1607,98.2606 C88.9111,98.4999 88.531,98.6195 88.0202,98.6195 C87.47,98.6195 87.0807,98.4949 86.8517,98.245 C86.6227,97.9954 86.5004,97.6863 86.484,97.3184 L87.0812,97.3184 M92.6737,97.4943 C92.6737,97.6739 92.7392,97.8152 92.8705,97.9188 C93.0015,98.0226 93.1568,98.0743 93.3364,98.0743 C93.5548,98.0743 93.7664,98.0236 93.9714,97.9222 C94.3166,97.7542 94.4891,97.4795 94.4891,97.0976 L94.4891,96.5971 C94.4133,96.6454 94.3153,96.6855 94.1956,96.7178 C94.076,96.75 93.9587,96.773 93.8435,96.7867 L93.4674,96.8353 C93.2421,96.8652 93.0728,96.9122 92.9603,96.9766 C92.769,97.0849 92.6737,97.2574 92.6737,97.4943 M94.1784,96.2381 C94.3211,96.2199 94.4167,96.1599 94.4648,96.0585 C94.4925,96.0033 94.5065,95.924 94.5065,95.8205 C94.5065,95.6087 94.431,95.4552 94.2804,95.3596 C94.1296,95.2643 93.9138,95.2164 93.6333,95.2164 C93.3086,95.2164 93.0786,95.3039 92.9428,95.479 C92.8668,95.5754 92.8174,95.7191 92.7944,95.9103 L92.2146,95.9103 C92.226,95.4547 92.3742,95.1377 92.6581,94.9594 C92.9423,94.7809 93.2719,94.6919 93.6468,94.6919 C94.0818,94.6919 94.4349,94.7748 94.7064,94.9404 C94.9756,95.106 95.1103,95.3636 95.1103,95.7135 L95.1103,97.843 C95.1103,97.9074 95.1235,97.9592 95.1502,97.9983 C95.1763,98.0374 95.2321,98.0569 95.3174,98.0569 C95.3451,98.0569 95.376,98.0551 95.4106,98.0519 C95.4452,98.0485 95.4819,98.0432 95.521,98.0363 L95.521,98.4951 C95.4246,98.5229 95.3509,98.5403 95.3002,98.5469 C95.2495,98.554 95.1803,98.5575 95.0931,98.5575 C94.8792,98.5575 94.7236,98.4816 94.6272,98.3295 C94.5765,98.2492 94.5408,98.1351 94.5202,97.988 C94.3934,98.1536 94.212,98.2975 93.9748,98.4193 C93.7379,98.5413 93.4766,98.6023 93.1914,98.6023 C92.8485,98.6023 92.5683,98.4983 92.3509,98.2899 C92.1335,98.0817 92.0247,97.8211 92.0247,97.5083 C92.0247,97.1655 92.1317,96.8995 92.3456,96.7109 C92.5596,96.5223 92.8406,96.4061 93.1879,96.3622 L94.1784,96.2381 M96.0997,94.7814 L96.6898,94.7814 L96.6898,95.3062 C96.8647,95.0899 97.0501,94.9346 97.2455,94.8403 C97.4413,94.746 97.6586,94.6987 97.8979,94.6987 C98.4225,94.6987 98.7767,94.8818 98.9608,95.2473 C99.062,95.4478 99.113,95.7341 99.113,96.1068 L99.113,98.4779 L98.4812,98.4779 L98.4812,96.1483 C98.4812,95.923 98.4479,95.741 98.381,95.6031 C98.2706,95.3728 98.0704,95.2579 97.7807,95.2579 C97.6333,95.2579 97.5123,95.273 97.418,95.3028 C97.2479,95.3535 97.0984,95.4547 96.9695,95.6066 C96.866,95.7283 96.7986,95.8543 96.7675,95.9843 C96.7363,96.1142 96.721,96.3002 96.721,96.5416 L96.721,98.4779 L96.0997,98.4779 L96.0997,94.7814 M100.396,96.6731 C100.396,97.0685 100.48,97.4 100.647,97.6671 C100.815,97.9338 101.084,98.0672 101.455,98.0672 C101.743,98.0672 101.979,97.9436 102.164,97.6964 C102.35,97.4489 102.442,97.0942 102.442,96.6314 C102.442,96.1647 102.347,95.8187 102.156,95.5944 C101.965,95.3702 101.729,95.2579 101.448,95.2579 C101.135,95.2579 100.882,95.3776 100.687,95.6169 C100.493,95.8559 100.396,96.208 100.396,96.6731 M101.331,94.7162 C101.614,94.7162 101.851,94.7759 102.042,94.8955 C102.152,94.9647 102.278,95.0852 102.418,95.2579 L102.418,93.3908 L103.015,93.3908 L103.015,98.4779 L102.456,98.4779 L102.456,97.9637 C102.311,98.1914 102.14,98.3562 101.942,98.4573 C101.744,98.5588 101.517,98.6092 101.262,98.6092 C100.85,98.6092 100.493,98.4359 100.192,98.0897 C99.8906,97.7434 99.7397,97.2825 99.7397,96.7075 C99.7397,96.1689 99.8771,95.7024 100.152,95.3078 C100.427,94.9135 100.82,94.7162 101.331,94.7162 M107.281,94.6744 C107.698,94.6744 108.036,94.7759 108.298,94.9782 C108.559,95.1808 108.716,95.5294 108.769,96.0239 L108.165,96.0239 C108.128,95.7962 108.044,95.6071 107.913,95.4563 C107.782,95.3057 107.571,95.2304 107.281,95.2304 C106.885,95.2304 106.602,95.4235 106.432,95.81 C106.322,96.0609 106.266,96.3702 106.266,96.7386 C106.266,97.1089 106.345,97.4206 106.501,97.6739 C106.658,97.927 106.904,98.0535 107.24,98.0535 C107.498,98.0535 107.701,97.9748 107.852,97.8171 C108.003,97.6597 108.107,97.4439 108.165,97.17 L108.769,97.17 C108.7,97.6599 108.527,98.0184 108.251,98.245 C107.975,98.4716 107.622,98.5852 107.191,98.5852 C106.708,98.5852 106.323,98.4085 106.035,98.0551 C105.747,97.7022 105.604,97.2608 105.604,96.7315 C105.604,96.0828 105.761,95.5775 106.077,95.2164 C106.392,94.8551 106.793,94.6744 107.281,94.6744 M110.857,98.0778 C111.269,98.0778 111.551,97.9217 111.704,97.61 C111.857,97.2983 111.933,96.9515 111.933,96.5693 C111.933,96.2244 111.878,95.9436 111.768,95.7273 C111.593,95.3868 111.292,95.2164 110.864,95.2164 C110.484,95.2164 110.208,95.3615 110.035,95.6512 C109.863,95.9415 109.776,96.2909 109.776,96.7003 C109.776,97.0942 109.863,97.422 110.035,97.6842 C110.208,97.9465 110.482,98.0778 110.857,98.0778 M110.881,94.6744 C111.357,94.6744 111.76,94.8332 112.089,95.1509 C112.418,95.4684 112.582,95.9354 112.582,96.5522 C112.582,97.148 112.438,97.6404 112.147,98.0292 C111.858,98.4183 111.408,98.6127 110.798,98.6127 C110.289,98.6127 109.886,98.4407 109.587,98.0968 C109.288,97.7526 109.138,97.2909 109.138,96.7109 C109.138,96.0897 109.296,95.5949 109.611,95.2267 C109.926,94.8585 110.349,94.6744 110.881,94.6744 M113.292,94.7814 L113.882,94.7814 L113.882,95.3062 C114.057,95.0899 114.242,94.9346 114.438,94.8403 C114.634,94.746 114.851,94.6987 115.09,94.6987 C115.615,94.6987 115.969,94.8818 116.153,95.2473 C116.255,95.4478 116.305,95.7341 116.305,96.1068 L116.305,98.4779 L115.674,98.4779 L115.674,96.1483 C115.674,95.923 115.64,95.741 115.574,95.6031 C115.463,95.3728 115.263,95.2579 114.973,95.2579 C114.826,95.2579 114.705,95.273 114.611,95.3028 C114.44,95.3535 114.291,95.4547 114.162,95.6066 C114.058,95.7283 113.991,95.8543 113.96,95.9843 C113.929,96.1142 113.913,96.3002 113.913,96.5416 L113.913,98.4779 L113.292,98.4779 L113.292,94.7814 M117.319,93.7497 L117.947,93.7497 L117.947,94.7814 L118.537,94.7814 L118.537,95.2891 L117.947,95.2891 L117.947,97.7014 C117.947,97.8303 117.991,97.9167 118.078,97.9603 C118.127,97.9856 118.207,97.9983 118.32,97.9983 C118.35,97.9983 118.382,97.9978 118.416,97.9967 C118.451,97.9954 118.491,97.9925 118.537,97.988 L118.537,98.4779 C118.466,98.4988 118.392,98.5136 118.315,98.5229 C118.237,98.5321 118.154,98.5368 118.064,98.5368 C117.774,98.5368 117.578,98.4624 117.474,98.3142 C117.371,98.1655 117.319,97.9729 117.319,97.736 L117.319,95.2891 L116.818,95.2891 L116.818,94.7814 L117.319,94.7814 L117.319,93.7497 M120.685,94.6987 C120.947,94.6987 121.202,94.7603 121.448,94.8834 C121.694,95.0065 121.881,95.166 122.01,95.3615 C122.135,95.5477 122.218,95.7653 122.259,96.0139 C122.296,96.184 122.314,96.4557 122.314,96.8284 L119.605,96.8284 C119.616,97.2033 119.705,97.5041 119.871,97.7307 C120.036,97.9573 120.293,98.0709 120.64,98.0709 C120.965,98.0709 121.223,97.9637 121.417,97.7497 C121.527,97.6256 121.606,97.4816 121.652,97.3184 L122.262,97.3184 C122.246,97.4542 122.193,97.6053 122.102,97.7722 C122.011,97.9389 121.909,98.0751 121.796,98.1813 C121.608,98.3654 121.374,98.4896 121.096,98.554 C120.946,98.5907 120.777,98.6092 120.588,98.6092 C120.128,98.6092 119.738,98.4418 119.418,98.1071 C119.099,97.7722 118.939,97.3036 118.939,96.7003 C118.939,96.1068 119.1,95.6248 119.422,95.2545 C119.744,94.8839 120.165,94.6987 120.685,94.6987 M121.676,96.3348 C121.65,96.0656 121.592,95.8504 121.499,95.6892 C121.329,95.3902 121.045,95.2405 120.647,95.2405 C120.362,95.2405 120.123,95.3435 119.929,95.5495 C119.736,95.7555 119.634,96.0173 119.622,96.3348 L121.676,96.3348 M123.048,94.7814 L123.638,94.7814 L123.638,95.3062 C123.813,95.0899 123.998,94.9346 124.194,94.8403 C124.39,94.746 124.607,94.6987 124.846,94.6987 C125.371,94.6987 125.725,94.8818 125.909,95.2473 C126.011,95.4478 126.061,95.7341 126.061,96.1068 L126.061,98.4779 L125.429,98.4779 L125.429,96.1483 C125.429,95.923 125.396,95.741 125.33,95.6031 C125.219,95.3728 125.019,95.2579 124.729,95.2579 C124.582,95.2579 124.461,95.273 124.367,95.3028 C124.196,95.3535 124.047,95.4547 123.918,95.6066 C123.814,95.7283 123.747,95.8543 123.716,95.9843 C123.685,96.1142 123.669,96.3002 123.669,96.5416 L123.669,98.4779 L123.048,98.4779 L123.048,94.7814 M127.075,93.7497 L127.703,93.7497 L127.703,94.7814 L128.293,94.7814 L128.293,95.2891 L127.703,95.2891 L127.703,97.7014 C127.703,97.8303 127.746,97.9167 127.834,97.9603 C127.882,97.9856 127.963,97.9983 128.076,97.9983 C128.106,97.9983 128.138,97.9978 128.172,97.9967 C128.207,97.9954 128.247,97.9925 128.293,97.988 L128.293,98.4779 C128.222,98.4988 128.148,98.5136 128.071,98.5229 C127.993,98.5321 127.91,98.5368 127.82,98.5368 C127.53,98.5368 127.334,98.4624 127.23,98.3142 C127.127,98.1655 127.075,97.9729 127.075,97.736 L127.075,95.2891 L126.574,95.2891 L126.574,94.7814 L127.075,94.7814 L127.075,93.7497 M129.271,97.3184 C129.289,97.5255 129.341,97.6842 129.426,97.7946 C129.583,97.9948 129.854,98.095 130.241,98.095 C130.471,98.095 130.673,98.045 130.848,97.9449 C131.023,97.8446 131.11,97.6898 131.11,97.4806 C131.11,97.3218 131.04,97.2011 130.9,97.1182 C130.81,97.0677 130.633,97.0088 130.368,96.9423 L129.875,96.8179 C129.56,96.7397 129.327,96.6523 129.178,96.5556 C128.911,96.3876 128.778,96.1554 128.778,95.8586 C128.778,95.5088 128.903,95.2257 129.155,95.0094 C129.407,94.7933 129.746,94.685 130.172,94.685 C130.729,94.685 131.13,94.8485 131.376,95.175 C131.53,95.382 131.605,95.6052 131.601,95.8446 L131.014,95.8446 C131.002,95.7043 130.953,95.5767 130.865,95.4616 C130.723,95.2983 130.475,95.2164 130.124,95.2164 C129.889,95.2164 129.711,95.2613 129.59,95.3509 C129.469,95.4407 129.409,95.5593 129.409,95.7064 C129.409,95.8678 129.488,95.9967 129.647,96.0931 C129.739,96.1507 129.875,96.2014 130.054,96.245 L130.465,96.3451 C130.912,96.4531 131.211,96.558 131.362,96.6591 C131.604,96.8179 131.725,97.0677 131.725,97.4079 C131.725,97.7371 131.6,98.0213 131.351,98.2606 C131.101,98.4999 130.721,98.6195 130.21,98.6195 C129.66,98.6195 129.271,98.4949 129.042,98.245 C128.812,97.9954 128.69,97.6863 128.674,97.3184 L129.271,97.3184 M135.947,98.0603 C136.237,98.0603 136.478,97.9389 136.67,97.6964 C136.862,97.4536 136.958,97.0905 136.958,96.6074 C136.958,96.3129 136.916,96.0598 136.831,95.848 C136.67,95.4407 136.375,95.2373 135.947,95.2373 C135.517,95.2373 135.222,95.4523 135.063,95.8826 C134.978,96.1129 134.936,96.4048 134.936,96.7592 C134.936,97.0445 134.978,97.2872 135.063,97.4874 C135.225,97.8697 135.519,98.0603 135.947,98.0603 M134.339,94.7989 L134.943,94.7989 L134.943,95.2891 C135.067,95.1211 135.203,94.9909 135.35,94.899 C135.559,94.7608 135.806,94.6919 136.089,94.6919 C136.507,94.6919 136.863,94.8525 137.155,95.1734 C137.447,95.4943 137.594,95.9528 137.594,96.5487 C137.594,97.3541 137.383,97.9294 136.962,98.2743 C136.695,98.493 136.384,98.6023 136.03,98.6023 C135.752,98.6023 135.518,98.5413 135.329,98.4193 C135.219,98.3504 135.096,98.2318 134.96,98.0638 L134.96,99.9518 L134.339,99.9518 L134.339,94.7989 M138.29,94.7989 L138.921,94.7989 L138.921,98.4779 L138.29,98.4779 L138.29,94.7989 M138.29,93.4079 L138.921,93.4079 L138.921,94.1121 L138.29,94.1121 L138.29,93.4079 M141.396,98.0603 C141.686,98.0603 141.927,97.9389 142.119,97.6964 C142.311,97.4536 142.407,97.0905 142.407,96.6074 C142.407,96.3129 142.364,96.0598 142.279,95.848 C142.118,95.4407 141.824,95.2373 141.396,95.2373 C140.965,95.2373 140.671,95.4523 140.512,95.8826 C140.427,96.1129 140.385,96.4048 140.385,96.7592 C140.385,97.0445 140.427,97.2872 140.512,97.4874 C140.673,97.8697 140.968,98.0603 141.396,98.0603 M139.787,94.7989 L140.392,94.7989 L140.392,95.2891 C140.516,95.1211 140.651,94.9909 140.799,94.899 C141.008,94.7608 141.254,94.6919 141.537,94.6919 C141.956,94.6919 142.311,94.8525 142.604,95.1734 C142.896,95.4943 143.042,95.9528 143.042,96.5487 C143.042,97.3541 142.831,97.9294 142.411,98.2743 C142.144,98.493 141.833,98.6023 141.478,98.6023 C141.2,98.6023 140.967,98.5413 140.778,98.4193 C140.668,98.3504 140.544,98.2318 140.409,98.0638 L140.409,99.9518 L139.787,99.9518 L139.787,94.7989 M145.277,94.6987 C145.54,94.6987 145.794,94.7603 146.04,94.8834 C146.286,95.0065 146.474,95.166 146.603,95.3615 C146.727,95.5477 146.81,95.7653 146.851,96.0139 C146.888,96.184 146.906,96.4557 146.906,96.8284 L144.197,96.8284 C144.208,97.2033 144.297,97.5041 144.463,97.7307 C144.628,97.9573 144.885,98.0709 145.233,98.0709 C145.557,98.0709 145.816,97.9637 146.009,97.7497 C146.119,97.6256 146.198,97.4816 146.244,97.3184 L146.855,97.3184 C146.838,97.4542 146.785,97.6053 146.694,97.7722 C146.603,97.9389 146.501,98.0751 146.389,98.1813 C146.2,98.3654 145.967,98.4896 145.688,98.554 C145.539,98.5907 145.369,98.6092 145.181,98.6092 C144.72,98.6092 144.331,98.4418 144.011,98.1071 C143.691,97.7722 143.531,97.3036 143.531,96.7003 C143.531,96.1068 143.692,95.6248 144.014,95.2545 C144.336,94.8839 144.757,94.6987 145.277,94.6987 M146.268,96.3348 C146.243,96.0656 146.184,95.8504 146.092,95.6892 C145.922,95.3902 145.637,95.2405 145.239,95.2405 C144.954,95.2405 144.715,95.3435 144.521,95.5495 C144.328,95.7555 144.226,96.0173 144.215,96.3348 L146.268,96.3348 M147.658,93.4079 L148.279,93.4079 L148.279,98.4779 L147.658,98.4779 L147.658,93.4079 M149.187,94.7989 L149.818,94.7989 L149.818,98.4779 L149.187,98.4779 L149.187,94.7989 M149.187,93.4079 L149.818,93.4079 L149.818,94.1121 L149.187,94.1121 L149.187,93.4079 M150.733,94.7814 L151.323,94.7814 L151.323,95.3062 C151.498,95.0899 151.683,94.9346 151.879,94.8403 C152.074,94.746 152.292,94.6987 152.531,94.6987 C153.056,94.6987 153.41,94.8818 153.594,95.2473 C153.695,95.4478 153.746,95.7341 153.746,96.1068 L153.746,98.4779 L153.114,98.4779 L153.114,96.1483 C153.114,95.923 153.081,95.741 153.014,95.6031 C152.904,95.3728 152.704,95.2579 152.414,95.2579 C152.266,95.2579 152.146,95.273 152.051,95.3028 C151.881,95.3535 151.732,95.4547 151.603,95.6066 C151.499,95.7283 151.432,95.8543 151.401,95.9843 C151.37,96.1142 151.354,96.3002 151.354,96.5416 L151.354,98.4779 L150.733,98.4779 L150.733,94.7814 M156.174,94.6987 C156.437,94.6987 156.691,94.7603 156.937,94.8834 C157.184,95.0065 157.371,95.166 157.5,95.3615 C157.624,95.5477 157.707,95.7653 157.748,96.0139 C157.785,96.184 157.804,96.4557 157.804,96.8284 L155.094,96.8284 C155.106,97.2033 155.195,97.5041 155.36,97.7307 C155.525,97.9573 155.783,98.0709 156.13,98.0709 C156.454,98.0709 156.713,97.9637 156.906,97.7497 C157.017,97.6256 157.095,97.4816 157.141,97.3184 L157.752,97.3184 C157.736,97.4542 157.682,97.6053 157.591,97.7722 C157.501,97.9389 157.398,98.0751 157.286,98.1813 C157.097,98.3654 156.864,98.4896 156.585,98.554 C156.436,98.5907 156.267,98.6092 156.078,98.6092 C155.618,98.6092 155.228,98.4418 154.908,98.1071 C154.588,97.7722 154.428,97.3036 154.428,96.7003 C154.428,96.1068 154.589,95.6248 154.911,95.2545 C155.234,94.8839 155.654,94.6987 156.174,94.6987 M157.165,96.3348 C157.14,96.0656 157.081,95.8504 156.989,95.6892 C156.819,95.3902 156.535,95.2405 156.137,95.2405 C155.851,95.2405 155.612,95.3435 155.419,95.5495 C155.225,95.7555 155.123,96.0173 155.112,96.3348 L157.165,96.3348 M160.775,94.7814 L161.486,97.6945 L162.208,94.7814 L162.905,94.7814 L163.63,97.6771 L164.386,94.7814 L165.007,94.7814 L163.933,98.4779 L163.288,98.4779 L162.535,95.6169 L161.807,98.4779 L161.162,98.4779 L160.096,94.7814 L160.775,94.7814 M165.569,94.7989 L166.201,94.7989 L166.201,98.4779 L165.569,98.4779 L165.569,94.7989 M165.569,93.4079 L166.201,93.4079 L166.201,94.1121 L165.569,94.1121 L165.569,93.4079 M167.24,93.7497 L167.868,93.7497 L167.868,94.7814 L168.458,94.7814 L168.458,95.2891 L167.868,95.2891 L167.868,97.7014 C167.868,97.8303 167.911,97.9167 167.999,97.9603 C168.047,97.9856 168.128,97.9983 168.241,97.9983 C168.271,97.9983 168.303,97.9978 168.337,97.9967 C168.372,97.9954 168.412,97.9925 168.458,97.988 L168.458,98.4779 C168.387,98.4988 168.313,98.5136 168.236,98.5229 C168.158,98.5321 168.075,98.5368 167.985,98.5368 C167.695,98.5368 167.499,98.4624 167.395,98.3142 C167.292,98.1655 167.24,97.9729 167.24,97.736 L167.24,95.2891 L166.739,95.2891 L166.739,94.7814 L167.24,94.7814 L167.24,93.7497 M169.067,93.3908 L169.688,93.3908 L169.688,95.2819 C169.835,95.0957 169.967,94.9647 170.085,94.8884 C170.285,94.7574 170.535,94.6919 170.834,94.6919 C171.37,94.6919 171.733,94.8792 171.924,95.2545 C172.028,95.4592 172.08,95.7434 172.08,96.1068 L172.08,98.4779 L171.441,98.4779 L171.441,96.1483 C171.441,95.877 171.407,95.6779 171.338,95.5514 C171.225,95.3488 171.013,95.2473 170.703,95.2473 C170.445,95.2473 170.212,95.3361 170.002,95.5131 C169.793,95.6903 169.688,96.0252 169.688,96.5176 L169.688,98.4779 L169.067,98.4779 L169.067,93.3908 M176.387,98.0778 C176.799,98.0778 177.081,97.9217 177.234,97.61 C177.387,97.2983 177.464,96.9515 177.464,96.5693 C177.464,96.2244 177.409,95.9436 177.298,95.7273 C177.123,95.3868 176.822,95.2164 176.394,95.2164 C176.014,95.2164 175.738,95.3615 175.566,95.6512 C175.393,95.9415 175.307,96.2909 175.307,96.7003 C175.307,97.0942 175.393,97.422 175.566,97.6842 C175.738,97.9465 176.012,98.0778 176.387,98.0778 M176.411,94.6744 C176.887,94.6744 177.29,94.8332 177.619,95.1509 C177.948,95.4684 178.113,95.9354 178.113,96.5522 C178.113,97.148 177.968,97.6404 177.678,98.0292 C177.388,98.4183 176.938,98.6127 176.328,98.6127 C175.82,98.6127 175.416,98.4407 175.117,98.0968 C174.818,97.7526 174.668,97.2909 174.668,96.7109 C174.668,96.0897 174.826,95.5949 175.141,95.2267 C175.456,94.8585 175.88,94.6744 176.411,94.6744 M180.383,98.0603 C180.672,98.0603 180.914,97.9389 181.106,97.6964 C181.298,97.4536 181.394,97.0905 181.394,96.6074 C181.394,96.3129 181.352,96.0598 181.266,95.848 C181.105,95.4407 180.811,95.2373 180.383,95.2373 C179.952,95.2373 179.658,95.4523 179.499,95.8826 C179.414,96.1129 179.371,96.4048 179.371,96.7592 C179.371,97.0445 179.414,97.2872 179.499,97.4874 C179.66,97.8697 179.955,98.0603 180.383,98.0603 M178.774,94.7989 L179.378,94.7989 L179.378,95.2891 C179.502,95.1211 179.638,94.9909 179.786,94.899 C179.995,94.7608 180.241,94.6919 180.524,94.6919 C180.943,94.6919 181.298,94.8525 181.591,95.1734 C181.883,95.4943 182.029,95.9528 182.029,96.5487 C182.029,97.3541 181.819,97.9294 181.397,98.2743 C181.13,98.493 180.82,98.6023 180.465,98.6023 C180.187,98.6023 179.954,98.5413 179.765,98.4193 C179.654,98.3504 179.531,98.2318 179.395,98.0638 L179.395,99.9518 L178.774,99.9518 L178.774,94.7989 M184.264,94.6987 C184.526,94.6987 184.781,94.7603 185.027,94.8834 C185.273,95.0065 185.461,95.166 185.59,95.3615 C185.714,95.5477 185.797,95.7653 185.838,96.0139 C185.875,96.184 185.893,96.4557 185.893,96.8284 L183.184,96.8284 C183.195,97.2033 183.284,97.5041 183.45,97.7307 C183.615,97.9573 183.872,98.0709 184.219,98.0709 C184.544,98.0709 184.803,97.9637 184.996,97.7497 C185.106,97.6256 185.185,97.4816 185.231,97.3184 L185.842,97.3184 C185.825,97.4542 185.772,97.6053 185.681,97.7722 C185.59,97.9389 185.488,98.0751 185.376,98.1813 C185.187,98.3654 184.954,98.4896 184.675,98.554 C184.526,98.5907 184.356,98.6092 184.167,98.6092 C183.708,98.6092 183.317,98.4418 182.998,98.1071 C182.678,97.7722 182.518,97.3036 182.518,96.7003 C182.518,96.1068 182.679,95.6248 183.001,95.2545 C183.323,94.8839 183.744,94.6987 184.264,94.6987 M185.255,96.3348 C185.23,96.0656 185.171,95.8504 185.079,95.6892 C184.908,95.3902 184.624,95.2405 184.226,95.2405 C183.941,95.2405 183.702,95.3435 183.508,95.5495 C183.315,95.7555 183.213,96.0173 183.201,96.3348 L185.255,96.3348 M186.627,94.7814 L187.217,94.7814 L187.217,95.3062 C187.393,95.0899 187.577,94.9346 187.773,94.8403 C187.969,94.746 188.186,94.6987 188.425,94.6987 C188.95,94.6987 189.304,94.8818 189.488,95.2473 C189.59,95.4478 189.641,95.7341 189.641,96.1068 L189.641,98.4779 L189.009,98.4779 L189.009,96.1483 C189.009,95.923 188.975,95.741 188.909,95.6031 C188.798,95.3728 188.598,95.2579 188.308,95.2579 C188.161,95.2579 188.04,95.273 187.946,95.3028 C187.776,95.3535 187.626,95.4547 187.497,95.6066 C187.394,95.7283 187.326,95.8543 187.295,95.9843 C187.264,96.1142 187.249,96.3002 187.249,96.5416 L187.249,98.4779 L186.627,98.4779 L186.627,94.7814 M190.899,97.3184 C190.917,97.5255 190.969,97.6842 191.054,97.7946 C191.211,97.9948 191.482,98.095 191.869,98.095 C192.099,98.095 192.301,98.045 192.476,97.9449 C192.651,97.8446 192.739,97.6898 192.739,97.4806 C192.739,97.3218 192.668,97.2011 192.528,97.1182 C192.439,97.0677 192.261,97.0088 191.997,96.9423 L191.503,96.8179 C191.188,96.7397 190.955,96.6523 190.806,96.5556 C190.539,96.3876 190.405,96.1554 190.405,95.8586 C190.405,95.5088 190.531,95.2257 190.783,95.0094 C191.035,94.7933 191.374,94.685 191.8,94.685 C192.357,94.685 192.758,94.8485 193.005,95.175 C193.159,95.382 193.233,95.6052 193.229,95.8446 L192.642,95.8446 C192.631,95.7043 192.581,95.5767 192.493,95.4616 C192.351,95.2983 192.104,95.2164 191.751,95.2164 C191.517,95.2164 191.339,95.2613 191.218,95.3509 C191.097,95.4407 191.037,95.5593 191.037,95.7064 C191.037,95.8678 191.116,95.9967 191.275,96.0931 C191.367,96.1507 191.503,96.2014 191.682,96.245 L192.093,96.3451 C192.539,96.4531 192.839,96.558 192.991,96.6591 C193.232,96.8179 193.353,97.0677 193.353,97.4079 C193.353,97.7371 193.228,98.0213 192.979,98.2606 C192.729,98.4999 192.349,98.6195 191.838,98.6195 C191.288,98.6195 190.898,98.4949 190.67,98.245 C190.441,97.9954 190.318,97.6863 190.302,97.3184 L190.899,97.3184 M195.531,98.0778 C195.943,98.0778 196.225,97.9217 196.378,97.61 C196.531,97.2983 196.608,96.9515 196.608,96.5693 C196.608,96.2244 196.553,95.9436 196.442,95.7273 C196.267,95.3868 195.965,95.2164 195.538,95.2164 C195.158,95.2164 194.882,95.3615 194.71,95.6512 C194.537,95.9415 194.45,96.2909 194.45,96.7003 C194.45,97.0942 194.537,97.422 194.71,97.6842 C194.882,97.9465 195.156,98.0778 195.531,98.0778 M195.555,94.6744 C196.031,94.6744 196.434,94.8332 196.763,95.1509 C197.092,95.4684 197.257,95.9354 197.257,96.5522 C197.257,97.148 197.112,97.6404 196.822,98.0292 C196.531,98.4183 196.082,98.6127 195.472,98.6127 C194.964,98.6127 194.56,98.4407 194.26,98.0968 C193.961,97.7526 193.812,97.2909 193.812,96.7109 C193.812,96.0897 193.969,95.5949 194.285,95.2267 C194.6,94.8585 195.023,94.6744 195.555,94.6744 M198.588,94.7814 L198.588,97.2357 C198.588,97.4241 198.618,97.5783 198.677,97.6982 C198.788,97.9188 198.994,98.0292 199.295,98.0292 C199.727,98.0292 200.022,97.8361 200.179,97.4497 C200.264,97.2423 200.306,96.9581 200.306,96.5971 L200.306,94.7814 L200.927,94.7814 L200.927,98.4779 L200.341,98.4779 L200.348,97.9328 C200.267,98.073 200.167,98.1914 200.048,98.2883 C199.81,98.4816 199.523,98.5781 199.185,98.5781 C198.658,98.5781 198.299,98.4021 198.108,98.0501 C198.004,97.8612 197.953,97.6095 197.953,97.2944 L197.953,94.7814 L198.588,94.7814 M201.886,94.7814 L202.476,94.7814 L202.476,95.4201 C202.525,95.2957 202.643,95.1446 202.832,94.9663 C203.02,94.788 203.238,94.6987 203.484,94.6987 C203.495,94.6987 203.515,94.6998 203.543,94.7022 C203.57,94.7046 203.617,94.709 203.684,94.7162 L203.684,95.3717 C203.647,95.3649 203.613,95.3601 203.582,95.358 C203.551,95.3556 203.517,95.3546 203.48,95.3546 C203.168,95.3546 202.927,95.4552 202.759,95.6565 C202.591,95.8578 202.507,96.0897 202.507,96.352 L202.507,98.4779 L201.886,98.4779 L201.886,94.7814 M205.613,94.6744 C206.03,94.6744 206.369,94.7759 206.63,94.9782 C206.891,95.1808 207.048,95.5294 207.101,96.0239 L206.497,96.0239 C206.46,95.7962 206.376,95.6071 206.245,95.4563 C206.114,95.3057 205.903,95.2304 205.613,95.2304 C205.218,95.2304 204.935,95.4235 204.764,95.81 C204.654,96.0609 204.599,96.3702 204.599,96.7386 C204.599,97.1089 204.677,97.4206 204.833,97.6739 C204.99,97.927 205.236,98.0535 205.572,98.0535 C205.83,98.0535 206.034,97.9748 206.184,97.8171 C206.335,97.6597 206.44,97.4439 206.497,97.17 L207.101,97.17 C207.032,97.6599 206.859,98.0184 206.583,98.245 C206.307,98.4716 205.954,98.5852 205.524,98.5852 C205.04,98.5852 204.655,98.4085 204.367,98.0551 C204.08,97.7022 203.936,97.2608 203.936,96.7315 C203.936,96.0828 204.094,95.5775 204.409,95.2164 C204.724,94.8551 205.126,94.6744 205.613,94.6744 M209.262,94.6987 C209.524,94.6987 209.778,94.7603 210.024,94.8834 C210.271,95.0065 210.458,95.166 210.587,95.3615 C210.711,95.5477 210.794,95.7653 210.835,96.0139 C210.872,96.184 210.891,96.4557 210.891,96.8284 L208.181,96.8284 C208.193,97.2033 208.281,97.5041 208.447,97.7307 C208.613,97.9573 208.869,98.0709 209.217,98.0709 C209.541,98.0709 209.8,97.9637 209.993,97.7497 C210.104,97.6256 210.182,97.4816 210.228,97.3184 L210.839,97.3184 C210.823,97.4542 210.769,97.6053 210.678,97.7722 C210.588,97.9389 210.486,98.0751 210.373,98.1813 C210.184,98.3654 209.951,98.4896 209.672,98.554 C209.523,98.5907 209.354,98.6092 209.165,98.6092 C208.705,98.6092 208.315,98.4418 207.995,98.1071 C207.675,97.7722 207.515,97.3036 207.515,96.7003 C207.515,96.1068 207.676,95.6248 207.998,95.2545 C208.32,94.8839 208.742,94.6987 209.262,94.6987 M210.252,96.3348 C210.227,96.0656 210.168,95.8504 210.076,95.6892 C209.906,95.3902 209.622,95.2405 209.224,95.2405 C208.938,95.2405 208.699,95.3435 208.506,95.5495 C208.313,95.7555 208.21,96.0173 208.198,96.3348 L210.252,96.3348 M211.773,97.7257 L212.495,97.7257 L212.495,98.4779 L211.773,98.4779 L211.773,97.7257 M94.3694,112.19 L94.9906,112.19 L94.9906,114.082 C95.1378,113.895 95.2701,113.764 95.3876,113.689 C95.5876,113.557 95.8375,113.492 96.1365,113.492 C96.6726,113.492 97.0361,113.679 97.2273,114.054 C97.3309,114.259 97.3826,114.543 97.3826,114.907 L97.3826,117.278 L96.7442,117.278 L96.7442,114.948 C96.7442,114.677 96.7096,114.477 96.6404,114.351 C96.5276,114.148 96.3158,114.047 96.0054,114.047 C95.7477,114.047 95.5141,114.136 95.3047,114.313 C95.0952,114.49 94.9906,114.825 94.9906,115.317 L94.9906,117.278 L94.3694,117.278 L94.3694,112.19 M98.3961,112.549 L99.0242,112.549 L99.0242,113.582 L99.6145,113.582 L99.6145,114.089 L99.0242,114.089 L99.0242,116.501 C99.0242,116.63 99.0678,116.716 99.1555,116.76 C99.2036,116.785 99.2844,116.798 99.3969,116.798 C99.4267,116.798 99.4592,116.797 99.4936,116.796 C99.5282,116.795 99.5683,116.792 99.6145,116.788 L99.6145,117.278 C99.543,117.298 99.469,117.313 99.3919,117.322 C99.3147,117.332 99.2313,117.336 99.1415,117.336 C98.8517,117.336 98.6549,117.262 98.5514,117.114 C98.4479,116.965 98.3961,116.773 98.3961,116.536 L98.3961,114.089 L97.8956,114.089 L97.8956,113.582 L98.3961,113.582 L98.3961,112.549 M100.347,112.549 L100.975,112.549 L100.975,113.582 L101.565,113.582 L101.565,114.089 L100.975,114.089 L100.975,116.501 C100.975,116.63 101.019,116.716 101.106,116.76 C101.155,116.785 101.235,116.798 101.348,116.798 C101.378,116.798 101.41,116.797 101.445,116.796 C101.479,116.795 101.519,116.792 101.565,116.788 L101.565,117.278 C101.494,117.298 101.42,117.313 101.343,117.322 C101.266,117.332 101.183,117.336 101.093,117.336 C100.803,117.336 100.606,117.262 100.503,117.114 C100.399,116.965 100.347,116.773 100.347,116.536 L100.347,114.089 L99.8467,114.089 L99.8467,113.582 L100.347,113.582 L100.347,112.549 M103.734,116.86 C104.024,116.86 104.265,116.739 104.457,116.496 C104.649,116.253 104.746,115.89 104.746,115.407 C104.746,115.112 104.703,114.859 104.618,114.648 C104.457,114.241 104.162,114.037 103.734,114.037 C103.304,114.037 103.009,114.252 102.851,114.682 C102.765,114.913 102.723,115.205 102.723,115.559 C102.723,115.844 102.765,116.087 102.851,116.287 C103.012,116.669 103.306,116.86 103.734,116.86 M102.126,113.599 L102.73,113.599 L102.73,114.089 C102.854,113.921 102.99,113.791 103.137,113.699 C103.346,113.56 103.593,113.492 103.876,113.492 C104.294,113.492 104.65,113.652 104.942,113.973 C105.234,114.294 105.381,114.752 105.381,115.348 C105.381,116.154 105.17,116.729 104.749,117.074 C104.482,117.293 104.171,117.402 103.817,117.402 C103.539,117.402 103.305,117.341 103.116,117.219 C103.006,117.15 102.883,117.031 102.747,116.864 L102.747,118.751 L102.126,118.751 L102.126,113.599 M106.446,116.118 C106.464,116.325 106.516,116.484 106.601,116.594 C106.757,116.795 107.029,116.895 107.416,116.895 C107.646,116.895 107.848,116.845 108.023,116.745 C108.198,116.644 108.285,116.49 108.285,116.28 C108.285,116.122 108.215,116.001 108.075,115.918 C107.985,115.867 107.808,115.809 107.544,115.742 L107.05,115.617 C106.735,115.54 106.502,115.452 106.353,115.355 C106.086,115.187 105.952,114.955 105.952,114.658 C105.952,114.308 106.078,114.025 106.33,113.809 C106.582,113.593 106.921,113.485 107.347,113.485 C107.904,113.485 108.305,113.648 108.551,113.975 C108.705,114.182 108.78,114.405 108.775,114.644 L108.189,114.644 C108.177,114.504 108.128,114.376 108.04,114.261 C107.898,114.098 107.65,114.016 107.298,114.016 C107.064,114.016 106.886,114.061 106.765,114.151 C106.644,114.241 106.584,114.359 106.584,114.506 C106.584,114.667 106.663,114.796 106.822,114.893 C106.914,114.95 107.05,115.001 107.229,115.045 L107.64,115.145 C108.086,115.253 108.385,115.358 108.537,115.459 C108.779,115.617 108.9,115.867 108.9,116.208 C108.9,116.537 108.775,116.821 108.525,117.06 C108.276,117.3 107.895,117.419 107.385,117.419 C106.835,117.419 106.445,117.294 106.217,117.045 C105.987,116.795 105.865,116.486 105.849,116.118 L106.446,116.118 M109.939,113.63 L110.66,113.63 L110.66,114.382 L109.939,114.382 L109.939,113.63 M109.939,116.525 L110.66,116.525 L110.66,117.278 L109.939,117.278 L109.939,116.525 M112.715,112.208 L113.239,112.208 L111.631,117.278 L111.106,117.278 L112.715,112.208 M114.666,112.208 L115.19,112.208 L113.582,117.278 L113.058,117.278 L114.666,112.208 M115.481,112.208 L116.103,112.208 L116.103,117.278 L115.481,117.278 L115.481,112.208 M117.487,116.294 C117.487,116.474 117.553,116.615 117.684,116.719 C117.815,116.822 117.97,116.874 118.149,116.874 C118.368,116.874 118.58,116.823 118.784,116.722 C119.13,116.554 119.302,116.279 119.302,115.897 L119.302,115.397 C119.226,115.445 119.129,115.485 119.009,115.518 C118.889,115.55 118.772,115.573 118.657,115.587 L118.281,115.635 C118.055,115.665 117.886,115.712 117.773,115.776 C117.582,115.885 117.487,116.057 117.487,116.294 M118.992,115.038 C119.134,115.019 119.23,114.96 119.278,114.858 C119.306,114.803 119.319,114.724 119.319,114.62 C119.319,114.409 119.244,114.255 119.093,114.159 C118.943,114.064 118.727,114.016 118.446,114.016 C118.122,114.016 117.892,114.104 117.756,114.279 C117.68,114.375 117.63,114.519 117.608,114.71 L117.028,114.71 C117.039,114.255 117.187,113.937 117.471,113.759 C117.755,113.581 118.085,113.492 118.46,113.492 C118.895,113.492 119.248,113.574 119.52,113.74 C119.789,113.906 119.923,114.163 119.923,114.513 L119.923,116.643 C119.923,116.707 119.937,116.759 119.963,116.798 C119.99,116.837 120.045,116.857 120.13,116.857 C120.158,116.857 120.189,116.855 120.224,116.851 C120.258,116.848 120.295,116.843 120.334,116.836 L120.334,117.295 C120.237,117.322 120.164,117.34 120.113,117.347 C120.063,117.354 119.994,117.357 119.906,117.357 C119.692,117.357 119.537,117.281 119.44,117.129 C119.39,117.049 119.354,116.935 119.333,116.788 C119.207,116.953 119.025,117.097 118.788,117.219 C118.551,117.341 118.29,117.402 118.004,117.402 C117.662,117.402 117.382,117.298 117.164,117.09 C116.947,116.881 116.838,116.621 116.838,116.308 C116.838,115.965 116.945,115.699 117.159,115.511 C117.373,115.322 117.654,115.206 118.001,115.162 L118.992,115.038 M120.637,116.788 L122.828,114.137 L120.799,114.137 L120.799,113.582 L123.664,113.582 L123.664,114.089 L121.486,116.722 L123.729,116.722 L123.729,117.278 L120.637,117.278 L120.637,116.788 M126.756,113.582 L127.443,113.582 C127.356,113.818 127.161,114.359 126.86,115.204 C126.634,115.839 126.445,116.356 126.293,116.757 C125.935,117.7 125.681,118.275 125.534,118.482 C125.387,118.69 125.134,118.793 124.775,118.793 C124.688,118.793 124.62,118.789 124.573,118.783 C124.526,118.776 124.468,118.763 124.399,118.745 L124.399,118.179 C124.507,118.209 124.585,118.227 124.633,118.234 C124.682,118.241 124.725,118.244 124.761,118.244 C124.876,118.244 124.961,118.225 125.015,118.187 C125.069,118.149 125.114,118.102 125.151,118.047 C125.163,118.029 125.204,117.935 125.276,117.764 C125.347,117.594 125.398,117.468 125.431,117.385 L124.064,113.582 L124.768,113.582 L125.759,116.591 L126.756,113.582 M129.541,116.86 C129.831,116.86 130.072,116.739 130.264,116.496 C130.457,116.253 130.553,115.89 130.553,115.407 C130.553,115.112 130.51,114.859 130.425,114.648 C130.264,114.241 129.969,114.037 129.541,114.037 C129.111,114.037 128.817,114.252 128.658,114.682 C128.573,114.913 128.53,115.205 128.53,115.559 C128.53,115.844 128.573,116.087 128.658,116.287 C128.819,116.669 129.113,116.86 129.541,116.86 M127.933,113.599 L128.537,113.599 L128.537,114.089 C128.661,113.921 128.797,113.791 128.944,113.699 C129.154,113.56 129.4,113.492 129.683,113.492 C130.102,113.492 130.457,113.652 130.749,113.973 C131.042,114.294 131.188,114.752 131.188,115.348 C131.188,116.154 130.977,116.729 130.556,117.074 C130.289,117.293 129.978,117.402 129.624,117.402 C129.346,117.402 129.112,117.341 128.924,117.219 C128.813,117.15 128.69,117.031 128.554,116.864 L128.554,118.751 L127.933,118.751 L127.933,113.599 M131.884,113.599 L132.515,113.599 L132.515,117.278 L131.884,117.278 L131.884,113.599 M131.884,112.208 L132.515,112.208 L132.515,112.912 L131.884,112.912 L131.884,112.208 M134.855,113.474 C135.272,113.474 135.611,113.575 135.872,113.778 C136.133,113.98 136.29,114.329 136.343,114.824 L135.739,114.824 C135.702,114.596 135.618,114.407 135.487,114.256 C135.356,114.105 135.145,114.03 134.855,114.03 C134.459,114.03 134.176,114.223 134.006,114.61 C133.896,114.861 133.841,115.17 133.841,115.538 C133.841,115.909 133.919,116.22 134.075,116.474 C134.232,116.727 134.478,116.853 134.814,116.853 C135.072,116.853 135.276,116.774 135.427,116.617 C135.577,116.459 135.681,116.243 135.739,115.97 L136.343,115.97 C136.274,116.46 136.101,116.818 135.825,117.045 C135.549,117.271 135.196,117.385 134.766,117.385 C134.282,117.385 133.897,117.208 133.609,116.855 C133.322,116.502 133.178,116.061 133.178,115.531 C133.178,114.882 133.336,114.377 133.651,114.016 C133.966,113.655 134.367,113.474 134.855,113.474 M137.113,116.525 L137.834,116.525 L137.834,117.278 L137.113,117.278 L137.113,116.525 M140.382,116.877 C140.794,116.877 141.076,116.722 141.229,116.41 C141.383,116.098 141.459,115.751 141.459,115.369 C141.459,115.024 141.404,114.743 141.293,114.527 C141.118,114.186 140.817,114.016 140.389,114.016 C140.009,114.016 139.734,114.161 139.561,114.451 C139.388,114.741 139.302,115.091 139.302,115.5 C139.302,115.894 139.388,116.222 139.561,116.484 C139.734,116.746 140.007,116.877 140.382,116.877 M140.406,113.474 C140.883,113.474 141.285,113.633 141.614,113.951 C141.944,114.268 142.108,114.735 142.108,115.352 C142.108,115.948 141.963,116.44 141.673,116.829 C141.383,117.218 140.933,117.412 140.324,117.412 C139.815,117.412 139.411,117.241 139.112,116.896 C138.813,116.552 138.663,116.091 138.663,115.511 C138.663,114.889 138.821,114.395 139.136,114.027 C139.451,113.658 139.875,113.474 140.406,113.474 M142.835,113.582 L143.425,113.582 L143.425,114.22 C143.474,114.096 143.592,113.944 143.781,113.766 C143.969,113.588 144.187,113.499 144.433,113.499 C144.444,113.499 144.464,113.5 144.492,113.502 C144.519,113.504 144.566,113.509 144.633,113.516 L144.633,114.172 C144.596,114.164 144.562,114.16 144.532,114.158 C144.5,114.156 144.466,114.154 144.429,114.154 C144.117,114.154 143.876,114.255 143.708,114.456 C143.54,114.657 143.456,114.889 143.456,115.152 L143.456,117.278 L142.835,117.278 L142.835,113.582 M146.442,113.516 C146.731,113.516 146.985,113.587 147.201,113.73 C147.318,113.81 147.438,113.928 147.56,114.082 L147.56,113.616 L148.133,113.616 L148.133,116.978 C148.133,117.447 148.064,117.817 147.926,118.089 C147.668,118.591 147.181,118.841 146.466,118.841 C146.068,118.841 145.733,118.752 145.462,118.574 C145.19,118.395 145.038,118.116 145.006,117.737 L145.637,117.737 C145.667,117.902 145.727,118.03 145.817,118.12 C145.957,118.258 146.178,118.327 146.48,118.327 C146.956,118.327 147.268,118.159 147.415,117.823 C147.502,117.625 147.543,117.272 147.536,116.764 C147.411,116.952 147.262,117.092 147.087,117.185 C146.912,117.276 146.681,117.322 146.393,117.322 C145.993,117.322 145.643,117.181 145.342,116.896 C145.042,116.612 144.892,116.142 144.892,115.486 C144.892,114.867 145.043,114.384 145.346,114.037 C145.649,113.689 146.014,113.516 146.442,113.516 M147.56,115.414 C147.56,114.956 147.466,114.617 147.277,114.396 C147.088,114.175 146.848,114.065 146.556,114.065 C146.118,114.065 145.819,114.269 145.658,114.679 C145.573,114.897 145.53,115.184 145.53,115.538 C145.53,115.955 145.615,116.272 145.784,116.489 C145.953,116.707 146.181,116.815 146.466,116.815 C146.912,116.815 147.226,116.614 147.408,116.211 C147.509,115.984 147.56,115.718 147.56,115.414 Z" style="stroke:none;fill-rule:evenodd;fill:#000000;fill-opacity:1;"/>
        </g>
        <g id="Shape30">
            <desc shapeID="30" type="0" basicInfo-basicType="1" basicInfo-roundedRectRadius="12" basicInfo-polygonSides="6" basicInfo-starPoints="5" bounding="rect(-121.175,-68.1693,242.35,136.339)" text="" font-familyName="Helvetica" font-pixelSize="20" font-bold="0" font-underline="0" font-alignment="1" strokeStyle="0" markerStart="0" markerEnd="0" shadowEnabled="0" shadowOffsetX="0" shadowOffsetY="2" shadowBlur="4" shadowOpacity="160" blurEnabled="0" blurRadius="4" transform="matrix(1,0,0,1,121.307,68.3011)" pers-center="0,0" pers-size="0,0" pers-start="0,0" pers-end="0,0" locked="0" mesh="" flag=""/>
            <path id="shapePath30" d="M0.131859,0.131859 L242.482,0.131859 L242.482,136.47 L0.131859,136.47 L0.131859,0.131859 Z" style="stroke:#323232;stroke-opacity:1;stroke-width:1;stroke-linejoin:miter;stroke-miterlimit:2;stroke-linecap:round;fill:none;"/>
        </g>
    </g>
</svg>
