<?xml version="1.0"?>
<svg version="1.1" xmlns="http://www.w3.org/2000/svg" xmlns:xlink="http://www.w3.org/1999/xlink" width="1024" height="1024">
    <desc iVinci="yes" version="4.6" gridStep="20" showGrid="no" snapToGrid="no" codePlatform="0"/>
    <g id="Layer1" name="Layer 7" opacity="1">
        <g id="Shape1">
            <desc shapeID="1" type="0" basicInfo-basicType="0" basicInfo-roundedRectRadius="12" basicInfo-polygonSides="6" basicInfo-starPoints="5" bounding="rect(-148.48,-89.9896,296.96,179.979)" text="" font-familyName="Helvetica" font-pixelSize="20" font-bold="0" font-underline="0" font-alignment="1" strokeStyle="0" markerStart="0" markerEnd="0" shadowEnabled="0" shadowOffsetX="0" shadowOffsetY="2" shadowBlur="4" shadowOpacity="160" blurEnabled="0" blurRadius="4" transform="matrix(0.813667,0,0,0.813667,273.228,590.664)" pers-center="0,0" pers-size="0,0" pers-start="0,0" pers-end="0,0" locked="0" mesh="" flag=""/>
            <path id="shapePath1" d="M157.459,524.859 C157.459,524.859 172.552,517.442 172.552,517.442 C172.552,517.442 185.998,544 185.998,544 C185.998,544 217.277,568.816 217.277,568.816 C217.277,568.816 295.344,589.496 295.344,589.496 C295.344,589.496 394.041,609.833 394.041,609.833 C394.041,609.833 386.963,656.164 386.963,656.164 C386.963,656.164 376.667,663.885 376.667,663.885 C376.667,663.885 333.232,663.885 333.232,663.885 C333.232,663.885 268.241,651.659 268.241,651.659 C268.241,651.659 239.284,643.616 239.284,643.616 C239.284,643.616 193.275,627.529 193.275,627.529 C193.275,627.529 174.936,604.042 174.936,604.042 C174.936,604.042 168.501,594.39 168.501,594.39 C168.501,594.39 158.849,553.207 158.849,553.207 C158.849,553.207 152.414,539.372 152.414,539.372 C152.414,539.372 157.459,524.859 157.459,524.859 Z" style="stroke:none;fill-rule:evenodd;fill:#fbbbb8;fill-opacity:1;"/>
        </g>
        <g id="Shape2">
            <desc shapeID="2" type="0" basicInfo-basicType="0" basicInfo-roundedRectRadius="12" basicInfo-polygonSides="6" basicInfo-starPoints="5" bounding="rect(-176.775,-90.903,353.55,181.808)" text="" font-familyName="Helvetica" font-pixelSize="20" font-bold="0" font-underline="0" font-alignment="1" strokeStyle="0" markerStart="0" markerEnd="0" shadowEnabled="0" shadowOffsetX="0" shadowOffsetY="2" shadowBlur="4" shadowOpacity="160" blurEnabled="0" blurRadius="4" transform="matrix(0.813667,0,0,0.813667,695.713,617.129)" pers-center="0,0" pers-size="0,0" pers-start="0,0" pers-end="0,0" locked="0" mesh="" flag=""/>
            <path id="shapePath2" d="M672.759,543.98 C678.594,541.062 685.527,546.76 691.748,548.728 C711.006,554.82 730.072,561.505 749.147,568.148 C771.792,576.035 795.154,582.222 816.905,592.317 C825.546,596.327 837.442,600.677 839.346,610.012 C841.227,619.225 829.48,626.074 825.536,634.611 C817.234,652.583 816.661,675.422 802.663,689.421 C796.679,695.405 786.737,683.568 778.495,681.652 C758.213,676.941 737.181,675.459 717.211,669.569 C705.732,666.183 696.059,658.208 684.842,654.032 C658.021,644.048 629.51,638.653 603.297,627.165 C585.402,619.322 543.413,613.223 553.389,596.423 C567.142,573.261 607.528,589.341 632.19,578.506 C648.447,571.364 656.876,551.921 672.759,543.98 Z" style="stroke:none;fill-rule:evenodd;fill:#fbbbb8;fill-opacity:1;"/>
        </g>
    </g>
    <g id="Layer2" name="skin" opacity="1">
        <g id="Shape3">
            <desc shapeID="3" type="0" basicInfo-basicType="0" basicInfo-roundedRectRadius="12" basicInfo-polygonSides="6" basicInfo-starPoints="5" bounding="rect(-374.511,-249.633,749.021,499.266)" text="" font-familyName="Helvetica" font-pixelSize="20" font-bold="0" font-underline="0" font-alignment="1" strokeStyle="0" markerStart="0" markerEnd="0" shadowEnabled="0" shadowOffsetX="0" shadowOffsetY="2" shadowBlur="4" shadowOpacity="160" blurEnabled="0" blurRadius="4" transform="matrix(0.813667,0,0,0.813667,473.482,418.196)" pers-center="0,0" pers-size="0,0" pers-start="0,0" pers-end="0,0" locked="0" mesh="" flag=""/>
            <path id="shapePath3" d="M170.169,509.92 C166.772,496.9 170.518,483.01 170.836,469.559 C171.296,450.098 167.783,430.07 172.504,411.185 C176.69,394.44 188.059,380.339 196.854,365.487 C206.644,348.955 215.255,331.312 228.208,317.121 C235.536,309.094 246.589,305.467 256.228,300.443 C264.967,295.888 274.447,292.874 283.246,288.435 C286.605,286.74 291.944,285.804 292.586,282.097 C294.208,272.721 289.443,263.258 289.25,253.744 C288.997,241.276 285.913,227.656 291.251,216.385 C293.276,212.11 300.3,219.469 304.26,222.056 C311.282,226.642 318.708,231.179 323.94,237.734 C329.091,244.185 329.596,253.526 334.614,260.082 C336.852,263.005 340.944,264.929 344.621,264.752 C376.105,263.238 407.257,257.485 438.685,255.079 C452.323,254.035 466.083,253.276 479.714,254.411 C495.561,255.732 511.313,258.579 526.746,262.417 C553.411,269.048 580.254,275.647 605.799,285.766 C614.897,289.37 620.919,298.378 629.483,303.112 C638.952,308.346 648.891,313.345 659.503,315.453 C665.672,316.679 672.567,315.619 678.182,312.785 C687.355,308.155 693.118,298.083 702.446,293.775 C716.057,287.49 731.066,278.52 745.74,281.591 C752.525,283.011 742.704,295.122 741.462,301.942 C739.895,310.551 735.064,319.409 737.314,327.866 C740.93,341.45 750.298,352.869 758.125,364.546 C761.88,370.15 769.529,373.079 771.862,379.409 C776.426,391.788 778.942,405.348 778.019,418.51 C776.427,441.192 772.543,464.115 764.429,485.357 C757.251,504.149 744.712,520.537 732.842,536.777 C722.348,551.135 712.271,566.79 697.582,576.812 C677.569,590.467 653.998,598.273 631.102,606.195 C618.394,610.592 604.689,611.268 591.435,613.541 C575.425,616.288 559.561,621.012 543.32,621.255 C510.094,621.75 476.843,619.103 443.784,615.745 C415.307,612.852 387.139,607.43 358.939,602.523 C334.361,598.246 309.95,593.06 285.481,588.199 C271.751,585.47 257.306,585.037 244.344,579.75 C225.713,572.152 206.472,563.792 191.822,550 C180.766,539.591 174.002,524.613 170.169,509.92 Z" style="stroke:none;fill-rule:evenodd;fill:#fff9ed;fill-opacity:1;"/>
        </g>
        <g id="Shape4">
            <desc shapeID="4" type="0" basicInfo-basicType="0" basicInfo-roundedRectRadius="12" basicInfo-polygonSides="6" basicInfo-starPoints="5" bounding="rect(-28.2505,-36.7768,56.501,73.5535)" text="" font-familyName="Helvetica" font-pixelSize="20" font-bold="0" font-underline="0" font-alignment="1" strokeStyle="0" markerStart="0" markerEnd="0" shadowEnabled="0" shadowOffsetX="0" shadowOffsetY="2" shadowBlur="4" shadowOpacity="160" blurEnabled="0" blurRadius="4" transform="matrix(0.813667,0,0,0.813667,408.041,636.873)" pers-center="0,0" pers-size="0,0" pers-start="0,0" pers-end="0,0" locked="0" mesh="" flag=""/>
            <path id="shapePath4" d="M398.93,666.797 C398.93,666.797 385.054,654.594 385.054,654.594 C385.054,654.594 395.419,606.783 395.753,606.95 C396.087,607.117 425.51,611.798 425.51,611.798 C425.51,611.798 422.835,629.184 422.835,629.184 C422.835,629.184 415.814,630.856 415.814,630.856 C415.814,630.856 421.665,641.889 421.665,641.889 C421.665,641.889 431.027,647.907 431.027,647.907 C431.027,647.907 398.93,666.797 398.93,666.797 Z" style="stroke:none;fill-rule:evenodd;fill:#fcf6e5;fill-opacity:1;"/>
        </g>
        <g id="Shape5">
            <desc shapeID="5" type="0" basicInfo-basicType="0" basicInfo-roundedRectRadius="12" basicInfo-polygonSides="6" basicInfo-starPoints="5" bounding="rect(-39.4045,-59.4424,78.809,118.885)" text="" font-familyName="Helvetica" font-pixelSize="20" font-bold="0" font-underline="0" font-alignment="1" strokeStyle="0" markerStart="0" markerEnd="0" shadowEnabled="0" shadowOffsetX="0" shadowOffsetY="2" shadowBlur="4" shadowOpacity="160" blurEnabled="0" blurRadius="4" transform="matrix(0.813667,0,0,0.813667,835.951,658.23)" pers-center="0,0" pers-size="0,0" pers-start="0,0" pers-end="0,0" locked="0" mesh="" flag=""/>
            <path id="shapePath5" d="M803.888,687.651 C803.888,687.651 825.931,631.724 825.931,631.724 C825.931,631.724 837.954,609.863 837.954,609.863 C837.954,609.863 868.013,628.627 868.013,628.627 C868.013,628.627 863.276,643.565 863.276,643.565 C863.276,643.565 840.322,652.491 840.322,652.491 C840.322,652.491 844.148,665.425 844.148,665.425 C844.148,665.425 861.454,677.267 861.454,677.267 C861.454,677.267 850.888,694.756 850.888,694.756 C850.888,694.756 818.097,706.596 818.097,706.596 C818.097,706.596 809.353,700.767 809.353,700.767 C809.353,700.767 803.888,687.651 803.888,687.651 Z" style="stroke:none;fill-rule:evenodd;fill:#fcf6e5;fill-opacity:1;"/>
        </g>
    </g>
    <g id="Layer3" name="Layer 5" opacity="1">
        <g id="Shape6">
            <desc shapeID="6" type="0" basicInfo-basicType="0" basicInfo-roundedRectRadius="12" basicInfo-polygonSides="6" basicInfo-starPoints="5" bounding="rect(-118.137,-92.2041,236.276,184.408)" text="" font-familyName="Helvetica" font-pixelSize="20" font-bold="0" font-underline="0" font-alignment="1" strokeStyle="0" markerStart="0" markerEnd="0" shadowEnabled="0" shadowOffsetX="0" shadowOffsetY="2" shadowBlur="4" shadowOpacity="160" blurEnabled="0" blurRadius="4" transform="matrix(0.813667,0,0,0.813667,472.008,444.325)" pers-center="0,0" pers-size="0,0" pers-start="0,0" pers-end="0,0" locked="0" mesh="" flag=""/>
            <path id="shapePath6" d="M392.87,384.97 C399.255,376.768 409.437,369.407 419.831,369.304 C436.153,369.142 451.391,377.981 466.466,384.242 C470.644,385.977 472.606,391.413 476.849,392.985 C487.045,396.765 499.204,394.66 508.727,399.908 C512.614,402.05 513.156,408.263 512.553,412.659 C511.611,419.532 503.926,424.863 504.356,431.787 C505.033,442.696 509.168,453.771 515.65,462.573 C519.176,467.359 527.031,466.358 532.102,469.459 C535.895,471.78 537.923,476.464 541.829,478.586 C545.348,480.498 550.993,478.062 553.571,481.127 C560.472,489.332 566.463,499.226 568.101,509.821 C568.647,513.363 562.351,514.522 558.855,515.308 C555.943,515.962 552.953,513.357 550.015,513.886 C545.534,514.693 541.794,520.425 537.417,519.169 C526.1,515.92 516.664,507.974 506.836,501.49 C498.778,496.175 492.592,487.986 483.871,483.845 C474.696,479.489 464.414,477.338 454.288,476.541 C442.375,475.603 430.418,479.612 418.503,478.699 C411.253,478.142 403.954,475.875 397.681,472.198 C389.666,467.501 378.497,463.156 376.502,454.083 C373.582,440.796 381.788,427.388 384.922,414.151 C387.246,404.342 386.678,392.926 392.87,384.97 Z" style="stroke:none;fill-rule:evenodd;fill:#ffffff;fill-opacity:1;"/>
        </g>
    </g>
    <g id="Layer4" name="Layer 6" opacity="1">
        <g id="Shape7">
            <desc shapeID="7" type="0" basicInfo-basicType="0" basicInfo-roundedRectRadius="12" basicInfo-polygonSides="6" basicInfo-starPoints="5" bounding="rect(-54.6373,-29.1184,109.275,58.2369)" text="" font-familyName="Helvetica" font-pixelSize="20" font-bold="0" font-underline="0" font-alignment="1" strokeStyle="0" markerStart="0" markerEnd="0" shadowEnabled="0" shadowOffsetX="0" shadowOffsetY="2" shadowBlur="4" shadowOpacity="160" blurEnabled="0" blurRadius="4" transform="matrix(0.572046,0,0,0.572046,348.806,344.117)" pers-center="0,0" pers-size="0,0" pers-start="0,0" pers-end="0,0" locked="0" mesh="" flag=""/>
            <path id="shapePath7" d="M323.403,351.874 C319.563,348.034 315.132,339.847 319.116,336.158 C326.717,329.12 338.957,326.061 349.12,328.062 C361.044,330.409 373.974,337.293 379.6,348.064 C382.415,353.452 371.672,358.445 365.789,359.971 C357.775,362.048 349.157,359.619 341.024,358.065 C334.909,356.898 327.805,356.277 323.403,351.874 Z" style="stroke:none;fill-rule:evenodd;fill:#fbbbb8;fill-opacity:1;"/>
        </g>
        <g id="Shape8">
            <desc shapeID="8" type="0" basicInfo-basicType="0" basicInfo-roundedRectRadius="12" basicInfo-polygonSides="6" basicInfo-starPoints="5" bounding="rect(-35.9706,-18.6382,71.941,37.2765)" text="" font-familyName="Helvetica" font-pixelSize="20" font-bold="0" font-underline="0" font-alignment="1" strokeStyle="0" markerStart="0" markerEnd="0" shadowEnabled="0" shadowOffsetX="0" shadowOffsetY="2" shadowBlur="4" shadowOpacity="160" blurEnabled="0" blurRadius="4" transform="matrix(0.813667,0,0,0.813667,571.879,391.537)" pers-center="0,0" pers-size="0,0" pers-start="0,0" pers-end="0,0" locked="0" mesh="" flag=""/>
            <path id="shapePath8" d="M542.969,385.862 C545.904,380.286 553.022,376.181 559.319,376.378 C571.758,376.77 584.427,380.87 594.961,387.496 C599.251,390.194 603.282,398.141 599.867,401.884 C594.853,407.38 585.329,407.141 577.958,406.135 C567.87,404.76 558.319,400.122 549.509,395.018 C546.264,393.138 541.223,389.181 542.969,385.862 Z" style="stroke:none;fill-rule:evenodd;fill:#fbbbb8;fill-opacity:1;"/>
        </g>
    </g>
    <g id="Layer5" name="Layer 3" opacity="1">
        <g id="Shape9">
            <desc shapeID="9" type="0" basicInfo-basicType="0" basicInfo-roundedRectRadius="12" basicInfo-polygonSides="6" basicInfo-starPoints="5" bounding="rect(0,0,0,0)" text="" font-familyName="Helvetica" font-pixelSize="20" font-bold="0" font-underline="0" font-alignment="1" strokeStyle="0" markerStart="0" markerEnd="0" shadowEnabled="0" shadowOffsetX="0" shadowOffsetY="2" shadowBlur="4" shadowOpacity="160" blurEnabled="0" blurRadius="4" transform="matrix(0.936197,0,-0.0549381,0.933487,131.901,148.362)" pers-center="0,0" pers-size="0,0" pers-start="0,0" pers-end="0,0" locked="0" mesh="" flag=""/>
            <path id="shapePath9" d="M131.901,148.362 Z" style="stroke:none;fill-rule:evenodd;fill:#000000;fill-opacity:1;"/>
        </g>
        <g id="Shape10">
            <desc shapeID="10" type="0" basicInfo-basicType="0" basicInfo-roundedRectRadius="12" basicInfo-polygonSides="6" basicInfo-starPoints="5" bounding="rect(-19.6286,-11.1476,39.2573,22.2955)" text="" font-familyName="Helvetica" font-pixelSize="20" font-bold="0" font-underline="0" font-alignment="1" strokeStyle="0" markerStart="0" markerEnd="0" shadowEnabled="0" shadowOffsetX="0" shadowOffsetY="2" shadowBlur="4" shadowOpacity="160" blurEnabled="0" blurRadius="4" transform="matrix(0.936197,0,-0.0549381,0.933487,418.965,326.423)" pers-center="0,0" pers-size="0,0" pers-start="0,0" pers-end="0,0" locked="0" mesh="" flag=""/>
            <path id="shapePath10" d="M400.999,321.618 C400.342,319.32 403.626,315.748 406.03,316.033 C411.95,316.737 416.261,321.76 421.662,324.074 C425.916,325.895 431.552,325.279 434.911,328.401 C436.886,330.237 438.007,336.393 435.224,336.68 C426.58,337.57 418.031,334.341 410.297,330.938 C406.244,329.154 402.221,325.885 400.999,321.618 Z" style="stroke:none;fill-rule:evenodd;fill:#000000;fill-opacity:1;"/>
        </g>
        <g id="Shape11">
            <desc shapeID="11" type="0" basicInfo-basicType="0" basicInfo-roundedRectRadius="12" basicInfo-polygonSides="6" basicInfo-starPoints="5" bounding="rect(0,0,0,0)" text="" font-familyName="Helvetica" font-pixelSize="20" font-bold="0" font-underline="0" font-alignment="1" strokeStyle="0" markerStart="0" markerEnd="0" shadowEnabled="0" shadowOffsetX="0" shadowOffsetY="2" shadowBlur="4" shadowOpacity="160" blurEnabled="0" blurRadius="4" transform="matrix(0.936197,0,-0.0549381,0.933487,131.901,148.362)" pers-center="0,0" pers-size="0,0" pers-start="0,0" pers-end="0,0" locked="0" mesh="" flag=""/>
            <path id="shapePath11" d="M131.901,148.362 Z" style="stroke:none;fill-rule:evenodd;fill:#7a7476;fill-opacity:1;"/>
        </g>
        <g id="Shape12">
            <desc shapeID="12" type="0" basicInfo-basicType="0" basicInfo-roundedRectRadius="12" basicInfo-polygonSides="6" basicInfo-starPoints="5" bounding="rect(0,0,0,0)" text="" font-familyName="Helvetica" font-pixelSize="20" font-bold="0" font-underline="0" font-alignment="1" strokeStyle="0" markerStart="0" markerEnd="0" shadowEnabled="0" shadowOffsetX="0" shadowOffsetY="2" shadowBlur="4" shadowOpacity="160" blurEnabled="0" blurRadius="4" transform="matrix(0.936197,0,-0.0549381,0.933487,131.901,148.362)" pers-center="0,0" pers-size="0,0" pers-start="0,0" pers-end="0,0" locked="0" mesh="" flag=""/>
            <path id="shapePath12" d="M131.901,148.362 Z" style="stroke:none;fill-rule:evenodd;fill:#000000;fill-opacity:1;"/>
        </g>
        <g id="Shape13">
            <desc shapeID="13" type="0" basicInfo-basicType="0" basicInfo-roundedRectRadius="12" basicInfo-polygonSides="6" basicInfo-starPoints="5" bounding="rect(0,0,0,0)" text="" font-familyName="Helvetica" font-pixelSize="20" font-bold="0" font-underline="0" font-alignment="1" strokeStyle="0" markerStart="0" markerEnd="0" shadowEnabled="0" shadowOffsetX="0" shadowOffsetY="2" shadowBlur="4" shadowOpacity="160" blurEnabled="0" blurRadius="4" transform="matrix(0.936197,0,-0.0549381,0.933487,131.901,148.362)" pers-center="0,0" pers-size="0,0" pers-start="0,0" pers-end="0,0" locked="0" mesh="" flag=""/>
            <path id="shapePath13" d="M131.901,148.362 Z" style="stroke:none;fill-rule:evenodd;fill:#000000;fill-opacity:1;"/>
        </g>
        <g id="Shape14">
            <desc shapeID="14" type="0" basicInfo-basicType="0" basicInfo-roundedRectRadius="12" basicInfo-polygonSides="6" basicInfo-starPoints="5" bounding="rect(-0.0840759,-0.0139364,0.168132,0.0278863)" text="" font-familyName="Helvetica" font-pixelSize="20" font-bold="0" font-underline="0" font-alignment="1" strokeStyle="0" markerStart="0" markerEnd="0" shadowEnabled="0" shadowOffsetX="0" shadowOffsetY="2" shadowBlur="4" shadowOpacity="160" blurEnabled="0" blurRadius="4" transform="matrix(0.936197,0,-0.0549381,0.933487,460.072,350.61)" pers-center="0,0" pers-size="0,0" pers-start="0,0" pers-end="0,0" locked="0" mesh="" flag=""/>
            <path id="shapePath14" d="M459.994,350.597 C460.344,350.656 459.994,350.597 459.994,350.597 Z" style="stroke:none;fill-rule:evenodd;fill:#000000;fill-opacity:1;"/>
        </g>
        <g id="Shape15">
            <desc shapeID="15" type="0" basicInfo-basicType="0" basicInfo-roundedRectRadius="12" basicInfo-polygonSides="6" basicInfo-starPoints="5" bounding="rect(-13.27,-18.3879,26.5401,36.7759)" text="" font-familyName="Helvetica" font-pixelSize="20" font-bold="0" font-underline="0" font-alignment="1" strokeStyle="0" markerStart="0" markerEnd="0" shadowEnabled="0" shadowOffsetX="0" shadowOffsetY="2" shadowBlur="4" shadowOpacity="160" blurEnabled="0" blurRadius="4" transform="matrix(0.936197,0,-0.0549381,0.933487,470.688,361.832)" pers-center="0,0" pers-size="0,0" pers-start="0,0" pers-end="0,0" locked="0" mesh="" flag=""/>
            <path id="shapePath15" d="M459.863,349.834 C461.545,351.946 465.853,351.305 466.993,353.768 C468.717,357.496 467.019,362.172 467.487,366.313 C467.923,370.191 467.976,374.323 469.697,377.758 C470.298,378.959 472.426,379.332 473.679,378.678 C475.186,377.89 476.298,375.959 476.3,374.307 C476.308,370.869 474.019,367.879 473.708,364.473 C473.483,362.021 472.831,358.78 474.721,357.055 C476.365,355.555 479.175,358.705 481.142,357.688 C482.78,356.841 484.223,354.104 483.286,352.628 C481.525,349.853 477.789,348.951 474.757,347.624 C472.442,346.611 469.898,346.094 467.374,345.669 C465.003,345.27 462.313,343.96 460.137,345.166 C458.738,345.942 458.919,348.65 459.863,349.834 Z" style="stroke:none;fill-rule:evenodd;fill:#000000;fill-opacity:1;"/>
        </g>
        <g id="Shape16">
            <desc shapeID="16" type="0" basicInfo-basicType="0" basicInfo-roundedRectRadius="12" basicInfo-polygonSides="6" basicInfo-starPoints="5" bounding="rect(0,0,0,0)" text="" font-familyName="Helvetica" font-pixelSize="20" font-bold="0" font-underline="0" font-alignment="1" strokeStyle="0" markerStart="0" markerEnd="0" shadowEnabled="0" shadowOffsetX="0" shadowOffsetY="2" shadowBlur="4" shadowOpacity="160" blurEnabled="0" blurRadius="4" transform="matrix(0.936197,0,-0.0549381,0.933487,131.901,148.362)" pers-center="0,0" pers-size="0,0" pers-start="0,0" pers-end="0,0" locked="0" mesh="" flag=""/>
            <path id="shapePath16" d="M131.901,148.362 Z" style="stroke:none;fill-rule:evenodd;fill:#000000;fill-opacity:1;"/>
        </g>
        <g id="Shape17">
            <desc shapeID="17" type="0" basicInfo-basicType="0" basicInfo-roundedRectRadius="12" basicInfo-polygonSides="6" basicInfo-starPoints="5" bounding="rect(-18.1688,-9.4546,36.3378,18.9093)" text="" font-familyName="Helvetica" font-pixelSize="20" font-bold="0" font-underline="0" font-alignment="1" strokeStyle="0" markerStart="0" markerEnd="0" shadowEnabled="0" shadowOffsetX="0" shadowOffsetY="2" shadowBlur="4" shadowOpacity="160" blurEnabled="0" blurRadius="4" transform="matrix(0.936197,0,-0.0549381,0.933487,513.079,358.918)" pers-center="0,0" pers-size="0,0" pers-start="0,0" pers-end="0,0" locked="0" mesh="" flag=""/>
            <path id="shapePath17" d="M497.749,350.525 C493.44,352.083 501.126,359.126 504.706,361.636 C509.733,365.163 516.001,367.36 522.286,367.734 C525.122,367.903 528.746,365.841 529.758,363.127 C530.498,361.145 527.565,359.417 525.673,358.656 C522.691,357.456 519.054,358.474 515.953,357.571 C509.68,355.745 504.11,348.226 497.749,350.525 Z" style="stroke:none;fill-rule:evenodd;fill:#000000;fill-opacity:1;"/>
        </g>
        <g id="Shape18">
            <desc shapeID="18" type="0" basicInfo-basicType="0" basicInfo-roundedRectRadius="12" basicInfo-polygonSides="6" basicInfo-starPoints="5" bounding="rect(0,0,0,0)" text="" font-familyName="Helvetica" font-pixelSize="20" font-bold="0" font-underline="0" font-alignment="1" strokeStyle="0" markerStart="0" markerEnd="0" shadowEnabled="0" shadowOffsetX="0" shadowOffsetY="2" shadowBlur="4" shadowOpacity="160" blurEnabled="0" blurRadius="4" transform="matrix(0.936197,0,-0.0549381,0.933487,131.901,148.362)" pers-center="0,0" pers-size="0,0" pers-start="0,0" pers-end="0,0" locked="0" mesh="" flag=""/>
            <path id="shapePath18" d="M131.901,148.362 Z" style="stroke:none;fill-rule:evenodd;fill:#000000;fill-opacity:1;"/>
        </g>
        <g id="Shape19">
            <desc shapeID="19" type="0" basicInfo-basicType="0" basicInfo-roundedRectRadius="12" basicInfo-polygonSides="6" basicInfo-starPoints="5" bounding="rect(-21.9965,-6.39041,43.9927,12.7808)" text="" font-familyName="Helvetica" font-pixelSize="20" font-bold="0" font-underline="0" font-alignment="1" strokeStyle="0" markerStart="0" markerEnd="0" shadowEnabled="0" shadowOffsetX="0" shadowOffsetY="2" shadowBlur="4" shadowOpacity="160" blurEnabled="0" blurRadius="4" transform="matrix(0.936197,0,-0.0549381,0.933487,675.624,440.33)" pers-center="0,0" pers-size="0,0" pers-start="0,0" pers-end="0,0" locked="0" mesh="" flag=""/>
            <path id="shapePath19" d="M655.423,436.065 C654.401,438.456 657.716,440.683 659.74,442.123 C661.707,443.52 664.331,443.902 666.787,444.142 C671.824,444.632 676.989,443.94 682.044,444.298 C685.801,444.562 689.488,447.147 693.159,446.006 C695.184,445.376 697.183,441.278 695.531,440.103 C691.094,436.946 684.873,437.16 679.404,436.22 C674.003,435.292 668.523,434.548 662.992,434.511 C660.447,434.495 656.442,433.682 655.423,436.065 Z" style="stroke:none;fill-rule:evenodd;fill:#000000;fill-opacity:1;"/>
        </g>
        <g id="Shape20">
            <desc shapeID="20" type="0" basicInfo-basicType="0" basicInfo-roundedRectRadius="12" basicInfo-polygonSides="6" basicInfo-starPoints="5" bounding="rect(-14.5595,-7.87541,29.1191,15.751)" text="" font-familyName="Helvetica" font-pixelSize="20" font-bold="0" font-underline="0" font-alignment="1" strokeStyle="0" markerStart="0" markerEnd="0" shadowEnabled="0" shadowOffsetX="0" shadowOffsetY="2" shadowBlur="4" shadowOpacity="160" blurEnabled="0" blurRadius="4" transform="matrix(0.936197,0,-0.0549381,0.933487,678.381,462.823)" pers-center="0,0" pers-size="0,0" pers-start="0,0" pers-end="0,0" locked="0" mesh="" flag=""/>
            <path id="shapePath20" d="M664.993,458.742 C665.02,455.938 670.165,455.389 672.974,455.481 C678.476,455.66 684.47,456.336 688.781,459.519 C691.438,461.481 692.267,465.81 691.485,469.149 C691.104,470.782 687.852,470.18 686.492,469.304 C685.142,468.435 685.84,466.276 684.296,465.782 C680.6,464.601 676.594,466.094 672.884,464.955 C669.642,463.961 664.96,462.176 664.993,458.742 Z" style="stroke:none;fill-rule:evenodd;fill:#000000;fill-opacity:1;"/>
        </g>
        <g id="Shape21">
            <desc shapeID="21" type="0" basicInfo-basicType="0" basicInfo-roundedRectRadius="12" basicInfo-polygonSides="6" basicInfo-starPoints="5" bounding="rect(0,0,0,0)" text="" font-familyName="Helvetica" font-pixelSize="20" font-bold="0" font-underline="0" font-alignment="1" strokeStyle="0" markerStart="0" markerEnd="0" shadowEnabled="0" shadowOffsetX="0" shadowOffsetY="2" shadowBlur="4" shadowOpacity="160" blurEnabled="0" blurRadius="4" transform="matrix(0.936197,0,-0.0549381,0.933487,131.901,148.362)" pers-center="0,0" pers-size="0,0" pers-start="0,0" pers-end="0,0" locked="0" mesh="" flag=""/>
            <path id="shapePath21" d="M131.901,148.362 Z" style="stroke:none;fill-rule:evenodd;fill:#000000;fill-opacity:1;"/>
        </g>
        <g id="Shape22">
            <desc shapeID="22" type="0" basicInfo-basicType="0" basicInfo-roundedRectRadius="12" basicInfo-polygonSides="6" basicInfo-starPoints="5" bounding="rect(-17.1228,-6.99916,34.2455,13.9985)" text="" font-familyName="Helvetica" font-pixelSize="20" font-bold="0" font-underline="0" font-alignment="1" strokeStyle="0" markerStart="0" markerEnd="0" shadowEnabled="0" shadowOffsetX="0" shadowOffsetY="2" shadowBlur="4" shadowOpacity="160" blurEnabled="0" blurRadius="4" transform="matrix(0.936197,0,-0.0549381,0.933487,677.322,492.817)" pers-center="0,0" pers-size="0,0" pers-start="0,0" pers-end="0,0" locked="0" mesh="" flag=""/>
            <path id="shapePath22" d="M661.585,489.568 C660.779,486.8 667.021,486.451 669.967,486.302 C673.969,486.097 677.768,487.649 681.607,488.547 C685.045,489.352 689.186,489.101 691.78,491.405 C693.431,492.874 693.656,496.172 692.406,498.143 C691.401,499.73 688.705,499.42 686.927,499.061 C685.563,498.786 685.189,496.601 683.807,496.407 C680.313,495.917 676.462,498.151 673.118,497.123 C668.677,495.756 662.88,494.015 661.585,489.568 Z" style="stroke:none;fill-rule:evenodd;fill:#000000;fill-opacity:1;"/>
        </g>
        <g id="Shape23">
            <desc shapeID="23" type="0" basicInfo-basicType="0" basicInfo-roundedRectRadius="12" basicInfo-polygonSides="6" basicInfo-starPoints="5" bounding="rect(-21.0621,-5.9911,42.1244,11.9821)" text="" font-familyName="Helvetica" font-pixelSize="20" font-bold="0" font-underline="0" font-alignment="1" strokeStyle="0" markerStart="0" markerEnd="0" shadowEnabled="0" shadowOffsetX="0" shadowOffsetY="2" shadowBlur="4" shadowOpacity="160" blurEnabled="0" blurRadius="4" transform="matrix(0.936197,0,-0.0549381,0.933487,231.807,361.207)" pers-center="0,0" pers-size="0,0" pers-start="0,0" pers-end="0,0" locked="0" mesh="" flag=""/>
            <path id="shapePath23" d="M223.579,365.007 C220.969,365.484 218.437,367.321 215.936,366.657 C213.839,366.099 211.171,363.346 212.284,361.389 C214.182,358.054 219.457,356.84 223.201,356.288 C228.883,355.452 233.465,356.746 239.117,357.439 C242.011,357.793 245.336,354.624 247.884,355.933 C250.28,357.164 252.696,361.318 250.838,363.458 C248.033,366.69 242.74,366.657 238.575,366.657 C236.516,366.657 234.59,364.704 232.57,364.399 C229.35,363.913 226.845,364.413 223.579,365.007 Z" style="stroke:none;fill-rule:evenodd;fill:#000000;fill-opacity:1;"/>
        </g>
        <g id="Shape24">
            <desc shapeID="24" type="0" basicInfo-basicType="0" basicInfo-roundedRectRadius="12" basicInfo-polygonSides="6" basicInfo-starPoints="5" bounding="rect(-16.7496,-5.9389,33.4992,11.8779)" text="" font-familyName="Helvetica" font-pixelSize="20" font-bold="0" font-underline="0" font-alignment="1" strokeStyle="0" markerStart="0" markerEnd="0" shadowEnabled="0" shadowOffsetX="0" shadowOffsetY="2" shadowBlur="4" shadowOpacity="160" blurEnabled="0" blurRadius="4" transform="matrix(0.936197,0,-0.0549381,0.933487,221.586,383.726)" pers-center="0,0" pers-size="0,0" pers-start="0,0" pers-end="0,0" locked="0" mesh="" flag=""/>
            <path id="shapePath24" d="M206.194,384.716 C209.902,381.739 214.758,380.439 219.333,379.448 C221.359,379.01 223.254,380.745 225.304,380.577 C227.995,380.357 230.65,377.535 233.173,378.32 C235.383,379.007 238.567,382.505 236.791,384.151 C232.786,387.863 226.674,388.24 221.399,389.23 C219.777,389.535 218.385,387.998 216.76,387.914 C213.863,387.762 210.757,389.362 208.018,388.533 C206.656,388.121 205.034,385.648 206.194,384.716 Z" style="stroke:none;fill-rule:evenodd;fill:#000000;fill-opacity:1;"/>
        </g>
        <g id="Shape25">
            <desc shapeID="25" type="0" basicInfo-basicType="0" basicInfo-roundedRectRadius="12" basicInfo-polygonSides="6" basicInfo-starPoints="5" bounding="rect(-23.2997,-6.30204,46.5994,12.6043)" text="" font-familyName="Helvetica" font-pixelSize="20" font-bold="0" font-underline="0" font-alignment="1" strokeStyle="0" markerStart="0" markerEnd="0" shadowEnabled="0" shadowOffsetX="0" shadowOffsetY="2" shadowBlur="4" shadowOpacity="160" blurEnabled="0" blurRadius="4" transform="matrix(0.936197,0,-0.0549381,0.933487,206.378,410.828)" pers-center="0,0" pers-size="0,0" pers-start="0,0" pers-end="0,0" locked="0" mesh="" flag=""/>
            <path id="shapePath25" d="M184.973,411.168 C189.627,405.589 198.613,406.26 205.66,405.118 C209.318,404.524 212.96,405.616 216.582,406.042 C220.385,406.49 224.673,405.854 227.922,407.738 C229.091,408.417 227.469,411.083 226.15,411.591 C222.396,413.037 218.244,412.316 214.318,412.979 C208.191,414.013 202.134,417.057 196.013,416.679 C191.824,416.42 182.2,414.491 184.973,411.168 Z" style="stroke:none;fill-rule:evenodd;fill:#000000;fill-opacity:1;"/>
        </g>
        <g id="Shape26">
            <desc shapeID="26" type="0" basicInfo-basicType="0" basicInfo-roundedRectRadius="12" basicInfo-polygonSides="6" basicInfo-starPoints="5" bounding="rect(-86.1207,-80.4926,172.24,160.987)" text="" font-familyName="Helvetica" font-pixelSize="20" font-bold="0" font-underline="0" font-alignment="1" strokeStyle="0" markerStart="0" markerEnd="0" shadowEnabled="0" shadowOffsetX="0" shadowOffsetY="2" shadowBlur="4" shadowOpacity="160" blurEnabled="0" blurRadius="4" transform="matrix(0.936197,0,-0.0549381,0.933487,494.491,441.939)" pers-center="0,0" pers-size="0,0" pers-start="0,0" pers-end="0,0" locked="0" mesh="" flag=""/>
            <path id="shapePath26" d="M418.233,368.126 C418.75,372.626 422.885,376.344 426.966,378.187 C433.986,381.358 442.432,380.523 449.953,382.456 C455.524,383.887 461.156,385.477 466.123,388.248 C469.596,390.186 471.326,394.426 474.82,396.327 C480.08,399.189 486.034,400.774 491.898,402.273 C496.221,403.378 501.207,402.286 505.244,404.102 C507.426,405.084 508.587,407.717 509.176,410.046 C509.763,412.377 509.435,415.028 508.591,417.364 C506.893,422.067 502.967,425.968 501.688,430.779 C500.858,433.896 501.587,437.239 502.508,440.229 C504.057,445.267 507.028,449.691 509.002,454.558 C510.783,458.952 511.357,462.617 514.6,466.031 C516.701,468.241 520.177,468.743 522.984,470.001 C527.28,471.923 530.296,474.77 533.921,477.715 C535.674,479.141 538.202,481.497 540.313,482.359 C543.307,483.582 546.266,481.324 548.901,483.158 C552.807,485.878 554.612,490.772 557.032,494.87 C558.645,497.599 558.717,501.333 560.958,503.565 C563.202,505.799 562.796,505.172 563.672,508.253 C564.485,511.107 555.347,508.988 553.546,514.344 C552.742,517.296 556.135,517.337 557.785,516.842 C560.696,515.967 567.402,515.242 569.091,512.685 C570.582,510.426 571.853,508.617 570.899,506.22 C569.931,503.791 571.376,501.556 569.093,500.287 C566.928,499.081 565.912,498.124 564.382,496.189 C561.588,492.654 561.514,487.474 559.141,483.634 C557.566,481.088 555.381,478.792 552.742,477.357 C548.975,475.308 544.24,475.32 540.381,473.433 C537.62,472.083 535.861,469.241 533.16,467.783 C529.597,465.861 525.345,465.293 521.771,463.389 C519.585,462.224 517.279,460.833 516.068,458.681 C513.141,453.486 511.919,447.432 509.658,441.888 C508.74,439.641 506.74,437.778 506.539,435.321 C506.344,432.942 507.58,430.545 508.545,428.29 C509.816,425.324 511.988,422.745 513.203,419.758 C514.39,416.836 515.797,413.768 515.701,410.688 C515.62,408.166 513.431,406.268 512.701,403.89 C512.024,401.683 513.498,398.167 511.508,397.024 C506.363,394.071 499.841,394.137 493.906,393.1 C491.865,392.744 489.588,393.53 487.649,392.855 C483.108,391.275 478.916,388.887 474.812,386.458 C471.44,384.462 468.861,381.257 465.285,379.62 C460.878,377.601 457.37,377.735 453.003,375.639 C451.396,374.868 448.754,373.231 447.084,372.595 C444.77,371.713 442.984,371.752 440.478,371.557 C437.287,371.308 434.11,370.832 431.047,370.025 C429.168,369.53 427.693,367.964 425.759,367.678 C423.305,367.314 417.951,365.667 418.233,368.126 Z" style="stroke:none;fill-rule:evenodd;fill:#000000;fill-opacity:1;"/>
        </g>
        <g id="Shape27">
            <desc shapeID="27" type="0" basicInfo-basicType="0" basicInfo-roundedRectRadius="12" basicInfo-polygonSides="6" basicInfo-starPoints="5" bounding="rect(0,0,0,0)" text="" font-familyName="Helvetica" font-pixelSize="20" font-bold="0" font-underline="0" font-alignment="1" strokeStyle="0" markerStart="0" markerEnd="0" shadowEnabled="0" shadowOffsetX="0" shadowOffsetY="2" shadowBlur="4" shadowOpacity="160" blurEnabled="0" blurRadius="4" transform="matrix(0.936197,0,-0.0549381,0.933487,131.901,148.362)" pers-center="0,0" pers-size="0,0" pers-start="0,0" pers-end="0,0" locked="0" mesh="" flag=""/>
            <path id="shapePath27" d="M131.901,148.362 Z" style="stroke:none;fill-rule:evenodd;fill:#000000;fill-opacity:1;"/>
        </g>
        <g id="Shape28">
            <desc shapeID="28" type="0" basicInfo-basicType="0" basicInfo-roundedRectRadius="12" basicInfo-polygonSides="6" basicInfo-starPoints="5" bounding="rect(-98.5156,-75.6093,197.028,151.216)" text="" font-familyName="Helvetica" font-pixelSize="20" font-bold="0" font-underline="0" font-alignment="1" strokeStyle="0" markerStart="0" markerEnd="0" shadowEnabled="0" shadowOffsetX="0" shadowOffsetY="2" shadowBlur="4" shadowOpacity="160" blurEnabled="0" blurRadius="4" transform="matrix(0.936197,0,-0.0549381,0.933487,465.966,451.898)" pers-center="0,0" pers-size="0,0" pers-start="0,0" pers-end="0,0" locked="0" mesh="" flag=""/>
            <path id="shapePath28" d="M388.484,388.092 C386.445,392.063 385.497,396.466 384.445,400.753 C382.886,407.123 382.187,413.631 380.664,420.008 C379.303,425.709 376.872,431.206 375.805,436.953 C374.719,442.803 373.147,448.914 374.237,454.638 C374.86,457.903 378.152,459.938 380.598,462.114 C385.088,466.11 389.873,469.813 394.949,473.067 C400.209,476.44 405.537,479.922 411.515,481.935 C414.064,482.792 417.032,481.151 419.741,481.413 C425.463,481.967 430.881,484.265 436.656,484.369 C443.894,484.499 451.258,481.294 458.41,482.108 C467.153,483.104 475.338,486.537 483.424,489.693 C488.373,491.625 493.164,494.094 497.334,497.305 C502.116,500.985 505.149,506.616 510.027,510.172 C515.941,514.485 522.385,518.329 529.401,520.683 C534.324,522.335 539.901,523.046 545.138,521.952 C548.56,521.237 551.715,518.546 553.691,515.608 C554.808,513.947 555.221,510.096 553.305,509.809 C548.963,509.16 544.786,513.616 540.359,513.616 C536.046,513.616 532.043,511.59 528.223,509.809 C522.792,507.277 517.535,504.312 512.762,500.748 C509.461,498.284 507.466,494.375 504.198,491.868 C499.297,488.111 493.889,485.001 488.416,482.082 C484.348,479.913 480.091,478.012 475.649,476.645 C470.233,474.979 464.679,473.468 458.96,473.021 C456.024,472.791 453.102,474.376 450.14,474.652 C443.338,475.285 436.482,476.117 429.72,475.739 C424.494,475.447 419.519,473.767 414.453,472.659 C410.128,471.713 405.496,471.47 401.548,469.578 C397.149,467.468 393.743,463.813 389.882,460.879 C386.668,458.436 381.646,457.294 380.323,453.448 C378.664,448.622 381.109,443.034 381.967,437.863 C382.969,431.831 384.472,425.862 385.895,419.89 C386.674,416.626 387.869,413.442 388.57,410.164 C389.183,407.293 389.267,404.36 389.831,401.483 C391.112,394.953 394.755,388.465 394.101,381.955 C393.833,379.299 389.743,385.642 388.484,388.092 Z" style="stroke:none;fill-rule:evenodd;fill:#000000;fill-opacity:1;"/>
        </g>
        <g id="Shape29">
            <desc shapeID="29" type="0" basicInfo-basicType="0" basicInfo-roundedRectRadius="12" basicInfo-polygonSides="6" basicInfo-starPoints="5" bounding="rect(-327.936,-175.712,655.872,351.422)" text="" font-familyName="Helvetica" font-pixelSize="20" font-bold="0" font-underline="0" font-alignment="1" strokeStyle="0" markerStart="0" markerEnd="0" shadowEnabled="0" shadowOffsetX="0" shadowOffsetY="2" shadowBlur="4" shadowOpacity="160" blurEnabled="0" blurRadius="4" transform="matrix(0.936197,0,-0.0549381,0.933487,470.087,461.934)" pers-center="0,0" pers-size="0,0" pers-start="0,0" pers-end="0,0" locked="0" mesh="" flag=""/>
            <path id="shapePath29" d="M257.339,299.39 C256.872,296.225 250.541,298.882 247.61,300.441 C240.13,304.423 233.292,309.745 227.039,315.513 C222.487,319.711 219.16,325.06 215.512,330.046 C211.295,335.808 207.287,341.72 203.46,347.734 C195.078,360.904 186.003,373.742 178.89,387.583 C173.476,398.118 168.811,409.164 166.045,420.543 C164.209,428.099 165.484,435.904 165.282,443.582 C164.948,456.289 163.794,469.06 164.441,481.698 C165.007,492.782 166.085,503.927 168.911,514.535 C171.128,522.856 174.58,530.943 179.426,537.946 C186.413,548.047 193.609,558.763 204.038,565.31 C220.824,575.848 240.198,582.233 259.34,588.116 C271.846,591.959 285.57,591.471 298.396,594.308 C316.742,598.367 334.346,603.171 352.878,606.513 C367.188,609.094 382.182,610.025 396.54,612.068 C411.764,614.237 426.36,617.485 441.772,619.023 C467.885,621.629 494.547,624.397 520.849,625.557 C530.518,625.983 540.303,626.383 549.988,624.988 C579.255,620.773 608.382,614.987 637.403,608.77 C650.034,606.064 663.35,604.504 674.833,598.243 C690.116,589.909 703.365,577.908 716.046,565.89 C724.84,557.555 731.894,547.521 738.806,537.612 C746.282,526.895 753.513,515.891 759.105,504.163 C765.294,491.184 770.053,477.575 773.973,463.86 C776.537,454.891 777.513,445.608 778.468,436.421 C779.241,428.981 779.357,421.506 779.142,414.086 C778.934,406.91 778.127,399.788 777.2,392.71 C776.58,387.97 776.04,383.15 774.507,378.671 C773.635,376.122 772.084,373.76 770.101,371.971 C766.224,368.471 762.184,360.728 757.188,363.037 C752.889,365.022 760.945,371.26 763.194,375.161 C765.307,378.827 769.508,381.466 770.254,385.69 C772.386,397.754 772.133,410.31 771.596,422.701 C771.234,431.04 769.195,439.327 767.571,447.588 C765.388,458.692 763.878,469.988 760.178,480.771 C757.002,490.028 751.875,498.623 747.1,507.254 C743.27,514.175 738.72,520.707 734.397,527.354 C730.627,533.151 727.03,539.077 722.824,544.583 C718.807,549.842 714.728,555.165 709.782,559.58 C700.476,567.882 690.588,575.576 680.27,582.552 C674.629,586.367 668.512,589.612 662.127,591.804 C650.86,595.674 639.15,597.763 627.639,600.626 C614.648,603.859 601.651,607.06 588.623,610.093 C578.696,612.404 571.187,613.865 561.114,614.78 C557.132,615.142 551.33,613.765 547.349,613.843 C540.456,613.977 534.489,615.819 527.595,615.986 C521.471,616.134 514.817,615.255 508.748,614.78 C497.099,613.869 485.345,613.83 473.669,613.128 C462.369,612.449 451.03,611.96 439.824,610.639 C422.081,608.546 404.459,605.772 386.873,602.891 C369.463,600.04 352.208,596.527 334.852,593.444 C329.674,592.525 324.413,591.953 319.272,590.886 C308.93,588.742 298.74,586.051 288.423,583.816 C276.984,581.338 265.145,580.172 254.007,576.747 C242.762,573.29 232.073,568.368 221.564,563.259 C215.183,560.158 208.989,556.572 203.47,552.183 C197.311,547.285 190.912,542.244 186.742,535.567 C181.64,527.398 178.654,517.913 176.186,508.498 C173.521,498.332 171.778,487.79 171.428,477.16 C171.054,465.843 173.108,454.434 174.028,443.071 C174.615,435.832 175.375,428.597 175.947,421.357 C176.215,417.952 175.688,414.48 176.548,411.138 C177.563,407.195 179.543,403.489 181.482,399.856 C187.027,389.463 192.929,379.243 198.974,369.109 C204.702,359.508 210.711,350.061 216.789,340.663 C221.137,333.94 224.787,326.645 230.248,320.754 C235.502,315.087 242.43,311.244 248.496,306.46 C251.46,304.124 257.867,302.975 257.339,299.39 Z" style="stroke:none;fill-rule:evenodd;fill:#000000;fill-opacity:1;"/>
        </g>
        <g id="Shape30">
            <desc shapeID="30" type="0" basicInfo-basicType="0" basicInfo-roundedRectRadius="12" basicInfo-polygonSides="6" basicInfo-starPoints="5" bounding="rect(0,0,0,0)" text="" font-familyName="Helvetica" font-pixelSize="20" font-bold="0" font-underline="0" font-alignment="1" strokeStyle="0" markerStart="0" markerEnd="0" shadowEnabled="0" shadowOffsetX="0" shadowOffsetY="2" shadowBlur="4" shadowOpacity="160" blurEnabled="0" blurRadius="4" transform="matrix(0.936197,0,-0.0549381,0.933487,131.901,148.362)" pers-center="0,0" pers-size="0,0" pers-start="0,0" pers-end="0,0" locked="0" mesh="" flag=""/>
            <path id="shapePath30" d="M131.901,148.362 Z" style="stroke:none;fill-rule:evenodd;fill:#000000;fill-opacity:1;"/>
        </g>
        <g id="Shape31">
            <desc shapeID="31" type="0" basicInfo-basicType="0" basicInfo-roundedRectRadius="12" basicInfo-polygonSides="6" basicInfo-starPoints="5" bounding="rect(-122.197,-70.2729,244.393,140.543)" text="" font-familyName="Helvetica" font-pixelSize="20" font-bold="0" font-underline="0" font-alignment="1" strokeStyle="0" markerStart="0" markerEnd="0" shadowEnabled="0" shadowOffsetX="0" shadowOffsetY="2" shadowBlur="4" shadowOpacity="160" blurEnabled="0" blurRadius="4" transform="matrix(0.936197,0,0,1.06565,264.882,596.258)" pers-center="0,0" pers-size="0,0" pers-start="0,0" pers-end="0,0" locked="0" mesh="" flag=""/>
            <path id="shapePath31" d="M153.483,525.827 C151.159,530.124 150.228,535.557 150.54,540.591 C150.907,546.501 153.964,551.786 155.445,557.465 C158.042,567.422 160.112,577.551 162.77,587.488 C163.825,591.435 164.559,595.653 166.575,599.082 C169.276,603.675 173.336,607.02 176.638,611.074 C181.586,617.147 185.458,624.556 191.322,629.461 C196.688,633.947 203.389,635.895 209.596,638.638 C215.204,641.117 220.859,643.6 226.727,645.109 C235.004,647.239 243.61,647.395 251.889,649.519 C258.193,651.136 264.046,654.62 270.338,656.295 C276.241,657.867 282.377,657.984 288.34,659.223 C295.434,660.696 302.445,662.646 309.484,664.426 C317.875,666.549 326.087,669.836 334.628,670.932 C340.598,671.696 346.625,670.146 352.629,669.955 C360.341,669.712 368.302,671.825 375.773,669.631 C378.166,668.927 379.65,664.915 379.202,662.15 C378.784,659.569 376.071,657.487 373.773,657.271 C366.34,656.574 358.934,660.017 351.486,659.548 C336.435,658.6 321.556,655.42 306.626,653.043 C297.351,651.566 288.083,649.979 278.881,647.988 C274.736,647.09 270.723,645.531 266.624,644.387 C262.055,643.111 257.484,641.831 252.88,640.727 C241.482,637.994 229.813,636.556 218.622,632.878 C210.872,630.331 203.063,627.211 196.335,622.145 C190.716,617.915 186.986,611.103 182.334,605.557 C179.006,601.59 174.795,598.362 172.397,593.604 C168.845,586.558 166.946,578.567 164.818,570.812 C163.182,564.847 162.803,558.494 161.133,552.542 C159.778,547.711 155.905,543.671 155.782,538.602 C155.645,532.913 161.405,527.935 160.402,522.359 C159.896,519.549 154.804,523.384 153.483,525.827 Z" style="stroke:none;fill-rule:evenodd;fill:#000000;fill-opacity:1;"/>
        </g>
        <g id="Shape32">
            <desc shapeID="32" type="0" basicInfo-basicType="0" basicInfo-roundedRectRadius="12" basicInfo-polygonSides="6" basicInfo-starPoints="5" bounding="rect(-8.32685,-24.3177,16.6539,48.6354)" text="" font-familyName="Helvetica" font-pixelSize="20" font-bold="0" font-underline="0" font-alignment="1" strokeStyle="0" markerStart="0" markerEnd="0" shadowEnabled="0" shadowOffsetX="0" shadowOffsetY="2" shadowBlur="4" shadowOpacity="160" blurEnabled="0" blurRadius="4" transform="matrix(0.936197,0,0,1.06565,389.912,634.182)" pers-center="0,0" pers-size="0,0" pers-start="0,0" pers-end="0,0" locked="0" mesh="" flag=""/>
            <path id="shapePath32" d="M382.247,654.661 C381.638,649.64 383.305,644.575 384.304,639.636 C385.48,633.82 387.584,628.282 388.76,622.466 C389.589,618.369 388.03,613.29 390.303,609.977 C391.746,607.876 396.409,607.527 397.331,609.977 C398.784,613.836 395.61,618.144 394.932,622.27 C393.952,628.23 393.65,634.339 392.361,640.221 C390.909,646.839 390.467,654.322 386.732,659.656 C385.428,661.518 382.533,657.019 382.247,654.661 Z" style="stroke:none;fill-rule:evenodd;fill:#000000;fill-opacity:1;"/>
        </g>
        <g id="Shape33">
            <desc shapeID="33" type="0" basicInfo-basicType="0" basicInfo-roundedRectRadius="12" basicInfo-polygonSides="6" basicInfo-starPoints="5" bounding="rect(-20.5581,-28.4798,41.1161,56.9595)" text="" font-familyName="Helvetica" font-pixelSize="20" font-bold="0" font-underline="0" font-alignment="1" strokeStyle="0" markerStart="0" markerEnd="0" shadowEnabled="0" shadowOffsetX="0" shadowOffsetY="2" shadowBlur="4" shadowOpacity="160" blurEnabled="0" blurRadius="4" transform="matrix(0.936197,0,0,1.06565,414.41,640.452)" pers-center="0,0" pers-size="0,0" pers-start="0,0" pers-end="0,0" locked="0" mesh="" flag=""/>
            <path id="shapePath33" d="M397.336,661.076 C404.076,657.455 412.044,657.697 418.916,654.412 C421.682,653.089 424.997,650.901 425.606,647.557 C425.987,645.467 422.081,645.828 420.755,644.32 C419.104,642.44 418.186,639.88 416.908,637.655 C415.342,634.929 411.608,632.648 412.224,629.467 C412.821,626.384 418.22,627.554 419.417,624.707 C421.079,620.755 417.584,615.188 419.752,611.568 C421.106,609.308 425.714,609.79 426.945,612.139 C428.509,615.124 425.74,618.964 425.44,622.422 C425.181,625.391 426.37,628.662 425.272,631.371 C424.475,633.339 419.877,632.723 420.421,634.799 C421.247,637.954 425.422,638.173 427.614,640.321 C429.857,642.518 433.973,644.4 433.637,647.747 C433.167,652.405 429.105,655.842 425.774,658.6 C422.156,661.596 417.563,662.652 413.395,664.504 C408.415,666.715 403.641,670.016 398.34,670.787 C396.86,671.002 395.381,668.835 395.207,667.148 C394.983,664.984 395.605,662.006 397.336,661.076 Z" style="stroke:none;fill-rule:evenodd;fill:#000000;fill-opacity:1;"/>
        </g>
        <g id="Shape34">
            <desc shapeID="34" type="0" basicInfo-basicType="0" basicInfo-roundedRectRadius="12" basicInfo-polygonSides="6" basicInfo-starPoints="5" bounding="rect(-78.4064,-30.5057,156.813,61.0113)" text="" font-familyName="Helvetica" font-pixelSize="20" font-bold="0" font-underline="0" font-alignment="1" strokeStyle="0" markerStart="0" markerEnd="0" shadowEnabled="0" shadowOffsetX="0" shadowOffsetY="2" shadowBlur="4" shadowOpacity="160" blurEnabled="0" blurRadius="4" transform="matrix(0.936197,0,0,1.06565,755.12,661.92)" pers-center="0,0" pers-size="0,0" pers-start="0,0" pers-end="0,0" locked="0" mesh="" flag=""/>
            <path id="shapePath34" d="M682.174,653.395 C690.574,662.469 702.23,666.81 713.032,671.564 C716.274,672.99 719.431,674.041 722.78,675.102 C726.543,676.295 729.938,676.807 733.675,678.104 C740.078,680.327 746.863,680.733 753.467,681.98 C761.406,683.479 769.308,685.295 777.303,686.341 C779.841,686.672 785.665,688.592 788.132,689.354 C794.184,691.222 796.303,695.681 802.416,694.093 C807.713,692.715 809.469,684.552 811.992,679.073 C817.949,666.141 823.559,652.907 827.741,639.103 C828.624,636.186 829.224,631.465 826.889,629.898 C824.563,628.335 820.693,630.806 819.441,633.531 C813.899,645.593 812.487,659.664 807.523,672.048 C805.743,676.488 803.054,680.814 799.436,683.434 C797.734,684.666 795.377,683.699 793.477,682.926 C789.38,681.26 785.831,679.044 781.559,678.104 C777.169,677.138 772.574,677.404 768.152,676.651 C757.788,674.884 747.578,671.954 737.506,668.657 C731.011,666.531 726.566,666.867 720.063,664.776 C717.188,663.852 712.42,660.898 709.627,659.693 C703.454,657.03 698.647,650.519 692.176,649.035 C688.676,648.232 679.584,650.597 682.174,653.395 Z" style="stroke:none;fill-rule:evenodd;fill:#000000;fill-opacity:1;"/>
        </g>
        <g id="Shape35">
            <desc shapeID="35" type="0" basicInfo-basicType="0" basicInfo-roundedRectRadius="12" basicInfo-polygonSides="6" basicInfo-starPoints="5" bounding="rect(-83.134,-72.5199,166.27,145.039)" text="" font-familyName="Helvetica" font-pixelSize="20" font-bold="0" font-underline="0" font-alignment="1" strokeStyle="0" markerStart="0" markerEnd="0" shadowEnabled="0" shadowOffsetX="0" shadowOffsetY="2" shadowBlur="4" shadowOpacity="160" blurEnabled="0" blurRadius="4" transform="matrix(0.936197,0,0,1.06565,793.503,631.927)" pers-center="0,0" pers-size="0,0" pers-start="0,0" pers-end="0,0" locked="0" mesh="" flag=""/>
            <path id="shapePath35" d="M723.349,562.817 C734.296,565.671 744.799,570.411 755.44,574.497 C765.635,578.412 775.651,582.918 785.851,586.815 C793.628,589.786 801.616,592.017 809.359,595.097 C813.198,596.624 817.096,598.183 820.554,600.619 C828.405,606.149 835.531,612.914 843.129,618.883 C846.976,621.906 850.874,624.853 854.883,627.59 C857.722,629.529 861.978,629.648 863.652,632.9 C864.768,635.066 863.079,638.544 861.227,639.908 C856.271,643.558 850.375,645.408 844.621,646.916 C841.59,647.71 838.147,645.298 835.293,646.704 C833.325,647.674 831.415,650.77 832.121,653.075 C833.619,657.962 837.708,661.271 840.891,664.967 C843.366,667.844 846.232,670.254 849.028,672.719 C851.181,674.617 853.518,675.606 854.127,678.627 C854.786,681.897 854.448,685.389 851.933,687.138 C845.524,691.595 837.555,692.18 830.633,695.495 C828.48,696.527 827.08,699.123 824.904,700.088 C822.469,701.167 819.744,701.897 817.158,701.465 C814.564,701.031 812.681,697.608 810.058,697.608 C808.499,697.608 806.09,699.903 806.831,701.465 C808.579,705.151 811.87,708.974 815.545,709.18 C822.699,709.58 829.502,705.464 836.361,703.119 C842.047,701.174 848.031,699.761 853.143,696.322 C856.81,693.854 860.017,690.134 862.018,685.853 C863.965,681.687 866.786,675.936 864.519,671.984 C860.987,665.83 852.942,665.316 847.737,660.964 C846.31,659.77 843.651,656.928 845.075,655.729 C849.683,651.849 856.47,652.867 861.372,649.484 C864.766,647.143 867.534,643.32 869.088,639.163 C870.847,634.456 871.998,628.923 870.913,623.959 C870.416,621.684 867.057,622.302 865.189,621.314 C862.476,619.88 859.791,618.37 857.186,616.697 C847.241,610.31 837.52,603.477 827.549,597.141 C823.088,594.305 818.592,591.501 813.902,589.19 C807.045,585.81 800.043,582.796 792.958,580.091 C783.831,576.605 774.453,574.019 765.299,570.627 C758.566,568.133 752.033,564.977 745.314,562.438 C738.546,559.88 731.589,557.993 724.85,555.34 C717.591,552.483 709.199,559.128 723.349,562.817 Z" style="stroke:none;fill-rule:evenodd;fill:#000000;fill-opacity:1;"/>
        </g>
        <g id="Shape36">
            <desc shapeID="36" type="0" basicInfo-basicType="0" basicInfo-roundedRectRadius="12" basicInfo-polygonSides="6" basicInfo-starPoints="5" bounding="rect(0,0,0,0)" text="" font-familyName="Helvetica" font-pixelSize="20" font-bold="0" font-underline="0" font-alignment="1" strokeStyle="0" markerStart="0" markerEnd="0" shadowEnabled="0" shadowOffsetX="0" shadowOffsetY="2" shadowBlur="4" shadowOpacity="160" blurEnabled="0" blurRadius="4" transform="matrix(0.936197,0,-0.0549381,0.933487,131.901,148.362)" pers-center="0,0" pers-size="0,0" pers-start="0,0" pers-end="0,0" locked="0" mesh="" flag=""/>
            <path id="shapePath36" d="M131.901,148.362 Z" style="stroke:none;fill-rule:evenodd;fill:#000000;fill-opacity:1;"/>
        </g>
        <g id="Shape37">
            <desc shapeID="37" type="0" basicInfo-basicType="0" basicInfo-roundedRectRadius="12" basicInfo-polygonSides="6" basicInfo-starPoints="5" bounding="rect(-28.3471,-32.9454,56.6942,65.8909)" text="" font-familyName="Helvetica" font-pixelSize="20" font-bold="0" font-underline="0" font-alignment="1" strokeStyle="0" markerStart="0" markerEnd="0" shadowEnabled="0" shadowOffsetX="0" shadowOffsetY="2" shadowBlur="4" shadowOpacity="160" blurEnabled="0" blurRadius="4" transform="matrix(0.936197,0,-0.0549381,0.933487,311.565,240.551)" pers-center="0,0" pers-size="0,0" pers-start="0,0" pers-end="0,0" locked="0" mesh="" flag=""/>
            <path id="shapePath37" d="M288.63,270.79 C290.781,273.029 295.399,267.436 296.058,264.279 C297.14,259.099 293.663,254.204 293.176,249.027 C292.76,244.619 293.205,240.12 293.361,235.661 C293.508,231.395 293.004,227.045 294.086,222.86 C294.32,221.953 296.038,221.8 296.833,222.232 C300.847,224.417 304.314,227.449 307.826,230.34 C311.262,233.167 314.293,236.448 317.651,239.363 C319.299,240.793 321.053,241.97 322.023,243.935 C323.162,246.24 322.73,248.713 323.49,251.186 C324.265,253.711 325.721,255.991 327.345,258.039 C328.808,259.883 330.205,262.935 332.635,262.719 C334.954,262.513 336.902,259.478 337.123,257.17 C337.354,254.769 334.843,253.075 333.76,250.993 C332.292,248.167 330.883,245.309 329.472,242.452 C328.014,239.502 327.585,235.771 325.155,233.573 C318.778,227.802 310.585,224.3 303.699,219.128 C300.444,216.683 298.402,212.731 294.809,210.782 C292.984,209.792 289.825,209.159 288.418,210.835 C286.223,213.45 286.876,217.377 286.496,220.685 C285.81,226.653 285.43,232.641 285.226,238.617 C285.06,243.481 284.882,248.376 285.39,253.178 C286.02,259.138 284.559,266.555 288.63,270.79 Z" style="stroke:none;fill-rule:evenodd;fill:#000000;fill-opacity:1;"/>
        </g>
        <g id="Shape38">
            <desc shapeID="38" type="0" basicInfo-basicType="0" basicInfo-roundedRectRadius="12" basicInfo-polygonSides="6" basicInfo-starPoints="5" bounding="rect(-40.6617,-28.9925,81.3236,57.9853)" text="" font-familyName="Helvetica" font-pixelSize="20" font-bold="0" font-underline="0" font-alignment="1" strokeStyle="0" markerStart="0" markerEnd="0" shadowEnabled="0" shadowOffsetX="0" shadowOffsetY="2" shadowBlur="4" shadowOpacity="160" blurEnabled="0" blurRadius="4" transform="matrix(0.936197,0,-0.0549381,0.933487,711.272,302.893)" pers-center="0,0" pers-size="0,0" pers-start="0,0" pers-end="0,0" locked="0" mesh="" flag=""/>
            <path id="shapePath38" d="M677.981,306.395 C675.474,308.889 671.309,312.685 672.894,315.632 C674.296,318.236 679.194,315.221 681.92,313.715 C687.691,310.528 692.115,305.17 697.823,301.864 C703.24,298.729 709.147,296.538 715.033,294.545 C722.554,291.997 730.178,289.568 737.947,288.271 C739.221,288.059 741.363,288.92 741.155,290.188 C740.221,295.889 736.449,300.958 734.948,306.57 C733.296,312.75 731.736,319.09 731.744,325.391 C731.745,327.293 733.111,329.581 734.972,329.922 C736.673,330.234 738.728,328.447 739.352,326.785 C741.231,321.768 740.943,316.304 742.022,311.101 C742.572,308.452 743.457,305.864 744.231,303.258 C746.218,296.569 749.015,290.036 750.305,283.217 C750.739,280.924 751.129,277.747 749.306,276.421 C747.375,275.016 744.334,276.47 741.924,277.118 C733.927,279.271 726.154,282.331 718.228,284.786 C712.089,286.688 705.608,287.493 699.734,290.188 C696.551,291.648 694.466,294.882 691.644,296.985 C687.207,300.291 681.907,302.492 677.981,306.395 Z" style="stroke:none;fill-rule:evenodd;fill:#000000;fill-opacity:1;"/>
        </g>
        <g id="Shape39">
            <desc shapeID="39" type="0" basicInfo-basicType="0" basicInfo-roundedRectRadius="12" basicInfo-polygonSides="6" basicInfo-starPoints="5" bounding="rect(0,0,0,0)" text="" font-familyName="Helvetica" font-pixelSize="20" font-bold="0" font-underline="0" font-alignment="1" strokeStyle="0" markerStart="0" markerEnd="0" shadowEnabled="0" shadowOffsetX="0" shadowOffsetY="2" shadowBlur="4" shadowOpacity="160" blurEnabled="0" blurRadius="4" transform="matrix(0.936197,0,0,1.06565,388.716,709.206)" pers-center="0,0" pers-size="0,0" pers-start="0,0" pers-end="0,0" locked="0" mesh="" flag=""/>
            <path id="shapePath39" d="M388.716,709.206 Z" style="stroke:none;fill-rule:evenodd;fill:#000000;fill-opacity:1;"/>
        </g>
        <g id="Shape40">
            <desc shapeID="40" type="0" basicInfo-basicType="0" basicInfo-roundedRectRadius="12" basicInfo-polygonSides="6" basicInfo-starPoints="5" bounding="rect(0,0,0,0)" text="" font-familyName="Helvetica" font-pixelSize="20" font-bold="0" font-underline="0" font-alignment="1" strokeStyle="0" markerStart="0" markerEnd="0" shadowEnabled="0" shadowOffsetX="0" shadowOffsetY="2" shadowBlur="4" shadowOpacity="160" blurEnabled="0" blurRadius="4" transform="matrix(0.936197,0,0,1.06565,542.975,694.191)" pers-center="0,0" pers-size="0,0" pers-start="0,0" pers-end="0,0" locked="0" mesh="" flag=""/>
            <path id="shapePath40" d="M542.975,694.191 Z" style="stroke:none;fill-rule:evenodd;fill:#000000;fill-opacity:1;"/>
        </g>
        <g id="Shape41">
            <desc shapeID="41" type="0" basicInfo-basicType="0" basicInfo-roundedRectRadius="12" basicInfo-polygonSides="6" basicInfo-starPoints="5" bounding="rect(0,0,0,0)" text="" font-familyName="Helvetica" font-pixelSize="20" font-bold="0" font-underline="0" font-alignment="1" strokeStyle="0" markerStart="0" markerEnd="0" shadowEnabled="0" shadowOffsetX="0" shadowOffsetY="2" shadowBlur="4" shadowOpacity="160" blurEnabled="0" blurRadius="4" transform="matrix(0.936197,0,0,1.06565,560.835,710.805)" pers-center="0,0" pers-size="0,0" pers-start="0,0" pers-end="0,0" locked="0" mesh="" flag=""/>
            <path id="shapePath41" d="M560.835,710.805 Z" style="stroke:none;fill-rule:evenodd;fill:#000000;fill-opacity:1;"/>
        </g>
        <g id="Shape42">
            <desc shapeID="42" type="0" basicInfo-basicType="0" basicInfo-roundedRectRadius="12" basicInfo-polygonSides="6" basicInfo-starPoints="5" bounding="rect(-173.233,-38.4754,346.467,76.9509)" text="" font-familyName="Helvetica" font-pixelSize="20" font-bold="0" font-underline="0" font-alignment="1" strokeStyle="0" markerStart="0" markerEnd="0" shadowEnabled="0" shadowOffsetX="0" shadowOffsetY="2" shadowBlur="4" shadowOpacity="160" blurEnabled="0" blurRadius="4" transform="matrix(0.936197,0,-0.0549381,0.933487,502.689,284.462)" pers-center="0,0" pers-size="0,0" pers-start="0,0" pers-end="0,0" locked="0" mesh="" flag=""/>
            <path id="shapePath42" d="M341.953,265.633 C344.739,268.964 350.424,268.419 354.892,268.539 C359.553,268.665 364.188,266.867 368.859,266.36 C386.511,264.446 404.206,263.459 421.842,261.276 C427.062,260.631 432.11,257.96 437.336,257.887 C443.888,257.796 450.035,260.913 456.588,260.792 C463.34,260.668 469.987,256.869 476.709,257.161 C486.974,257.607 496.628,261.402 506.715,262.97 C513.245,263.987 520.097,263.425 526.509,264.907 C540.771,268.204 554.667,272.712 568.512,277.253 C581.991,281.674 595.726,285.682 608.445,291.778 C614.092,294.485 617.598,300.356 623.056,303.398 C631.029,307.842 640.189,310.036 648.406,314.049 C651.795,315.704 653.976,319.711 657.747,320.344 C659.772,320.683 662.188,318.469 662.831,316.47 C663.521,314.322 662.651,311.589 661.017,310.176 C657.903,307.486 653.564,306.532 649.663,305.092 C644.362,303.137 638.259,302.899 633.452,300.009 C624.779,294.794 618.711,287.48 609.866,282.541 C605.381,280.036 599.422,279.642 594.433,278.223 C583.794,275.195 573.473,271.292 562.998,267.812 C553.312,264.594 543.931,260.478 533.949,258.13 C525.328,256.101 516.207,256.211 507.443,254.741 C497.443,253.062 487.845,249.533 477.693,248.689 C469.253,247.987 460.63,250.092 452.116,250.14 C446.677,250.172 441.367,248.544 435.921,248.931 C428.75,249.439 421.726,251.904 414.572,252.804 C411.417,253.201 408.262,252.474 405.103,252.804 C397.407,253.607 389.767,255.195 382.083,256.193 C374.841,257.132 367.57,257.625 360.332,258.614 C356.34,259.159 352.219,259.338 348.412,260.792 C345.918,261.745 340.324,263.686 341.953,265.633 Z" style="stroke:none;fill-rule:evenodd;fill:#060606;fill-opacity:1;"/>
        </g>
        <g id="Shape43">
            <desc shapeID="43" type="0" basicInfo-basicType="0" basicInfo-roundedRectRadius="12" basicInfo-polygonSides="6" basicInfo-starPoints="5" bounding="rect(0,0,0,0)" text="" font-familyName="Helvetica" font-pixelSize="20" font-bold="0" font-underline="0" font-alignment="1" strokeStyle="0" markerStart="0" markerEnd="0" shadowEnabled="0" shadowOffsetX="0" shadowOffsetY="2" shadowBlur="4" shadowOpacity="160" blurEnabled="0" blurRadius="4" transform="matrix(0.936197,0,-0.0549381,0.933487,459.585,259.406)" pers-center="0,0" pers-size="0,0" pers-start="0,0" pers-end="0,0" locked="0" mesh="" flag=""/>
            <path id="shapePath43" d="M459.585,259.406 Z" style="stroke:none;fill-rule:evenodd;fill:#000000;fill-opacity:1;"/>
        </g>
        <g id="Shape44">
            <desc shapeID="44" type="0" basicInfo-basicType="0" basicInfo-roundedRectRadius="12" basicInfo-polygonSides="6" basicInfo-starPoints="5" bounding="rect(-6.44819,-19.6947,12.8967,39.3895)" text="" font-familyName="Helvetica" font-pixelSize="20" font-bold="0" font-underline="0" font-alignment="1" strokeStyle="0" markerStart="0" markerEnd="0" shadowEnabled="0" shadowOffsetX="0" shadowOffsetY="2" shadowBlur="4" shadowOpacity="160" blurEnabled="0" blurRadius="4" transform="matrix(0.936197,0,-0.0549381,0.933487,455.145,277.13)" pers-center="0,0" pers-size="0,0" pers-start="0,0" pers-end="0,0" locked="0" mesh="" flag=""/>
            <path id="shapePath44" d="M458.607,258.799 C455.225,259.609 454.884,264.823 453.7,268.099 C452.558,271.261 452.532,274.664 451.704,277.904 C450.774,281.545 448.516,285.012 448.432,288.72 C448.38,290.98 449.704,293.196 451.325,294.684 C452.27,295.55 454.233,295.877 455.261,294.987 C456.187,294.186 455.172,292.623 455.064,291.449 C454.945,290.161 454.199,288.873 454.58,287.607 C455.837,283.441 458.472,279.714 459.85,275.579 C460.867,272.528 461.953,269.315 461.721,266.178 C461.521,263.474 461.304,258.154 458.607,258.799 Z" style="stroke:none;fill-rule:evenodd;fill:#000000;fill-opacity:1;"/>
        </g>
        <g id="Shape45">
            <desc shapeID="45" type="0" basicInfo-basicType="0" basicInfo-roundedRectRadius="12" basicInfo-polygonSides="6" basicInfo-starPoints="5" bounding="rect(-5.85532,-18.9371,11.7107,37.8741)" text="" font-familyName="Helvetica" font-pixelSize="20" font-bold="0" font-underline="0" font-alignment="1" strokeStyle="0" markerStart="0" markerEnd="0" shadowEnabled="0" shadowOffsetX="0" shadowOffsetY="2" shadowBlur="4" shadowOpacity="160" blurEnabled="0" blurRadius="4" transform="matrix(0.936197,0,-0.0549381,0.933487,480.883,280.612)" pers-center="0,0" pers-size="0,0" pers-start="0,0" pers-end="0,0" locked="0" mesh="" flag=""/>
            <path id="shapePath45" d="M482.342,263.752 C479.846,267.708 479.126,272.46 477.817,276.893 C476.676,280.759 474.808,284.669 474.998,288.619 C475.16,291.961 476.564,295.353 478.822,297.716 C479.823,298.763 482.072,298.224 483.306,297.312 C484.266,296.602 484.221,295.001 484.016,293.875 C483.711,292.205 482.108,291.008 481.85,289.326 C481.481,286.92 481.511,284.349 482.183,281.947 C483.125,278.58 485.867,275.751 486.601,272.344 C487.215,269.496 487.357,266.275 486.107,263.752 C485.564,262.657 483.027,262.666 482.342,263.752 Z" style="stroke:none;fill-rule:evenodd;fill:#000000;fill-opacity:1;"/>
        </g>
        <g id="Shape46">
            <desc shapeID="46" type="0" basicInfo-basicType="0" basicInfo-roundedRectRadius="12" basicInfo-polygonSides="6" basicInfo-starPoints="5" bounding="rect(-5.00112,-16.3115,10.0021,32.6229)" text="" font-familyName="Helvetica" font-pixelSize="20" font-bold="0" font-underline="0" font-alignment="1" strokeStyle="0" markerStart="0" markerEnd="0" shadowEnabled="0" shadowOffsetX="0" shadowOffsetY="2" shadowBlur="4" shadowOpacity="160" blurEnabled="0" blurRadius="4" transform="matrix(0.936197,0,-0.0549381,0.933487,510.4,285.332)" pers-center="0,0" pers-size="0,0" pers-start="0,0" pers-end="0,0" locked="0" mesh="" flag=""/>
            <path id="shapePath46" d="M508.338,271.201 C507.138,274.199 508.989,277.493 508.688,280.658 C508.302,284.69 507.011,288.64 506.29,292.646 C505.843,295.127 504.376,297.801 505.186,300.116 C505.559,301.181 507.868,300.108 508.566,299.152 C511.159,295.594 513.067,291.53 514.452,287.405 C515.279,284.947 515.364,282.269 515.084,279.754 C514.74,276.666 514.497,273.238 512.61,270.845 C511.756,269.762 508.874,269.857 508.338,271.201 Z" style="stroke:none;fill-rule:evenodd;fill:#000000;fill-opacity:1;"/>
        </g>
    </g>
    <g id="Layer6" name="old_text" opacity="1">
        <g id="Shape47">
            <desc shapeID="47" type="0" basicInfo-basicType="0" basicInfo-roundedRectRadius="12" basicInfo-polygonSides="6" basicInfo-starPoints="5" bounding="rect(-3.69545,-15.4592,7.391,30.9186)" text="" font-familyName="" font-pixelSize="20" font-bold="0" font-underline="0" font-alignment="1" strokeStyle="0" markerStart="0" markerEnd="0" shadowEnabled="0" shadowOffsetX="0" shadowOffsetY="2" shadowBlur="4" shadowOpacity="160" blurEnabled="0" blurRadius="4" transform="matrix(1.6013,0.0996124,-0.0996124,1.6013,655.179,752.015)" pers-center="0,0" pers-size="0,0" pers-start="0,0" pers-end="0,0" locked="0" mesh="" flag=""/>
            <path id="shapePath47" d="M652.01,728.856 C649.349,732.87 648.816,756.949 651.352,773.022 C651.884,777.395 655.217,778.084 658.489,774.59 C660.209,772.769 660.309,771.167 659.117,767.075 C658.335,764.132 657.642,754.605 657.549,745.758 C657.616,736.921 657.294,729.185 656.864,728.355 C655.852,726.523 653.581,726.864 652.01,728.856 Z" style="stroke:none;fill-rule:evenodd;fill:#000000;fill-opacity:1;"/>
        </g>
        <g id="Shape48">
            <desc shapeID="48" type="0" basicInfo-basicType="0" basicInfo-roundedRectRadius="12" basicInfo-polygonSides="6" basicInfo-starPoints="5" bounding="rect(-9.68803,-19.8323,19.3761,39.6645)" text="" font-familyName="" font-pixelSize="20" font-bold="0" font-underline="0" font-alignment="1" strokeStyle="0" markerStart="0" markerEnd="0" shadowEnabled="0" shadowOffsetX="0" shadowOffsetY="2" shadowBlur="4" shadowOpacity="160" blurEnabled="0" blurRadius="4" transform="matrix(1.6013,0.0996124,-0.0996124,1.6013,602.973,757.641)" pers-center="0,0" pers-size="0,0" pers-start="0,0" pers-end="0,0" locked="0" mesh="" flag=""/>
            <path id="shapePath48" d="M592.812,726.942 C592.241,728.353 592.132,730.115 592.563,730.945 C592.983,731.935 592.273,733.017 590.802,733.407 C588.67,734.079 588.301,737.431 587.837,757.817 C587.293,782.057 588.607,789.372 592.98,788.841 C595.742,788.37 596.401,782.945 595.726,767.953 C595.293,759.406 596.144,758.656 604.71,757.903 C609.724,757.411 610.925,756.2 615.606,748.132 C619.407,741.295 620.407,738.142 619.396,736.311 C617.083,732.149 609.635,727.827 601.538,726.198 C595.513,724.859 593.732,725.07 592.812,726.942 M608.077,737.376 C613.812,740.787 609.291,748.865 600.694,750.097 C595.491,751.06 595.501,750.9 595.889,744.655 C596.109,741.132 595.877,737.099 595.486,735.628 C594.815,733.496 595.636,733.226 599.909,734.296 C602.912,735.125 606.525,736.475 608.077,737.376 Z" style="stroke:none;fill-rule:evenodd;fill:#000000;fill-opacity:1;"/>
        </g>
        <g id="Shape49">
            <desc shapeID="49" type="0" basicInfo-basicType="0" basicInfo-roundedRectRadius="12" basicInfo-polygonSides="6" basicInfo-starPoints="5" bounding="rect(-12.427,-16.79,24.8539,33.5798)" text="" font-familyName="" font-pixelSize="20" font-bold="0" font-underline="0" font-alignment="1" strokeStyle="0" markerStart="0" markerEnd="0" shadowEnabled="0" shadowOffsetX="0" shadowOffsetY="2" shadowBlur="4" shadowOpacity="160" blurEnabled="0" blurRadius="4" transform="matrix(1.6013,0.0996124,-0.0996124,1.6013,704.694,763.809)" pers-center="0,0" pers-size="0,0" pers-start="0,0" pers-end="0,0" locked="0" mesh="" flag=""/>
            <path id="shapePath49" d="M703.973,738.519 C699.57,739.531 697.369,741.323 694.819,746.148 C689.197,756.407 684.497,767.367 684.277,770.891 C683.899,776.975 693.069,784.619 705.349,788.758 C717.95,792.918 721.994,792.527 721.522,787.192 C721.381,784.29 719.679,783.219 712.573,781.17 C698.831,777.261 694.006,774.711 693.605,770.827 C693.213,766.784 696.953,755.764 700.134,751.14 C703.825,746.065 711.411,743 716.946,744.469 C722.961,745.969 726.933,744.127 725.871,740.524 C724.93,737.572 713.58,736.544 703.973,738.519 Z" style="stroke:none;fill-rule:evenodd;fill:#000000;fill-opacity:1;"/>
        </g>
        <g id="Shape50">
            <desc shapeID="50" type="0" basicInfo-basicType="0" basicInfo-roundedRectRadius="12" basicInfo-polygonSides="6" basicInfo-starPoints="5" bounding="rect(-16.7665,-19.0565,33.5331,38.113)" text="" font-familyName="" font-pixelSize="20" font-bold="0" font-underline="0" font-alignment="1" strokeStyle="0" markerStart="0" markerEnd="0" shadowEnabled="0" shadowOffsetX="0" shadowOffsetY="2" shadowBlur="4" shadowOpacity="160" blurEnabled="0" blurRadius="4" transform="matrix(1.6013,0.0996124,-0.0996124,1.6013,520.575,756.729)" pers-center="0,0" pers-size="0,0" pers-start="0,0" pers-end="0,0" locked="0" mesh="" flag=""/>
            <path id="shapePath50" d="M540.742,730.579 C540.152,732.311 538.781,733.672 537.82,733.612 C536.7,733.542 534.838,735.035 533.598,736.886 C532.347,738.898 529.606,741.621 527.264,743.083 C522.572,746.167 520.229,745.057 509.138,734.721 C503.061,729.039 501.5,728.299 498.528,729.56 C496.707,730.412 495.176,731.763 495.136,732.403 C495.016,734.325 509.983,749.563 512.064,749.693 C512.865,749.743 512.976,750.553 512.435,751.484 C511.745,752.245 512.256,754.366 513.448,755.887 C515.82,759.089 518.406,771.788 517.988,778.514 C517.559,785.399 523.666,790.602 526.076,785.447 C527.006,783.415 524.937,757.245 523.736,755.884 C523.435,755.544 529.259,749.798 536.732,743.35 C544.056,736.733 549.739,730.656 549.159,729.656 C547.586,726.503 541.752,727.266 540.742,730.579 Z" style="stroke:none;fill-rule:evenodd;fill:#000000;fill-opacity:1;"/>
        </g>
        <g id="Shape51">
            <desc shapeID="51" type="0" basicInfo-basicType="0" basicInfo-roundedRectRadius="12" basicInfo-polygonSides="6" basicInfo-starPoints="5" bounding="rect(-18.3875,-27.0012,36.7749,54.0025)" text="" font-familyName="" font-pixelSize="20" font-bold="0" font-underline="0" font-alignment="1" strokeStyle="0" markerStart="0" markerEnd="0" shadowEnabled="0" shadowOffsetX="0" shadowOffsetY="2" shadowBlur="4" shadowOpacity="160" blurEnabled="0" blurRadius="4" transform="matrix(1.6013,0.0996124,-0.0996124,1.6013,389.71,764.409)" pers-center="0,0" pers-size="0,0" pers-start="0,0" pers-end="0,0" locked="0" mesh="" flag=""/>
            <path id="shapePath51" d="M380.973,722.569 C380.183,724.931 367.073,759.963 364.202,767.34 C360.952,775.657 360.253,779.15 358.725,790.79 C357.197,802.43 358.35,807.163 362.292,805.801 C364.093,805.27 365.313,801.166 366.591,790.958 C368.389,777.567 371.468,766.827 373.72,766.807 C374.371,766.686 380.315,766.734 387.231,766.682 L399.45,766.638 L403.966,774.153 C406.449,778.166 408.402,782.949 408.292,784.711 C408.173,786.633 409.515,788.323 411.567,788.933 C421.015,792.092 419.872,784.627 408.006,763.474 C402.349,753.638 396.872,743.491 395.73,741.17 C394.438,738.678 393.026,735.536 392.306,734.205 C391.424,732.864 390.042,729.241 389.1,726.289 C387.337,721.036 382.343,718.635 380.973,722.569 M387.094,743.044 C388.215,745.686 390.218,749.668 391.67,752.17 C393.983,756.332 393.973,756.493 391.201,757.123 C385.017,758.346 376.239,757.318 376.349,755.556 C376.538,752.514 382.879,738.442 384.16,738.521 C384.64,738.551 386.122,740.572 387.094,743.044 Z" style="stroke:none;fill-rule:evenodd;fill:#000000;fill-opacity:1;"/>
        </g>
        <g id="Shape52">
            <desc shapeID="52" type="0" basicInfo-basicType="0" basicInfo-roundedRectRadius="12" basicInfo-polygonSides="6" basicInfo-starPoints="5" bounding="rect(-15.2548,-17.299,30.5096,34.5981)" text="" font-familyName="" font-pixelSize="20" font-bold="0" font-underline="0" font-alignment="1" strokeStyle="0" markerStart="0" markerEnd="0" shadowEnabled="0" shadowOffsetX="0" shadowOffsetY="2" shadowBlur="4" shadowOpacity="160" blurEnabled="0" blurRadius="4" transform="matrix(1.6013,0.0996124,-0.0996124,1.6013,457.808,757.39)" pers-center="0,0" pers-size="0,0" pers-start="0,0" pers-end="0,0" locked="0" mesh="" flag=""/>
            <path id="shapePath52" d="M436.82,729.258 C434.668,730.249 434.449,731.2 435.571,733.842 C436.852,736.494 438.744,737.093 446.75,737.591 L456.518,738.199 L455.078,743.254 C454.259,746.096 451.579,753.002 448.998,758.307 C446.408,763.773 443.868,771.009 443.188,774.181 C442.038,779.736 442.319,780.397 446.843,782.607 C452.929,785.558 475.027,786.933 478.399,784.41 C479.74,783.528 480.84,781.346 480.94,779.745 C481.109,777.022 480.158,776.803 469.54,776.946 C463.105,777.028 456.229,776.44 454.518,775.529 L451.074,774.029 L454.924,763.82 C457.044,758.165 460.824,749.077 463.415,743.612 C466.216,737.356 467.445,733.092 466.544,732.071 C464.742,730.031 440.132,727.695 436.82,729.258 Z" style="stroke:none;fill-rule:evenodd;fill:#000000;fill-opacity:1;"/>
        </g>
        <g id="Shape53">
            <desc shapeID="53" type="0" basicInfo-basicType="0" basicInfo-roundedRectRadius="12" basicInfo-polygonSides="6" basicInfo-starPoints="5" bounding="rect(-18.9858,-21.059,37.9718,42.1179)" text="" font-familyName="" font-pixelSize="20" font-bold="0" font-underline="0" font-alignment="1" strokeStyle="0" markerStart="0" markerEnd="0" shadowEnabled="0" shadowOffsetX="0" shadowOffsetY="2" shadowBlur="4" shadowOpacity="160" blurEnabled="0" blurRadius="4" transform="matrix(1.6013,0.0996124,-0.0996124,1.6013,303.458,764.209)" pers-center="0,0" pers-size="0,0" pers-start="0,0" pers-end="0,0" locked="0" mesh="" flag=""/>
            <path id="shapePath53" d="M275.852,730.176 C274.272,732.328 272.989,763.272 274.173,772.67 C275.126,780.606 276.318,784.699 280.133,793.135 C282.246,797.927 285.129,798.107 301.761,794.319 C307.626,793.076 313.96,792.023 315.561,792.123 C325.65,792.751 334.996,787.223 332.252,782.231 C331.822,781.4 323.905,782.033 314.809,783.556 C305.551,785.07 295.494,786.535 292.262,786.816 L286.277,787.408 L283.332,777.901 C281.058,770.526 280.495,764.061 280.852,750.581 C281.299,740.802 281.527,731.975 281.596,730.854 C281.576,728.603 277.433,728.023 275.852,730.176 Z" style="stroke:none;fill-rule:evenodd;fill:#000000;fill-opacity:1;"/>
        </g>
    </g>
</svg>
